<svg width="1500" height="1500" viewBox="0 0 1500 1500" fill="none" xmlns="http://www.w3.org/2000/svg">
<path d="M579.701 566.819C583.104 534.192 579.701 482.819 579.701 482.819C579.701 482.819 579.636 481.901 579.701 481.319C580.158 477.202 584.201 473.819 587.201 476.819C590.201 479.819 596.531 488.795 600 492C604.059 495.751 604.602 501.653 606 507C607.398 512.347 606.987 514.342 607.5 519C608.231 525.639 609.701 535.319 609.701 535.319L612.701 556.319V565.319V579V598.5V612C612.701 619.319 613.775 619.772 615 625.5C616.225 631.228 617.648 636.262 619.5 641.819C621.352 647.377 620.882 649.377 624.701 653.819C629.021 658.845 631.596 661.593 636.701 665.819C640.582 669.033 643.233 670.212 647.201 673.319C652.103 677.158 659.201 683.819 659.201 683.819C659.201 683.819 664.5 687 694.5 686.819C698.764 686.794 737.896 685.012 740.201 686.819C742.505 688.627 742.367 691.049 744.701 692.819C749.834 696.714 756.067 696.714 761.201 692.819C763.534 691.049 763.394 688.625 765.701 686.819C768.184 684.874 770.149 684.618 773.201 683.819C779.434 682.187 783.257 683.819 789.701 683.819C794.973 683.819 798.04 684.899 803.201 683.819C809.611 682.478 812.925 680.201 818.201 676.319C822.838 672.906 824.974 670.324 828.623 665.913L828.701 665.819C832.739 660.937 837.701 652.319 837.701 652.319L843.701 638.819C843.701 638.819 849.445 627.287 851.201 619.319C853.721 607.878 851.201 589.319 851.201 589.319L848.201 571.319L843.701 551.819C843.701 551.819 841.5 541.59 839.201 535.319C837 529.319 836.566 527.619 837 523.5C838.226 511.849 837 505.216 837 493.5C837 486.471 836.201 478.5 839.201 474C842.201 469.5 844.5 471 846 474C847.5 477 847.972 479.312 848.201 482.819C848.829 492.46 852.028 497.406 854.201 506.819C856.087 514.992 856.182 519.819 858.701 527.819C861.38 536.33 867.701 548.819 867.701 548.819L876.701 566.819C876.701 566.819 883.811 580.046 885.701 589.319C888.634 603.715 888.091 611.004 885.701 625.5C884.729 631.394 884.757 636.211 882.701 641.819C880.624 647.482 878.983 655.737 876.701 661.319C873.959 668.026 867.701 673.319 867.701 673.319V679.319C867.701 686.819 902.201 653.819 902.201 653.819L918.701 638.819C918.701 638.819 930.803 627.841 936.701 619.319C942.663 610.702 948.701 595.319 948.701 595.319L959.201 577.319L966.701 565.319L972.701 551.819C972.701 551.819 975.119 544.615 975.701 539.819C976.264 535.167 975.701 532.505 975.701 527.819C975.701 521.961 977.121 518.502 975.701 512.819C974.43 507.736 973.873 503.989 969.701 500.819C967.189 498.911 965.042 499.19 962.201 497.819C956.493 495.067 954.341 491.706 948.701 488.819C942.597 485.695 938.357 485.838 932.201 482.819C924.615 479.1 914.201 470.819 914.201 470.819L902.201 460.319L893.201 449.819L876.701 433.319C876.701 433.319 870.136 428.652 867.701 424.319C865.611 420.602 864.701 413.819 864.701 413.819C864.701 413.819 863.201 404.819 864.701 401.819C866.201 398.819 867.731 396.915 870 397.5C875.672 398.964 875.632 409.605 879.701 413.819C884.34 418.624 887.779 420.419 893.201 424.319C898.344 428.019 902.088 428.975 906.701 433.319C910.031 436.456 910.965 439.084 914.201 442.319C917.436 445.554 921.701 445.319 923.201 449.819C924.701 454.319 930 448.5 928.5 444C927 439.5 928.143 442.079 927 439.319C925.249 435.092 925.531 432.757 923.201 428.819C920.652 424.512 920.109 421.622 918.701 416.819C917.02 411.087 916.571 407.729 915.701 401.819C914.758 395.418 913.983 391.786 914.201 385.319C914.36 380.599 915.701 373.319 915.701 373.319C915.701 373.319 918.701 367.319 923.201 376.319C927.701 385.319 926.188 397.391 932.201 409.319C936.37 417.59 945.701 428.819 945.701 428.819L965.201 454.319C965.201 454.319 980.201 469.319 977.201 460.319C974.201 451.319 980.557 443.315 977.201 433.319C975.281 427.602 973.096 424.804 969.701 419.819C964.332 411.938 953.201 401.819 953.201 401.819L942.701 386.819L923.201 364.319C923.201 364.319 912.643 353.777 906.701 346.319C900.929 339.075 893.201 326.819 893.201 326.819L879.701 304.319L870.701 286.319C870.701 286.319 862.349 268.399 858.701 256.319C855.578 245.979 852.701 229.319 852.701 229.319C852.701 229.319 850.036 216.075 852.701 208.319C854.235 203.853 857.201 188.819 858.701 197.819C860.201 206.819 890.201 256.319 890.201 256.319L915.701 295.319L936.701 326.819L965.201 359.819C965.201 359.819 972.701 373.319 969.701 353.819C966.701 334.319 979.939 314.045 969.701 292.319C965.752 283.941 956.201 272.819 956.201 272.819C956.201 272.819 950.898 264.936 948.701 259.319C947.146 255.348 947.201 251.819 945.701 248.819C944.201 245.819 950.328 248.245 953.201 248.819C959.75 250.129 962.285 254.308 966.701 259.319C972.762 266.198 984 277.5 984 277.5C984 277.5 988.771 291.429 992.201 298.5C996.432 307.225 995.589 311.187 996.701 320.819C997.103 324.311 996.701 326.304 996.701 329.819C996.701 352.665 995.201 385.319 996.701 388.319C998.201 391.319 999.809 391.742 1001.2 394.319C1003.23 398.072 1002.23 401.035 1004.2 404.819C1006.31 408.879 1009.59 409.76 1011.7 413.819C1014.46 419.119 1013.7 422.929 1014.7 428.819C1020.27 461.741 1018.77 481.178 1014.7 514.319C1013.03 527.893 1012.23 535.608 1008.7 548.819C1006.31 557.767 1004.5 562.664 1001.2 571.319C998.023 579.657 996.659 584.59 992.201 592.319C988.219 599.221 983.201 605.819 980.201 608.819C977.201 611.819 988.061 606.031 992.201 602.819C996.468 599.509 1001.2 592.319 1001.2 592.319C1001.2 592.319 1005.97 586.991 1008.7 583.319C1011.22 579.929 1014.7 574.319 1014.7 574.319L1019.2 566.819C1019.2 566.819 1023.24 560.615 1025.2 556.319C1027.51 551.264 1028.22 548.176 1029.7 542.819C1031.14 537.613 1032.7 529.319 1032.7 529.319L1037.2 506.819C1037.2 506.819 1039.62 495.922 1040.2 488.819C1040.78 481.813 1039.33 477.795 1040.2 470.819C1040.87 465.46 1043.2 457.319 1043.2 457.319C1043.2 457.319 1047.7 445.319 1047.7 442.319C1047.7 439.319 1050.7 431.819 1053.7 439.319C1056.7 446.819 1056.53 502.806 1050.7 542.819C1049.67 549.871 1047.7 560.819 1047.7 560.819C1047.7 560.819 1044.88 570.854 1043.2 577.319C1041.99 581.995 1041.86 584.781 1040.2 589.319C1038.4 594.241 1037.51 597.258 1034.2 601.319C1031.31 604.865 1028.72 605.902 1025.2 608.819C1018.79 614.129 1015.25 617.181 1008.7 622.319C1001.79 627.743 997.474 630.222 990.701 635.819C984.625 640.839 981.823 644.357 975.701 649.319C969.511 654.336 965.587 656.555 959.201 661.319C951.5 667.065 947.357 670.515 939.701 676.319C926.35 686.441 918.964 692.266 905.201 701.819C896.525 707.841 891.154 710.49 882.701 716.819C876.036 721.809 868.746 722.392 866.201 730.319C864.768 734.781 863.213 738.709 866.201 742.319C867.547 743.946 868.852 744.298 870.701 745.319C873.462 746.845 875.201 746.819 878.201 748.319C881.201 749.819 882.728 741.888 885.701 737.819C889.156 733.089 891.186 730.506 894.701 725.819C896.458 723.476 897.291 722.04 899.201 719.819C901.361 717.306 905.201 713.819 905.201 713.819C905.201 713.819 915.361 704.967 923.201 701.819C927.158 700.23 929.507 699.597 933.701 698.819C941.764 697.324 946.543 699.661 954.701 698.819C964.877 697.77 971.003 697.298 980.201 692.819C988.1 688.972 989.591 681.075 998.201 679.319C1002.22 678.5 1010.2 676.319 1008.7 679.319C1007.2 682.319 1007.49 693.486 1004.2 701.819C1000.62 710.886 995.85 714.541 990.701 722.819C982.794 735.53 980.218 743.871 971.201 755.819C968.941 758.813 967.337 760.236 965.201 763.319C962.511 767.201 961.9 769.944 959.201 773.819C956.586 777.574 954.083 778.913 951.701 782.819C950.336 785.056 948.701 788.819 948.701 788.819C948.701 788.819 947.109 791.745 945.701 793.319C943.747 795.502 939.701 797.819 939.701 797.819C939.701 797.819 936.275 800.336 933.701 800.819C931.973 801.143 930.958 800.819 929.201 800.819C926.857 800.819 925.54 800.954 923.201 800.819C911.359 800.137 906.541 789.615 894.701 790.319C884.488 790.927 866.201 796.319 870.701 800.819C875.201 805.319 873.701 805.319 873.701 808.319C873.701 811.319 864.419 824.072 863.201 835.319C862.696 839.978 863.692 842.659 863.201 847.319C861.946 859.219 854.045 864.038 851.951 875.819C850.105 886.201 849.571 882.534 853.5 892.319C856.228 899.114 860.535 910.999 863.201 917.819C866.825 927.094 863.201 933.361 863.201 943.319V965.819C863.201 965.819 863.161 1003.64 873.701 1024.32C877.169 1031.12 880.679 1034.04 884.201 1040.82C889.924 1051.83 894.701 1070.82 894.701 1070.82C900.105 1085.06 906.963 1091.84 909.701 1106.82C912.017 1119.5 909.701 1126.93 909.701 1139.82C909.701 1152.71 914.45 1160.84 909.701 1172.82C906.16 1181.75 898.307 1183.41 894.701 1192.32C889.644 1204.81 890.201 1216.32 894.701 1226.82C899.115 1237.12 881.492 1221.66 874.117 1215.18L873.701 1214.82C869.019 1210.71 869.201 1211.82 863.201 1202.82C857.201 1193.82 872.201 1238.82 872.201 1238.82C872.201 1238.82 873.432 1240.58 871.37 1243.54C870.19 1245.23 869.421 1246.45 868.979 1247.18C863.272 1258.71 854.629 1264.36 852.242 1261.12C851.558 1260.2 851.388 1258.53 851.951 1256.07C842.156 1245.75 845.201 1250.82 840.701 1237.32C836.201 1223.82 837.701 1267.32 840.701 1283.82C843.701 1300.32 821.201 1274.82 821.201 1274.82C821.201 1274.82 816.701 1274.82 821.201 1283.82C825.701 1292.82 794.201 1265.82 798.701 1274.82C803.201 1283.82 802.44 1291.96 798.701 1301.82C794.732 1312.28 785.201 1333.32 779.201 1322.82C773.201 1312.32 768.701 1307.82 764.201 1301.82C759.701 1295.82 770.151 1322.55 764.201 1333.32C758.699 1343.27 743.201 1366.32 740.201 1349.82C737.201 1333.32 731.201 1303.32 716.201 1312.32C701.201 1321.32 707.201 1321.32 702.701 1322.82C698.201 1324.32 693.701 1274.82 689.201 1283.82C684.701 1292.82 675.701 1297.32 671.201 1301.82C666.701 1306.32 666.96 1276.37 654.701 1274.82C646.38 1273.76 641.201 1283.82 635.201 1283.82C629.201 1283.82 635.201 1256.07 621.701 1253.82C615.345 1252.76 612.307 1252.88 606.701 1250.82C593.461 1245.95 588.898 1237.52 579.701 1226.82C572.285 1218.2 570.731 1211.34 563.201 1202.82C559.361 1198.47 556.674 1196.54 552.701 1192.32C545.866 1185.05 539.414 1182.26 536.201 1172.82C533.371 1164.5 536.201 1159.11 536.201 1150.32V1123.32C536.201 1111.6 534.164 1104.86 536.201 1093.32C538.983 1077.56 552.701 1055.82 552.701 1055.82L570.701 1024.32C570.701 1024.32 583.927 1001.53 587.201 985.319C590.448 969.242 584.339 959.47 587.201 943.319C589.012 933.098 593.252 928.098 594.701 917.819C596.091 907.958 594.701 902.278 594.701 892.319C594.701 874.746 600.636 863.86 594.701 847.319C590.967 836.916 587.628 831.021 579.701 823.319C571.049 814.914 564.161 812.081 552.701 808.319C533.777 802.109 520.022 823.969 502.5 814.5C493.382 809.573 482.201 790.319 482.201 790.319C482.201 790.319 468.123 782.511 464.201 773.819C460.104 764.743 455.886 758.216 453.701 748.5C451.573 739.04 455.765 735.293 453.701 725.819C451.705 716.662 435 700.5 442.5 694.5C450 688.5 476.136 703.629 487.5 708C507 715.5 509.782 714.74 523.5 720C537.337 725.305 552.701 737.819 552.701 737.819C552.701 737.819 587.201 749.819 594.701 757.319C602.201 764.819 581.145 736.742 573 725.819C564.566 714.51 562.125 717.492 550.5 709.5C537.547 700.595 530.864 690.635 516.701 683.819C501.586 676.545 472.201 657.819 464.201 652.319C456.235 646.843 456.002 646.503 442.674 627.074L442.5 626.819C429.886 608.431 426.701 596.819 426.701 601.319C426.701 601.319 419.404 580.639 417.701 566.819C416.124 554.029 417.701 533.819 417.701 533.819C417.701 533.819 422.201 476.819 426.701 482.819C431.201 488.819 429.086 514.094 432.701 533.819C435.083 546.819 435.474 554.477 440.201 566.819C444.23 577.342 447.401 582.977 453.701 592.319C461.588 604.016 480.701 626.819 477.701 619.319C474.701 611.819 464.201 566.819 464.201 566.819L453.701 527.819L440.201 482.819L426.701 428.819C426.701 428.819 419.11 403.534 417.701 386.819C416.765 375.729 417.701 358.319 417.701 358.319C417.701 358.319 420.245 337.865 426.701 326.819C434.019 314.298 456.701 290.819 453.701 301.319C450.701 311.819 443.036 315.914 440.201 326.819C437.105 338.725 436.609 346.123 435 358.319C432.799 375 434.929 391.275 440.201 401.819L453.701 428.819C458.973 439.363 452.061 411.146 453.701 394.319C454.78 383.242 459.701 365.819 464.201 358.319C468.701 350.819 471.441 336.037 482.201 326.819C499.5 312 501.701 272.819 501.701 272.819L507.701 229.319C507.701 229.319 521.201 214.5 521.201 222C521.201 229.5 526.452 247.628 525.701 259.319C524.866 272.299 529.648 273.926 525.701 286.319C521.004 301.066 522.515 306.477 516.701 320.819C511.894 332.676 497.473 346.449 492.701 358.319C488.009 369.989 490.41 365.764 487.5 378C484.789 389.398 476.766 405.141 477.701 416.819C478.599 428.051 481.204 434.096 482.201 445.319C483.495 459.907 482.201 475.319 482.201 482.819C482.201 490.319 501.701 468.449 501.701 457.319V428.819C501.701 428.819 504.27 412.061 507.701 401.819C511.612 390.141 521.201 378 521.201 378C521.201 378 555.701 353.819 552.701 358.319C549.701 362.819 543.027 375.92 536.201 386.819C530.596 395.769 527.201 397.319 521.201 409.319C515.201 421.319 527.201 439.319 525.701 445.319C524.201 451.319 532.143 441.737 536.201 439.319C542.762 435.41 552.044 433.6 558 428.819C566.082 422.332 570.701 409.319 570.701 409.319C570.701 409.319 596.201 377.819 594.701 386.819C593.201 395.819 590.341 400.606 587.201 409.319C584.434 416.995 584.935 422.56 579.701 428.819C574.801 434.678 568.538 444.356 563.201 449.819C557.514 455.64 557.96 451.109 552.701 457.319C543.351 468.36 521.201 476.819 521.201 476.819C521.201 476.819 507.361 488.165 501.701 497.819C495.515 508.371 492.701 527.819 492.701 527.819C492.701 527.819 489.665 551.894 492.701 566.819C494.805 577.168 497.418 582.666 501.701 592.319C506.593 603.345 509.766 609.45 516.701 619.319C523.385 628.833 536.201 641.819 536.201 641.819L563.201 665.819C563.201 665.819 596.201 697.319 594.701 683.819C593.201 670.319 584.674 663.143 579.701 649.319C575.56 637.81 572.185 631.46 570.701 619.319C568.176 598.671 577.542 587.509 579.701 566.819Z" fill="#9466FF"/>
</svg>
