<svg width="1500" height="1500" viewBox="0 0 1500 1500" fill="none" xmlns="http://www.w3.org/2000/svg">
<path d="M857 833.5C855.5 837.5 844.5 854 824 852.5C814.611 852.5 814 842.247 814 837C811.5 835.5 829 819.5 844 816C852.5 818.5 862 818.5 857 833.5Z" fill="#C6FF00"/>
<path d="M848.5 835C845.5 840 840 842.5 833 843C826 843.5 820.5 839 818.5 830.5C822.5 826.5 835 817.5 844 816C852.837 816 850.2 832.167 848.5 835Z" fill="black" fill-opacity="0.5"/>
<path d="M604.631 846.59C606.881 850.222 620.884 864.264 640.699 858.801C649.908 856.973 648.511 846.797 647.49 841.65C649.65 839.692 629.369 827.406 613.975 826.894C606.124 831.001 596.806 832.851 604.631 846.59Z" fill="#C6FF00"/>
<path d="M615.5 846.5C619.568 850.863 624.197 852.522 630.022 851.235C637.322 849.622 641.504 844.878 641.81 836.151C637.108 833.006 623.095 826.613 613.975 826.894C605.307 828.614 610.263 840.883 615.5 846.5Z" fill="black" fill-opacity="0.5"/>
<g clip-path="url(#clip0_113_2)">
<path d="M811.5 866.5C811 869 809.709 870.5 807.5 870.5C805 870 804 868.5 803.5 866.5C803.5 864.291 805.291 862.5 807.5 862.5C809.709 862.5 811.5 864.291 811.5 866.5Z" fill="#20272D" fill-opacity="0.4"/>
<path d="M872 808C872 812.5 799.5 812.5 806.5 870C800.5 866 798 849.5 802 841C808.5 822 820 809.667 827.5 808C841 805 880.5 798.5 872 808Z" fill="#20272D" fill-opacity="0.3"/>
<path d="M858.5 838C853 849.5 843.314 854.5 840 854.5C834 856.5 814 857.5 822.5 852C857.5 856.5 864 813 870 809C880 800.5 859.5 835 858.5 838Z" fill="#20272D" fill-opacity="0.3"/>
<path d="M811 864.5C810 863.5 809 862 805.5 863C806 853.5 806.5 854 807.5 849C819 818.5 809 852 822.5 852C822 856.5 810 856.5 811 864.5Z" fill="#20272D" fill-opacity="0.4"/>
<path d="M869 809.5C871 814 853.5 848.5 857 831.5C859 827 858 824 857 822C856 818.5 840.358 816 844.5 816C849.5 814 865 810 869 809.5Z" fill="#20272D" fill-opacity="0.3"/>
<path d="M862.5 819C848 810 808.5 828 812 842C805 857.5 811 837.5 813 833C817.5 827.5 815 830 820.5 825.5C846 809.5 862.5 815 862.5 819Z" fill="white" fill-opacity="0.2"/>
<path d="M656.148 870.093C657.217 872.546 658.802 873.767 660.906 873.209C663.168 872.061 663.764 870.261 663.765 868.072C663.241 865.793 661.111 864.399 659.007 864.957C656.904 865.515 655.624 867.815 656.148 870.093Z" fill="#20272D" fill-opacity="0.4"/>
<path d="M587.102 830.238C588.17 834.88 654.759 811.361 661.74 872.44C666.503 866.798 664.968 849.147 659.142 841.39C648.444 823.434 619.403 809.465 610.5 811C596 813.5 576.754 822.587 587.102 830.238Z" fill="#20272D" fill-opacity="0.3"/>
<path d="M604.632 852.572C612.598 863.044 623.008 865.754 626.163 864.917C632.351 865.464 651.632 861.442 642.233 857.916C609.975 871.401 593.462 828.174 586.8 825.565C575.261 819.324 602.968 849.73 604.632 852.572Z" fill="#20272D" fill-opacity="0.3"/>
<path d="M656.15 867.904C656.864 866.62 657.461 864.82 661.031 864.967C658.3 855.295 657.942 855.937 655.804 851.032C637.615 822.478 655.087 854.505 642.233 857.916C643.777 862.432 655.203 859.4 656.15 867.904Z" fill="#20272D" fill-opacity="0.4"/>
<path d="M587.871 825.828C587.034 830.975 611.885 862.139 604.518 845.488C601.545 841.352 601.786 838.005 602.263 835.689C602.385 831.826 616.686 825.295 612.742 826.342C607.506 825.542 591.798 825.333 587.871 825.828Z" fill="#20272D" fill-opacity="0.3"/>
<path d="M601 828.255C615.5 819.255 655 837.255 651.5 851.255C658.5 866.755 652.5 846.755 650.5 842.255C646 836.755 648.5 839.255 643 834.755C617.5 818.755 601 824.255 601 828.255Z" fill="white" fill-opacity="0.2"/>
</g>
<defs>
<clipPath id="clip0_113_2">
<rect width="1500" height="1500" fill="white"/>
</clipPath>
</defs>
</svg>
