<svg width="1500" height="1500" viewBox="0 0 1500 1500" fill="none" xmlns="http://www.w3.org/2000/svg">
<path d="M968.727 780L1027.32 880L968.727 980H854.857L796.675 880L854.857 780H968.727ZM1005.3 700H818.286C810.39 700 803.325 704.4 800 710.4L707.74 868.8L704 880L707.74 891.2L800 1049.6C803.325 1055.6 810.39 1060 818.286 1060H1005.3C1013.19 1060 1020.26 1055.6 1023.58 1049.6L1115.84 891.2L1119.58 880L1115.84 868.8L1023.58 710.4C1020.26 704.4 1013.19 700 1005.3 700ZM1353.14 1000L1410.49 1100L1353.14 1200H1239.27L1181.92 1100L1239.27 1000H1353.14ZM1389.71 920H1202.7C1194.81 920 1187.74 924.4 1184.42 930.4L1092.16 1088.8L1088.42 1100L1092.16 1111.2L1184.42 1269.6C1187.74 1275.6 1194.81 1280 1202.7 1280H1389.71C1397.61 1280 1404.68 1275.6 1408 1269.6L1500.26 1111.2L1504 1100L1500.26 1088.8L1408 930.4C1404.68 924.4 1397.61 920 1389.71 920ZM968.727 1220L1027.32 1320L968.727 1420H854.857L796.675 1320L854.857 1220H968.727ZM1005.3 1140H818.286C810.39 1140 803.325 1144.4 800 1150.4L707.74 1308.8L704 1320L707.74 1331.2L800 1489.6C803.325 1495.6 810.39 1500 818.286 1500H1005.3C1013.19 1500 1020.26 1495.6 1023.58 1489.6L1115.84 1331.2L1119.58 1320L1115.84 1308.8L1023.58 1150.4C1020.26 1144.4 1013.19 1140 1005.3 1140Z" fill="black" fill-opacity="0.2"/>
<path d="M291 341.5C256.312 341.5 228.5 313.375 228.5 279C228.5 244.312 256.312 216.5 291 216.5C325.688 216.5 353.5 244.312 353.5 279C353.5 295.576 346.915 311.473 335.194 323.194C323.473 334.915 307.576 341.5 291 341.5ZM291 29C224.696 29 161.107 55.3392 114.223 102.223C67.3392 149.107 41 212.696 41 279C41 345.304 67.3392 408.893 114.223 455.777C161.107 502.661 224.696 529 291 529C357.304 529 420.893 502.661 467.777 455.777C514.661 408.893 541 345.304 541 279C541 212.696 514.661 149.107 467.777 102.223C420.893 55.3392 357.304 29 291 29Z" fill="black" fill-opacity="0.2"/>
<path d="M386 678.75C372.819 678.75 362.25 668.062 362.25 655C362.25 641.819 372.819 631.25 386 631.25C399.181 631.25 409.75 641.819 409.75 655C409.75 661.299 407.248 667.34 402.794 671.794C398.34 676.248 392.299 678.75 386 678.75ZM386 560C360.804 560 336.641 570.009 318.825 587.825C301.009 605.641 291 629.804 291 655C291 680.196 301.009 704.359 318.825 722.175C336.641 739.991 360.804 750 386 750C411.196 750 435.359 739.991 453.175 722.175C470.991 704.359 481 680.196 481 655C481 629.804 470.991 605.641 453.175 587.825C435.359 570.009 411.196 560 386 560Z" fill="black" fill-opacity="0.2"/>
<path d="M651 166.5C635.738 166.5 623.5 154.125 623.5 139C623.5 123.738 635.738 111.5 651 111.5C666.262 111.5 678.5 123.738 678.5 139C678.5 146.293 675.603 153.288 670.445 158.445C665.288 163.603 658.293 166.5 651 166.5ZM651 29C621.826 29 593.847 40.5893 573.218 61.2183C552.589 81.8473 541 109.826 541 139C541 168.174 552.589 196.153 573.218 216.782C593.847 237.411 621.826 249 651 249C680.174 249 708.153 237.411 728.782 216.782C749.411 196.153 761 168.174 761 139C761 109.826 749.411 81.8473 728.782 61.2183C708.153 40.5893 680.174 29 651 29Z" fill="black" fill-opacity="0.2"/>
</svg>
