<svg width="1500" height="1500" viewBox="0 0 1500 1500" fill="none" xmlns="http://www.w3.org/2000/svg">
<path d="M627.989 845.552C627.989 848.249 625.978 847.994 621.495 847.994C617.011 847.994 615 842.145 615 839.448C615 836.751 619.446 837.006 623.93 837.006C628.414 837.006 627.989 842.855 627.989 845.552Z" fill="white"/>
<path d="M627.46 837.286C627.917 838.141 628.835 837.99 630.221 837.99C631.608 837.99 630.72 835.978 630.72 834.941C630.72 833.904 629.345 834.002 627.958 834.002C626.572 834.002 626.957 836.347 627.46 837.286Z" fill="white"/>
<path d="M839.989 838.552C839.989 841.249 837.978 840.994 833.495 840.994C829.011 840.994 827 835.145 827 832.448C827 829.751 831.446 830.006 835.93 830.006C840.414 830.006 839.989 835.855 839.989 838.552Z" fill="white"/>
<path d="M839.46 830.286C839.917 831.141 840.835 830.99 842.221 830.99C843.608 830.99 842.72 828.978 842.72 827.941C842.72 826.904 841.345 827.002 839.958 827.002C838.572 827.002 838.957 829.347 839.46 830.286Z" fill="white"/>
</svg>
