<svg width="1500" height="1500" viewBox="0 0 1500 1500" fill="none" xmlns="http://www.w3.org/2000/svg">
<path d="M746.28 789.959C743.886 789.959 740.974 796.339 736.471 795.986C730.644 795.528 733.43 785.755 727.887 783.932C723.256 782.409 720.288 787.771 715.626 786.343C711.1 784.957 711.761 778.354 707.042 777.905C704.028 777.619 702.559 781.258 699.685 780.316C695.143 778.828 702.223 772.254 699.685 768.263C698.609 766.569 697.183 766.275 696.007 764.646C692.394 759.641 694.781 748.977 694.781 748.977C694.781 748.977 692.376 739.499 696.007 735.718C700.28 731.268 707.926 740.389 711.947 735.718C715.35 731.765 709.054 726.786 711.947 722.459C715.928 716.507 724.283 723.96 730.34 720.048C733.17 718.221 733.106 714.398 736.471 714.021C739.033 713.734 742.601 716.432 742.601 716.432C742.601 716.432 753.644 717.018 759.768 720.048C764.045 722.164 769.577 727.28 769.577 727.28C769.577 727.28 771.084 727.13 772.029 727.28C777.121 728.088 776.504 734.282 776.934 739.334C777.341 744.118 773.593 746.667 774.482 751.388C774.951 753.88 776.586 754.903 776.934 757.414C777.468 761.26 774.179 763.187 774.482 767.057C774.714 770.026 777.456 771.357 776.934 774.289C776.406 777.258 774.212 778.2 772.029 780.316C769.097 783.16 766.117 783.26 763.446 786.343C761.636 788.432 762.354 791.334 759.768 792.37C756.963 793.493 752.411 789.959 752.411 789.959H746.28Z" fill="black" fill-opacity="0.2"/>
<path d="M709.096 842.48C707.814 844.718 704.766 843.993 704.09 846.519C702.999 850.592 712.21 847.721 712.851 851.904C713.178 854.043 711.639 855.122 711.599 857.29C711.525 861.293 712.198 864.591 715.354 866.714C717.062 867.864 719.183 866.301 720.36 868.061C721.897 870.359 716.32 872.494 717.857 874.792C719.034 876.552 721.487 874.555 722.863 876.139C723.918 877.354 723.423 878.691 724.115 880.178C725.66 883.503 728.268 883.96 730.372 886.91C731.445 888.413 731.148 890.577 732.876 890.949C734.909 891.386 735.772 888.94 736.63 886.91C737.642 884.516 735.311 882.391 736.63 880.178C738.051 877.794 741.048 879.509 742.888 877.485C745.643 874.454 740.565 868.498 744.14 866.714C745.913 865.829 747.763 868.201 749.146 866.714C750.528 865.227 748.176 863.155 749.146 861.329C750.23 859.287 752.541 860.225 754.152 858.636C758.476 854.373 748.367 843.517 754.152 842.48C755.116 842.307 756.655 842.48 756.655 842.48C756.655 842.48 763.867 838.378 762.913 834.401C761.983 830.524 755.953 833.867 754.152 830.362C752.734 827.601 755.912 824.808 754.152 822.284C752.841 820.403 751.28 820.102 749.146 819.591C747.237 819.135 745.933 820.43 744.14 819.591C741.526 818.369 742.731 814.6 740.385 812.86C737.166 810.472 733.882 814.714 730.372 812.86C726.599 810.865 727.536 800.806 724.115 803.435C721.695 805.294 722.863 811.513 722.863 811.513C722.863 811.513 717.482 816.529 719.108 819.591C720.193 821.633 722.902 820.328 724.115 822.284C725.47 824.472 725.759 827.071 724.115 829.016C722.759 830.62 721.112 830.596 719.108 830.362C715.997 829.999 715.922 824.329 712.851 824.977C711.778 825.203 710.347 826.323 710.347 826.323L706.593 830.362C706.593 830.362 704.492 831.632 704.09 833.055C703.26 835.988 709.598 834.136 710.347 837.094C710.878 839.186 710.153 840.634 709.096 842.48Z" fill="black" fill-opacity="0.15"/>
</svg>
