<svg width="1500" height="1500" fill="none" xmlns="http://www.w3.org/2000/svg"><path d="M857 833.5c-1.5 4-12.5 20.5-33 19-9.389 0-10-10.253-10-15.5-2.5-1.5 15-17.5 30-21 8.5 2.5 18 2.5 13 17.5z" fill="#C6FF00"/><path d="M848.5 835c-3 5-8.5 7.5-15.5 8s-12.5-4-14.5-12.5c4-4 16.5-13 25.5-14.5 8.837 0 6.2 16.167 4.5 19z" fill="#000" fill-opacity=".5"/><path d="M604.631 846.59c2.25 3.632 16.253 17.674 36.068 12.211 9.209-1.828 7.812-12.004 6.791-17.151 2.16-1.958-18.121-14.244-33.515-14.756-7.851 4.107-17.169 5.957-9.344 19.696z" fill="#C6FF00"/><path d="M615.5 846.5c4.068 4.363 8.697 6.022 14.522 4.735 7.3-1.613 11.482-6.357 11.788-15.084-4.702-3.145-18.715-9.538-27.835-9.257-8.668 1.72-3.712 13.989 1.525 19.606z" fill="#000" fill-opacity=".5"/><g clip-path="url(#clip0_113_2)"><path d="M811.5 866.5c-.5 2.5-1.791 4-4 4-2.5-.5-3.5-2-4-4a4 4 0 0 1 8 0z" fill="#20272D" fill-opacity=".4"/><path d="M872 808c0 4.5-72.5 4.5-65.5 62-6-4-8.5-20.5-4.5-29 6.5-19 18-31.333 25.5-33 13.5-3 53-9.5 44.5 0z" fill="#20272D" fill-opacity=".3"/><path d="M858.5 838c-5.5 11.5-15.186 16.5-18.5 16.5-6 2-26 3-17.5-2.5 35 4.5 41.5-39 47.5-43 10-8.5-10.5 26-11.5 29z" fill="#20272D" fill-opacity=".3"/><path d="M811 864.5c-1-1-2-2.5-5.5-1.5.5-9.5 1-9 2-14 11.5-30.5 1.5 3 15 3-.5 4.5-12.5 4.5-11.5 12.5z" fill="#20272D" fill-opacity=".4"/><path d="M869 809.5c2 4.5-15.5 39-12 22 2-4.5 1-7.5 0-9.5-1-3.5-16.642-6-12.5-6 5-2 20.5-6 24.5-6.5z" fill="#20272D" fill-opacity=".3"/><path d="M862.5 819c-14.5-9-54 9-50.5 23-7 15.5-1-4.5 1-9 4.5-5.5 2-3 7.5-7.5 25.5-16 42-10.5 42-6.5z" fill="#fff" fill-opacity=".2"/><path d="M656.148 870.093c1.069 2.453 2.654 3.674 4.758 3.116 2.262-1.148 2.858-2.948 2.859-5.137-.524-2.279-2.654-3.673-4.758-3.115-2.103.558-3.383 2.858-2.859 5.136z" fill="#20272D" fill-opacity=".4"/><path d="M587.102 830.238c1.068 4.642 67.657-18.877 74.638 42.202 4.763-5.642 3.228-23.293-2.598-31.05-10.698-17.956-39.739-31.925-48.642-30.39-14.5 2.5-33.746 11.587-23.398 19.238z" fill="#20272D" fill-opacity=".3"/><path d="M604.632 852.572c7.966 10.472 18.376 13.182 21.531 12.345 6.188.547 25.469-3.475 16.07-7.001-32.258 13.485-48.771-29.742-55.433-32.351-11.539-6.241 16.168 24.165 17.832 27.007z" fill="#20272D" fill-opacity=".3"/><path d="M656.15 867.904c.714-1.284 1.311-3.084 4.881-2.937-2.731-9.672-3.089-9.03-5.227-13.935-18.189-28.554-.717 3.473-13.571 6.884 1.544 4.516 12.97 1.484 13.917 9.988z" fill="#20272D" fill-opacity=".4"/><path d="M587.871 825.828c-.837 5.147 24.014 36.311 16.647 19.66-2.973-4.136-2.732-7.483-2.255-9.799.122-3.863 14.423-10.394 10.479-9.347-5.236-.8-20.944-1.009-24.871-.514z" fill="#20272D" fill-opacity=".3"/><path d="M601 828.255c14.5-9 54 9 50.5 23 7 15.5 1-4.5-1-9-4.5-5.5-2-3-7.5-7.5-25.5-16-42-10.5-42-6.5z" fill="#fff" fill-opacity=".2"/></g><defs><clipPath id="clip0_113_2"><path fill="#fff" d="M0 0h1500v1500H0z"/></clipPath></defs></svg>