<svg width="1500" height="1500" fill="none" xmlns="http://www.w3.org/2000/svg"><path d="M579.701 566.819c3.403-32.627 0-84 0-84s-.065-.918 0-1.5c.457-4.117 4.5-7.5 7.5-4.5S596.531 488.795 600 492c4.059 3.751 4.602 9.653 6 15 1.398 5.347.987 7.342 1.5 12 .731 6.639 2.201 16.319 2.201 16.319l3 21V612c0 7.319 1.074 7.772 2.299 13.5 1.225 5.728 2.648 10.762 4.5 16.319 1.852 5.558 1.382 7.558 5.201 12 4.32 5.026 6.895 7.774 12 12 3.881 3.214 6.532 4.393 10.5 7.5 4.902 3.839 12 10.5 12 10.5s5.299 3.181 35.299 3c4.264-.025 43.396-1.807 45.701 0 2.304 1.808 2.166 4.23 4.5 6 5.133 3.895 11.366 3.895 16.5 0 2.333-1.77 2.193-4.194 4.5-6 2.483-1.945 4.448-2.201 7.5-3 6.233-1.632 10.056 0 16.5 0 5.272 0 8.339 1.08 13.5 0 6.41-1.341 9.724-3.618 15-7.5 4.637-3.413 6.773-5.995 10.422-10.406l.078-.094c4.038-4.882 9-13.5 9-13.5l6-13.5s5.744-11.532 7.5-19.5c2.52-11.441 0-30 0-30l-3-18-4.5-19.5s-2.201-10.229-4.5-16.5c-2.201-6-2.635-7.7-2.201-11.819 1.226-11.651 0-18.284 0-30 0-7.029-.799-15 2.201-19.5s5.299-3 6.799 0 1.972 5.312 2.201 8.819c.628 9.641 3.827 14.587 6 24 1.886 8.173 1.981 13 4.5 21 2.679 8.511 9 21 9 21l9 18s7.11 13.227 9 22.5c2.933 14.396 2.39 21.685 0 36.181-.972 5.894-.944 10.711-3 16.319-2.077 5.663-3.718 13.918-6 19.5-2.742 6.707-9 12-9 12v6c0 7.5 34.5-25.5 34.5-25.5l16.5-15s12.102-10.978 18-19.5c5.962-8.617 12-24 12-24l10.5-18 7.5-12 6-13.5s2.418-7.204 3-12c.563-4.652 0-7.314 0-12 0-5.858 1.42-9.317 0-15-1.271-5.083-1.828-8.83-6-12-2.512-1.908-4.659-1.629-7.5-3-5.708-2.752-7.86-6.113-13.5-9-6.104-3.124-10.344-2.981-16.5-6-7.586-3.719-18-12-18-12l-12-10.5-9-10.5-16.5-16.5s-6.565-4.667-9-9c-2.09-3.717-3-10.5-3-10.5s-1.5-9 0-12 3.03-4.904 5.299-4.319c5.672 1.464 5.632 12.105 9.701 16.319 4.639 4.805 8.078 6.6 13.5 10.5 5.143 3.7 8.887 4.656 13.5 9 3.33 3.137 4.264 5.765 7.5 9 3.235 3.235 7.5 3 9 7.5S930 448.5 928.5 444s-.357-1.921-1.5-4.681c-1.751-4.227-1.469-6.562-3.799-10.5-2.549-4.307-3.092-7.197-4.5-12-1.681-5.732-2.13-9.09-3-15-.943-6.401-1.718-10.033-1.5-16.5.159-4.72 1.5-12 1.5-12s3-6 7.5 3 2.987 21.072 9 33c4.169 8.271 13.5 19.5 13.5 19.5l19.5 25.5s15 15 12 6 3.356-17.004 0-27c-1.92-5.717-4.105-8.515-7.5-13.5-5.369-7.881-16.5-18-16.5-18l-10.5-15-19.5-22.5s-10.558-10.542-16.5-18c-5.772-7.244-13.5-19.5-13.5-19.5l-13.5-22.5-9-18s-8.352-17.92-12-30c-3.123-10.34-6-27-6-27s-2.665-13.244 0-21c1.534-4.466 4.5-19.5 6-10.5s31.5 58.5 31.5 58.5l25.5 39 21 31.5 28.5 33s7.5 13.5 4.5-6 10.238-39.774 0-61.5c-3.949-8.378-13.5-19.5-13.5-19.5s-5.303-7.883-7.5-13.5c-1.555-3.971-1.5-7.5-3-10.5s4.627-.574 7.5 0c6.549 1.31 9.084 5.489 13.5 10.5C972.762 266.198 984 277.5 984 277.5s4.771 13.929 8.201 21c4.231 8.725 3.388 12.687 4.5 22.319.402 3.492 0 5.485 0 9 0 22.846-1.5 55.5 0 58.5s3.108 3.423 4.499 6c2.03 3.753 1.03 6.716 3 10.5 2.11 4.06 5.39 4.941 7.5 9 2.76 5.3 2 9.11 3 15 5.57 32.922 4.07 52.359 0 85.5-1.67 13.574-2.47 21.289-6 34.5-2.39 8.948-4.2 13.845-7.5 22.5-3.177 8.338-4.541 13.271-8.999 21-3.982 6.902-9 13.5-12 16.5s7.86-2.788 12-6c4.267-3.31 8.999-10.5 8.999-10.5s4.77-5.328 7.5-9c2.52-3.39 6-9 6-9l4.5-7.5s4.04-6.204 6-10.5c2.31-5.055 3.02-8.143 4.5-13.5 1.44-5.206 3-13.5 3-13.5l4.5-22.5s2.42-10.897 3-18c.58-7.006-.87-11.024 0-18 .67-5.359 3-13.5 3-13.5s4.5-12 4.5-15 3-10.5 6-3 2.83 63.487-3 103.5c-1.03 7.052-3 18-3 18s-2.82 10.035-4.5 16.5c-1.21 4.676-1.34 7.462-3 12-1.8 4.922-2.69 7.939-6 12-2.89 3.546-5.48 4.583-9 7.5-6.41 5.31-9.95 8.362-16.5 13.5-6.91 5.424-11.226 7.903-17.999 13.5-6.076 5.02-8.878 8.538-15 13.5-6.19 5.017-10.114 7.236-16.5 12-7.701 5.746-11.844 9.196-19.5 15-13.351 10.122-20.737 15.947-34.5 25.5-8.676 6.022-14.047 8.671-22.5 15-6.665 4.99-13.955 5.573-16.5 13.5-1.433 4.462-2.988 8.39 0 12 1.346 1.627 2.651 1.979 4.5 3 2.761 1.526 4.5 1.5 7.5 3s4.527-6.431 7.5-10.5c3.455-4.73 5.485-7.313 9-12 1.757-2.343 2.59-3.779 4.5-6 2.16-2.513 6-6 6-6s10.16-8.852 18-12c3.957-1.589 6.306-2.222 10.5-3 8.063-1.495 12.842.842 21 0 10.176-1.049 16.302-1.521 25.5-6 7.899-3.847 9.39-11.744 18-13.5 4.019-.819 11.999-3 10.499 0s-1.21 14.167-4.5 22.5c-3.58 9.067-8.35 12.722-13.499 21-7.907 12.711-10.483 21.052-19.5 33-2.26 2.994-3.864 4.417-6 7.5-2.69 3.882-3.301 6.625-6 10.5-2.615 3.755-5.118 5.094-7.5 9-1.365 2.237-3 6-3 6s-1.592 2.926-3 4.5c-1.954 2.183-6 4.5-6 4.5s-3.426 2.517-6 3c-1.728.324-2.743 0-4.5 0-2.344 0-3.661.135-6 0-11.842-.682-16.66-11.204-28.5-10.5-10.213.608-28.5 6-24 10.5s3 4.5 3 7.5-9.282 15.753-10.5 27c-.505 4.659.491 7.34 0 12-1.255 11.9-9.156 16.719-11.25 28.5-1.846 10.382-2.38 6.715 1.549 16.5 2.728 6.795 7.035 18.68 9.701 25.5 3.624 9.275 0 15.542 0 25.5v22.5s-.04 37.821 10.5 58.501c3.468 6.8 6.978 9.72 10.5 16.5 5.723 11.01 10.5 30 10.5 30 5.404 14.24 12.262 21.02 15 36 2.316 12.68 0 20.11 0 33s4.749 21.02 0 33c-3.541 8.93-11.394 10.59-15 19.5-5.057 12.49-4.5 24 0 34.5 4.414 10.3-13.209-5.16-20.584-11.64l-.416-.36c-4.682-4.11-4.5-3-10.5-12s9 36 9 36 1.231 1.76-.831 4.72a67.398 67.398 0 0 0-2.391 3.64c-5.707 11.53-14.35 17.18-16.737 13.94-.684-.92-.854-2.59-.291-5.05-9.795-10.32-6.75-5.25-11.25-18.75s-3 30 0 46.5-19.5-9-19.5-9-4.5 0 0 9-27-18-22.5-9 3.739 17.14 0 27c-3.969 10.46-13.5 31.5-19.5 21s-10.5-15-15-21 5.95 20.73 0 31.5c-5.502 9.95-21 33-24 16.5s-9-46.5-24-37.5-9 9-13.5 10.5-9-48-13.5-39-13.5 13.5-18 18-4.241-25.45-16.5-27c-8.321-1.06-13.5 9-19.5 9s0-27.75-13.5-30c-6.356-1.06-9.394-.94-15-3-13.24-4.87-17.803-13.3-27-24-7.416-8.62-8.97-15.48-16.5-24-3.84-4.35-6.527-6.28-10.5-10.5-6.835-7.27-13.287-10.06-16.5-19.5-2.83-8.32 0-13.71 0-22.5v-27c0-11.72-2.037-18.46 0-30 2.782-15.76 16.5-37.5 16.5-37.5l18-31.5s13.226-22.79 16.5-39.001c3.247-16.077-2.862-25.849 0-42 1.811-10.221 6.051-15.221 7.5-25.5 1.39-9.861 0-15.541 0-25.5 0-17.573 5.935-28.459 0-45-3.734-10.403-7.073-16.298-15-24-8.652-8.405-15.54-11.238-27-15-18.924-6.21-32.679 15.65-50.201 6.181-9.118-4.927-20.299-24.181-20.299-24.181s-14.078-7.808-18-16.5c-4.097-9.076-8.315-15.603-10.5-25.319-2.128-9.46 2.064-13.207 0-22.681C451.705 716.662 435 700.5 442.5 694.5s33.636 9.129 45 13.5c19.5 7.5 22.282 6.74 36 12 13.837 5.305 29.201 17.819 29.201 17.819s34.5 12 42 19.5-13.556-20.577-21.701-31.5c-8.434-11.309-10.875-8.327-22.5-16.319-12.953-8.905-19.636-18.865-33.799-25.681-15.115-7.274-44.5-26-52.5-31.5-7.966-5.476-8.199-5.816-21.527-25.245l-.174-.255c-12.614-18.388-15.799-30-15.799-25.5 0 0-7.297-20.68-9-34.5-1.577-12.79 0-33 0-33s4.5-57 9-51 2.385 31.275 6 51c2.382 13 2.773 20.658 7.5 33 4.029 10.523 7.2 16.158 13.5 25.5 7.887 11.697 27 34.5 24 27s-13.5-52.5-13.5-52.5l-10.5-39-13.5-45-13.5-54s-7.591-25.285-9-42c-.936-11.09 0-28.5 0-28.5s2.544-20.454 9-31.5c7.318-12.521 30-36 27-25.5s-10.665 14.595-13.5 25.5c-3.096 11.906-3.592 19.304-5.201 31.5-2.201 16.681-.071 32.956 5.201 43.5l13.5 27c5.272 10.544-1.64-17.673 0-34.5 1.079-11.077 6-28.5 10.5-36s7.24-22.282 18-31.5c17.299-14.819 19.5-54 19.5-54l6-43.5s13.5-14.819 13.5-7.319c0 7.5 5.251 25.628 4.5 37.319-.835 12.98 3.947 14.607 0 27-4.697 14.747-3.186 20.158-9 34.5-4.807 11.857-19.228 25.63-24 37.5-4.692 11.67-2.291 7.445-5.201 19.681-2.711 11.398-10.734 27.141-9.799 38.819.898 11.232 3.503 17.277 4.5 28.5 1.294 14.588 0 30 0 37.5s19.5-14.37 19.5-25.5v-28.5s2.569-16.758 6-27c3.911-11.678 13.5-23.819 13.5-23.819s34.5-24.181 31.5-19.681-9.674 17.601-16.5 28.5c-5.605 8.95-9 10.5-15 22.5s6 30 4.5 36 6.442-3.582 10.5-6c6.561-3.909 15.843-5.719 21.799-10.5 8.082-6.487 12.701-19.5 12.701-19.5s25.5-31.5 24-22.5-4.36 13.787-7.5 22.5c-2.767 7.676-2.266 13.241-7.5 19.5-4.9 5.859-11.163 15.537-16.5 21-5.687 5.821-5.241 1.29-10.5 7.5-9.35 11.041-31.5 19.5-31.5 19.5s-13.84 11.346-19.5 21c-6.186 10.552-9 30-9 30s-3.036 24.075 0 39c2.104 10.349 4.717 15.847 9 25.5 4.892 11.026 8.065 17.131 15 27 6.684 9.514 19.5 22.5 19.5 22.5l27 24s33 31.5 31.5 18-10.027-20.676-15-34.5c-4.141-11.509-7.516-17.859-9-30-2.525-20.648 6.841-31.81 9-52.5z" fill="#9466FF"/></svg>