<svg width="1500" height="1501" fill="none" xmlns="http://www.w3.org/2000/svg"><path d="M579.701 566.819c3.403-32.627 0-84 0-84s-.065-.918 0-1.5c.457-4.117 4.5-7.5 7.5-4.5S596.531 488.795 600 492c4.059 3.751 4.602 9.653 6 15 1.398 5.347.987 7.342 1.5 12 .731 6.639 2.201 16.319 2.201 16.319l3 21V612c0 7.319 1.074 7.772 2.299 13.5 1.225 5.728 2.648 10.762 4.5 16.319 1.852 5.558 1.382 7.558 5.201 12 4.32 5.026 6.895 7.774 12 12 3.881 3.214 6.532 4.393 10.5 7.5 4.902 3.839 12 10.5 12 10.5s5.299 3.181 35.299 3c4.264-.025 43.396-1.807 45.701 0 2.304 1.808 2.166 4.23 4.5 6 5.133 3.895 11.366 3.895 16.5 0 2.333-1.77 2.193-4.194 4.5-6 2.483-1.945 4.448-2.201 7.5-3 6.233-1.632 10.056 0 16.5 0 5.272 0 8.339 1.08 13.5 0 6.41-1.341 9.724-3.618 15-7.5 4.637-3.413 6.773-5.995 10.422-10.406l.078-.094c4.038-4.882 9-13.5 9-13.5l6-13.5s5.744-11.532 7.5-19.5c2.52-11.441 0-30 0-30l-3-18-4.5-19.5s-2.201-10.229-4.5-16.5c-2.201-6-2.635-7.7-2.201-11.819 1.226-11.651 0-18.284 0-30 0-7.029-.799-15 2.201-19.5s5.299-3 6.799 0 1.972 5.312 2.201 8.819c.628 9.641 3.827 14.587 6 24 1.886 8.173 1.981 13 4.5 21 2.679 8.511 9 21 9 21l9 18s7.11 13.227 9 22.5c2.933 14.396 2.39 21.685 0 36.181-.972 5.894-.944 10.711-3 16.319-2.077 5.663-3.718 13.918-6 19.5-2.742 6.707-9 12-9 12v6c0 7.5 34.5-25.5 34.5-25.5l16.5-15s12.102-10.978 18-19.5c5.962-8.617 12-24 12-24l10.5-18 7.5-12 6-13.5s2.418-7.204 3-12c.563-4.652 0-7.314 0-12 0-5.858 1.42-9.317 0-15-1.271-5.083-1.828-8.83-6-12-2.512-1.908-4.659-1.629-7.5-3-5.708-2.752-7.86-6.113-13.5-9-6.104-3.124-10.344-2.981-16.5-6-7.586-3.719-18-12-18-12l-12-10.5-9-10.5-16.5-16.5s-6.565-4.667-9-9c-2.09-3.717-3-10.5-3-10.5s-1.5-9 0-12 3.03-4.904 5.299-4.319c5.672 1.464 5.632 12.105 9.701 16.319 4.639 4.805 8.078 6.6 13.5 10.5 5.143 3.7 8.887 4.656 13.5 9 3.33 3.137 4.264 5.765 7.5 9 3.235 3.235 7.5 3 9 7.5S930 448.5 928.5 444s-.357-1.921-1.5-4.681c-1.751-4.227-1.469-6.562-3.799-10.5-2.549-4.307-3.092-7.197-4.5-12-1.681-5.732-2.13-9.09-3-15-.943-6.401-1.718-10.033-1.5-16.5.159-4.72 1.5-12 1.5-12s3-6 7.5 3 2.987 21.072 9 33c4.169 8.271 13.5 19.5 13.5 19.5l19.5 25.5s15 15 12 6 3.356-17.004 0-27c-1.92-5.717-4.105-8.515-7.5-13.5-5.369-7.881-16.5-18-16.5-18l-10.5-15-19.5-22.5s-10.558-10.542-16.5-18c-5.772-7.244-13.5-19.5-13.5-19.5l-13.5-22.5-9-18s-8.352-17.92-12-30c-3.123-10.34-6-27-6-27s-2.665-13.244 0-21c1.534-4.466 4.5-19.5 6-10.5s31.5 58.5 31.5 58.5l25.5 39 21 31.5 28.5 33s7.5 13.5 4.5-6 10.238-39.774 0-61.5c-3.949-8.378-13.5-19.5-13.5-19.5s-5.303-7.883-7.5-13.5c-1.555-3.971-1.5-7.5-3-10.5s4.627-.574 7.5 0c6.549 1.31 9.084 5.489 13.5 10.5C972.762 266.198 984 277.5 984 277.5s4.771 13.929 8.201 21c4.231 8.725 3.388 12.687 4.5 22.319.402 3.492 0 5.485 0 9 0 22.846-1.5 55.5 0 58.5s3.108 3.423 4.499 6c2.03 3.753 1.03 6.716 3 10.5 2.11 4.06 5.39 4.941 7.5 9 2.76 5.3 2 9.11 3 15 5.57 32.922 4.07 52.359 0 85.5-1.67 13.574-2.47 21.289-6 34.5-2.39 8.948-4.2 13.845-7.5 22.5-3.177 8.338-4.541 13.271-8.999 21-3.982 6.902-9 13.5-12 16.5s7.86-2.788 12-6c4.267-3.31 8.999-10.5 8.999-10.5s4.77-5.328 7.5-9c2.52-3.39 6-9 6-9l4.5-7.5s4.04-6.204 6-10.5c2.31-5.055 3.02-8.143 4.5-13.5 1.44-5.206 3-13.5 3-13.5l4.5-22.5s2.42-10.897 3-18c.58-7.006-.87-11.024 0-18 .67-5.359 3-13.5 3-13.5s4.5-12 4.5-15 3-10.5 6-3 2.83 63.487-3 103.5c-1.03 7.052-3 18-3 18s-2.82 10.035-4.5 16.5c-1.21 4.676-1.34 7.462-3 12-1.8 4.922-2.69 7.939-6 12-2.89 3.546-5.48 4.583-9 7.5-6.41 5.31-9.95 8.362-16.5 13.5-6.91 5.424-11.226 7.903-17.999 13.5-6.076 5.02-8.878 8.538-15 13.5-6.19 5.017-10.114 7.236-16.5 12-7.701 5.746-11.844 9.196-19.5 15-13.351 10.122-20.737 15.947-34.5 25.5-8.676 6.022-14.047 8.671-22.5 15-6.665 4.99-13.955 5.573-16.5 13.5-1.433 4.462-2.988 8.39 0 12 1.346 1.627 2.651 1.979 4.5 3 2.761 1.526 4.5 1.5 7.5 3s4.527-6.431 7.5-10.5c3.455-4.73 5.485-7.313 9-12 1.757-2.343 2.59-3.779 4.5-6 2.16-2.513 6-6 6-6s10.16-8.852 18-12c3.957-1.589 6.306-2.222 10.5-3 8.063-1.495 12.842.842 21 0 10.176-1.049 16.302-1.521 25.5-6 7.899-3.847 9.39-11.744 18-13.5 4.019-.819 11.999-3 10.499 0s-1.21 14.167-4.5 22.5c-3.58 9.067-8.35 12.722-13.499 21-7.907 12.711-10.483 21.052-19.5 33-2.26 2.994-3.864 4.417-6 7.5-2.69 3.882-3.301 6.625-6 10.5-2.615 3.755-5.118 5.094-7.5 9-1.365 2.237-3 6-3 6s-1.592 2.926-3 4.5c-1.954 2.183-6 4.5-6 4.5s-3.426 2.517-6 3c-1.728.324-2.743 0-4.5 0-2.344 0-3.661.135-6 0-11.842-.682-16.66-11.204-28.5-10.5-10.213.608-28.5 6-24 10.5s3 4.5 3 7.5-9.282 15.753-10.5 27c-.505 4.659.491 7.34 0 12-1.255 11.9-9.156 16.719-11.25 28.5-1.846 10.382-2.38 6.715 1.549 16.5 2.728 6.795 7.035 18.68 9.701 25.5 3.624 9.275 0 15.542 0 25.5v22.5s-.04 37.821 10.5 58.501c3.468 6.8 6.978 9.72 10.5 16.5 5.723 11.01 10.5 30 10.5 30 5.404 14.24 12.262 21.02 15 36 2.316 12.68 0 20.11 0 33s4.749 21.02 0 33c-3.541 8.93-11.394 10.59-15 19.5-5.057 12.49-4.5 24 0 34.5 4.414 10.3-13.209-5.16-20.584-11.64l-.416-.36c-4.682-4.11-4.5-3-10.5-12s9 36 9 36 1.231 1.76-.831 4.72a67.398 67.398 0 0 0-2.391 3.64c-5.707 11.53-14.35 17.18-16.737 13.94-.684-.92-.854-2.59-.291-5.05-9.795-10.32-6.75-5.25-11.25-18.75s-3 30 0 46.5-19.5-9-19.5-9-4.5 0 0 9-27-18-22.5-9 3.739 17.14 0 27c-3.969 10.46-13.5 31.5-19.5 21s-10.5-15-15-21 5.95 20.73 0 31.5c-5.502 9.95-21 33-24 16.5s-9-46.5-24-37.5-9 9-13.5 10.5-9-48-13.5-39-13.5 13.5-18 18-4.241-25.45-16.5-27c-8.321-1.06-13.5 9-19.5 9s0-27.75-13.5-30c-6.356-1.06-9.394-.94-15-3-13.24-4.87-17.803-13.3-27-24-7.416-8.62-8.97-15.48-16.5-24-3.84-4.35-6.527-6.28-10.5-10.5-6.835-7.27-13.287-10.06-16.5-19.5-2.83-8.32 0-13.71 0-22.5v-27c0-11.72-2.037-18.46 0-30 2.782-15.76 16.5-37.5 16.5-37.5l18-31.5s13.226-22.79 16.5-39.001c3.247-16.077-2.862-25.849 0-42 1.811-10.221 6.051-15.221 7.5-25.5 1.39-9.861 0-15.541 0-25.5 0-17.573 5.935-28.459 0-45-3.734-10.403-7.073-16.298-15-24-8.652-8.405-15.54-11.238-27-15-18.924-6.21-32.679 15.65-50.201 6.181-9.118-4.927-20.299-24.181-20.299-24.181s-14.078-7.808-18-16.5c-4.097-9.076-8.315-15.603-10.5-25.319-2.128-9.46 2.064-13.207 0-22.681C451.705 716.662 435 700.5 442.5 694.5s33.636 9.129 45 13.5c19.5 7.5 22.282 6.74 36 12 13.837 5.305 29.201 17.819 29.201 17.819s34.5 12 42 19.5-13.556-20.577-21.701-31.5c-8.434-11.309-10.875-8.327-22.5-16.319-12.953-8.905-19.636-18.865-33.799-25.681-15.115-7.274-44.5-26-52.5-31.5-7.966-5.476-8.199-5.816-21.527-25.245l-.174-.255c-12.614-18.388-15.799-30-15.799-25.5 0 0-7.297-20.68-9-34.5-1.577-12.79 0-33 0-33s4.5-57 9-51 2.385 31.275 6 51c2.382 13 2.773 20.658 7.5 33 4.029 10.523 7.2 16.158 13.5 25.5 7.887 11.697 27 34.5 24 27s-13.5-52.5-13.5-52.5l-10.5-39-13.5-45-13.5-54s-7.591-25.285-9-42c-.936-11.09 0-28.5 0-28.5s2.544-20.454 9-31.5c7.318-12.521 30-36 27-25.5s-10.665 14.595-13.5 25.5c-3.096 11.906-3.592 19.304-5.201 31.5-2.201 16.681-.071 32.956 5.201 43.5l13.5 27c5.272 10.544-1.64-17.673 0-34.5 1.079-11.077 6-28.5 10.5-36s7.24-22.282 18-31.5c17.299-14.819 19.5-54 19.5-54l6-43.5s13.5-14.819 13.5-7.319c0 7.5 5.251 25.628 4.5 37.319-.835 12.98 3.947 14.607 0 27-4.697 14.747-3.186 20.158-9 34.5-4.807 11.857-19.228 25.63-24 37.5-4.692 11.67-2.291 7.445-5.201 19.681-2.711 11.398-10.734 27.141-9.799 38.819.898 11.232 3.503 17.277 4.5 28.5 1.294 14.588 0 30 0 37.5s19.5-14.37 19.5-25.5v-28.5s2.569-16.758 6-27c3.911-11.678 13.5-23.819 13.5-23.819s34.5-24.181 31.5-19.681-9.674 17.601-16.5 28.5c-5.605 8.95-9 10.5-15 22.5s6 30 4.5 36 6.442-3.582 10.5-6c6.561-3.909 15.843-5.719 21.799-10.5 8.082-6.487 12.701-19.5 12.701-19.5s25.5-31.5 24-22.5-4.36 13.787-7.5 22.5c-2.767 7.676-2.266 13.241-7.5 19.5-4.9 5.859-11.163 15.537-16.5 21-5.687 5.821-5.241 1.29-10.5 7.5-9.35 11.041-31.5 19.5-31.5 19.5s-13.84 11.346-19.5 21c-6.186 10.552-9 30-9 30s-3.036 24.075 0 39c2.104 10.349 4.717 15.847 9 25.5 4.892 11.026 8.065 17.131 15 27 6.684 9.514 19.5 22.5 19.5 22.5l27 24s33 31.5 31.5 18-10.027-20.676-15-34.5c-4.141-11.509-7.516-17.859-9-30-2.525-20.648 6.841-31.81 9-52.5z" fill="#00BFA5"/><path d="M579.701 566.819c3.403-32.627 0-84 0-84s-.065-.918 0-1.5c.457-4.117 4.5-7.5 7.5-4.5S596.531 488.795 600 492c4.059 3.751 4.602 9.653 6 15 1.398 5.347.987 7.342 1.5 12 .731 6.639 2.201 16.319 2.201 16.319l3 21V612c0 7.319 1.074 7.772 2.299 13.5 1.225 5.728 2.648 10.762 4.5 16.319 1.852 5.558 1.382 7.558 5.201 12 4.32 5.026 6.895 7.774 12 12 3.881 3.214 6.532 4.393 10.5 7.5 4.902 3.839 12 10.5 12 10.5s5.299 3.181 35.299 3c4.264-.025 43.396-1.807 45.701 0 2.304 1.808 2.166 4.23 4.5 6 5.133 3.895 11.366 3.895 16.5 0 2.333-1.77 2.193-4.194 4.5-6 2.483-1.945 4.448-2.201 7.5-3 6.233-1.632 10.056 0 16.5 0 5.272 0 8.339 1.08 13.5 0 6.41-1.341 9.724-3.618 15-7.5 4.637-3.413 6.773-5.995 10.422-10.406l.078-.094c4.038-4.882 9-13.5 9-13.5l6-13.5s5.744-11.532 7.5-19.5c2.52-11.441 0-30 0-30l-3-18-4.5-19.5s-2.201-10.229-4.5-16.5c-2.201-6-2.635-7.7-2.201-11.819 1.226-11.651 0-18.284 0-30 0-7.029-.799-15 2.201-19.5s5.299-3 6.799 0 1.972 5.312 2.201 8.819c.628 9.641 3.827 14.587 6 24 1.886 8.173 1.981 13 4.5 21 2.679 8.511 9 21 9 21l9 18s7.11 13.227 9 22.5c2.933 14.396 2.39 21.685 0 36.181-.972 5.894-.944 10.711-3 16.319-2.077 5.663-3.718 13.918-6 19.5-2.742 6.707-9 12-9 12v6c0 7.5 34.5-25.5 34.5-25.5l16.5-15s12.102-10.978 18-19.5c5.962-8.617 12-24 12-24l10.5-18 7.5-12 6-13.5s2.418-7.204 3-12c.563-4.652 0-7.314 0-12 0-5.858 1.42-9.317 0-15-1.271-5.083-1.828-8.83-6-12-2.512-1.908-4.659-1.629-7.5-3-5.708-2.752-7.86-6.113-13.5-9-6.104-3.124-10.344-2.981-16.5-6-7.586-3.719-18-12-18-12l-12-10.5-9-10.5-16.5-16.5s-6.565-4.667-9-9c-2.09-3.717-3-10.5-3-10.5s-1.5-9 0-12 3.03-4.904 5.299-4.319c5.672 1.464 5.632 12.105 9.701 16.319 4.639 4.805 8.078 6.6 13.5 10.5 5.143 3.7 8.887 4.656 13.5 9 3.33 3.137 4.264 5.765 7.5 9 3.235 3.235 7.5 3 9 7.5S930 448.5 928.5 444s-.357-1.921-1.5-4.681c-1.751-4.227-1.469-6.562-3.799-10.5-2.549-4.307-3.092-7.197-4.5-12-1.681-5.732-2.13-9.09-3-15-.943-6.401-1.718-10.033-1.5-16.5.159-4.72 1.5-12 1.5-12s3-6 7.5 3 2.987 21.072 9 33c4.169 8.271 13.5 19.5 13.5 19.5l19.5 25.5s15 15 12 6 3.356-17.004 0-27c-1.92-5.717-4.105-8.515-7.5-13.5-5.369-7.881-16.5-18-16.5-18l-10.5-15-19.5-22.5s-10.558-10.542-16.5-18c-5.772-7.244-13.5-19.5-13.5-19.5l-13.5-22.5-9-18s-8.352-17.92-12-30c-3.123-10.34-6-27-6-27s-2.665-13.244 0-21c1.534-4.466 4.5-19.5 6-10.5s31.5 58.5 31.5 58.5l25.5 39 21 31.5 28.5 33s7.5 13.5 4.5-6 10.238-39.774 0-61.5c-3.949-8.378-13.5-19.5-13.5-19.5s-5.303-7.883-7.5-13.5c-1.555-3.971-1.5-7.5-3-10.5s4.627-.574 7.5 0c6.549 1.31 9.084 5.489 13.5 10.5C972.762 266.198 984 277.5 984 277.5s4.771 13.929 8.201 21c4.231 8.725 3.388 12.687 4.5 22.319.402 3.492 0 5.485 0 9 0 22.846-1.5 55.5 0 58.5s3.108 3.423 4.499 6c2.03 3.753 1.03 6.716 3 10.5 2.11 4.06 5.39 4.941 7.5 9 2.76 5.3 2 9.11 3 15 5.57 32.922 4.07 52.359 0 85.5-1.67 13.574-2.47 21.289-6 34.5-2.39 8.948-4.2 13.845-7.5 22.5-3.177 8.338-4.541 13.271-8.999 21-3.982 6.902-9 13.5-12 16.5s7.86-2.788 12-6c4.267-3.31 8.999-10.5 8.999-10.5s4.77-5.328 7.5-9c2.52-3.39 6-9 6-9l4.5-7.5s4.04-6.204 6-10.5c2.31-5.055 3.02-8.143 4.5-13.5 1.44-5.206 3-13.5 3-13.5l4.5-22.5s2.42-10.897 3-18c.58-7.006-.87-11.024 0-18 .67-5.359 3-13.5 3-13.5s4.5-12 4.5-15 3-10.5 6-3 2.83 63.487-3 103.5c-1.03 7.052-3 18-3 18s-2.82 10.035-4.5 16.5c-1.21 4.676-1.34 7.462-3 12-1.8 4.922-2.69 7.939-6 12-2.89 3.546-5.48 4.583-9 7.5-6.41 5.31-9.95 8.362-16.5 13.5-6.91 5.424-11.226 7.903-17.999 13.5-6.076 5.02-8.878 8.538-15 13.5-6.19 5.017-10.114 7.236-16.5 12-7.701 5.746-11.844 9.196-19.5 15-13.351 10.122-20.737 15.947-34.5 25.5-8.676 6.022-14.047 8.671-22.5 15-6.665 4.99-13.955 5.573-16.5 13.5-1.433 4.462-2.988 8.39 0 12 1.346 1.627 2.651 1.979 4.5 3 2.761 1.526 4.5 1.5 7.5 3s4.527-6.431 7.5-10.5c3.455-4.73 5.485-7.313 9-12 1.757-2.343 2.59-3.779 4.5-6 2.16-2.513 6-6 6-6s10.16-8.852 18-12c3.957-1.589 6.306-2.222 10.5-3 8.063-1.495 12.842.842 21 0 10.176-1.049 16.302-1.521 25.5-6 7.899-3.847 9.39-11.744 18-13.5 4.019-.819 11.999-3 10.499 0s-1.21 14.167-4.5 22.5c-3.58 9.067-8.35 12.722-13.499 21-7.907 12.711-10.483 21.052-19.5 33-2.26 2.994-3.864 4.417-6 7.5-2.69 3.882-3.301 6.625-6 10.5-2.615 3.755-5.118 5.094-7.5 9-1.365 2.237-3 6-3 6s-1.592 2.926-3 4.5c-1.954 2.183-6 4.5-6 4.5s-3.426 2.517-6 3c-1.728.324-2.743 0-4.5 0-2.344 0-3.661.135-6 0-11.842-.682-16.66-11.204-28.5-10.5-10.213.608-28.5 6-24 10.5s3 4.5 3 7.5-9.282 15.753-10.5 27c-.505 4.659.491 7.34 0 12-1.255 11.9-9.156 16.719-11.25 28.5-1.846 10.382-2.38 6.715 1.549 16.5 2.728 6.795 7.035 18.68 9.701 25.5 3.624 9.275 0 15.542 0 25.5v22.5s-.04 37.821 10.5 58.501c3.468 6.8 6.978 9.72 10.5 16.5 5.723 11.01 10.5 30 10.5 30 5.404 14.24 12.262 21.02 15 36 2.316 12.68 0 20.11 0 33s4.749 21.02 0 33c-3.541 8.93-11.394 10.59-15 19.5-5.057 12.49-4.5 24 0 34.5 4.414 10.3-13.209-5.16-20.584-11.64l-.416-.36c-4.682-4.11-4.5-3-10.5-12s9 36 9 36 1.231 1.76-.831 4.72a67.398 67.398 0 0 0-2.391 3.64c-5.707 11.53-14.35 17.18-16.737 13.94-.684-.92-.854-2.59-.291-5.05-9.795-10.32-6.75-5.25-11.25-18.75s-3 30 0 46.5-19.5-9-19.5-9-4.5 0 0 9-27-18-22.5-9 3.739 17.14 0 27c-3.969 10.46-13.5 31.5-19.5 21s-10.5-15-15-21 5.95 20.73 0 31.5c-5.502 9.95-21 33-24 16.5s-9-46.5-24-37.5-9 9-13.5 10.5-9-48-13.5-39-13.5 13.5-18 18-4.241-25.45-16.5-27c-8.321-1.06-13.5 9-19.5 9s0-27.75-13.5-30c-6.356-1.06-9.394-.94-15-3-13.24-4.87-17.803-13.3-27-24-7.416-8.62-8.97-15.48-16.5-24-3.84-4.35-6.527-6.28-10.5-10.5-6.835-7.27-13.287-10.06-16.5-19.5-2.83-8.32 0-13.71 0-22.5v-27c0-11.72-2.037-18.46 0-30 2.782-15.76 16.5-37.5 16.5-37.5l18-31.5s13.226-22.79 16.5-39.001c3.247-16.077-2.862-25.849 0-42 1.811-10.221 6.051-15.221 7.5-25.5 1.39-9.861 0-15.541 0-25.5 0-17.573 5.935-28.459 0-45-3.734-10.403-7.073-16.298-15-24-8.652-8.405-15.54-11.238-27-15-18.924-6.21-32.679 15.65-50.201 6.181-9.118-4.927-20.299-24.181-20.299-24.181s-14.078-7.808-18-16.5c-4.097-9.076-8.315-15.603-10.5-25.319-2.128-9.46 2.064-13.207 0-22.681C451.705 716.662 435 700.5 442.5 694.5s33.636 9.129 45 13.5c19.5 7.5 22.282 6.74 36 12 13.837 5.305 29.201 17.819 29.201 17.819s34.5 12 42 19.5-13.556-20.577-21.701-31.5c-8.434-11.309-10.875-8.327-22.5-16.319-12.953-8.905-19.636-18.865-33.799-25.681-15.115-7.274-44.5-26-52.5-31.5-7.966-5.476-8.199-5.816-21.527-25.245l-.174-.255c-12.614-18.388-15.799-30-15.799-25.5 0 0-7.297-20.68-9-34.5-1.577-12.79 0-33 0-33s4.5-57 9-51 2.385 31.275 6 51c2.382 13 2.773 20.658 7.5 33 4.029 10.523 7.2 16.158 13.5 25.5 7.887 11.697 27 34.5 24 27s-13.5-52.5-13.5-52.5l-10.5-39-13.5-45-13.5-54s-7.591-25.285-9-42c-.936-11.09 0-28.5 0-28.5s2.544-20.454 9-31.5c7.318-12.521 30-36 27-25.5s-10.665 14.595-13.5 25.5c-3.096 11.906-3.592 19.304-5.201 31.5-2.201 16.681-.071 32.956 5.201 43.5l13.5 27c5.272 10.544-1.64-17.673 0-34.5 1.079-11.077 6-28.5 10.5-36s7.24-22.282 18-31.5c17.299-14.819 19.5-54 19.5-54l6-43.5s13.5-14.819 13.5-7.319c0 7.5 5.251 25.628 4.5 37.319-.835 12.98 3.947 14.607 0 27-4.697 14.747-3.186 20.158-9 34.5-4.807 11.857-19.228 25.63-24 37.5-4.692 11.67-2.291 7.445-5.201 19.681-2.711 11.398-10.734 27.141-9.799 38.819.898 11.232 3.503 17.277 4.5 28.5 1.294 14.588 0 30 0 37.5s19.5-14.37 19.5-25.5v-28.5s2.569-16.758 6-27c3.911-11.678 13.5-23.819 13.5-23.819s34.5-24.181 31.5-19.681-9.674 17.601-16.5 28.5c-5.605 8.95-9 10.5-15 22.5s6 30 4.5 36 6.442-3.582 10.5-6c6.561-3.909 15.843-5.719 21.799-10.5 8.082-6.487 12.701-19.5 12.701-19.5s25.5-31.5 24-22.5-4.36 13.787-7.5 22.5c-2.767 7.676-2.266 13.241-7.5 19.5-4.9 5.859-11.163 15.537-16.5 21-5.687 5.821-5.241 1.29-10.5 7.5-9.35 11.041-31.5 19.5-31.5 19.5s-13.84 11.346-19.5 21c-6.186 10.552-9 30-9 30s-3.036 24.075 0 39c2.104 10.349 4.717 15.847 9 25.5 4.892 11.026 8.065 17.131 15 27 6.684 9.514 19.5 22.5 19.5 22.5l27 24s33 31.5 31.5 18-10.027-20.676-15-34.5c-4.141-11.509-7.516-17.859-9-30-2.525-20.648 6.841-31.81 9-52.5z" fill="#009688"/><path d="M579.701 566.819c3.403-32.627 0-84 0-84s-.065-.918 0-1.5c.457-4.117 4.5-7.5 7.5-4.5S596.531 488.795 600 492c4.059 3.751 4.602 9.653 6 15 1.398 5.347.987 7.342 1.5 12 .731 6.639 2.201 16.319 2.201 16.319l3 21V612c0 7.319 1.074 7.772 2.299 13.5 1.225 5.728 2.648 10.762 4.5 16.319 1.852 5.558 1.382 7.558 5.201 12 4.32 5.026 6.895 7.774 12 12 3.881 3.214 6.532 4.393 10.5 7.5 4.902 3.839 12 10.5 12 10.5s5.299 3.181 35.299 3c4.264-.025 43.396-1.807 45.701 0 2.304 1.808 2.166 4.23 4.5 6 5.133 3.895 11.366 3.895 16.5 0 2.333-1.77 2.193-4.194 4.5-6 2.483-1.945 4.448-2.201 7.5-3 6.233-1.632 10.056 0 16.5 0 5.272 0 8.339 1.08 13.5 0 6.41-1.341 9.724-3.618 15-7.5 4.637-3.413 6.773-5.995 10.422-10.406l.078-.094c4.038-4.882 9-13.5 9-13.5l6-13.5s5.744-11.532 7.5-19.5c2.52-11.441 0-30 0-30l-3-18-4.5-19.5s-2.201-10.229-4.5-16.5c-2.201-6-2.635-7.7-2.201-11.819 1.226-11.651 0-18.284 0-30 0-7.029-.799-15 2.201-19.5s5.299-3 6.799 0 1.972 5.312 2.201 8.819c.628 9.641 3.827 14.587 6 24 1.886 8.173 1.981 13 4.5 21 2.679 8.511 9 21 9 21l9 18s7.11 13.227 9 22.5c2.933 14.396 2.39 21.685 0 36.181-.972 5.894-.944 10.711-3 16.319-2.077 5.663-3.718 13.918-6 19.5-2.742 6.707-9 12-9 12v6c0 7.5 34.5-25.5 34.5-25.5l16.5-15s12.102-10.978 18-19.5c5.962-8.617 12-24 12-24l10.5-18 7.5-12 6-13.5s2.418-7.204 3-12c.563-4.652 0-7.314 0-12 0-5.858 1.42-9.317 0-15-1.271-5.083-1.828-8.83-6-12-2.512-1.908-4.659-1.629-7.5-3-5.708-2.752-7.86-6.113-13.5-9-6.104-3.124-10.344-2.981-16.5-6-7.586-3.719-18-12-18-12l-12-10.5-9-10.5-16.5-16.5s-6.565-4.667-9-9c-2.09-3.717-3-10.5-3-10.5s-1.5-9 0-12 3.03-4.904 5.299-4.319c5.672 1.464 5.632 12.105 9.701 16.319 4.639 4.805 8.078 6.6 13.5 10.5 5.143 3.7 8.887 4.656 13.5 9 3.33 3.137 4.264 5.765 7.5 9 3.235 3.235 7.5 3 9 7.5S930 448.5 928.5 444s-.357-1.921-1.5-4.681c-1.751-4.227-1.469-6.562-3.799-10.5-2.549-4.307-3.092-7.197-4.5-12-1.681-5.732-2.13-9.09-3-15-.943-6.401-1.718-10.033-1.5-16.5.159-4.72 1.5-12 1.5-12s3-6 7.5 3 2.987 21.072 9 33c4.169 8.271 13.5 19.5 13.5 19.5l19.5 25.5s15 15 12 6 3.356-17.004 0-27c-1.92-5.717-4.105-8.515-7.5-13.5-5.369-7.881-16.5-18-16.5-18l-10.5-15-19.5-22.5s-10.558-10.542-16.5-18c-5.772-7.244-13.5-19.5-13.5-19.5l-13.5-22.5-9-18s-8.352-17.92-12-30c-3.123-10.34-6-27-6-27s-2.665-13.244 0-21c1.534-4.466 4.5-19.5 6-10.5s31.5 58.5 31.5 58.5l25.5 39 21 31.5 28.5 33s7.5 13.5 4.5-6 10.238-39.774 0-61.5c-3.949-8.378-13.5-19.5-13.5-19.5s-5.303-7.883-7.5-13.5c-1.555-3.971-1.5-7.5-3-10.5s4.627-.574 7.5 0c6.549 1.31 9.084 5.489 13.5 10.5C972.762 266.198 984 277.5 984 277.5s4.771 13.929 8.201 21c4.231 8.725 3.388 12.687 4.5 22.319.402 3.492 0 5.485 0 9 0 22.846-1.5 55.5 0 58.5s3.108 3.423 4.499 6c2.03 3.753 1.03 6.716 3 10.5 2.11 4.06 5.39 4.941 7.5 9 2.76 5.3 2 9.11 3 15 5.57 32.922 4.07 52.359 0 85.5-1.67 13.574-2.47 21.289-6 34.5-2.39 8.948-4.2 13.845-7.5 22.5-3.177 8.338-4.541 13.271-8.999 21-3.982 6.902-9 13.5-12 16.5s7.86-2.788 12-6c4.267-3.31 8.999-10.5 8.999-10.5s4.77-5.328 7.5-9c2.52-3.39 6-9 6-9l4.5-7.5s4.04-6.204 6-10.5c2.31-5.055 3.02-8.143 4.5-13.5 1.44-5.206 3-13.5 3-13.5l4.5-22.5s2.42-10.897 3-18c.58-7.006-.87-11.024 0-18 .67-5.359 3-13.5 3-13.5s4.5-12 4.5-15 3-10.5 6-3 2.83 63.487-3 103.5c-1.03 7.052-3 18-3 18s-2.82 10.035-4.5 16.5c-1.21 4.676-1.34 7.462-3 12-1.8 4.922-2.69 7.939-6 12-2.89 3.546-5.48 4.583-9 7.5-6.41 5.31-9.95 8.362-16.5 13.5-6.91 5.424-11.226 7.903-17.999 13.5-6.076 5.02-8.878 8.538-15 13.5-6.19 5.017-10.114 7.236-16.5 12-7.701 5.746-11.844 9.196-19.5 15-13.351 10.122-20.737 15.947-34.5 25.5-8.676 6.022-14.047 8.671-22.5 15-6.665 4.99-13.955 5.573-16.5 13.5-1.433 4.462-2.988 8.39 0 12 1.346 1.627 2.651 1.979 4.5 3 2.761 1.526 4.5 1.5 7.5 3s4.527-6.431 7.5-10.5c3.455-4.73 5.485-7.313 9-12 1.757-2.343 2.59-3.779 4.5-6 2.16-2.513 6-6 6-6s10.16-8.852 18-12c3.957-1.589 6.306-2.222 10.5-3 8.063-1.495 12.842.842 21 0 10.176-1.049 16.302-1.521 25.5-6 7.899-3.847 9.39-11.744 18-13.5 4.019-.819 11.999-3 10.499 0s-1.21 14.167-4.5 22.5c-3.58 9.067-8.35 12.722-13.499 21-7.907 12.711-10.483 21.052-19.5 33-2.26 2.994-3.864 4.417-6 7.5-2.69 3.882-3.301 6.625-6 10.5-2.615 3.755-5.118 5.094-7.5 9-1.365 2.237-3 6-3 6s-1.592 2.926-3 4.5c-1.954 2.183-6 4.5-6 4.5s-3.426 2.517-6 3c-1.728.324-2.743 0-4.5 0-2.344 0-3.661.135-6 0-11.842-.682-16.66-11.204-28.5-10.5-10.213.608-28.5 6-24 10.5s3 4.5 3 7.5-9.282 15.753-10.5 27c-.505 4.659.491 7.34 0 12-1.255 11.9-9.156 16.719-11.25 28.5-1.846 10.382-2.38 6.715 1.549 16.5 2.728 6.795 7.035 18.68 9.701 25.5 3.624 9.275 0 15.542 0 25.5v22.5s-.04 37.821 10.5 58.501c3.468 6.8 6.978 9.72 10.5 16.5 5.723 11.01 10.5 30 10.5 30 5.404 14.24 12.262 21.02 15 36 2.316 12.68 0 20.11 0 33s4.749 21.02 0 33c-3.541 8.93-11.394 10.59-15 19.5-5.057 12.49-4.5 24 0 34.5 4.414 10.3-13.209-5.16-20.584-11.64l-.416-.36c-4.682-4.11-4.5-3-10.5-12s9 36 9 36 1.231 1.76-.831 4.72a67.398 67.398 0 0 0-2.391 3.64c-5.707 11.53-14.35 17.18-16.737 13.94-.684-.92-.854-2.59-.291-5.05-9.795-10.32-6.75-5.25-11.25-18.75s-3 30 0 46.5-19.5-9-19.5-9-4.5 0 0 9-27-18-22.5-9 3.739 17.14 0 27c-3.969 10.46-13.5 31.5-19.5 21s-10.5-15-15-21 5.95 20.73 0 31.5c-5.502 9.95-21 33-24 16.5s-9-46.5-24-37.5-9 9-13.5 10.5-9-48-13.5-39-13.5 13.5-18 18-4.241-25.45-16.5-27c-8.321-1.06-13.5 9-19.5 9s0-27.75-13.5-30c-6.356-1.06-9.394-.94-15-3-13.24-4.87-17.803-13.3-27-24-7.416-8.62-8.97-15.48-16.5-24-3.84-4.35-6.527-6.28-10.5-10.5-6.835-7.27-13.287-10.06-16.5-19.5-2.83-8.32 0-13.71 0-22.5v-27c0-11.72-2.037-18.46 0-30 2.782-15.76 16.5-37.5 16.5-37.5l18-31.5s13.226-22.79 16.5-39.001c3.247-16.077-2.862-25.849 0-42 1.811-10.221 6.051-15.221 7.5-25.5 1.39-9.861 0-15.541 0-25.5 0-17.573 5.935-28.459 0-45-3.734-10.403-7.073-16.298-15-24-8.652-8.405-15.54-11.238-27-15-18.924-6.21-32.679 15.65-50.201 6.181-9.118-4.927-20.299-24.181-20.299-24.181s-14.078-7.808-18-16.5c-4.097-9.076-8.315-15.603-10.5-25.319-2.128-9.46 2.064-13.207 0-22.681C451.705 716.662 435 700.5 442.5 694.5s33.636 9.129 45 13.5c19.5 7.5 22.282 6.74 36 12 13.837 5.305 29.201 17.819 29.201 17.819s34.5 12 42 19.5-13.556-20.577-21.701-31.5c-8.434-11.309-10.875-8.327-22.5-16.319-12.953-8.905-19.636-18.865-33.799-25.681-15.115-7.274-44.5-26-52.5-31.5-7.966-5.476-8.199-5.816-21.527-25.245l-.174-.255c-12.614-18.388-15.799-30-15.799-25.5 0 0-7.297-20.68-9-34.5-1.577-12.79 0-33 0-33s4.5-57 9-51 2.385 31.275 6 51c2.382 13 2.773 20.658 7.5 33 4.029 10.523 7.2 16.158 13.5 25.5 7.887 11.697 27 34.5 24 27s-13.5-52.5-13.5-52.5l-10.5-39-13.5-45-13.5-54s-7.591-25.285-9-42c-.936-11.09 0-28.5 0-28.5s2.544-20.454 9-31.5c7.318-12.521 30-36 27-25.5s-10.665 14.595-13.5 25.5c-3.096 11.906-3.592 19.304-5.201 31.5-2.201 16.681-.071 32.956 5.201 43.5l13.5 27c5.272 10.544-1.64-17.673 0-34.5 1.079-11.077 6-28.5 10.5-36s7.24-22.282 18-31.5c17.299-14.819 19.5-54 19.5-54l6-43.5s13.5-14.819 13.5-7.319c0 7.5 5.251 25.628 4.5 37.319-.835 12.98 3.947 14.607 0 27-4.697 14.747-3.186 20.158-9 34.5-4.807 11.857-19.228 25.63-24 37.5-4.692 11.67-2.291 7.445-5.201 19.681-2.711 11.398-10.734 27.141-9.799 38.819.898 11.232 3.503 17.277 4.5 28.5 1.294 14.588 0 30 0 37.5s19.5-14.37 19.5-25.5v-28.5s2.569-16.758 6-27c3.911-11.678 13.5-23.819 13.5-23.819s34.5-24.181 31.5-19.681-9.674 17.601-16.5 28.5c-5.605 8.95-9 10.5-15 22.5s6 30 4.5 36 6.442-3.582 10.5-6c6.561-3.909 15.843-5.719 21.799-10.5 8.082-6.487 12.701-19.5 12.701-19.5s25.5-31.5 24-22.5-4.36 13.787-7.5 22.5c-2.767 7.676-2.266 13.241-7.5 19.5-4.9 5.859-11.163 15.537-16.5 21-5.687 5.821-5.241 1.29-10.5 7.5-9.35 11.041-31.5 19.5-31.5 19.5s-13.84 11.346-19.5 21c-6.186 10.552-9 30-9 30s-3.036 24.075 0 39c2.104 10.349 4.717 15.847 9 25.5 4.892 11.026 8.065 17.131 15 27 6.684 9.514 19.5 22.5 19.5 22.5l27 24s33 31.5 31.5 18-10.027-20.676-15-34.5c-4.141-11.509-7.516-17.859-9-30-2.525-20.648 6.841-31.81 9-52.5z" fill="#9466FF"/><path d="M579.701 566.819c3.403-32.627 0-84 0-84s-.065-.918 0-1.5c.457-4.117 4.5-7.5 7.5-4.5S596.531 488.795 600 492c4.059 3.751 4.602 9.653 6 15 1.398 5.347.987 7.342 1.5 12 .731 6.639 2.201 16.319 2.201 16.319l3 21V612c0 7.319 1.074 7.772 2.299 13.5 1.225 5.728 2.648 10.762 4.5 16.319 1.852 5.558 1.382 7.558 5.201 12 4.32 5.026 6.895 7.774 12 12 3.881 3.214 6.532 4.393 10.5 7.5 4.902 3.839 12 10.5 12 10.5s5.299 3.181 35.299 3c4.264-.025 43.396-1.807 45.701 0 2.304 1.808 2.166 4.23 4.5 6 5.133 3.895 11.366 3.895 16.5 0 2.333-1.77 2.193-4.194 4.5-6 2.483-1.945 4.448-2.201 7.5-3 6.233-1.632 10.056 0 16.5 0 5.272 0 8.339 1.08 13.5 0 6.41-1.341 9.724-3.618 15-7.5 4.637-3.413 6.773-5.995 10.422-10.406l.078-.094c4.038-4.882 9-13.5 9-13.5l6-13.5s5.744-11.532 7.5-19.5c2.52-11.441 0-30 0-30l-3-18-4.5-19.5s-2.201-10.229-4.5-16.5c-2.201-6-2.635-7.7-2.201-11.819 1.226-11.651 0-18.284 0-30 0-7.029-.799-15 2.201-19.5s5.299-3 6.799 0 1.972 5.312 2.201 8.819c.628 9.641 3.827 14.587 6 24 1.886 8.173 1.981 13 4.5 21 2.679 8.511 9 21 9 21l9 18s7.11 13.227 9 22.5c2.933 14.396 2.39 21.685 0 36.181-.972 5.894-.944 10.711-3 16.319-2.077 5.663-3.718 13.918-6 19.5-2.742 6.707-9 12-9 12v6c0 7.5 34.5-25.5 34.5-25.5l16.5-15s12.102-10.978 18-19.5c5.962-8.617 12-24 12-24l10.5-18 7.5-12 6-13.5s2.418-7.204 3-12c.563-4.652 0-7.314 0-12 0-5.858 1.42-9.317 0-15-1.271-5.083-1.828-8.83-6-12-2.512-1.908-4.659-1.629-7.5-3-5.708-2.752-7.86-6.113-13.5-9-6.104-3.124-10.344-2.981-16.5-6-7.586-3.719-18-12-18-12l-12-10.5-9-10.5-16.5-16.5s-6.565-4.667-9-9c-2.09-3.717-3-10.5-3-10.5s-1.5-9 0-12 3.03-4.904 5.299-4.319c5.672 1.464 5.632 12.105 9.701 16.319 4.639 4.805 8.078 6.6 13.5 10.5 5.143 3.7 8.887 4.656 13.5 9 3.33 3.137 4.264 5.765 7.5 9 3.235 3.235 7.5 3 9 7.5S930 448.5 928.5 444s-.357-1.921-1.5-4.681c-1.751-4.227-1.469-6.562-3.799-10.5-2.549-4.307-3.092-7.197-4.5-12-1.681-5.732-2.13-9.09-3-15-.943-6.401-1.718-10.033-1.5-16.5.159-4.72 1.5-12 1.5-12s3-6 7.5 3 2.987 21.072 9 33c4.169 8.271 13.5 19.5 13.5 19.5l19.5 25.5s15 15 12 6 3.356-17.004 0-27c-1.92-5.717-4.105-8.515-7.5-13.5-5.369-7.881-16.5-18-16.5-18l-10.5-15-19.5-22.5s-10.558-10.542-16.5-18c-5.772-7.244-13.5-19.5-13.5-19.5l-13.5-22.5-9-18s-8.352-17.92-12-30c-3.123-10.34-6-27-6-27s-2.665-13.244 0-21c1.534-4.466 4.5-19.5 6-10.5s31.5 58.5 31.5 58.5l25.5 39 21 31.5 28.5 33s7.5 13.5 4.5-6 10.238-39.774 0-61.5c-3.949-8.378-13.5-19.5-13.5-19.5s-5.303-7.883-7.5-13.5c-1.555-3.971-1.5-7.5-3-10.5s4.627-.574 7.5 0c6.549 1.31 9.084 5.489 13.5 10.5C972.762 266.198 984 277.5 984 277.5s4.771 13.929 8.201 21c4.231 8.725 3.388 12.687 4.5 22.319.402 3.492 0 5.485 0 9 0 22.846-1.5 55.5 0 58.5s3.108 3.423 4.499 6c2.03 3.753 1.03 6.716 3 10.5 2.11 4.06 5.39 4.941 7.5 9 2.76 5.3 2 9.11 3 15 5.57 32.922 4.07 52.359 0 85.5-1.67 13.574-2.47 21.289-6 34.5-2.39 8.948-4.2 13.845-7.5 22.5-3.177 8.338-4.541 13.271-8.999 21-3.982 6.902-9 13.5-12 16.5s7.86-2.788 12-6c4.267-3.31 8.999-10.5 8.999-10.5s4.77-5.328 7.5-9c2.52-3.39 6-9 6-9l4.5-7.5s4.04-6.204 6-10.5c2.31-5.055 3.02-8.143 4.5-13.5 1.44-5.206 3-13.5 3-13.5l4.5-22.5s2.42-10.897 3-18c.58-7.006-.87-11.024 0-18 .67-5.359 3-13.5 3-13.5s4.5-12 4.5-15 3-10.5 6-3 2.83 63.487-3 103.5c-1.03 7.052-3 18-3 18s-2.82 10.035-4.5 16.5c-1.21 4.676-1.34 7.462-3 12-1.8 4.922-2.69 7.939-6 12-2.89 3.546-5.48 4.583-9 7.5-6.41 5.31-9.95 8.362-16.5 13.5-6.91 5.424-11.226 7.903-17.999 13.5-6.076 5.02-8.878 8.538-15 13.5-6.19 5.017-10.114 7.236-16.5 12-7.701 5.746-11.844 9.196-19.5 15-13.351 10.122-20.737 15.947-34.5 25.5-8.676 6.022-14.047 8.671-22.5 15-6.665 4.99-13.955 5.573-16.5 13.5-1.433 4.462-2.988 8.39 0 12 1.346 1.627 2.651 1.979 4.5 3 2.761 1.526 4.5 1.5 7.5 3s4.527-6.431 7.5-10.5c3.455-4.73 5.485-7.313 9-12 1.757-2.343 2.59-3.779 4.5-6 2.16-2.513 6-6 6-6s10.16-8.852 18-12c3.957-1.589 6.306-2.222 10.5-3 8.063-1.495 12.842.842 21 0 10.176-1.049 16.302-1.521 25.5-6 7.899-3.847 9.39-11.744 18-13.5 4.019-.819 11.999-3 10.499 0s-1.21 14.167-4.5 22.5c-3.58 9.067-8.35 12.722-13.499 21-7.907 12.711-10.483 21.052-19.5 33-2.26 2.994-3.864 4.417-6 7.5-2.69 3.882-3.301 6.625-6 10.5-2.615 3.755-5.118 5.094-7.5 9-1.365 2.237-3 6-3 6s-1.592 2.926-3 4.5c-1.954 2.183-6 4.5-6 4.5s-3.426 2.517-6 3c-1.728.324-2.743 0-4.5 0-2.344 0-3.661.135-6 0-11.842-.682-16.66-11.204-28.5-10.5-10.213.608-28.5 6-24 10.5s3 4.5 3 7.5-9.282 15.753-10.5 27c-.505 4.659.491 7.34 0 12-1.255 11.9-9.156 16.719-11.25 28.5-1.846 10.382-2.38 6.715 1.549 16.5 2.728 6.795 7.035 18.68 9.701 25.5 3.624 9.275 0 15.542 0 25.5v22.5s-.04 37.821 10.5 58.501c3.468 6.8 6.978 9.72 10.5 16.5 5.723 11.01 10.5 30 10.5 30 5.404 14.24 12.262 21.02 15 36 2.316 12.68 0 20.11 0 33s4.749 21.02 0 33c-3.541 8.93-11.394 10.59-15 19.5-5.057 12.49-4.5 24 0 34.5 4.414 10.3-13.209-5.16-20.584-11.64l-.416-.36c-4.682-4.11-4.5-3-10.5-12s9 36 9 36 1.231 1.76-.831 4.72a67.398 67.398 0 0 0-2.391 3.64c-5.707 11.53-14.35 17.18-16.737 13.94-.684-.92-.854-2.59-.291-5.05-9.795-10.32-6.75-5.25-11.25-18.75s-3 30 0 46.5-19.5-9-19.5-9-4.5 0 0 9-27-18-22.5-9 3.739 17.14 0 27c-3.969 10.46-13.5 31.5-19.5 21s-10.5-15-15-21 5.95 20.73 0 31.5c-5.502 9.95-21 33-24 16.5s-9-46.5-24-37.5-9 9-13.5 10.5-9-48-13.5-39-13.5 13.5-18 18-4.241-25.45-16.5-27c-8.321-1.06-13.5 9-19.5 9s0-27.75-13.5-30c-6.356-1.06-9.394-.94-15-3-13.24-4.87-17.803-13.3-27-24-7.416-8.62-8.97-15.48-16.5-24-3.84-4.35-6.527-6.28-10.5-10.5-6.835-7.27-13.287-10.06-16.5-19.5-2.83-8.32 0-13.71 0-22.5v-27c0-11.72-2.037-18.46 0-30 2.782-15.76 16.5-37.5 16.5-37.5l18-31.5s13.226-22.79 16.5-39.001c3.247-16.077-2.862-25.849 0-42 1.811-10.221 6.051-15.221 7.5-25.5 1.39-9.861 0-15.541 0-25.5 0-17.573 5.935-28.459 0-45-3.734-10.403-7.073-16.298-15-24-8.652-8.405-15.54-11.238-27-15-18.924-6.21-32.679 15.65-50.201 6.181-9.118-4.927-20.299-24.181-20.299-24.181s-14.078-7.808-18-16.5c-4.097-9.076-8.315-15.603-10.5-25.319-2.128-9.46 2.064-13.207 0-22.681C451.705 716.662 435 700.5 442.5 694.5s33.636 9.129 45 13.5c19.5 7.5 22.282 6.74 36 12 13.837 5.305 29.201 17.819 29.201 17.819s34.5 12 42 19.5-13.556-20.577-21.701-31.5c-8.434-11.309-10.875-8.327-22.5-16.319-12.953-8.905-19.636-18.865-33.799-25.681-15.115-7.274-44.5-26-52.5-31.5-7.966-5.476-8.199-5.816-21.527-25.245l-.174-.255c-12.614-18.388-15.799-30-15.799-25.5 0 0-7.297-20.68-9-34.5-1.577-12.79 0-33 0-33s4.5-57 9-51 2.385 31.275 6 51c2.382 13 2.773 20.658 7.5 33 4.029 10.523 7.2 16.158 13.5 25.5 7.887 11.697 27 34.5 24 27s-13.5-52.5-13.5-52.5l-10.5-39-13.5-45-13.5-54s-7.591-25.285-9-42c-.936-11.09 0-28.5 0-28.5s2.544-20.454 9-31.5c7.318-12.521 30-36 27-25.5s-10.665 14.595-13.5 25.5c-3.096 11.906-3.592 19.304-5.201 31.5-2.201 16.681-.071 32.956 5.201 43.5l13.5 27c5.272 10.544-1.64-17.673 0-34.5 1.079-11.077 6-28.5 10.5-36s7.24-22.282 18-31.5c17.299-14.819 19.5-54 19.5-54l6-43.5s13.5-14.819 13.5-7.319c0 7.5 5.251 25.628 4.5 37.319-.835 12.98 3.947 14.607 0 27-4.697 14.747-3.186 20.158-9 34.5-4.807 11.857-19.228 25.63-24 37.5-4.692 11.67-2.291 7.445-5.201 19.681-2.711 11.398-10.734 27.141-9.799 38.819.898 11.232 3.503 17.277 4.5 28.5 1.294 14.588 0 30 0 37.5s19.5-14.37 19.5-25.5v-28.5s2.569-16.758 6-27c3.911-11.678 13.5-23.819 13.5-23.819s34.5-24.181 31.5-19.681-9.674 17.601-16.5 28.5c-5.605 8.95-9 10.5-15 22.5s6 30 4.5 36 6.442-3.582 10.5-6c6.561-3.909 15.843-5.719 21.799-10.5 8.082-6.487 12.701-19.5 12.701-19.5s25.5-31.5 24-22.5-4.36 13.787-7.5 22.5c-2.767 7.676-2.266 13.241-7.5 19.5-4.9 5.859-11.163 15.537-16.5 21-5.687 5.821-5.241 1.29-10.5 7.5-9.35 11.041-31.5 19.5-31.5 19.5s-13.84 11.346-19.5 21c-6.186 10.552-9 30-9 30s-3.036 24.075 0 39c2.104 10.349 4.717 15.847 9 25.5 4.892 11.026 8.065 17.131 15 27 6.684 9.514 19.5 22.5 19.5 22.5l27 24s33 31.5 31.5 18-10.027-20.676-15-34.5c-4.141-11.509-7.516-17.859-9-30-2.525-20.648 6.841-31.81 9-52.5z" fill="#03A9F4"/><path d="M579.701 566.819c3.403-32.627 0-84 0-84s-.065-.918 0-1.5c.457-4.117 4.5-7.5 7.5-4.5S596.531 488.795 600 492c4.059 3.751 4.602 9.653 6 15 1.398 5.347.987 7.342 1.5 12 .731 6.639 2.201 16.319 2.201 16.319l3 21V612c0 7.319 1.074 7.772 2.299 13.5 1.225 5.728 2.648 10.762 4.5 16.319 1.852 5.558 1.382 7.558 5.201 12 4.32 5.026 6.895 7.774 12 12 3.881 3.214 6.532 4.393 10.5 7.5 4.902 3.839 12 10.5 12 10.5s5.299 3.181 35.299 3c4.264-.025 43.396-1.807 45.701 0 2.304 1.808 2.166 4.23 4.5 6 5.133 3.895 11.366 3.895 16.5 0 2.333-1.77 2.193-4.194 4.5-6 2.483-1.945 4.448-2.201 7.5-3 6.233-1.632 10.056 0 16.5 0 5.272 0 8.339 1.08 13.5 0 6.41-1.341 9.724-3.618 15-7.5 4.637-3.413 6.773-5.995 10.422-10.406l.078-.094c4.038-4.882 9-13.5 9-13.5l6-13.5s5.744-11.532 7.5-19.5c2.52-11.441 0-30 0-30l-3-18-4.5-19.5s-2.201-10.229-4.5-16.5c-2.201-6-2.635-7.7-2.201-11.819 1.226-11.651 0-18.284 0-30 0-7.029-.799-15 2.201-19.5s5.299-3 6.799 0 1.972 5.312 2.201 8.819c.628 9.641 3.827 14.587 6 24 1.886 8.173 1.981 13 4.5 21 2.679 8.511 9 21 9 21l9 18s7.11 13.227 9 22.5c2.933 14.396 2.39 21.685 0 36.181-.972 5.894-.944 10.711-3 16.319-2.077 5.663-3.718 13.918-6 19.5-2.742 6.707-9 12-9 12v6c0 7.5 34.5-25.5 34.5-25.5l16.5-15s12.102-10.978 18-19.5c5.962-8.617 12-24 12-24l10.5-18 7.5-12 6-13.5s2.418-7.204 3-12c.563-4.652 0-7.314 0-12 0-5.858 1.42-9.317 0-15-1.271-5.083-1.828-8.83-6-12-2.512-1.908-4.659-1.629-7.5-3-5.708-2.752-7.86-6.113-13.5-9-6.104-3.124-10.344-2.981-16.5-6-7.586-3.719-18-12-18-12l-12-10.5-9-10.5-16.5-16.5s-6.565-4.667-9-9c-2.09-3.717-3-10.5-3-10.5s-1.5-9 0-12 3.03-4.904 5.299-4.319c5.672 1.464 5.632 12.105 9.701 16.319 4.639 4.805 8.078 6.6 13.5 10.5 5.143 3.7 8.887 4.656 13.5 9 3.33 3.137 4.264 5.765 7.5 9 3.235 3.235 7.5 3 9 7.5S930 448.5 928.5 444s-.357-1.921-1.5-4.681c-1.751-4.227-1.469-6.562-3.799-10.5-2.549-4.307-3.092-7.197-4.5-12-1.681-5.732-2.13-9.09-3-15-.943-6.401-1.718-10.033-1.5-16.5.159-4.72 1.5-12 1.5-12s3-6 7.5 3 2.987 21.072 9 33c4.169 8.271 13.5 19.5 13.5 19.5l19.5 25.5s15 15 12 6 3.356-17.004 0-27c-1.92-5.717-4.105-8.515-7.5-13.5-5.369-7.881-16.5-18-16.5-18l-10.5-15-19.5-22.5s-10.558-10.542-16.5-18c-5.772-7.244-13.5-19.5-13.5-19.5l-13.5-22.5-9-18s-8.352-17.92-12-30c-3.123-10.34-6-27-6-27s-2.665-13.244 0-21c1.534-4.466 4.5-19.5 6-10.5s31.5 58.5 31.5 58.5l25.5 39 21 31.5 28.5 33s7.5 13.5 4.5-6 10.238-39.774 0-61.5c-3.949-8.378-13.5-19.5-13.5-19.5s-5.303-7.883-7.5-13.5c-1.555-3.971-1.5-7.5-3-10.5s4.627-.574 7.5 0c6.549 1.31 9.084 5.489 13.5 10.5C972.762 266.198 984 277.5 984 277.5s4.771 13.929 8.201 21c4.231 8.725 3.388 12.687 4.5 22.319.402 3.492 0 5.485 0 9 0 22.846-1.5 55.5 0 58.5s3.108 3.423 4.499 6c2.03 3.753 1.03 6.716 3 10.5 2.11 4.06 5.39 4.941 7.5 9 2.76 5.3 2 9.11 3 15 5.57 32.922 4.07 52.359 0 85.5-1.67 13.574-2.47 21.289-6 34.5-2.39 8.948-4.2 13.845-7.5 22.5-3.177 8.338-4.541 13.271-8.999 21-3.982 6.902-9 13.5-12 16.5s7.86-2.788 12-6c4.267-3.31 8.999-10.5 8.999-10.5s4.77-5.328 7.5-9c2.52-3.39 6-9 6-9l4.5-7.5s4.04-6.204 6-10.5c2.31-5.055 3.02-8.143 4.5-13.5 1.44-5.206 3-13.5 3-13.5l4.5-22.5s2.42-10.897 3-18c.58-7.006-.87-11.024 0-18 .67-5.359 3-13.5 3-13.5s4.5-12 4.5-15 3-10.5 6-3 2.83 63.487-3 103.5c-1.03 7.052-3 18-3 18s-2.82 10.035-4.5 16.5c-1.21 4.676-1.34 7.462-3 12-1.8 4.922-2.69 7.939-6 12-2.89 3.546-5.48 4.583-9 7.5-6.41 5.31-9.95 8.362-16.5 13.5-6.91 5.424-11.226 7.903-17.999 13.5-6.076 5.02-8.878 8.538-15 13.5-6.19 5.017-10.114 7.236-16.5 12-7.701 5.746-11.844 9.196-19.5 15-13.351 10.122-20.737 15.947-34.5 25.5-8.676 6.022-14.047 8.671-22.5 15-6.665 4.99-13.955 5.573-16.5 13.5-1.433 4.462-2.988 8.39 0 12 1.346 1.627 2.651 1.979 4.5 3 2.761 1.526 4.5 1.5 7.5 3s4.527-6.431 7.5-10.5c3.455-4.73 5.485-7.313 9-12 1.757-2.343 2.59-3.779 4.5-6 2.16-2.513 6-6 6-6s10.16-8.852 18-12c3.957-1.589 6.306-2.222 10.5-3 8.063-1.495 12.842.842 21 0 10.176-1.049 16.302-1.521 25.5-6 7.899-3.847 9.39-11.744 18-13.5 4.019-.819 11.999-3 10.499 0s-1.21 14.167-4.5 22.5c-3.58 9.067-8.35 12.722-13.499 21-7.907 12.711-10.483 21.052-19.5 33-2.26 2.994-3.864 4.417-6 7.5-2.69 3.882-3.301 6.625-6 10.5-2.615 3.755-5.118 5.094-7.5 9-1.365 2.237-3 6-3 6s-1.592 2.926-3 4.5c-1.954 2.183-6 4.5-6 4.5s-3.426 2.517-6 3c-1.728.324-2.743 0-4.5 0-2.344 0-3.661.135-6 0-11.842-.682-16.66-11.204-28.5-10.5-10.213.608-28.5 6-24 10.5s3 4.5 3 7.5-9.282 15.753-10.5 27c-.505 4.659.491 7.34 0 12-1.255 11.9-9.156 16.719-11.25 28.5-1.846 10.382-2.38 6.715 1.549 16.5 2.728 6.795 7.035 18.68 9.701 25.5 3.624 9.275 0 15.542 0 25.5v22.5s-.04 37.821 10.5 58.501c3.468 6.8 6.978 9.72 10.5 16.5 5.723 11.01 10.5 30 10.5 30 5.404 14.24 12.262 21.02 15 36 2.316 12.68 0 20.11 0 33s4.749 21.02 0 33c-3.541 8.93-11.394 10.59-15 19.5-5.057 12.49-4.5 24 0 34.5 4.414 10.3-13.209-5.16-20.584-11.64l-.416-.36c-4.682-4.11-4.5-3-10.5-12s9 36 9 36 1.231 1.76-.831 4.72a67.398 67.398 0 0 0-2.391 3.64c-5.707 11.53-14.35 17.18-16.737 13.94-.684-.92-.854-2.59-.291-5.05-9.795-10.32-6.75-5.25-11.25-18.75s-3 30 0 46.5-19.5-9-19.5-9-4.5 0 0 9-27-18-22.5-9 3.739 17.14 0 27c-3.969 10.46-13.5 31.5-19.5 21s-10.5-15-15-21 5.95 20.73 0 31.5c-5.502 9.95-21 33-24 16.5s-9-46.5-24-37.5-9 9-13.5 10.5-9-48-13.5-39-13.5 13.5-18 18-4.241-25.45-16.5-27c-8.321-1.06-13.5 9-19.5 9s0-27.75-13.5-30c-6.356-1.06-9.394-.94-15-3-13.24-4.87-17.803-13.3-27-24-7.416-8.62-8.97-15.48-16.5-24-3.84-4.35-6.527-6.28-10.5-10.5-6.835-7.27-13.287-10.06-16.5-19.5-2.83-8.32 0-13.71 0-22.5v-27c0-11.72-2.037-18.46 0-30 2.782-15.76 16.5-37.5 16.5-37.5l18-31.5s13.226-22.79 16.5-39.001c3.247-16.077-2.862-25.849 0-42 1.811-10.221 6.051-15.221 7.5-25.5 1.39-9.861 0-15.541 0-25.5 0-17.573 5.935-28.459 0-45-3.734-10.403-7.073-16.298-15-24-8.652-8.405-15.54-11.238-27-15-18.924-6.21-32.679 15.65-50.201 6.181-9.118-4.927-20.299-24.181-20.299-24.181s-14.078-7.808-18-16.5c-4.097-9.076-8.315-15.603-10.5-25.319-2.128-9.46 2.064-13.207 0-22.681C451.705 716.662 435 700.5 442.5 694.5s33.636 9.129 45 13.5c19.5 7.5 22.282 6.74 36 12 13.837 5.305 29.201 17.819 29.201 17.819s34.5 12 42 19.5-13.556-20.577-21.701-31.5c-8.434-11.309-10.875-8.327-22.5-16.319-12.953-8.905-19.636-18.865-33.799-25.681-15.115-7.274-44.5-26-52.5-31.5-7.966-5.476-8.199-5.816-21.527-25.245l-.174-.255c-12.614-18.388-15.799-30-15.799-25.5 0 0-7.297-20.68-9-34.5-1.577-12.79 0-33 0-33s4.5-57 9-51 2.385 31.275 6 51c2.382 13 2.773 20.658 7.5 33 4.029 10.523 7.2 16.158 13.5 25.5 7.887 11.697 27 34.5 24 27s-13.5-52.5-13.5-52.5l-10.5-39-13.5-45-13.5-54s-7.591-25.285-9-42c-.936-11.09 0-28.5 0-28.5s2.544-20.454 9-31.5c7.318-12.521 30-36 27-25.5s-10.665 14.595-13.5 25.5c-3.096 11.906-3.592 19.304-5.201 31.5-2.201 16.681-.071 32.956 5.201 43.5l13.5 27c5.272 10.544-1.64-17.673 0-34.5 1.079-11.077 6-28.5 10.5-36s7.24-22.282 18-31.5c17.299-14.819 19.5-54 19.5-54l6-43.5s13.5-14.819 13.5-7.319c0 7.5 5.251 25.628 4.5 37.319-.835 12.98 3.947 14.607 0 27-4.697 14.747-3.186 20.158-9 34.5-4.807 11.857-19.228 25.63-24 37.5-4.692 11.67-2.291 7.445-5.201 19.681-2.711 11.398-10.734 27.141-9.799 38.819.898 11.232 3.503 17.277 4.5 28.5 1.294 14.588 0 30 0 37.5s19.5-14.37 19.5-25.5v-28.5s2.569-16.758 6-27c3.911-11.678 13.5-23.819 13.5-23.819s34.5-24.181 31.5-19.681-9.674 17.601-16.5 28.5c-5.605 8.95-9 10.5-15 22.5s6 30 4.5 36 6.442-3.582 10.5-6c6.561-3.909 15.843-5.719 21.799-10.5 8.082-6.487 12.701-19.5 12.701-19.5s25.5-31.5 24-22.5-4.36 13.787-7.5 22.5c-2.767 7.676-2.266 13.241-7.5 19.5-4.9 5.859-11.163 15.537-16.5 21-5.687 5.821-5.241 1.29-10.5 7.5-9.35 11.041-31.5 19.5-31.5 19.5s-13.84 11.346-19.5 21c-6.186 10.552-9 30-9 30s-3.036 24.075 0 39c2.104 10.349 4.717 15.847 9 25.5 4.892 11.026 8.065 17.131 15 27 6.684 9.514 19.5 22.5 19.5 22.5l27 24s33 31.5 31.5 18-10.027-20.676-15-34.5c-4.141-11.509-7.516-17.859-9-30-2.525-20.648 6.841-31.81 9-52.5z" fill="#4CAF50"/><path d="M579.701 566.819c3.403-32.627 0-84 0-84s-.065-.918 0-1.5c.457-4.117 4.5-7.5 7.5-4.5S596.531 488.795 600 492c4.059 3.751 4.602 9.653 6 15 1.398 5.347.987 7.342 1.5 12 .731 6.639 2.201 16.319 2.201 16.319l3 21V612c0 7.319 1.074 7.772 2.299 13.5 1.225 5.728 2.648 10.762 4.5 16.319 1.852 5.558 1.382 7.558 5.201 12 4.32 5.026 6.895 7.774 12 12 3.881 3.214 6.532 4.393 10.5 7.5 4.902 3.839 12 10.5 12 10.5s5.299 3.181 35.299 3c4.264-.025 43.396-1.807 45.701 0 2.304 1.808 2.166 4.23 4.5 6 5.133 3.895 11.366 3.895 16.5 0 2.333-1.77 2.193-4.194 4.5-6 2.483-1.945 4.448-2.201 7.5-3 6.233-1.632 10.056 0 16.5 0 5.272 0 8.339 1.08 13.5 0 6.41-1.341 9.724-3.618 15-7.5 4.637-3.413 6.773-5.995 10.422-10.406l.078-.094c4.038-4.882 9-13.5 9-13.5l6-13.5s5.744-11.532 7.5-19.5c2.52-11.441 0-30 0-30l-3-18-4.5-19.5s-2.201-10.229-4.5-16.5c-2.201-6-2.635-7.7-2.201-11.819 1.226-11.651 0-18.284 0-30 0-7.029-.799-15 2.201-19.5s5.299-3 6.799 0 1.972 5.312 2.201 8.819c.628 9.641 3.827 14.587 6 24 1.886 8.173 1.981 13 4.5 21 2.679 8.511 9 21 9 21l9 18s7.11 13.227 9 22.5c2.933 14.396 2.39 21.685 0 36.181-.972 5.894-.944 10.711-3 16.319-2.077 5.663-3.718 13.918-6 19.5-2.742 6.707-9 12-9 12v6c0 7.5 34.5-25.5 34.5-25.5l16.5-15s12.102-10.978 18-19.5c5.962-8.617 12-24 12-24l10.5-18 7.5-12 6-13.5s2.418-7.204 3-12c.563-4.652 0-7.314 0-12 0-5.858 1.42-9.317 0-15-1.271-5.083-1.828-8.83-6-12-2.512-1.908-4.659-1.629-7.5-3-5.708-2.752-7.86-6.113-13.5-9-6.104-3.124-10.344-2.981-16.5-6-7.586-3.719-18-12-18-12l-12-10.5-9-10.5-16.5-16.5s-6.565-4.667-9-9c-2.09-3.717-3-10.5-3-10.5s-1.5-9 0-12 3.03-4.904 5.299-4.319c5.672 1.464 5.632 12.105 9.701 16.319 4.639 4.805 8.078 6.6 13.5 10.5 5.143 3.7 8.887 4.656 13.5 9 3.33 3.137 4.264 5.765 7.5 9 3.235 3.235 7.5 3 9 7.5S930 448.5 928.5 444s-.357-1.921-1.5-4.681c-1.751-4.227-1.469-6.562-3.799-10.5-2.549-4.307-3.092-7.197-4.5-12-1.681-5.732-2.13-9.09-3-15-.943-6.401-1.718-10.033-1.5-16.5.159-4.72 1.5-12 1.5-12s3-6 7.5 3 2.987 21.072 9 33c4.169 8.271 13.5 19.5 13.5 19.5l19.5 25.5s15 15 12 6 3.356-17.004 0-27c-1.92-5.717-4.105-8.515-7.5-13.5-5.369-7.881-16.5-18-16.5-18l-10.5-15-19.5-22.5s-10.558-10.542-16.5-18c-5.772-7.244-13.5-19.5-13.5-19.5l-13.5-22.5-9-18s-8.352-17.92-12-30c-3.123-10.34-6-27-6-27s-2.665-13.244 0-21c1.534-4.466 4.5-19.5 6-10.5s31.5 58.5 31.5 58.5l25.5 39 21 31.5 28.5 33s7.5 13.5 4.5-6 10.238-39.774 0-61.5c-3.949-8.378-13.5-19.5-13.5-19.5s-5.303-7.883-7.5-13.5c-1.555-3.971-1.5-7.5-3-10.5s4.627-.574 7.5 0c6.549 1.31 9.084 5.489 13.5 10.5C972.762 266.198 984 277.5 984 277.5s4.771 13.929 8.201 21c4.231 8.725 3.388 12.687 4.5 22.319.402 3.492 0 5.485 0 9 0 22.846-1.5 55.5 0 58.5s3.108 3.423 4.499 6c2.03 3.753 1.03 6.716 3 10.5 2.11 4.06 5.39 4.941 7.5 9 2.76 5.3 2 9.11 3 15 5.57 32.922 4.07 52.359 0 85.5-1.67 13.574-2.47 21.289-6 34.5-2.39 8.948-4.2 13.845-7.5 22.5-3.177 8.338-4.541 13.271-8.999 21-3.982 6.902-9 13.5-12 16.5s7.86-2.788 12-6c4.267-3.31 8.999-10.5 8.999-10.5s4.77-5.328 7.5-9c2.52-3.39 6-9 6-9l4.5-7.5s4.04-6.204 6-10.5c2.31-5.055 3.02-8.143 4.5-13.5 1.44-5.206 3-13.5 3-13.5l4.5-22.5s2.42-10.897 3-18c.58-7.006-.87-11.024 0-18 .67-5.359 3-13.5 3-13.5s4.5-12 4.5-15 3-10.5 6-3 2.83 63.487-3 103.5c-1.03 7.052-3 18-3 18s-2.82 10.035-4.5 16.5c-1.21 4.676-1.34 7.462-3 12-1.8 4.922-2.69 7.939-6 12-2.89 3.546-5.48 4.583-9 7.5-6.41 5.31-9.95 8.362-16.5 13.5-6.91 5.424-11.226 7.903-17.999 13.5-6.076 5.02-8.878 8.538-15 13.5-6.19 5.017-10.114 7.236-16.5 12-7.701 5.746-11.844 9.196-19.5 15-13.351 10.122-20.737 15.947-34.5 25.5-8.676 6.022-14.047 8.671-22.5 15-6.665 4.99-13.955 5.573-16.5 13.5-1.433 4.462-2.988 8.39 0 12 1.346 1.627 2.651 1.979 4.5 3 2.761 1.526 4.5 1.5 7.5 3s4.527-6.431 7.5-10.5c3.455-4.73 5.485-7.313 9-12 1.757-2.343 2.59-3.779 4.5-6 2.16-2.513 6-6 6-6s10.16-8.852 18-12c3.957-1.589 6.306-2.222 10.5-3 8.063-1.495 12.842.842 21 0 10.176-1.049 16.302-1.521 25.5-6 7.899-3.847 9.39-11.744 18-13.5 4.019-.819 11.999-3 10.499 0s-1.21 14.167-4.5 22.5c-3.58 9.067-8.35 12.722-13.499 21-7.907 12.711-10.483 21.052-19.5 33-2.26 2.994-3.864 4.417-6 7.5-2.69 3.882-3.301 6.625-6 10.5-2.615 3.755-5.118 5.094-7.5 9-1.365 2.237-3 6-3 6s-1.592 2.926-3 4.5c-1.954 2.183-6 4.5-6 4.5s-3.426 2.517-6 3c-1.728.324-2.743 0-4.5 0-2.344 0-3.661.135-6 0-11.842-.682-16.66-11.204-28.5-10.5-10.213.608-28.5 6-24 10.5s3 4.5 3 7.5-9.282 15.753-10.5 27c-.505 4.659.491 7.34 0 12-1.255 11.9-9.156 16.719-11.25 28.5-1.846 10.382-2.38 6.715 1.549 16.5 2.728 6.795 7.035 18.68 9.701 25.5 3.624 9.275 0 15.542 0 25.5v22.5s-.04 37.821 10.5 58.501c3.468 6.8 6.978 9.72 10.5 16.5 5.723 11.01 10.5 30 10.5 30 5.404 14.24 12.262 21.02 15 36 2.316 12.68 0 20.11 0 33s4.749 21.02 0 33c-3.541 8.93-11.394 10.59-15 19.5-5.057 12.49-4.5 24 0 34.5 4.414 10.3-13.209-5.16-20.584-11.64l-.416-.36c-4.682-4.11-4.5-3-10.5-12s9 36 9 36 1.231 1.76-.831 4.72a67.398 67.398 0 0 0-2.391 3.64c-5.707 11.53-14.35 17.18-16.737 13.94-.684-.92-.854-2.59-.291-5.05-9.795-10.32-6.75-5.25-11.25-18.75s-3 30 0 46.5-19.5-9-19.5-9-4.5 0 0 9-27-18-22.5-9 3.739 17.14 0 27c-3.969 10.46-13.5 31.5-19.5 21s-10.5-15-15-21 5.95 20.73 0 31.5c-5.502 9.95-21 33-24 16.5s-9-46.5-24-37.5-9 9-13.5 10.5-9-48-13.5-39-13.5 13.5-18 18-4.241-25.45-16.5-27c-8.321-1.06-13.5 9-19.5 9s0-27.75-13.5-30c-6.356-1.06-9.394-.94-15-3-13.24-4.87-17.803-13.3-27-24-7.416-8.62-8.97-15.48-16.5-24-3.84-4.35-6.527-6.28-10.5-10.5-6.835-7.27-13.287-10.06-16.5-19.5-2.83-8.32 0-13.71 0-22.5v-27c0-11.72-2.037-18.46 0-30 2.782-15.76 16.5-37.5 16.5-37.5l18-31.5s13.226-22.79 16.5-39.001c3.247-16.077-2.862-25.849 0-42 1.811-10.221 6.051-15.221 7.5-25.5 1.39-9.861 0-15.541 0-25.5 0-17.573 5.935-28.459 0-45-3.734-10.403-7.073-16.298-15-24-8.652-8.405-15.54-11.238-27-15-18.924-6.21-32.679 15.65-50.201 6.181-9.118-4.927-20.299-24.181-20.299-24.181s-14.078-7.808-18-16.5c-4.097-9.076-8.315-15.603-10.5-25.319-2.128-9.46 2.064-13.207 0-22.681C451.705 716.662 435 700.5 442.5 694.5s33.636 9.129 45 13.5c19.5 7.5 22.282 6.74 36 12 13.837 5.305 29.201 17.819 29.201 17.819s34.5 12 42 19.5-13.556-20.577-21.701-31.5c-8.434-11.309-10.875-8.327-22.5-16.319-12.953-8.905-19.636-18.865-33.799-25.681-15.115-7.274-44.5-26-52.5-31.5-7.966-5.476-8.199-5.816-21.527-25.245l-.174-.255c-12.614-18.388-15.799-30-15.799-25.5 0 0-7.297-20.68-9-34.5-1.577-12.79 0-33 0-33s4.5-57 9-51 2.385 31.275 6 51c2.382 13 2.773 20.658 7.5 33 4.029 10.523 7.2 16.158 13.5 25.5 7.887 11.697 27 34.5 24 27s-13.5-52.5-13.5-52.5l-10.5-39-13.5-45-13.5-54s-7.591-25.285-9-42c-.936-11.09 0-28.5 0-28.5s2.544-20.454 9-31.5c7.318-12.521 30-36 27-25.5s-10.665 14.595-13.5 25.5c-3.096 11.906-3.592 19.304-5.201 31.5-2.201 16.681-.071 32.956 5.201 43.5l13.5 27c5.272 10.544-1.64-17.673 0-34.5 1.079-11.077 6-28.5 10.5-36s7.24-22.282 18-31.5c17.299-14.819 19.5-54 19.5-54l6-43.5s13.5-14.819 13.5-7.319c0 7.5 5.251 25.628 4.5 37.319-.835 12.98 3.947 14.607 0 27-4.697 14.747-3.186 20.158-9 34.5-4.807 11.857-19.228 25.63-24 37.5-4.692 11.67-2.291 7.445-5.201 19.681-2.711 11.398-10.734 27.141-9.799 38.819.898 11.232 3.503 17.277 4.5 28.5 1.294 14.588 0 30 0 37.5s19.5-14.37 19.5-25.5v-28.5s2.569-16.758 6-27c3.911-11.678 13.5-23.819 13.5-23.819s34.5-24.181 31.5-19.681-9.674 17.601-16.5 28.5c-5.605 8.95-9 10.5-15 22.5s6 30 4.5 36 6.442-3.582 10.5-6c6.561-3.909 15.843-5.719 21.799-10.5 8.082-6.487 12.701-19.5 12.701-19.5s25.5-31.5 24-22.5-4.36 13.787-7.5 22.5c-2.767 7.676-2.266 13.241-7.5 19.5-4.9 5.859-11.163 15.537-16.5 21-5.687 5.821-5.241 1.29-10.5 7.5-9.35 11.041-31.5 19.5-31.5 19.5s-13.84 11.346-19.5 21c-6.186 10.552-9 30-9 30s-3.036 24.075 0 39c2.104 10.349 4.717 15.847 9 25.5 4.892 11.026 8.065 17.131 15 27 6.684 9.514 19.5 22.5 19.5 22.5l27 24s33 31.5 31.5 18-10.027-20.676-15-34.5c-4.141-11.509-7.516-17.859-9-30-2.525-20.648 6.841-31.81 9-52.5z" fill="#673AB7"/><path d="M579.701 566.819c3.403-32.627 0-84 0-84s-.065-.918 0-1.5c.457-4.117 4.5-7.5 7.5-4.5S596.531 488.795 600 492c4.059 3.751 4.602 9.653 6 15 1.398 5.347.987 7.342 1.5 12 .731 6.639 2.201 16.319 2.201 16.319l3 21V612c0 7.319 1.074 7.772 2.299 13.5 1.225 5.728 2.648 10.762 4.5 16.319 1.852 5.558 1.382 7.558 5.201 12 4.32 5.026 6.895 7.774 12 12 3.881 3.214 6.532 4.393 10.5 7.5 4.902 3.839 12 10.5 12 10.5s5.299 3.181 35.299 3c4.264-.025 43.396-1.807 45.701 0 2.304 1.808 2.166 4.23 4.5 6 5.133 3.895 11.366 3.895 16.5 0 2.333-1.77 2.193-4.194 4.5-6 2.483-1.945 4.448-2.201 7.5-3 6.233-1.632 10.056 0 16.5 0 5.272 0 8.339 1.08 13.5 0 6.41-1.341 9.724-3.618 15-7.5 4.637-3.413 6.773-5.995 10.422-10.406l.078-.094c4.038-4.882 9-13.5 9-13.5l6-13.5s5.744-11.532 7.5-19.5c2.52-11.441 0-30 0-30l-3-18-4.5-19.5s-2.201-10.229-4.5-16.5c-2.201-6-2.635-7.7-2.201-11.819 1.226-11.651 0-18.284 0-30 0-7.029-.799-15 2.201-19.5s5.299-3 6.799 0 1.972 5.312 2.201 8.819c.628 9.641 3.827 14.587 6 24 1.886 8.173 1.981 13 4.5 21 2.679 8.511 9 21 9 21l9 18s7.11 13.227 9 22.5c2.933 14.396 2.39 21.685 0 36.181-.972 5.894-.944 10.711-3 16.319-2.077 5.663-3.718 13.918-6 19.5-2.742 6.707-9 12-9 12v6c0 7.5 34.5-25.5 34.5-25.5l16.5-15s12.102-10.978 18-19.5c5.962-8.617 12-24 12-24l10.5-18 7.5-12 6-13.5s2.418-7.204 3-12c.563-4.652 0-7.314 0-12 0-5.858 1.42-9.317 0-15-1.271-5.083-1.828-8.83-6-12-2.512-1.908-4.659-1.629-7.5-3-5.708-2.752-7.86-6.113-13.5-9-6.104-3.124-10.344-2.981-16.5-6-7.586-3.719-18-12-18-12l-12-10.5-9-10.5-16.5-16.5s-6.565-4.667-9-9c-2.09-3.717-3-10.5-3-10.5s-1.5-9 0-12 3.03-4.904 5.299-4.319c5.672 1.464 5.632 12.105 9.701 16.319 4.639 4.805 8.078 6.6 13.5 10.5 5.143 3.7 8.887 4.656 13.5 9 3.33 3.137 4.264 5.765 7.5 9 3.235 3.235 7.5 3 9 7.5S930 448.5 928.5 444s-.357-1.921-1.5-4.681c-1.751-4.227-1.469-6.562-3.799-10.5-2.549-4.307-3.092-7.197-4.5-12-1.681-5.732-2.13-9.09-3-15-.943-6.401-1.718-10.033-1.5-16.5.159-4.72 1.5-12 1.5-12s3-6 7.5 3 2.987 21.072 9 33c4.169 8.271 13.5 19.5 13.5 19.5l19.5 25.5s15 15 12 6 3.356-17.004 0-27c-1.92-5.717-4.105-8.515-7.5-13.5-5.369-7.881-16.5-18-16.5-18l-10.5-15-19.5-22.5s-10.558-10.542-16.5-18c-5.772-7.244-13.5-19.5-13.5-19.5l-13.5-22.5-9-18s-8.352-17.92-12-30c-3.123-10.34-6-27-6-27s-2.665-13.244 0-21c1.534-4.466 4.5-19.5 6-10.5s31.5 58.5 31.5 58.5l25.5 39 21 31.5 28.5 33s7.5 13.5 4.5-6 10.238-39.774 0-61.5c-3.949-8.378-13.5-19.5-13.5-19.5s-5.303-7.883-7.5-13.5c-1.555-3.971-1.5-7.5-3-10.5s4.627-.574 7.5 0c6.549 1.31 9.084 5.489 13.5 10.5C972.762 266.198 984 277.5 984 277.5s4.771 13.929 8.201 21c4.231 8.725 3.388 12.687 4.5 22.319.402 3.492 0 5.485 0 9 0 22.846-1.5 55.5 0 58.5s3.108 3.423 4.499 6c2.03 3.753 1.03 6.716 3 10.5 2.11 4.06 5.39 4.941 7.5 9 2.76 5.3 2 9.11 3 15 5.57 32.922 4.07 52.359 0 85.5-1.67 13.574-2.47 21.289-6 34.5-2.39 8.948-4.2 13.845-7.5 22.5-3.177 8.338-4.541 13.271-8.999 21-3.982 6.902-9 13.5-12 16.5s7.86-2.788 12-6c4.267-3.31 8.999-10.5 8.999-10.5s4.77-5.328 7.5-9c2.52-3.39 6-9 6-9l4.5-7.5s4.04-6.204 6-10.5c2.31-5.055 3.02-8.143 4.5-13.5 1.44-5.206 3-13.5 3-13.5l4.5-22.5s2.42-10.897 3-18c.58-7.006-.87-11.024 0-18 .67-5.359 3-13.5 3-13.5s4.5-12 4.5-15 3-10.5 6-3 2.83 63.487-3 103.5c-1.03 7.052-3 18-3 18s-2.82 10.035-4.5 16.5c-1.21 4.676-1.34 7.462-3 12-1.8 4.922-2.69 7.939-6 12-2.89 3.546-5.48 4.583-9 7.5-6.41 5.31-9.95 8.362-16.5 13.5-6.91 5.424-11.226 7.903-17.999 13.5-6.076 5.02-8.878 8.538-15 13.5-6.19 5.017-10.114 7.236-16.5 12-7.701 5.746-11.844 9.196-19.5 15-13.351 10.122-20.737 15.947-34.5 25.5-8.676 6.022-14.047 8.671-22.5 15-6.665 4.99-13.955 5.573-16.5 13.5-1.433 4.462-2.988 8.39 0 12 1.346 1.627 2.651 1.979 4.5 3 2.761 1.526 4.5 1.5 7.5 3s4.527-6.431 7.5-10.5c3.455-4.73 5.485-7.313 9-12 1.757-2.343 2.59-3.779 4.5-6 2.16-2.513 6-6 6-6s10.16-8.852 18-12c3.957-1.589 6.306-2.222 10.5-3 8.063-1.495 12.842.842 21 0 10.176-1.049 16.302-1.521 25.5-6 7.899-3.847 9.39-11.744 18-13.5 4.019-.819 11.999-3 10.499 0s-1.21 14.167-4.5 22.5c-3.58 9.067-8.35 12.722-13.499 21-7.907 12.711-10.483 21.052-19.5 33-2.26 2.994-3.864 4.417-6 7.5-2.69 3.882-3.301 6.625-6 10.5-2.615 3.755-5.118 5.094-7.5 9-1.365 2.237-3 6-3 6s-1.592 2.926-3 4.5c-1.954 2.183-6 4.5-6 4.5s-3.426 2.517-6 3c-1.728.324-2.743 0-4.5 0-2.344 0-3.661.135-6 0-11.842-.682-16.66-11.204-28.5-10.5-10.213.608-28.5 6-24 10.5s3 4.5 3 7.5-9.282 15.753-10.5 27c-.505 4.659.491 7.34 0 12-1.255 11.9-9.156 16.719-11.25 28.5-1.846 10.382-2.38 6.715 1.549 16.5 2.728 6.795 7.035 18.68 9.701 25.5 3.624 9.275 0 15.542 0 25.5v22.5s-.04 37.821 10.5 58.501c3.468 6.8 6.978 9.72 10.5 16.5 5.723 11.01 10.5 30 10.5 30 5.404 14.24 12.262 21.02 15 36 2.316 12.68 0 20.11 0 33s4.749 21.02 0 33c-3.541 8.93-11.394 10.59-15 19.5-5.057 12.49-4.5 24 0 34.5 4.414 10.3-13.209-5.16-20.584-11.64l-.416-.36c-4.682-4.11-4.5-3-10.5-12s9 36 9 36 1.231 1.76-.831 4.72a67.398 67.398 0 0 0-2.391 3.64c-5.707 11.53-14.35 17.18-16.737 13.94-.684-.92-.854-2.59-.291-5.05-9.795-10.32-6.75-5.25-11.25-18.75s-3 30 0 46.5-19.5-9-19.5-9-4.5 0 0 9-27-18-22.5-9 3.739 17.14 0 27c-3.969 10.46-13.5 31.5-19.5 21s-10.5-15-15-21 5.95 20.73 0 31.5c-5.502 9.95-21 33-24 16.5s-9-46.5-24-37.5-9 9-13.5 10.5-9-48-13.5-39-13.5 13.5-18 18-4.241-25.45-16.5-27c-8.321-1.06-13.5 9-19.5 9s0-27.75-13.5-30c-6.356-1.06-9.394-.94-15-3-13.24-4.87-17.803-13.3-27-24-7.416-8.62-8.97-15.48-16.5-24-3.84-4.35-6.527-6.28-10.5-10.5-6.835-7.27-13.287-10.06-16.5-19.5-2.83-8.32 0-13.71 0-22.5v-27c0-11.72-2.037-18.46 0-30 2.782-15.76 16.5-37.5 16.5-37.5l18-31.5s13.226-22.79 16.5-39.001c3.247-16.077-2.862-25.849 0-42 1.811-10.221 6.051-15.221 7.5-25.5 1.39-9.861 0-15.541 0-25.5 0-17.573 5.935-28.459 0-45-3.734-10.403-7.073-16.298-15-24-8.652-8.405-15.54-11.238-27-15-18.924-6.21-32.679 15.65-50.201 6.181-9.118-4.927-20.299-24.181-20.299-24.181s-14.078-7.808-18-16.5c-4.097-9.076-8.315-15.603-10.5-25.319-2.128-9.46 2.064-13.207 0-22.681C451.705 716.662 435 700.5 442.5 694.5s33.636 9.129 45 13.5c19.5 7.5 22.282 6.74 36 12 13.837 5.305 29.201 17.819 29.201 17.819s34.5 12 42 19.5-13.556-20.577-21.701-31.5c-8.434-11.309-10.875-8.327-22.5-16.319-12.953-8.905-19.636-18.865-33.799-25.681-15.115-7.274-44.5-26-52.5-31.5-7.966-5.476-8.199-5.816-21.527-25.245l-.174-.255c-12.614-18.388-15.799-30-15.799-25.5 0 0-7.297-20.68-9-34.5-1.577-12.79 0-33 0-33s4.5-57 9-51 2.385 31.275 6 51c2.382 13 2.773 20.658 7.5 33 4.029 10.523 7.2 16.158 13.5 25.5 7.887 11.697 27 34.5 24 27s-13.5-52.5-13.5-52.5l-10.5-39-13.5-45-13.5-54s-7.591-25.285-9-42c-.936-11.09 0-28.5 0-28.5s2.544-20.454 9-31.5c7.318-12.521 30-36 27-25.5s-10.665 14.595-13.5 25.5c-3.096 11.906-3.592 19.304-5.201 31.5-2.201 16.681-.071 32.956 5.201 43.5l13.5 27c5.272 10.544-1.64-17.673 0-34.5 1.079-11.077 6-28.5 10.5-36s7.24-22.282 18-31.5c17.299-14.819 19.5-54 19.5-54l6-43.5s13.5-14.819 13.5-7.319c0 7.5 5.251 25.628 4.5 37.319-.835 12.98 3.947 14.607 0 27-4.697 14.747-3.186 20.158-9 34.5-4.807 11.857-19.228 25.63-24 37.5-4.692 11.67-2.291 7.445-5.201 19.681-2.711 11.398-10.734 27.141-9.799 38.819.898 11.232 3.503 17.277 4.5 28.5 1.294 14.588 0 30 0 37.5s19.5-14.37 19.5-25.5v-28.5s2.569-16.758 6-27c3.911-11.678 13.5-23.819 13.5-23.819s34.5-24.181 31.5-19.681-9.674 17.601-16.5 28.5c-5.605 8.95-9 10.5-15 22.5s6 30 4.5 36 6.442-3.582 10.5-6c6.561-3.909 15.843-5.719 21.799-10.5 8.082-6.487 12.701-19.5 12.701-19.5s25.5-31.5 24-22.5-4.36 13.787-7.5 22.5c-2.767 7.676-2.266 13.241-7.5 19.5-4.9 5.859-11.163 15.537-16.5 21-5.687 5.821-5.241 1.29-10.5 7.5-9.35 11.041-31.5 19.5-31.5 19.5s-13.84 11.346-19.5 21c-6.186 10.552-9 30-9 30s-3.036 24.075 0 39c2.104 10.349 4.717 15.847 9 25.5 4.892 11.026 8.065 17.131 15 27 6.684 9.514 19.5 22.5 19.5 22.5l27 24s33 31.5 31.5 18-10.027-20.676-15-34.5c-4.141-11.509-7.516-17.859-9-30-2.525-20.648 6.841-31.81 9-52.5z" fill="#795548"/><path d="M857 833.5c-1.5 4-12.5 20.5-33 19-9.389 0-10-10.253-10-15.5-2.5-1.5 15-17.5 30-21 8.5 2.5 18 2.5 13 17.5z" fill="#18FFFF"/><path d="M848.5 835c-3 5-8.5 7.5-15.5 8s-12.5-4-14.5-12.5c4-4 16.5-13 25.5-14.5 8.837 0 6.2 16.167 4.5 19z" fill="#000" fill-opacity=".4"/><path d="M604.631 846.59c2.25 3.632 16.253 17.674 36.068 12.211 9.209-1.828 7.812-12.004 6.791-17.151 2.16-1.958-18.121-14.244-33.515-14.756-7.851 4.107-17.169 5.957-9.344 19.696z" fill="#18FFFF"/><path d="M615.5 846.5c4.068 4.363 8.697 6.022 14.522 4.735 7.3-1.613 11.482-6.357 11.788-15.084-4.702-3.145-18.715-9.538-27.835-9.257-8.668 1.72-3.712 13.989 1.525 19.606z" fill="#000" fill-opacity=".4"/><g clip-path="url(#clip0_113_2)"><path d="M811.5 866.5c-.5 2.5-1.791 4-4 4-2.5-.5-3.5-2-4-4a4 4 0 0 1 8 0z" fill="#20272D" fill-opacity=".4"/><path d="M872 808c0 4.5-72.5 4.5-65.5 62-6-4-8.5-20.5-4.5-29 6.5-19 18-31.333 25.5-33 13.5-3 53-9.5 44.5 0z" fill="#20272D" fill-opacity=".3"/><path d="M858.5 838c-5.5 11.5-15.186 16.5-18.5 16.5-6 2-26 3-17.5-2.5 35 4.5 41.5-39 47.5-43 10-8.5-10.5 26-11.5 29z" fill="#20272D" fill-opacity=".3"/><path d="M811 864.5c-1-1-2-2.5-5.5-1.5.5-9.5 1-9 2-14 11.5-30.5 1.5 3 15 3-.5 4.5-12.5 4.5-11.5 12.5z" fill="#20272D" fill-opacity=".4"/><path d="M869 809.5c2 4.5-15.5 39-12 22 2-4.5 1-7.5 0-9.5-1-3.5-16.642-6-12.5-6 5-2 20.5-6 24.5-6.5z" fill="#20272D" fill-opacity=".3"/><path d="M862.5 819c-14.5-9-54 9-50.5 23-7 15.5-1-4.5 1-9 4.5-5.5 2-3 7.5-7.5 25.5-16 42-10.5 42-6.5z" fill="#fff" fill-opacity=".2"/><path d="M656.148 870.093c1.069 2.453 2.654 3.674 4.758 3.116 2.262-1.148 2.858-2.948 2.859-5.137-.524-2.279-2.654-3.673-4.758-3.115-2.103.558-3.383 2.858-2.859 5.136z" fill="#20272D" fill-opacity=".4"/><path d="M587.102 830.238c1.068 4.642 67.657-18.877 74.638 42.202 4.763-5.642 3.228-23.293-2.598-31.05-10.698-17.956-39.739-31.925-48.642-30.39-14.5 2.5-33.746 11.587-23.398 19.238z" fill="#20272D" fill-opacity=".3"/><path d="M604.632 852.572c7.966 10.472 18.376 13.182 21.531 12.345 6.188.547 25.469-3.475 16.07-7.001-32.258 13.485-48.771-29.742-55.433-32.351-11.539-6.241 16.168 24.165 17.832 27.007z" fill="#20272D" fill-opacity=".3"/><path d="M656.15 867.904c.714-1.284 1.311-3.084 4.881-2.937-2.731-9.672-3.089-9.03-5.227-13.935-18.189-28.554-.717 3.473-13.571 6.884 1.544 4.516 12.97 1.484 13.917 9.988z" fill="#20272D" fill-opacity=".4"/><path d="M587.871 825.828c-.837 5.147 24.014 36.311 16.647 19.66-2.973-4.136-2.732-7.483-2.255-9.799.122-3.863 14.423-10.394 10.479-9.347-5.236-.8-20.944-1.009-24.871-.514z" fill="#20272D" fill-opacity=".3"/><path d="M601 828.255c14.5-9 54 9 50.5 23 7 15.5 1-4.5-1-9-4.5-5.5-2-3-7.5-7.5-25.5-16-42-10.5-42-6.5z" fill="#fff" fill-opacity=".2"/></g><path d="M627.989 846.552c0 2.697-2.011 2.442-6.494 2.442-4.484 0-6.495-5.849-6.495-8.546 0-2.697 4.446-2.442 8.93-2.442s4.059 5.849 4.059 8.546zM627.46 838.286c.457.855 1.375.704 2.761.704 1.387 0 .499-2.012.499-3.049s-1.375-.939-2.762-.939c-1.386 0-1.001 2.345-.498 3.284zM839.989 839.552c0 2.697-2.011 2.442-6.494 2.442-4.484 0-6.495-5.849-6.495-8.546 0-2.697 4.446-2.442 8.93-2.442s4.059 5.849 4.059 8.546zM839.46 831.286c.457.855 1.375.704 2.761.704 1.387 0 .499-2.012.499-3.049s-1.375-.939-2.762-.939c-1.386 0-1.001 2.345-.498 3.284z" fill="#fff"/><path d="M838.5 481.5v7.5l10.5 6-3-18-3-4.5-3 3-1.5 3v3z" fill="#000" fill-opacity=".2"/><path d="M754.5 1083H714l-6-1.5-6-1.5 3 19.5 6 7.5 7.5 4.5v9h4.5l7.5 7.5 9 4.5 3-6 7.5-6 3-9v-12l1.5-16.5z" fill="#000" fill-opacity=".15"/><path d="M738 975h-6l-9-3-7.5-1.5-6-1.5-4.5-6-4.5-3 1.5-6 1.5-1.5 7.5-1.5 1.5-9 10.5-1.5h9l4.5 4.5 7.5 1.5h7.5l1.5 6-1.5 10.5-4.5 4.5-9 7.5z" fill="#000" fill-opacity=".13"/><path d="M597 1054.5v28.5s-5.79-5.2-9-9c-5.774-6.83-19.007-33.77-22.5-42" stroke="#000" stroke-opacity=".1"/><path d="M607.5 1053v18.75m0 18.75v-18.75m0 0s4.512 19.56 10.5 30.75c4.756 8.89 12 9 15 21s-3-39 0-33 4.912 5.33 9 12 0 12 0 34.5 18 34.5 15 25.5 0-25.5 0-25.5 10.5-19.5 10.5-13.5-.413 8.24 0 13.5c.802 10.2 2.961 15.73 6 25.5 2.036 6.55 4.5 4.5 6 16.5s4.5-45 6-36 5.04 15.31 6 25.5c.66 7 0 15 0 18s13.5-12 16.5-7.5 10.254 7.7 12 15c.954 3.99 0 4.5 0 10.5s16.5-4.5 16.5 0 3 15 0 24 4.641.64 7.5 0c10.229-2.27 10.5-12 12-24s-6-18 0-25.5 13.5 10.5 13.5 0 5.947-9.59 7.5-16.5c1.671-7.43-4.595-13.43 0-19.5 4.137-5.47 10.026-3.74 16.5-6 6.996-2.44 25.5 4.5 18-6s-18-36-7.5-28.5 18 13.5 16.5 0 11.79-5.22 15-12c3.134-6.62 0-11.43 0-18.75 0-3.81-3-26.94-3-30.75M567 1149s-3 11.63-3 21c0 5.27 1.938 8.34 3 13.5 1.802 8.76 7.305 15.93 12 22.5 7.5 10.5 12.94 16.69 24 24 8.091 5.34 30 18 22.5 10.5s-18-31.5-18-31.5" stroke="#000" stroke-opacity=".2"/><path d="M852 1072.5v48c0 7.5-4.5 9-13.5 0s-3 9 0 16.5-22.5-6-18 0 9.256 3.82 12 9c3.018 5.69 1.615 10.26 0 16.5-2.117 8.18-12 22.5-12 18s-1.5-16.5 0-27-13.5 34.5-13.5 27-4.5-19.5-9-27 2.557 21.27 0 34.5c-1.758 9.09-4.5 9-7.5 22.5s-12-3-7.5 10.5-7.5 4.5-13.5 0 0 15 0 24-9.113 6.03-12 12c-3.827 7.91 0 12 0 22.5s-19.5-25.5-21-16.5-6 16.5 0 31.5-16.108-6.01-19.5-15c-2.275-6.03 4.686-5.96 0-16.5s-9-16.5-12-27-1.5 21 0 33-19.5-52.5-21-40.5-3 28.5 0 40.5-17.441-13.62-27-24c-5.641-6.12-13.5-16.5-13.5-16.5" stroke="#000" stroke-opacity=".2"/><path d="M715.5 1026s7.542-1.45 12 0c3.249 1.05 4.102 4.85 7.5 4.5 2.913-.3 3.865-2.49 6-4.5 2.734-2.57 6-7.5 6-7.5" stroke="#000" stroke-opacity=".05"/><path d="M693 991.5s5.732-1.293 9 0c4.254 1.683 7.333 4.739 9 9 1.921 4.91-1.5 13.5-1.5 13.5M754.5 1011l-3-4.5s-1.2-8.25 1.5-10.5c1.5-1.25 1.5-3 7.5-7.5 1.874-1.406 6 0 6 0" stroke="#000" stroke-opacity=".1"/><path d="M769.669 1002c-3.169 6-8.238 10.5-13.669 10.5-5.431 0-6-3.47-6-13.06 0-9.593 15-15.44 19.669-15.44 4.331 3 4.331 6 0 18z" fill="#000" fill-opacity=".3"/><path d="M736.5 973.5H732s-4.5 0-7.5-1.5c-5.643-2.821-18-3-18-3s-5.67-1.126-9 0c-3.553 1.201-6.214 3.489-9 6-2.462 2.218-2.721 3.204-4.5 6-1.989 3.126-2.716 5.306-3 9-.37 4.816 1.192 7.521 3 12 1.768 4.38 2.852 6.98 6 10.5 2.5 2.8 7.5 6 7.5 6s7.108 4.8 10.5 9c2.966 3.68 2.48 7.35 6 10.5 2.929 2.62 9 4.5 9 4.5s10.324 1.84 16.5 0c3.767-1.12 6.072-1.88 9-4.5 3.52-3.15 6-10.5 6-10.5s1.928-6.03 4.5-9c2.765-3.19 6.077-2.95 9-6 3.268-3.41 6.221-7.45 7.5-12 1.427-5.075 1.5-6.728 1.5-12s-.21-9.027-3-13.5c-2.499-4.007-5.972-4.658-10.5-6-5.616-1.664-9.483-1.97-15 0-3.978 1.421-7.776 4.5-12 4.5z" stroke="#000" stroke-opacity=".3"/><path d="M795 855l6.4 16 5.6 14M807 885s4.746 7.317 9 9c3.268 1.293 9 0 9 0s8.061-4.664 12-9c3.716-4.09 3.889-7.817 7.5-12 3.529-4.088 5.92-6.138 10.5-9" stroke="#000" stroke-opacity=".2"/><path d="M595.5 853.5s4.94 10.385 9 16.5c4.149 6.25 2.664 10.984 9 15 4.694 2.975 6.443 6 12 6 9 0 25.5-1.5 19.5-1.5M663 879v-18" stroke="#000" stroke-opacity=".3"/><path d="M571.5 690s4.629 2.649 7.5 4.5c4.235 2.731 6.349 4.643 10.5 7.5 3.48 2.395 9 6 9 6s5.214 3.832 6 7.5c.368 1.718 0 4.5 0 4.5l4.5 12M508.5 625.5s-1.066 6.54 0 10.5c1.834 6.811 12 13.5 12 13.5s7.547 4.227 12 7.5c5.017 3.688 12 10.5 12 10.5M501 655.5s-6.625-3.301-10.5-6c-3.754-2.615-9-7.5-9-7.5" stroke="#000" stroke-opacity=".1"/><path d="M607.5 663s2.405 5.675 4.5 9c3.319 5.268 5.408 8.416 10.5 12 3.213 2.262 5.869 2.125 9 4.5 4.667 3.54 6.908 6.528 9 12M585 823.5V804c0-2.929 4.5-10.5 4.5-12s4.889-7.13 6-7.5c4.5-1.5 7.5-1.39 4.5-1.5-2.927-.107 12.196.846 15 0 8.166-2.464 11.732-16.122 15-24 2.007-4.84 6-6.761 6-12 0-3 .301-6.411 0-6-.301.411 2.73-12.667 4.5-15 3.894-5.134 0-16.5 0-16.5" stroke="#000" stroke-opacity=".2"/><path d="M622.5 742.5s1.123-9.251 0-15c-1.357-6.947-3.827-10.45-7.5-16.5-4.321-7.117-7.351-10.887-13.5-16.5-2.77-2.529-7.5-6-7.5-6M951 655.5s-8.65 8.716-13.5 12c-6.739 4.563-18 10.5-18 10.5l-15 7.5-9 4.5c-3 1.5-9 3-15 7.5s-15 9-18 19.5c-1.609 5.632 4.277 9.842 1.5 15-4.312 8.007-4.5-4.5-4.5-4.5l-4.5-3s-7.5 1.029-7.5-6c0-8.787 1.5-6 1.5-6l1.5-3 9-12L867 681" stroke="#000" stroke-opacity=".2"/><path d="M834 904.5l3-18 6-10.5 7.5-7.5-9 33L840 921l-3 18-6 10.5-13.5 7.5-3 1.5-10.5 18 3-28.5 4.5-9 6-7.5 13.5-9 3-18z" fill="#000" fill-opacity=".15"/><path d="M862.5 948v22.5l-6 21-4.5 9-10.5 13.5-6 13.5-3 13.5" stroke="#000" stroke-opacity=".2"/><path d="M589.5 979.5l4.5 15s2.364 13 6 21c3.085 6.79 3.19 10.33 9 15 5.951 4.79 8.537 7.93 15 12 4.676 2.94 5.349 3.35 9 7.5 3.812 4.33 10.5 12 10.5 12M676.5 859.5s8.485 6.728 12 12c3.515 5.272 4.846 8.77 6 15 .556 3-3 33-3 33" stroke="#000" stroke-opacity=".3"/><path d="M778.5 862.5s-3.985 7.164-6 12c-2.137 5.13-3.359 8.061-4.5 13.5-2.045 9.746-2.605 15.888 0 25.5 2.263 8.348 6.341 11.917 10.5 19.5 2.9 5.288 4.524 8.254 7.5 13.5 4.016 7.078 6.439 10.948 10.5 18 2.357 4.093 3.753 6.346 6 10.5 3.116 5.76 4.5 9 7.5 15 2.096 4.192 3 10.5 3 13.5v13.5l-3 9s-4.261 7.11-7.5 9c-5.767 3.37-10.113 2.55-16.5 4.5-5.315 1.62-8.161 2.96-13.5 4.5-36.58 10.57-60.92 10.57-97.5 0-5.339-1.54-8.514-2.05-13.5-4.5-3.065-1.51-5.472-1.75-7.5-4.5-3.13-4.24-7.5-8.23-7.5-13.5v-18c0-4.5 1.5-5.646 1.5-9v-9s.33-1.913 0-6c-.836-10.346-1.933-15.175-3-25.5-.602-5.827-3-10.5-4.5-15-2.321-6.963-4.063-11.068-9-16.5-3.94-4.335-12-9-12-9" stroke="#000" stroke-opacity=".3"/><path d="M679.5 945s-10.5 6-13.5 9c-4.142 4.142-7.88 6.761-10.5 12-3 6-6 18-6 18M624 952.5s4.794 4.952 6 9c1.171 3.93 0 10.5 0 10.5" stroke="#000" stroke-opacity=".2"/><path d="M666 1042.5c1.668 3.56 2.655 8.53 4.5 12 2.218 4.17 4.121 7.2 7.5 10.5 3.749 3.66 7.427 7.94 12 10.5 4.823 2.7 6.968 2.21 12 4.5 6.081 2.76 9.924 1.83 16.5 3 12.689 2.25 20.438 2.88 33 0 5.417-1.24 8.766-1.59 13.5-4.5 6.009-3.69 6.76-4.28 12-9 2.786-2.51 7.5-10.5 7.5-10.5s5.311-7.77 6-13.5c.28-2.33 0-6 0-6M669 835.5l-9-22.5s-4.855-6.256-9-9c-3.72-2.463-10.5-4.5-10.5-4.5s-11.76-3.419-19.5-4.5c-12.183-1.702-31.5 0-31.5 0M780 834s5.502-9 7.5-12c1.998-3 5.516-10.713 10.5-16.5 4.603-5.345 7.118-8.996 13.5-12 4.371-2.057 7.171-2.873 12-3 5.399-.142 19.5 1.5 19.5 1.5" stroke="#000" stroke-opacity=".3"/><path d="M972 726c-3.74 3.377-6.092 5.058-10.5 7.5-3.902 2.162-6.503 2.518-10.5 4.5-4.231 2.098-6.339 3.766-10.5 6-4.616 2.479-7.242 3.807-12 6-4.051 1.868-6.456 2.615-10.5 4.5-3.562 1.66-5.769 2.263-9 4.5-4.087 2.829-7.5 4.5-9 9s4.705 5.924 9 7.5c4.399 1.614 7.601 1.614 12 0M475.5 726s12.598 7.324 19.5 13.5c3.087 2.762 4.921 4.259 7.5 7.5 3.756 4.719 4.694 8.161 7.5 13.5 2.437 4.638 5.139 6.832 6 12 .482 2.889-1.31 4.88 0 7.5s3.251 3.49 6 4.5c3.299 1.212 5.485 0 9 0h9c3.515 0 5.617-.952 9 0 3.288.925 4.645 2.625 7.5 4.5 5.582 3.667 8.572 5.992 13.5 10.5" stroke="#000" stroke-opacity=".4"/><path d="M867 1003.5l4.5 27-7.5 25.5v28.5" stroke="#000" stroke-opacity=".2"/><path d="M582 1134v-1.5m0 0V1113s2.319-15.82 0-25.5c-1.953-8.16-1.269-16.25-9-19.5-11.441-4.81-4.899 18.92-10.5 30-3.083 6.1-9 15-9 15l-15 19.5m43.5 0c0 6 9.426 2.87 13.5 12 4.459 9.99-3.394 36.79 1.5 27 1.5-3 7.5-9.47 7.5-15 0-10.5 6-18 7.5-24s-6 42-1.5 39 19.5-19.5 18-12-1.5 13.5-6 19.5 11.114 5.09 16.5 10.5c2.645 2.66 3.443 4.76 6 7.5 5.99 6.43 13.5 25.5 13.5 13.5s4.5-21 4.5-21l-10.5-18" stroke="#000" stroke-opacity=".15"/><path d="M880.5 1153.5v15c0 4.5-15 0-9 13.5s-7.5 7.5-10.5 0-4.5 16.5-9 28.5" stroke="#000" stroke-opacity=".2"/><path d="M889.5 1056l-6 16.5s-4.5 31.5-7.5 33-4.668-.75-7.5 0c-11.13 2.93 7.5 25.5 7.5 28.5s-10.5 3-13.5 9 0 12 0 12v12c0 6-16.5-19.5-16.5-12v37.5c0 7.5-12 18-12 9s-1.5-1.5-6-9 4.5 33 0 27-4.5-9-10.5-18-6 18-6 18-1.5 10.5 0 21-9.586-2.24-15 0c-4.228 1.75-6.519 3.66-9 7.5" stroke="#000" stroke-opacity=".23"/><path d="M805.5 688.5l-19.5-3h19.5l19.5-15 13.5-22.5 10.5-18 4.5-22.5V594l-4.5-18-4.5-18-6-24 10.5 12 10.5 18 22.5 12 6 18v18l-6 25.5-6 22.5-6 16.5 18-6 22.5-10.5 22.5-12h24v12l-16.5 10.5-21 22.5-19.5 12-18 13.5-12 12h-10.5l-21-12v-48l-7.5 15h-13.5l-12 3z" fill="#000" fill-opacity=".15"/><path d="M805.5 688.5l-19.5-3h19.5l19.5-15 13.5-22.5 10.5-18 4.5-22.5V594l-4.5-18-4.5-18-6-24 10.5 12 10.5 18 22.5 12 6 18v18l-6 25.5-6 22.5-6 16.5-7.5 9-1.5 4.5-1.5 7.5-6 7.5-3 3-1.5 6v4.5l1.5 3 4.5 3 4.5 3v3l-21-12v-48l-7.5 15h-13.5l-12 3z" fill="#000" fill-opacity=".02"/><path d="M855 556.5L843 540l-3 1.5 3 15 4.5 13.5 3 13.5 1.5 6V600l3 10.5 6 15-3 13.5-3 12-4.5 19.5L846 681l-3 9-4.5 12 1.5 15 3 4.5 16.5-24 7.5-24 6-7.5 4.5-9 1.5-6 3-10.5 1.5-10.5 3-15v-12l-1.5-10.5-6-18-19.5-12-4.5-6z" fill="#000" fill-opacity=".05"/><path d="M837 528v-42 1.5l1.5 1.5 3 1.5 3 1.5h1.5l1.5 1.5 1.5 3 1.5 7.5 1.5 6 1.5 7.5 1.5 7.5 3 9 6 13.5 6 10.5 6 12v1.5l-9-4.5-7.5-4.5-6-6-3-4.5-3-3-1.5-3-3-6-4.5-6-1.5-6z" fill="#fff" fill-opacity=".1"/><path d="M765 690l-6 6v3l3 1.5 9-1.5 6-3 3-1.5h24l9 1.5 6 1.5 7.5 6 4.5 3 1.5 9 3 9v6l10.5 21 16.5 4.5 3-7.5-9-6-7.5-9-9-24V699l-1.5-12-1.5-15-6 13.5-12-4.5-9 6h-12l-9-1.5h-12l-7.5 1.5-4.5 3z" fill="#000" fill-opacity=".1"/><path d="M996 682.5c-2.5 4 0 15-12 28.5l-7.5 22.5 6 1.5 7.5-13.5 12-16.5 3-13.5v-12h-3l-6 3z" fill="#000" fill-opacity=".12"/><path d="M906.663 752.007c-4.426 3.541-5.671 7.528-7.281 12.962-1.487-2.121-4.66-4.134-6.732-5.285-3.911-2.173-6.931-2.438-11.081-.362-.64.32-5.016 2.014-5.178 1.448-.561-1.963-1.057-3.533-.181-5.504.406-.914.797-3.992.797-4.888 0-1.247 1.587-2.133 1.919-3.296 1.574-3.082 3.964-5.094 4.562-7.785.598-2.69 4.241-6.583 6.012-8.797 2.558-3.197 3.972-6.201 7.06-9.127 3.611-3.421 7.933-5.978 11.407-9.451 5.471-5.471 12.875-10.569 20.241-12.674.776-.221 4.799-.452 5.359.109.667.666 9.369.439 13.278.187a2.774 2.774 0 0 0-.345-.296c3.242 0 2.569.152.345.296 3.318 3.364-9.345 10.143-9.345 14.456 0 4.451-9.277 12.787-11.609 16.353-2.56 3.916-5.77 8.724-9.451 11.587-3.67 2.855-6.225 7.225-9.777 10.067z" fill="#000" fill-opacity=".1"/><path d="M896.1 747.453c4.5-1.5 3-1.5 6-3 2.529-.55 4.445-.575 6.384-2.442 2.412 0 7.256 1.42 9.702.667a8.61 8.61 0 0 1 .993-.667c.149-.086 1.744-1.466 1.093-.856-.399.375-1.046 1.012-1.521 1.284a2.806 2.806 0 0 1-.565.239c-1.629 1.258-2.906 3.042-4.331 4.466-1.726 1.727-3.653 3.178-5.371 4.896-2.947 2.948-6.996 5.531-8.841 9.222-.664 1.328-2.044 2.478-2.044 4.064 0 .828-.661 1.368-.832 2.139-.276 1.24-.511-.094-.784-.642-1.404-2.806 1.063-2.412-1.383-4.37-1.864-1.491-.755-1.889-1.5-4.5-.466-1.631-3.318-7.601-1.5-7.5 1.073.06 4.06-2.12 4.5-3zM891 733.05c-2.198 2.198-3.507 6.039-5.969 8.058.214-.428-1.144 1.772.212 1.697.703-.039 2.166-.407 2.709-.896.803-.721 1.986-1.042 2.805-1.861.378-.379.88-.875 1.39-1.06.725-.264 1.056-.993 1.685-1.273 1.31-.582 2.173-1.953 3.334-2.757.755-.522 1.677-1.127 2.179-1.908.446-.694 1.379-1.061 1.968-1.65.654-.654 1.4-1.211 2.05-1.861 1.042-1.042 2.096-2.32 2.981-3.499.959-1.279 2.117-2.212 3.24-3.335 2.035-2.035 4.329-3.59 6.409-5.561 1.875-1.776 4.196-2.923 6.044-4.771 1.06-1.06 2.584-2.116 3.816-2.969h.001c1.04-.72 1.98-1.576 2.969-2.345.892-.693 1.535-1.644 2.533-2.215.798-.456 1.67-.968 1.979-1.861.138-.396 1.447-2.653 1.061-2.545-1.42.398-2.982.506-4.454.848-3.176.739-5.951.991-8.942 2.214-2.671 1.093-5.42 4.335-7.764 6.01-1.385.989-2.956 1.602-4.242 2.745-1.046.93-2.079 1.785-3.063 2.769-.919.919-2.024 2.519-2.931 3.476-.918.969-2.397 1.854-3 3-1.5 1.5-3 3-4.5 6-1.671 1.671-2.793 3.843-4.5 5.55z" fill="#000" fill-opacity=".1"/><path d="M901.508 753.143s29.63-12.987 38.903-22.805c3.09-3.272 4.984-7.571 7.751-11.03 2.218-2.774 1.932-8.491 4.62-11.477 3.179-3.532 5.041-2.981 10.434-2.981 6.243 0 6.07-1.581 10.732-4.323 3.758-2.211 8.522-5.157 11.775-8.049 3.324-2.954-4.603 7.637-6.409 11.701-4.256 9.577-2.819 22.493-14.086 27.5-4.087 1.817-7.644 6.99-12.073 7.974-2.232.497-10.098 3.14-11.403 4.77-1.425 1.781-11.481 3.354-14.085 3.354-4.216 0-8.237 4.024-12.073 4.024-2.736 0-7.678 1.601-10.302 3.641 3.428.98-3.048 3.489-1.101 1.054.288-.36.662-.713 1.101-1.054a7.605 7.605 0 0 0-1.101-.212c-5.691-.73-2.683-2.087-2.683-2.087z" fill="#FFFCFC" fill-opacity=".1"/><path d="M968.091 728.918c1.257-.774 2.011-1.877 3.199-2.918.768 1.153.5 1.874 0 3-.39.876-2.166 1.354-2.918 1.998-1.308 1.121-2.349 2.821-3.6 4.073-.714.713-1.316 1.54-2.119 2.17-1.048.821-2.574 1.891-3.345 2.987-1.434 2.038-3.763 3.482-5.515 5.234-1.923 1.923-4.493 3.534-6.089 5.744-3.157 4.372-7.542 8.116-11.323 11.897l-.104.104c-1.705 1.706-3.359 3.36-5.461 4.645-1.86 1.137-1.795 3.764-3.816 4.648-3.266 1.429-8.606 1.956-12 3-2.092.644-5.756-.531-7.5-1.5-1.644-.913-9-2.402-9-4.5 0-.482 1.5-4.5 1.5-4.5 0-1.5 1.5-1.383 1.5-1.897 1.5-1.5 2.468-1.539 3-2.603.356-.713.971-.883 1.5-1.5.608-.709 1.639-.48 2.412-1.016.798-.552 1.335-1.281 2.068-1.851.627-.487 1.586-.988 2.311-1.365 2.098-1.091 3.88-2.413 6.357-2.413 2.101 0 3.67-.822 5.693-1.328 4.14-1.035 8.186-1.985 11.847-4.314 3.022-1.924 6.999-2.776 9.701-5.209 1.431-1.287 3.374-1.914 4.89-3.051 1.445-1.083 3.269-1.599 4.685-2.757 2.132-1.745 4.81-3.439 7.25-4.659 1.082-.541 2.138-1.129 3.217-1.609.556-.247 1.077-.152 1.66-.51z" fill="#000" fill-opacity=".3"/><path d="M977.807 739.736c.613 2.147-1.361 5.309-2.285 6.996-4.81 4.81-8.27 11.961-12.178 17.514-2.764 3.928-5.746 7.823-8.221 11.948-.974 1.624-2.238 3.135-3.153 4.762-1.062 1.888-2.895 3.269-4.123 5.055-1.021 1.485-2.297 3.084-3.753 4.149-1.567 1.144-2.775 3.542-4.532 4.353-2.319 1.07-4.859 1.637-7.366 2.093-3.043.554-5.46.418-8.489-.255-.764-.17.238-3.521.523-4.123.572-1.207.641-1.625 1.788-2.477 1.299-.965 2.534-1.833 3.204-3.395.695-1.621 2.228-2.297 3.051-3.779.85-1.531 2.136-2.792 2.923-4.366 1.083-2.165 2.058-4.232 3.51-6.204 1.244-1.687 2.293-3.543 3.613-5.157 1.468-1.794 3.227-3.351 4.711-5.132 1.533-1.84 3.58-3.401 5.284-5.106 1.397-1.397 2.875-2.612 4.353-3.906 3.135-2.743 6.419-5.301 9.651-7.927 2.308-1.876 4.247-4.397 7.021-5.63 1.694-.753 3.703-2.09 4.468.587z" fill="#FFF9F9" fill-opacity=".2"/><path d="M900.352 783.463c.158-1.421 3.567-2.719 4.473-3.28 1.211.403 2.679-.541 3.645.232.512.41 1.803.442 2.469.811.532.296 1.463.746 2.087.746 1.507 0 2.628 1.417 4.026 1.491.953.05 1.908.706 2.833.911 1.076.239 2.4.66 3.429 1.027 2.497.892 5.24 1.19 7.753 2.088 1.856.663 3.697.642 5.666.745 1.268.067 3.158 2.403 1.623 3.28-2.006 1.147-3.232 3.547-5.202 4.705-2.93 1.724-6.292 4.304-10.006 3.628-3.868-.703-7.128-2.562-10.718-4.158a66.177 66.177 0 0 1-5.07-2.534c-1.362-.757-2.589-1.086-3.794-2.171-1.259-1.133-2.305-2.424-3.661-3.479-.772-.601-.482-1.708-.083-2.551.206-.434.477-1.013.53-1.491z" fill="#000" fill-opacity=".1"/><path d="M942 745.5l-9 3-1.5 1.5 1.5 1.5h6l6-3 7.5-3 3-1.5 3-3 4.5-4.5 3-4.5-3 1.5-4.5 3-6 3-4.5 3-6 3z" fill="#000" fill-opacity=".2"/><path d="M937.5 771c0 2.485-10.23 12-21 12s-18-5.015-18-7.5c0-2.485 7.23 3 18 3s21-9.985 21-7.5z" fill="#FFF9F9" fill-opacity=".1"/><path d="M1000.5 616.5c15-3-34.5 33-39 31.5-24.024 0-61.5 24.74-61.5 9 18-13.5 73.5-91.5 82.5-121.5 27-6-60 106.5 18 81z" fill="#fff" fill-opacity=".1"/><path d="M1047.02 560.718c-6 31.5-23.08 51.282-33.02 51.282-9.94 0 30-39.534 30-73.5 7.48-26.718-.94-100.5 9-100.5s-1.5 90-5.98 122.718z" fill="#000" fill-opacity=".2"/><path d="M1014 505.5c0 58.818-33.201 103.5-39 103.5-5.799 0 28.5-76.182 28.5-135s-10.299-76.5-4.5-76.5c5.8 0 24 45 15 108z" fill="#000" fill-opacity=".1"/><path d="M991.5 444c-4.5 15 7.5 37.5-4.5 31.5-7.5-3.75-19.5-6-28.5-21 0-16.569 12.716 10.5 21 10.5-6-18 4.5-39 12-21zM936 427.5c18 27 8.598 46.5-3 46.5s-4.5 1.995-4.5-27c-9-30-20.598-76.5-9-76.5 9 12 6 27 16.5 57z" fill="#000" fill-opacity=".1"/><path d="M927 460.5c0 21.539-18 6-39-18-13.5-7.5-30-34.5-21-40.5 6-9 7.5 6 13.5 15 15 12 46.5 21.961 46.5 43.5z" fill="#000" fill-opacity=".1"/><path d="M990 480c0 14.912-9 4.5-24 10.5-15-10.5-40.5-13.5-45-27 54 10.5 24-18 30-10.5 10.5 16.5 22.5 18 39 27z" fill="#FFF8F8" fill-opacity=".1"/><path d="M984 277.5c0 12.426 4.5 14.5-10.5 4.5-9-6-18-19.5-27-30 0-12.426 13.5 4.5 24 10.5 9 10.5 3 9 13.5 15z" fill="#000" fill-opacity=".1"/><path d="M993 327c0 28.995 2.642 54-1.5 54-10.5-21-18-10.5-12-39 12-21-5.642-57-1.5-57s15 13.005 15 42z" fill="#FBFBFB" fill-opacity=".1"/><path d="M994.5 397.51c0 23.196 10.5 34.49 6 56.99-6-10.5-45-73.5-66-91.5-52.5-88.5 30 21 34.5 7.5 9-4.5 25.5 3.814 25.5 27.01z" fill="#fff" fill-opacity=".1"/><path d="M879 241.5c12 15 15 27 0 15-9.939-7.951-22.5 4.5-25.5-24 0-19.882 0-24 4.5-37.5 1.5 18 15 25.5 21 46.5zM916.726 795.332c-3 4.5-19.726-7.832-40.726-1.832-9 30-3 39-28.5-18 0-8.284 16.5-6 36-1.5 15 3.461 33.226 13.048 33.226 21.332z" fill="#000" fill-opacity=".1"/><path d="M868.771 801c7.229 3 2.729 13.5-1.771 18-11.729-7.5-36 9-11.729-24-.271-13.5-12.07-19.5-6.271-19.5s10.771 9 19.771 25.5z" fill="#000" fill-opacity=".1"/><path d="M837 754.5c1.5 9 13.5 18 0 24-24-16.5-57 45-49.5-28.5 13.5-42-81-35.01-1.5-52.5 52.022-11.444 47.409 35.457 51 57z" fill="#fff" fill-opacity=".05"/><path d="M843 795c4.5 7.5-30.2-12-43.5 16.5C789 834 775.5 846 783 831c6-9 20.26-39 36-39 15.74 0 22.5-1.5 24 3z" fill="#000" fill-opacity=".1"/><path d="M865.5 817.5s-44-6.38-56 27c-4 17.5-7 35-12.705 6 7.5-22.5 19.5-39 33-45 0 0 65.705-16.5 35.705 12z" fill="#000" fill-opacity=".1"/><path d="M861 837c4.5 27-25.5 52.5-34.5 57-19.5 4.5-24-22.5-28.5-37.5 10.5 18 22.5 46.5 48 0 5.815-10.604 15-36.069 15-19.5z" fill="#000" fill-opacity=".1"/><path d="M813 835.5c-9 7.5-10.5 18-12 22.5-1.657 0-10.5-2.216-10.5-10.5-21-16.5 8.843-10.5 10.5-10.5 9 0 15-10.5 12-1.5z" fill="#000" fill-opacity=".1"/><path d="M855 852c0 7.456-19.387 31.5-28.5 31.5s-15-4.544-15-12-4.5-15 24-10.5c9.113 0 19.5-16.456 19.5-9z" fill="#fff" fill-opacity=".1"/><path d="M822 909c4.5 10.5-6 13.5-19.5 27-10.5 0-21-16.632-21-39s-2.441-21 7.5-21c9.941 0 9 16.5 33 33z" fill="#fff" fill-opacity=".05"/><path d="M864 973.5c-9 19.5-21 39-31.5 63-25.5-27 20.625-52.5 19.5-79.5-3-72-3-88.5 12-36 3 9-3 12 0 52.5z" fill="#000" fill-opacity=".1"/><path d="M841.5 951c0 4.971-7.387 37.5-16.5 37.5-3-6-7.5-10.029-7.5-15 0-4.97 0-1.5 10.5-9 7.5-12 13.5-18.471 13.5-13.5z" fill="#fff" fill-opacity=".05"/><path d="M882 1074c0 31.5-1.858 31.5-6 31.5-6-1.5-7.5 21-16.5-24-2.7-13.5-3-28.5 9-63 30 45 18 37.5 13.5 55.5z" fill="#000" fill-opacity=".1"/><path d="M859.5 1023c0 7.46-2.529 28.5-7.5 28.5s-12-3.04-12-10.5 14.529-34.5 19.5-34.5 0 9.04 0 16.5z" fill="#fff" fill-opacity=".05"/><path d="M909 1138.5c12 57-33 36-15 90-19.5-9-4.5-45.89-4.5-84-18-12-3.314-72 0-72s24 27 19.5 66zM831 1092c-11.879 1.7-9.358 16.5-13.5 16.5-4.142 0 4.5-20.42 4.5-34.5-9-81 7.5-40.5 9-30 0 4.5 10.5 46.5 0 48zM873 1212c-31.5-28.5 6 27-4.5 33-9.941 0-27-17.26-27-33 0-15.74 3.559-28.5 13.5-28.5 9.941 0 21 13.5 18 28.5z" fill="#000" fill-opacity=".1"/><path d="M880.5 1138.5c-15 9-12 22.5-12 37.5-5.799 0-22.5-20.1-22.5-37.5 28.742 4.5 12.201-28.5 18-28.5 9 0 10.5 10.5 16.5 28.5z" fill="#000" fill-opacity=".1"/><path d="M885 1173c-14.276 3-1.5 24-13.5 19.5-9 3-3-22.5 1.5-26.62 0-16.88 9.515-21.38 12-21.38 2.485 0 0 21.87 0 28.5zM849 1129.5c-12 4.5-17.059 51-27 51 13.5-45-34.5-63 10.5-45-18-63 10.5 4.5 12-39 19.5-105 12 58.5 4.5 33zM825 1189.5c18-18 12 72 13.5 91.5-45-73.5 1.5 30-57-33 0-19.05 30-4.5 22.5-45 12-30 3 4.5 21-13.5z" fill="#000" fill-opacity=".1"/><path d="M849 1174.5c3 37.5-8.686 28.5-12 28.5s4.5-6 3-28.5c0-14.08 2.686-25.5 6-25.5s1.5 13.5 3 25.5zM823.5 1185c-10.5 13.5-.869-21.38-13.5 0-19.5 33-12 28.5-24-28.5 0-9.94 12-16.5 24 6 18-42 13.5 12.56 13.5 22.5z" fill="#000" fill-opacity=".1"/><path d="M798 1224c-49.5 24 13.5 31.5-16.5 100.5-28.5-42-45-20.44-45-66 57-27 4.5-37.5 36-54 25.5 16.5 4.5-69 25.5 19.5zM817.5 1111.5c-25.5-3 10.5 18-9 33-93 4.5 16.5-10.5-16.5-33 0-12.43 4.074-19.5 16.5-19.5 18 0 0 15 9 19.5z" fill="#000" fill-opacity=".1"/><path d="M778.5 1186.5c-28.5 7.5-6 45-48.622 65.01C741 1188 703.5 1236 712.5 1191c-15 117-79.5-192 13.5-21 13.5 97.5 52.5-109.5 52.5 16.5z" fill="#000" fill-opacity=".1"/><path d="M784.5 1105.5c12 21-12 33-27 33-21.539 0 10.5-24 7.5-43.5 13.5-15 30-58.5 43.5-52.5 24 57-21 39-24 63z" fill="#fff" fill-opacity=".05"/><path d="M675 1132.5c0 24.02-10.5 18 3 60-11.598 0-58.789-46.21-45-60 12-12-34.5-70.5 15-48-3 159 12-39 27 48zM732 1260c-3 36 51 70.5-21 34.5-24-58.5-27-51-22.5-15-16.5-10.5-25.5-63.19-7.5-61.5 48 4.5 42 91.5 51 42zM744 1318.5c0 3.31 3-6 1.5 39-12.426 0-4.5-75-43.5-34.5 0-3.31 6-24 24-16.5 12.426 0 18 8.69 18 12z" fill="#000" fill-opacity=".1"/><path d="M765 1320c1.5 10.5-7.5 24-12 27-3-3 3-22.19 3-25.5 0-3.31-8.642-24-4.5-24 4.142 0 13.5 19.19 13.5 22.5z" fill="#fff" fill-opacity=".1"/><path d="M780 1273.5c4.5 9 3 48-3 21 0-19.5-13.5-21.2-13.5-27 0-5.8 7.858-13.5 12-13.5s4.5 13.7 4.5 19.5z" fill="#FEFEFE" fill-opacity=".05"/><path d="M729 1228.5c-9 0 1.5 24-4.5 27 7.5 21-16.5-30.36-16.5-34.5 0-4.14 7.029 0 12 0s9 3.36 9 7.5z" fill="#fff" fill-opacity=".05"/><path d="M618 1188c-24-1.5 34.5 72 7.5 64.5-39 9-78.156-77.62-45-52.5 49.5 37.5-30-84 3-96 25.5 90 39-63 34.5 84z" fill="#000" fill-opacity=".1"/><path d="M691.5 1284c-36 42-22.5-9-34.5-10.5-19.882 0-22.5 22.21-22.5 1.5s3-84 19.5-39c16.5 22.5 15 33 37.5 48z" fill="#000" fill-opacity=".1"/><path d="M664.5 1191c0 9.11 0 7.5-4.5 30 0 19.5-25.5-38.16-40.5-33 4.5-18.66-5.609-72.52 18-13.5 18 45 22.5 0 27 16.5z" fill="#000" fill-opacity=".1"/><path d="M642 1213.5c-9 3-4.5 10.5-9 13.5-4.971 0-10.5-10.86-10.5-15 0-4.14-7.971-19.5-3-19.5s22.5 16.86 22.5 21zM690 1213.5c0 4.97-12.358-1.5-16.5-1.5-4.142 0-10.5 42-7.5 28.5-6-3 .358-45 4.5-45s19.5 13.03 19.5 18z" fill="#fff" fill-opacity=".05"/><path d="M567 1149c-10.5 12 12 73.5-9 46.5-31.5-21-21-31.59-21-46.5-3-28.5 7.5-18 21-42 19.5-96 18 3 9 42z" fill="#000" fill-opacity=".1"/><path d="M582.088 1176c0 5.8 13.142 22.5 9 22.5-4.5-4.5-21-18.2-21-24 0-5.8 4.5-42 9-18 0 10.5 3 13.7 3 19.5z" fill="#fff" fill-opacity=".05"/><path d="M592.5 999c0 9.94-63 100.5-42 121.5-18 33-16.5-17.06-16.5-27 4.5-7.5 25.387-61.5 34.5-61.5 7.5-18 25.5-76.5 24-33z" fill="#000" fill-opacity=".1"/><path d="M600 1041c0 9.11 9 73.5 0 52.5-12-12-28.5-37.39-28.5-46.5s9-19.5 13.5-28.5c3 78 4.5 22.5 15 22.5zM615 1080c0 6.63 18 49.5 13.5 48-5.799 0-21-27.87-21-34.5 0-6.63-7.299-48-1.5-48s9 19.5 9 34.5z" fill="#000" fill-opacity=".1"/><path d="M610.5 1110c0 4.14-4.858 19.5-9 19.5S591 1099.14 591 1095c0-4.14 3.358 9 7.5 9 0 16.5 12 1.86 12 6zM760.5 1149c0 11.6-15.044 36-22.5 36-7.456 0-3-15-12-31.5 0-11.6-36-36-3-21 34.5 13.5 21 6 37.5 16.5z" fill="#fff" fill-opacity=".05"/><path d="M702 1099.5c0 10.77 37.5 36 0 22.5-12.426 0-28.663-55.5-49.5 0 0-10.77 0-58.5 4.5-63 12.426 0 22.5 19.5 45 40.5z" fill="#fff" fill-opacity=".05"/><path d="M603 954c-7.5 60 63 84 42 112.5-7.5-23.47-48-27-52.5-79.5-4.5-15-12-31.5 4.5-69-4.5-34.5 12 7.5 6 36z" fill="#000" fill-opacity=".1"/><path d="M636 1063.5c0 4.14 30 28.5-6 7.5-9-7.5-4.5 45-10.5 1.5-.207-1.5-10.5-36 1.5-19.5 3.314 0 15 6.36 15 10.5z" fill="#FFFDFD" fill-opacity=".05"/><path d="M645 954c0 9.113 6 70.5-3 46.5-6-10.5-12-29.887-12-39s-33-7.5-10.5-46.5c7.456 0 25.5 29.887 25.5 39z" fill="#000" fill-opacity=".1"/><path d="M619.5 979.5c9 7.5 20.799 34.5 15 34.5-5.799 0-25.5-24.559-25.5-34.5 0-9.941-4.5-34.5 6-18 5.799 0 4.5 8.059 4.5 18z" fill="#FFFEFE" fill-opacity=".05"/><path d="M645 894c0 5.799-19.387 6-28.5 6-12-13.5-21 10.299-21 4.5 0-5.799-4.613-40.5 4.5-40.5 13.5 40.5 45 24.201 45 30zM661.5 990c-10.5 34.5 43.5 63.66 3 51-24-7.5-16.5-38.57-16.5-51 0-12.426 15.245-42 28.5-42s-15 29.574-15 42z" fill="#000" fill-opacity=".1"/><path d="M663 952.5c0 4.142-7.5 3-12 18 0-6-1.5-22.858-1.5-27 0-4.142-12-18 0-19.5 4.465-.558 13.5 24.358 13.5 28.5zM766.5 1044c0 4.97-18 6-28.5 7.5-9.941 0-33 3.47-33-1.5 0-4.97 18.559-13.5 28.5-13.5 9.941 0 33 2.53 33 7.5z" fill="#000" fill-opacity=".1"/><path d="M675 991.5c1.5 36 45 45 25.5 49.5-21 7.5-34.5-35.06-34.5-45 0-9.941 11.696-33.708 18-36 33-12-6 6-9 31.5z" fill="#fff" fill-opacity=".05"/><path d="M811.5 997.5c6 40.5-19.387 40.5-28.5 40.5-21 9 19.5-15 16.5-34.5-3.231-21-36-57-19.5-67.5-18-31.5 28.446 40.886 31.5 61.5z" fill="#000" fill-opacity=".1"/><path d="M792 1000.5c0 7.46 0 19.5-16.5 34.5-9.113 0-15 1.46-15-6 60-73.5-28.5-66 1.5-73.5 9.113 0 27 12 30 45z" fill="#fff" fill-opacity=".05"/><path d="M792 1042.5c0 7.46-19.5 46.5-57 43.5-40.5 3-58.5-18-69-40.5 19.5-7.5 23.517 30 69 30 36 0 40.5-40.5 57-33z" fill="#000" fill-opacity=".1"/><path d="M768 1050c0 4.97-15.603 23.49-33 23.49s-39-13.03-39-18c0-4.97 21.603 3.51 39 3.51s33-13.97 33-9z" fill="#fff" fill-opacity=".05"/><path d="M759 974.278C735.892 992.099 748.126 1002 732.811 1002s-3.081-9.901-30.811-25.742c0-11.881 1.5-8.758 30.811-1.98 15.315 0 24.689-15.778 26.189 0z" fill="#000" fill-opacity=".15"/><path d="M759 972.359C735.892 983.7 748.125 990 732.811 990c-15.315 0-3.081-6.3-30.811-16.381-3-12.119 16.946-1.26 30.811 1.26 15.314 0 26.189-14.879 26.189-2.52zM714.675 1005c0 9.11-2.062 9-11.175 9-5.325-4.5-1.5-3-9-10.5-4.5-4.5-5.438-15 3.675-15s16.5 7.387 16.5 16.5z" fill="#000" fill-opacity=".3"/><path d="M753 981c18-9-18 16.5-1.5 34.5 2.75 3-15-6-39 4.5 0-4.14 13.5-10.5-10.5-39 13.5-3 28.5 60 51 0z" fill="#fff" fill-opacity=".05"/><path d="M772.5 1044c0 7.46-22.23 12-33 12s-39-.04-39-7.5c19.5-24 22.23-27 33-27s16.5 3 39 22.5zM768 904.5c0 9.941 11.058 23.268 9 31.5-4.5 18 0 12-21-33-3.323-7.121 8.686-28.5 12-28.5 22.5-33-3 13.5 0 30zM705 898.5c0 9.941 6 34.5-28.5 34.5-11.598 0 12-12 9-40.5 0-9.941-19.098-33-7.5-33 11.598 0 27 29.059 27 39z" fill="#000" fill-opacity=".1"/><path d="M679.5 901.5c0 9.941-9.044 33-16.5 33-6-10.5-16.5-24-15-33 15-7.5 13.5 0 22.5-28.5 7.456 0 9 18.559 9 28.5z" fill="#fff" fill-opacity=".05"/><path d="M661.5 874.5c0 8.285 13.5 9-3 12-6-25.5-4.5-12-18-25.5-5.858-5.858 11.887-1.5 21-1.5s0 6.716 0 15zM649.5 886.5c0 6.628-14.216 7.5-22.5 7.5s-15-5.372-15-12c-4.5-7.5-16.5-37.5-16.5-37.5 16.5 9 12 54 54 42z" fill="#000" fill-opacity=".1"/><path d="M666 882c0 4.971-10.074 0-22.5 0-18 10.5-31.5-14.529-31.5-19.5 7.5-7.5-1.5 9 27 0 12.426 0 27 14.53 27 19.5z" fill="#fff" fill-opacity=".1"/><path d="M642 825c0 6.627-25.387 0-34.5 0s-19.5 14.127-19.5 7.5c-7.5-4.5-6.113-39 3-39 6 25.5 25.5 13.5 51 31.5z" fill="#000" fill-opacity=".1"/><path d="M670.5 835.5c0 4.971-1.858 25.5-6 25.5-4.142 0-4.5-22.5-22.5-34.5s-25.5-10.5-40.5-18c7.5-10.5 42-3 69 27z" fill="#000" fill-opacity=".1"/><path d="M675 819c-6 57-3-10.5-42-24-11.598 0-46.5 1.97-46.5-3 21-25.5 70.902-4.5 82.5-4.5 11.598 0 6.52 26.557 6 31.5zM853.5 795c-52.5-9.873-64.5 7.5-69 43.5-9-9-12-33-4.5-33 0-7.456 18.446-24 37.5-24 40.5-7.5 36 6.044 36 13.5z" fill="#000" fill-opacity=".1"/><path d="M729 708c-40.5 28.5-66-6.736-45 81-36-21-48-.289-48-21 13.5-21 3-82.5 57-69 18.225 0 58.5-6.833 36 9z" fill="#fff" fill-opacity=".05"/><path d="M739.5 690c30 13.5-103.5-15-94.5 30-12-12 3-32.887 3-42s11.931 7.5 28.5 7.5c16.569 0 63-4.613 63 4.5z" fill="#000" fill-opacity=".1"/><path d="M636 748.5c-24 43.5-19.5 33-45 37.5-7.456 0 4.5 70.5-24 24 13.5-99 46.5 27 64.5-108 7.456 0 16.5 4.5 4.5 46.5z" fill="#000" fill-opacity=".1"/><path d="M621 643.5c0 17.397 37.5 25.5 19.5 61.5-3-19.5-24-6-40.5-58.5 0-17.397 7.5-144 10.5-106.5 7.5 22.5-10.5 58.5 10.5 103.5zM592.5 546c-42 79.5 15 139.5 3 135-13.5-24-39-49.5-13.5-126 0-21.539-2.485-76.5 0-76.5s3-25.5 10.5 67.5z" fill="#000" fill-opacity=".2"/><path d="M594 598.5c-4.5 123 61.5 70.5 28.5 136.5C612 688.5 579 660 579 604.5c28.5-78 7.544-118.5 15-118.5s18 75 0 112.5z" fill="#fff" fill-opacity=".1"/><path d="M609 745.5c0 14.912 22.5 0 0 19.5-9 7.8-34.5-39-46.5-49.5-9-3-9-4.5-9-30 6 7.5 43.5 25.5 55.5 60z" fill="#000" fill-opacity=".2"/><path d="M565.381 664.78c-18 4.5-6 12-18 10.5-19.5-10.5-19.5-10.5-31.5-24-16.381-22.78-28.381-103.78-6-37.5 13.5 9 37.5 46.5 55.5 51z" fill="#000" fill-opacity=".1"/><path d="M484.5 610.5c0 13.255 49.5 64.5 9 42-25.5-7.5-48-58.745-48-72 0-13.255 54 100.5 22.5-7.5-5.25-18 16.5 24.245 16.5 37.5z" fill="#000" fill-opacity=".2"/><path d="M544.5 691.5c30 42-72.559-43.5-82.5-43.5-9.941 0-27-31.588-27-46.5 0-14.912-9.941-40.5 0-40.5 18 124.5 123 99 109.5 130.5zM474 511.5c0 20.711 28.255 82.5 15 82.5-13.255 0-52.5-154.5-52.5-177 42 81 22.5-31.5 22.5-31.5 22.5-24 15 105.289 15 126z" fill="#fff" fill-opacity=".1"/><path d="M438 340.5c-3 12-4.5 19.5-3 34.5-4.971 0-9-10.074-9-22.5-3-33 20.529-52.5 25.5-52.5 4.97 0-13.5 28.074-13.5 40.5zM525 277.5c-4.799 57-21.299 54-34.5 91.5-13.5-27 29.701-61.169 13.201-96 0-29.823 7.388-54 16.5-54C525 226.5 525 247.677 525 277.5zM585 421.5c-10.5 15-21 28.5-28.5 34.5-14.912 0 10.5-2.103 10.5-19.5s12.088-49.5 27-49.5c3 3-9 17.103-9 34.5zM541.5 378c-4.5 10.5-3 4.5-12 16.5-13.255 0-19.5 12.27-19.5 1.5s28.745-37.5 42-37.5c4.5 1.5-10.5 8.73-10.5 19.5z" fill="#000" fill-opacity=".2"/><path d="M556.5 445.5C558 462 489 465 489 531c-13.5-7.5-6-25.387-6-34.5 36-31.5 24-67.5 30-70.5 19.5 36-13.5 33 43.5 19.5z" fill="#FFFBFB" fill-opacity=".1"/><path d="M604.5 763.5c-3 13.5-21-4.5-30 18-24.024 0-34.5-46.5-88.5-67.5-18-19.5 13.476 6 37.5 6 42 30 76.5 28.5 81 43.5z" fill="#000" fill-opacity=".15"/><path d="M468 732c-4.5 38.291 48 94.5 12 58.5-12-6-28.5-39-27-60 6-13.5-19.5-31.5-9-37.5 76.5 27 3-4.5 24 39z" fill="#000" fill-opacity=".1"/><path d="M592.5 832.5c0 7.5-22.5-24.721-46.5-24-13.255 0-39 14.127-39 7.5-36-27-1.5-1.5 37.5-18 22.5 0 48 27.873 48 34.5z" fill="#000" fill-opacity=".2"/><path d="M516 780c42 1.5 49.5 13.5 55.5 21-43.5-27-63 4.5-88.5-48 0-12-16.77-25.5-6-25.5 28.5 13.5 39 38.417 39 52.5z" fill="#000" fill-opacity=".3"/><path d="M555 796.5c-25.5-1.5-16.5 0-54 4.5-9.941 0-13.5-2.574-13.5-15s-18.941-28.5-9-28.5c20.012 43.435 75 28.5 76.5 39zM570 784.5c16.5 27-15-9.501-40.5-6-12-24-18-29.574-18-42 0-12.426 22.5 18 30 28.5 6 15 28.5 7.074 28.5 19.5z" fill="#fff" fill-opacity=".1"/><path d="M746.28 789.959c-2.394 0-5.306 6.38-9.809 6.027-5.827-.458-3.041-10.231-8.584-12.054-4.631-1.523-7.599 3.839-12.261 2.411-4.526-1.386-3.865-7.989-8.584-8.438-3.014-.286-4.483 3.353-7.357 2.411-4.542-1.488 2.538-8.062 0-12.053-1.076-1.694-2.502-1.988-3.678-3.617-3.613-5.005-1.226-15.669-1.226-15.669s-2.405-9.478 1.226-13.259c4.273-4.45 11.919 4.671 15.94 0 3.403-3.953-2.893-8.932 0-13.259 3.981-5.952 12.336 1.501 18.393-2.411 2.83-1.827 2.766-5.65 6.131-6.027 2.562-.287 6.13 2.411 6.13 2.411s11.043.586 17.167 3.616c4.277 2.116 9.809 7.232 9.809 7.232s1.507-.15 2.452 0c5.092.808 4.475 7.002 4.905 12.054.407 4.784-3.341 7.333-2.452 12.054.469 2.492 2.104 3.515 2.452 6.026.534 3.846-2.755 5.773-2.452 9.643.232 2.969 2.974 4.3 2.452 7.232-.528 2.969-2.722 3.911-4.905 6.027-2.932 2.844-5.912 2.944-8.583 6.027-1.81 2.089-1.092 4.991-3.678 6.027-2.805 1.123-7.357-2.411-7.357-2.411h-6.131z" fill="#000" fill-opacity=".2"/><path d="M709.096 842.48c-1.282 2.238-4.33 1.513-5.006 4.039-1.091 4.073 8.12 1.202 8.761 5.385.327 2.139-1.212 3.218-1.252 5.386-.074 4.003.599 7.301 3.755 9.424 1.708 1.15 3.829-.413 5.006 1.347 1.537 2.298-4.04 4.433-2.503 6.731 1.177 1.76 3.63-.237 5.006 1.347 1.055 1.215.56 2.552 1.252 4.039 1.545 3.325 4.153 3.782 6.257 6.732 1.073 1.503.776 3.667 2.504 4.039 2.033.437 2.896-2.009 3.754-4.039 1.012-2.394-1.319-4.519 0-6.732 1.421-2.384 4.418-.669 6.258-2.693 2.755-3.031-2.323-8.987 1.252-10.771 1.773-.885 3.623 1.487 5.006 0 1.382-1.487-.97-3.559 0-5.385 1.084-2.042 3.395-1.104 5.006-2.693 4.324-4.263-5.785-15.119 0-16.156.964-.173 2.503 0 2.503 0s7.212-4.102 6.258-8.079c-.93-3.877-6.96-.534-8.761-4.039-1.418-2.761 1.76-5.554 0-8.078-1.311-1.881-2.872-2.182-5.006-2.693-1.909-.456-3.213.839-5.006 0-2.614-1.222-1.409-4.991-3.755-6.731-3.219-2.388-6.503 1.854-10.013 0-3.773-1.995-2.836-12.054-6.257-9.425-2.42 1.859-1.252 8.078-1.252 8.078s-5.381 5.016-3.755 8.078c1.085 2.042 3.794.737 5.007 2.693 1.355 2.188 1.644 4.787 0 6.732-1.356 1.604-3.003 1.58-5.007 1.346-3.111-.363-3.186-6.033-6.257-5.385-1.073.226-2.504 1.346-2.504 1.346l-3.754 4.039s-2.101 1.27-2.503 2.693c-.83 2.933 5.508 1.081 6.257 4.039.531 2.092-.194 3.54-1.251 5.386z" fill="#000" fill-opacity=".15"/><defs><clipPath id="clip0_113_2"><path fill="#fff" d="M0 0h1500v1500H0z"/></clipPath></defs></svg>