<svg width="1500" height="1500" fill="none" xmlns="http://www.w3.org/2000/svg"><path d="M968.727 780l58.593 100-58.593 100h-113.87l-58.182-100 58.182-100h113.87zm36.573-80H818.286c-7.896 0-14.961 4.4-18.286 10.4l-92.26 158.4L704 880l3.74 11.2L800 1049.6c3.325 6 10.39 10.4 18.286 10.4H1005.3c7.89 0 14.96-4.4 18.28-10.4l92.26-158.4 3.74-11.2-3.74-11.2-92.26-158.4c-3.32-6-10.39-10.4-18.28-10.4zm347.84 300l57.35 100-57.35 100h-113.87l-57.35-100 57.35-100h113.87zm36.57-80H1202.7c-7.89 0-14.96 4.4-18.28 10.4l-92.26 158.4-3.74 11.2 3.74 11.2 92.26 158.4c3.32 6 10.39 10.4 18.28 10.4h187.01c7.9 0 14.97-4.4 18.29-10.4l92.26-158.4 3.74-11.2-3.74-11.2L1408 930.4c-3.32-6-10.39-10.4-18.29-10.4zm-420.983 300l58.593 100-58.593 100h-113.87l-58.182-100 58.182-100h113.87zm36.573-80H818.286c-7.896 0-14.961 4.4-18.286 10.4l-92.26 158.4L704 1320l3.74 11.2L800 1489.6c3.325 6 10.39 10.4 18.286 10.4H1005.3c7.89 0 14.96-4.4 18.28-10.4l92.26-158.4 3.74-11.2-3.74-11.2-92.26-158.4c-3.32-6-10.39-10.4-18.28-10.4zM291 341.5c-34.688 0-62.5-28.125-62.5-62.5a62.283 62.283 0 0 1 62.5-62.5 62.283 62.283 0 0 1 62.5 62.5 62.5 62.5 0 0 1-62.5 62.5zM291 29a250.002 250.002 0 0 0-176.777 426.777A250 250 0 1 0 291 29z" fill="#000" fill-opacity=".2"/><path d="M386 678.75c-13.181 0-23.75-10.688-23.75-23.75A23.668 23.668 0 0 1 386 631.25 23.668 23.668 0 0 1 409.75 655 23.75 23.75 0 0 1 386 678.75zM386 560a94.999 94.999 0 1 0 0 190 94.999 94.999 0 1 0 0-190zM651 166.5c-15.262 0-27.5-12.375-27.5-27.5a27.406 27.406 0 0 1 27.5-27.5 27.406 27.406 0 0 1 27.5 27.5 27.497 27.497 0 0 1-8.055 19.445A27.497 27.497 0 0 1 651 166.5zM651 29a110 110 0 1 0 0 220 110 110 0 0 0 0-220z" fill="#000" fill-opacity=".2"/></svg>