<svg width="1500" height="1500" fill="none" xmlns="http://www.w3.org/2000/svg"><path d="M627.989 845.552c0 2.697-2.011 2.442-6.494 2.442-4.484 0-6.495-5.849-6.495-8.546 0-2.697 4.446-2.442 8.93-2.442s4.059 5.849 4.059 8.546zM627.46 837.286c.457.855 1.375.704 2.761.704 1.387 0 .499-2.012.499-3.049s-1.375-.939-2.762-.939c-1.386 0-1.001 2.345-.498 3.284zM839.989 838.552c0 2.697-2.011 2.442-6.494 2.442-4.484 0-6.495-5.849-6.495-8.546 0-2.697 4.446-2.442 8.93-2.442s4.059 5.849 4.059 8.546zM839.46 830.286c.457.855 1.375.704 2.761.704 1.387 0 .499-2.012.499-3.049s-1.375-.939-2.762-.939c-1.386 0-1.001 2.345-.498 3.284z" fill="#fff"/></svg>