<svg width="1500" height="1500" fill="none" xmlns="http://www.w3.org/2000/svg"><path d="M746.28 789.959c-2.394 0-5.306 6.38-9.809 6.027-5.827-.458-3.041-10.231-8.584-12.054-4.631-1.523-7.599 3.839-12.261 2.411-4.526-1.386-3.865-7.989-8.584-8.438-3.014-.286-4.483 3.353-7.357 2.411-4.542-1.488 2.538-8.062 0-12.053-1.076-1.694-2.502-1.988-3.678-3.617-3.613-5.005-1.226-15.669-1.226-15.669s-2.405-9.478 1.226-13.259c4.273-4.45 11.919 4.671 15.94 0 3.403-3.953-2.893-8.932 0-13.259 3.981-5.952 12.336 1.501 18.393-2.411 2.83-1.827 2.766-5.65 6.131-6.027 2.562-.287 6.13 2.411 6.13 2.411s11.043.586 17.167 3.616c4.277 2.116 9.809 7.232 9.809 7.232s1.507-.15 2.452 0c5.092.808 4.475 7.002 4.905 12.054.407 4.784-3.341 7.333-2.452 12.054.469 2.492 2.104 3.515 2.452 6.026.534 3.846-2.755 5.773-2.452 9.643.232 2.969 2.974 4.3 2.452 7.232-.528 2.969-2.722 3.911-4.905 6.027-2.932 2.844-5.912 2.944-8.583 6.027-1.81 2.089-1.092 4.991-3.678 6.027-2.805 1.123-7.357-2.411-7.357-2.411h-6.131z" fill="#000" fill-opacity=".2"/><path d="M709.096 842.48c-1.282 2.238-4.33 1.513-5.006 4.039-1.091 4.073 8.12 1.202 8.761 5.385.327 2.139-1.212 3.218-1.252 5.386-.074 4.003.599 7.301 3.755 9.424 1.708 1.15 3.829-.413 5.006 1.347 1.537 2.298-4.04 4.433-2.503 6.731 1.177 1.76 3.63-.237 5.006 1.347 1.055 1.215.56 2.552 1.252 4.039 1.545 3.325 4.153 3.782 6.257 6.732 1.073 1.503.776 3.667 2.504 4.039 2.033.437 2.896-2.009 3.754-4.039 1.012-2.394-1.319-4.519 0-6.732 1.421-2.384 4.418-.669 6.258-2.693 2.755-3.031-2.323-8.987 1.252-10.771 1.773-.885 3.623 1.487 5.006 0 1.382-1.487-.97-3.559 0-5.385 1.084-2.042 3.395-1.104 5.006-2.693 4.324-4.263-5.785-15.119 0-16.156.964-.173 2.503 0 2.503 0s7.212-4.102 6.258-8.079c-.93-3.877-6.96-.534-8.761-4.039-1.418-2.761 1.76-5.554 0-8.078-1.311-1.881-2.872-2.182-5.006-2.693-1.909-.456-3.213.839-5.006 0-2.614-1.222-1.409-4.991-3.755-6.731-3.219-2.388-6.503 1.854-10.013 0-3.773-1.995-2.836-12.054-6.257-9.425-2.42 1.859-1.252 8.078-1.252 8.078s-5.381 5.016-3.755 8.078c1.085 2.042 3.794.737 5.007 2.693 1.355 2.188 1.644 4.787 0 6.732-1.356 1.604-3.003 1.58-5.007 1.346-3.111-.363-3.186-6.033-6.257-5.385-1.073.226-2.504 1.346-2.504 1.346l-3.754 4.039s-2.101 1.27-2.503 2.693c-.83 2.933 5.508 1.081 6.257 4.039.531 2.092-.194 3.54-1.251 5.386z" fill="#000" fill-opacity=".15"/></svg>