<svg width="1500" height="1500" fill="none" xmlns="http://www.w3.org/2000/svg"><g opacity=".9" fill-rule="evenodd" clip-rule="evenodd"><path d="M579.362 429.5c.661 11.042 3.067 56.538-.156 86.834-.631 5.939-1.833 11.139-3.197 15.999h38.982V505.17l-3.253-22.329s-1.594-10.292-2.386-17.351c-.18-1.6-.255-2.905-.326-4.13-.148-2.566-.275-4.781-1.301-8.629a99.927 99.927 0 0 1-.823-3.402c-1.072-4.663-2.148-9.343-5.683-12.546-1.711-1.55-4.064-4.37-6.427-7.283h-15.43zm-73.461 0c-4.117 4.043-8.564 8.932-11.277 13.47-6.708 11.219-9.759 31.897-9.759 31.897s-3.292 25.598 0 41.467c1.341 6.466 2.873 11.152 4.85 15.999h-31.873c-2.227-9.046-3.882-15.999-3.882-15.999l-11.386-41.467-13.881-45.367h77.208zm-91.352 0c1.644 4.666 2.061 13.082 2.538 22.713.462 9.307.979 19.749 2.715 29.034a436.233 436.233 0 0 1 1.575 9.081c1.479 8.916 2.657 16.019 6.558 26.006 2.533 6.486 4.753 11.226 7.503 15.999h-28.562c-1.441-5.422-2.726-11.114-3.34-15.999-1.71-13.6 0-35.087 0-35.087s3.251-40.374 7.099-51.747h3.914zm680.451 0c-.61 19.732-2.21 42.233-5.05 61.316-1.11 7.498-3.25 19.138-3.25 19.138s-3.06 10.67-4.88 17.544a83.816 83.816 0 0 0-1.11 4.835h-35.17c2.54-3.541 5.37-8.025 5.37-8.025l4.88-7.974s4.38-6.597 6.51-11.164c2.2-4.712 3.06-7.817 4.32-12.349.18-.637.36-1.303.56-2.005 1.56-5.535 3.25-14.354 3.25-14.354l4.88-23.923s2.62-11.587 3.26-19.138c.11-1.398.15-2.685.15-3.901H1095zm-126.953 0h86.143c-.68 9.449-1.83 19.446-3.28 31.013a419.72 419.72 0 0 1-.36 2.917c-1.58 12.681-2.58 20.693-6.14 33.765-2.6 9.514-4.56 14.721-8.14 23.923-.73 1.902-1.38 3.637-1.99 5.271-.79 2.104-1.51 4.039-2.29 5.944h-44.136l2.877-4.835 8.133-12.759 6.506-14.354s2.62-7.66 3.25-12.759c.4-3.208.28-5.526.15-8.118-.07-1.405-.15-2.89-.15-4.641 0-2.189.19-4.062.37-5.835.34-3.27.63-6.194-.37-10.113-.13-.508-.25-1.003-.37-1.487-1.15-4.661-2.03-8.219-6.13-11.272-1.61-1.194-3.071-1.583-4.634-1.998-1.093-.29-2.234-.592-3.502-1.192-3.182-1.505-5.345-3.18-7.527-4.87-2.062-1.597-4.141-3.208-7.112-4.699-3.384-1.699-6.24-2.489-9.115-3.285-.723-.2-1.448-.401-2.183-.616zm-109.929 0h12.474c.604 5.103 1.92 8.997 3.341 13.201.997 2.951 2.047 6.055 2.937 9.838.804 3.414 1.308 6.279 1.789 9.016.743 4.228 1.433 8.148 3.091 13.312 2.905 9.049 9.759 22.328 9.759 22.328l9.76 19.139s4.328 7.894 7.36 15.999H872.27l-1.906-11.215-4.88-20.733s-2.386-10.876-4.88-17.544c-2.386-6.379-2.856-8.186-2.386-12.566.863-8.035.606-13.825.32-20.301-.156-3.509-.32-7.219-.32-11.596 0-1.294-.026-2.618-.052-3.947-.032-1.65-.065-3.31-.048-4.931zM597.557 840.833c1.085-8.406 1.529-16.385-2.085-26.26-4.048-11.061-7.669-17.33-16.266-25.518-9.382-8.936-16.85-11.949-29.278-15.949-9.832-3.163-18.378.525-26.703 4.117-9.049 3.906-17.837 7.699-27.734 2.455-9.887-5.239-22.012-25.71-22.012-25.71S459.91 746.589 454.793 738h534.725c-.889 1.067-1.765 1.953-2.629 2.826-1.467 1.482-2.898 2.928-4.291 5.168-1.48 2.378-3.253 6.379-3.253 6.379s-1.726 3.111-3.254 4.785c-2.117 2.321-6.506 4.784-6.506 4.784s-3.714 2.677-6.506 3.19c-1.215.223-2.105.157-3.101.083-.539-.04-1.109-.083-1.779-.083-.893 0-1.648.018-2.363.035-1.319.03-2.498.058-4.143-.035-6.124-.346-10.515-3.071-14.826-5.746-4.73-2.935-9.363-5.81-16.079-5.418-11.074.646-30.905 6.38-26.026 11.164 3.78 3.706 3.656 4.542 3.408 6.212a11.258 11.258 0 0 0-.154 1.762c0 1.172-1.359 3.744-3.143 7.121-3.072 5.816-7.408 14.021-8.243 21.587-.275 2.487-.14 4.444-.004 6.403.134 1.943.269 3.888.004 6.356-.711 6.606-3.386 11.16-6.103 15.786-1.891 3.218-3.802 6.471-5.087 10.474H597.557zM530.84 1149.33c.119-1.25.286-2.5.458-3.79.359-2.68.738-5.52.738-8.81v-28.7c0-4.38-.273-8.11-.531-11.63-.476-6.5-.902-12.31.531-20.27 1.736-9.64 7.4-21.39 11.896-29.63h375.271c1.005 3.45 1.585 5.71 1.585 5.71 2.282 5.89 4.803 10.58 7.206 15.06 3.768 7.01 7.247 13.49 9.06 23.21 1.629 8.75 1.145 15.14.603 22.3-.293 3.88-.603 7.98-.603 12.79 0 4.82.636 9.01 1.237 12.97.56 3.69 1.089 7.18 1.049 10.79h-408.5z" fill="#fff"/><path d="M551.312 532.333c-.687 2.448-1.415 4.809-2.132 7.135l-.001.003c-3.132 10.161-6.055 19.643-4.429 32.683 1.243 9.967 3.707 16.263 6.833 24.247v.001a366.23 366.23 0 0 1 2.926 7.649c2.207 6.014 5.059 10.844 7.769 15.436l.001.001c3.914 6.631 7.535 12.764 8.496 21.245 1.627 14.354-34.158-19.138-34.158-19.138l-29.278-25.518s-13.897-13.808-21.146-23.923c-7.52-10.494-10.961-16.985-16.266-28.708l-.847-1.869v-.001c-1.548-3.412-2.884-6.356-4.062-9.243h-31.873c3.617 14.685 8.744 34.886 10.757 39.821 3.253 7.974-17.472-16.271-26.025-28.708-2.871-4.174-5.143-7.652-7.136-11.113h-28.562c2.894 10.885 6.419 20.682 6.419 20.682 0-2.184.72-.798 2.804 3.214 2.481 4.776 6.895 13.274 14.329 23.899l.189.271c14.452 20.658 14.705 21.019 23.343 26.842 8.675 5.848 40.539 25.758 56.93 33.492 9.155 4.32 15.428 9.828 21.977 15.577 4.437 3.896 9.001 7.903 14.675 11.728 4.598 3.099 7.871 4.646 10.618 5.945 4.783 2.261 7.971 3.767 13.78 11.406l1.463 1.923c9.63 12.652 29.785 39.135 22.069 31.569-8.133-7.974-45.544-20.733-45.544-20.733s-16.66-13.305-31.665-18.946c-6.762-2.542-11.073-3.762-15.751-5.085h-.001l-.001-.001c-5.612-1.587-11.752-3.324-23.285-7.673-2.927-1.104-6.758-2.854-11.008-4.794-13.64-6.228-31.588-14.424-37.789-9.56-5.153 4.042.23 12.42 5.418 20.494 3 4.67 5.935 9.238 6.728 12.806 1.114 5.015.547 8.521-.019 12.018-.571 3.528-1.14 7.046.019 12.097 1.714 7.472 4.581 13.17 7.717 19.403 1.2 2.384 2.44 4.847 3.669 7.518 4.254 9.241 19.519 17.543 19.519 17.543s12.125 20.471 22.012 25.71c3.529 1.87 6.916 2.591 10.225 2.567-3.21-.022-6.497-.755-9.916-2.567-9.887-5.239-22.012-25.71-22.012-25.71s-13.569-7.379-18.686-15.968H964.82c.402-.483.807-1.003 1.213-1.575 1.47-2.069 2.369-3.835 3.269-5.602.892-1.753 1.786-3.507 3.238-5.562 1.305-1.847 2.426-3.133 3.595-4.474l.001-.001c.906-1.039 1.84-2.11 2.91-3.5 5.866-7.62 9.218-13.86 12.812-20.551 2.397-4.464 4.903-9.128 8.332-14.536 2.08-3.273 4.1-5.866 6.01-8.329 3.24-4.159 6.19-7.943 8.63-13.999 2.1-5.197 2.85-11.431 3.45-16.341v-.001c.42-3.46.76-6.262 1.43-7.581 1.41-2.755-4.86-1.401-9.4-.419-.72.155-1.39.301-1.99.419-5.2 1.04-8 4.106-10.947 7.325-2.342 2.56-4.773 5.217-8.567 7.029-9.552 4.561-16.049 5.214-26.275 6.241l-.8.08-.577.059c-4.049.409-7.33.11-10.537-.181-3.799-.346-7.493-.682-12.235.181-4.547.826-7.095 1.5-11.386 3.189-8.502 3.347-19.519 12.759-19.519 12.759s-4.164 3.708-6.507 6.38c-1.343 1.531-2.195 2.712-3.148 4.032-.516.715-1.062 1.472-1.731 2.347-1.337 1.748-2.476 3.22-3.553 4.613l-.004.005c-1.991 2.576-3.771 4.878-6.203 8.141-1.153 1.547-2.105 3.62-3.002 5.571-1.61 3.504-3.041 6.617-5.131 5.593-1.555-.763-2.798-1.154-3.999-1.533-1.31-.413-2.571-.81-4.134-1.657a35.954 35.954 0 0 0-1.354-.689c-1.334-.655-2.417-1.187-3.525-2.501-3.038-3.599-1.746-7.494-.292-11.877l.078-.234.214-.647c1.862-5.685 6.064-7.817 10.819-10.231 2.296-1.165 4.72-2.396 7.073-4.123 5.262-3.863 9.422-6.436 13.791-9.139 3.243-2.006 6.6-4.082 10.608-6.81 12.263-8.346 19.857-14.015 30.207-21.742l.001-.001.001-.001c2.246-1.676 4.621-3.45 7.202-5.368 3.695-2.747 6.636-4.999 9.498-7.19l.016-.012.002-.001.001-.001.006-.005c3.559-2.725 7-5.359 11.622-8.74 2.813-2.058 5.185-3.669 7.461-5.214l.001-.001c3.326-2.259 6.445-4.377 10.431-7.544 3.421-2.719 5.887-5.03 8.374-7.362h.001c2.339-2.193 4.698-4.405 7.889-6.992 4.09-3.308 7.34-5.592 10.72-7.959v-.002c2.7-1.89 5.47-3.833 8.8-6.392 5.35-4.115 8.85-6.971 13.21-10.541 1.44-1.171 2.97-2.419 4.68-3.813 1.33-1.075 2.53-1.91 3.67-2.699 2.14-1.488 4.04-2.812 6.09-5.276 3.25-3.905 4.35-6.902 5.97-11.311.18-.466.35-.947.54-1.447 1.12-3.021 1.6-5.311 2.12-7.822v-.001l.02-.101h-35.17c-.38.544-.77 1.065-1.13 1.544-2.96 3.904-8.13 9.569-8.13 9.569s-5.13 7.644-9.76 11.164c-4.491 3.415-16.268 9.57-13.014 6.38 3.253-3.19 8.695-10.206 13.014-17.544 2.46-4.185 4.05-7.599 5.48-11.113h-44.143l-8.51 14.303s-6.546 16.356-13.012 25.518c-6.395 9.061-19.519 20.733-19.519 20.733l-17.892 15.949s-37.412 35.086-37.412 27.112v-6.379s6.786-5.628 9.76-12.759c1.349-3.236 2.491-7.316 3.616-11.333l.001-.001c.938-3.352 1.865-6.661 2.889-9.399 1.551-4.148 2.009-7.888 2.498-11.889.214-1.752.434-3.554.755-5.463 2.592-15.412 3.181-23.162 0-38.468-.514-2.473-1.384-5.21-2.399-7.924h-36.359l1.347 7.924s2.733 19.732 0 31.897c-1.903 8.472-8.133 20.733-8.133 20.733l-6.506 14.354s-5.38 9.162-9.76 14.354l-.084.1c-3.957 4.689-6.273 7.435-11.302 11.064-5.72 4.127-9.314 6.547-16.266 7.974-3.629.745-6.304.523-9.295.276h-.002c-1.62-.134-3.333-.276-5.342-.276-2.455 0-4.56-.215-6.55-.417-3.674-.374-6.958-.709-11.342.417-.491.126-.955.239-1.4.347l-.006.002c-2.551.622-4.435 1.081-6.727 2.841-1.24.952-1.828 2.065-2.414 3.176-.596 1.129-1.19 2.254-2.466 3.203-5.567 4.141-12.325 4.141-17.892 0-1.276-.949-1.871-2.075-2.467-3.204-.586-1.11-1.174-2.223-2.413-3.175-2-1.539-29.583-.632-42.886-.195l-.009.001-.034.001c-3.296.108-5.709.187-6.628.193-32.531.192-38.278-3.19-38.278-3.19s-7.696-7.082-13.013-11.164c-1.996-1.533-3.686-2.625-5.344-3.696v-.001c-1.914-1.237-3.787-2.447-6.042-4.277-5.535-4.494-8.327-7.416-13.012-12.759-3.003-3.426-3.56-5.485-4.406-8.612-.32-1.185-.682-2.524-1.234-4.147-2.009-5.909-3.551-11.261-4.88-17.352-.411-1.884-.806-3.232-1.156-4.425-.782-2.662-1.337-4.555-1.337-9.928v-32.039h-38.982zm-26.081 240.773a24.639 24.639 0 0 0-7.467-1.2 24.68 24.68 0 0 1 7.776 1.2c12.428 4 19.896 7.013 29.278 15.949 8.597 8.188 12.218 14.457 16.266 25.518 3.614 9.875 3.17 17.854 2.085 26.26h277.574a31.743 31.743 0 0 0-1.01 4.042 166.422 166.422 0 0 1-.914 4.638c-.449 2.153-.685 3.286-.592 4.39.103 1.225.61 2.416 1.68 4.926l.002.004c.414.972.913 2.141 1.504 3.586 1.663 4.06 3.866 9.829 5.991 15.392v.001c1.656 4.335 3.263 8.544 4.529 11.719 2.549 6.397 1.791 11.447.944 17.096-.459 3.06-.944 6.296-.944 10.017v23.923s-.043 40.212 11.386 62.203c1.905 3.66 3.821 6.27 5.745 8.88h.001c1.874 2.55 3.755 5.1 5.64 8.66 4.129 7.79 7.804 19.34 9.801 26.19H519.544c-4.496 8.24-10.16 19.99-11.896 29.63-1.433 7.96-1.007 13.77-.531 20.27.258 3.52.531 7.25.531 11.63v28.7c0 3.29-.379 6.13-.738 8.81-.172 1.29-.34 2.54-.458 3.79h408.191c-.039 3.56-.63 7.23-2.287 11.33-1.927 4.76-5.032 7.58-8.142 10.41-3.086 2.8-6.176 5.61-8.123 10.32-5.484 13.28-4.88 25.52 0 36.68 4.787 10.96-14.324-5.49-22.321-12.37l-.451-.39c-.974-.83-1.754-1.47-2.424-2.01-2.824-2.3-3.704-3.01-8.962-10.74-6.507-9.57 9.759 38.27 9.759 38.27s1.335 1.87-.9 5.02c-1.28 1.8-2.114 3.09-2.594 3.87-6.188 12.26-15.561 18.27-18.148 14.83-.743-.99-.927-2.76-.317-5.38-1.938-2-3.413-3.46-4.558-4.59l-.004-.01c-1.997-1.97-2.992-2.95-3.698-4.11-.701-1.15-1.118-2.48-1.949-5.11-.48-1.53-1.098-3.49-1.99-6.11-4.88-14.36-3.253 31.89 0 49.44 3.253 17.54-21.146-9.57-21.146-9.57s-4.879 0 0 9.57c2.44 4.78-4.879 0-12.199-4.79-7.32-4.78-14.639-9.57-12.199-4.78 4.879 9.57 4.054 18.22 0 28.71-4.304 11.12-14.64 33.49-21.146 22.32-4.774-8.19-8.672-12.94-12.337-17.42-1.33-1.62-2.629-3.21-3.929-4.9-1.905-2.5-1.338.32-.324 5.36 1.583 7.87 4.257 21.15.324 28.13-5.965 10.58-22.772 35.09-26.025 17.54-3.253-17.54-9.759-49.44-26.025-39.87-10.118 5.95-11.425 8.2-12.142 9.44-.435.75-.653 1.12-2.497 1.72-2.273.75-4.546-10.27-6.819-21.29-2.607-12.64-5.214-25.28-7.82-20.17-3.403 6.67-9.177 11.02-14.016 14.66-2.101 1.58-4.026 3.03-5.503 4.48-1.999 1.96-3.131-2.23-4.685-7.96-2.241-8.27-5.358-19.78-13.208-20.75-5.046-.63-9.027 2.44-12.694 5.26-2.889 2.23-5.584 4.31-8.451 4.31-2.617 0-3.129-4.77-3.758-10.63-.935-8.72-2.129-19.84-10.882-21.27-1.973-.32-3.652-.54-5.185-.74-3.822-.5-6.742-.88-11.08-2.45-11.555-4.17-17.015-10.79-23.906-19.14l-.002-.01h-.003c-1.67-2.02-3.423-4.15-5.368-6.37-3.949-4.5-6.365-8.55-8.769-12.58-2.49-4.17-4.968-8.32-9.123-12.93-2.295-2.55-4.211-4.32-6.189-6.14-1.611-1.49-3.264-3.01-5.197-5.03-2.249-2.34-4.46-4.25-6.546-6.05-4.788-4.13-8.92-7.69-11.346-14.68-1.991-5.74-1.399-10.17-.738-15.12.359-2.68.738-5.52.738-8.81v-28.7c0-4.38-.273-8.11-.531-11.63-.476-6.5-.902-12.31.531-20.27 3.016-16.75 17.892-39.87 17.892-39.87l19.519-33.49s14.342-24.235 17.892-41.47c1.794-8.709.954-15.678.11-22.691-.814-6.751-1.632-13.542-.11-21.965.941-5.208 2.488-9.141 4.016-13.028 1.66-4.224 3.299-8.394 4.117-14.085.978-6.8.687-11.73.362-17.244-.176-2.988-.362-6.147-.362-9.868 0-6.567.795-12.255 1.547-17.634 1.387-9.928 2.628-18.806-1.547-30.212-4.048-11.061-7.669-17.33-16.266-25.518-9.382-8.936-16.85-11.949-29.278-15.949zm386.939-13.72c-4.4-2.73-8.715-5.408-14.702-5.453 6.148-.047 10.536 2.676 15.01 5.453h.001c4.311 2.675 8.702 5.4 14.826 5.746.782.044 1.459.061 2.096.064a39.164 39.164 0 0 1-2.405-.064c-6.124-.346-10.515-3.071-14.826-5.746zm23.111 5.829c-.512-.038-1.052-.079-1.678-.083h.208c.668 0 1.238.043 1.776.083h.003c.432.032.843.063 1.27.069-.54.008-1.044-.029-1.578-.069h-.001zM568.626 427.682l-.002-.003-.001-.001c-2.317-2.873-4.515-5.599-5.981-7.036-3.253-3.19-7.637.407-8.133 4.784-.07.619 0 1.595 0 1.595s.06.877.156 2.479h15.43a691.86 691.86 0 0 1-1.469-1.818zm264.795 1.818c.048-4.617.495-8.927 2.486-11.856 3.253-4.784 5.747-3.189 7.373 0 1.627 3.19 2.139 5.648 2.387 9.377.057.86.134 1.684.228 2.479h-12.474zm109.929 0h86.14c1.38-19.337.78-36.38-3.27-59.894-.35-1.988-.5-3.753-.64-5.417-.31-3.577-.58-6.686-2.62-10.531-1.14-2.157-2.6-3.47-4.06-4.783-1.46-1.314-2.93-2.627-4.07-4.787-1.05-1.989-1.32-3.764-1.59-5.533-.28-1.81-.55-3.613-1.66-5.631-.71-1.286-1.47-2.068-2.25-2.865-.87-.901-1.77-1.822-2.63-3.514-1.06-2.069-.74-17.398-.39-34.544v-.004c.19-9.291.39-19.115.39-27.652 0-1.313.05-2.426.1-3.48.1-1.943.18-3.681-.1-6.089-.3-2.496-.46-4.635-.62-6.575v-.001c-.47-6.021-.79-10.14-4.26-17.155-3.721-7.518-8.894-22.328-8.894-22.328s-12.186-12.016-18.76-19.33c-.74-.824-1.432-1.627-2.098-2.4-3.644-4.229-6.537-7.587-12.541-8.764-.695-.137-1.566-.371-2.482-.617-3.187-.858-6.914-1.861-5.651.617.852 1.67 1.242 3.494 1.661 5.458l.001.001c.382 1.788.789 3.693 1.591 5.705 2.384 5.971 8.133 14.354 8.133 14.354s10.358 11.825 14.64 20.733c6.615 13.764 4.192 26.981 1.841 39.802-1.595 8.695-3.156 17.208-1.841 25.587 3.253 20.733-4.88 6.38-4.88 6.38l-30.905-35.087-22.772-33.492-27.652-41.467s-32.532-52.63-34.158-62.199c-1.266-7.45-3.496.587-5.206 6.753-.487 1.755-.932 3.359-1.3 4.411-2.89 8.246 0 22.328 0 22.328s3.12 17.713 6.506 28.707c3.956 12.843 13.012 31.897 13.012 31.897l9.76 19.139 14.639 23.923s8.381 13.031 14.639 20.733c6.444 7.93 17.893 19.138 17.893 19.138l21.145 23.923 11.386 15.949s12.071 10.758 17.893 19.138c.246.355.487.7.723 1.036l.489.699c3.007 4.286 5.076 7.235 6.92 12.619 1.87 5.459.961 10.36.075 15.133-.839 4.518-1.657 8.921-.075 13.574 3.254 9.57-13.012-6.379-13.012-6.379l-21.146-27.113s-10.118-11.939-14.639-20.733c-3.499-6.806-4.648-13.656-5.715-20.022-.922-5.496-1.783-10.631-4.044-15.065-4.88-9.569-8.133-3.19-8.133-3.19s-1.454 7.741-1.627 12.759c-.2 5.824.373 9.485 1.174 14.605v.003c.145.924.297 1.896.453 2.936l.137.915c.858 5.729 1.384 9.24 3.116 15.033.258.863.489 1.667.708 2.431 1.08 3.757 1.874 6.522 4.172 10.328 1.486 2.462 1.992 4.336 2.543 6.375.386 1.428.794 2.938 1.577 4.789.606 1.435.619 1.513.665 1.777.047.275.13.755.961 3.2 1.627 4.785-4.12 10.972-5.746 6.187-.986-2.9-3.074-3.95-5.347-5.094-1.476-.743-3.031-1.525-4.413-2.88-1.679-1.646-2.786-3.144-3.88-4.625-1.193-1.613-2.369-3.205-4.253-4.944-2.988-2.76-5.641-4.234-8.481-5.812h-.001l-.001-.001c-1.913-1.063-3.911-2.173-6.156-3.756-1.498-1.057-2.856-1.968-4.132-2.824-3.732-2.503-6.758-4.533-10.507-8.34-1.836-1.865-2.9-4.912-3.961-7.948-1.487-4.259-2.967-8.495-6.558-9.404-2.461-.622-4.12 1.403-5.747 4.593-1.626 3.189 0 12.759 0 12.759s.987 7.211 3.253 11.164c2.641 4.607 9.76 9.569 9.76 9.569l17.892 17.543 9.76 11.164 13.012 11.164s11.293 8.805 19.519 12.759c2.447 1.177 4.615 1.902 6.706 2.511l-.111-.032zm110.67 0h16.28c.75-24.258 0-44.332-1.79-48.73-3.26-7.974-6.51 0-6.51 3.19s-4.88 15.949-4.88 15.949-2.53 8.655-3.25 14.353c-.5 3.936-.29 6.987-.08 10.096v.001c.11 1.701.23 3.419.23 5.31v-.021-.148zm-665.422-2.479c-.897-1.172-1.793-.082-2.66 2.479h3.914c-.356-1.011-.769-1.846-1.254-2.479zm14.64 0l.758 2.479h77.208c5.197-5.103 9.869-8.858 9.869-8.858s24.02-8.994 34.158-20.733c2.935-3.399 4.231-3.772 5.639-4.177 1.327-.383 2.754-.794 5.747-3.798 3.475-3.487 7.311-8.589 10.972-13.458 2.437-3.242 4.797-6.38 6.92-8.87 3.796-4.45 4.811-8.571 5.964-13.254.571-2.319 1.176-4.776 2.169-7.479 1.02-2.775 2.013-5.175 2.946-7.433 2.185-5.282 4.048-9.787 5.187-16.49 1.627-9.569-26.025 23.923-26.025 23.923s-5.008 13.836-13.773 20.733c-3.71 2.921-8.612 4.799-13.46 6.656-3.59 1.375-7.151 2.74-10.178 4.508-1.502.878-3.495 2.643-5.404 4.334-3.683 3.262-7.054 6.247-5.983 2.046.605-2.373-.814-6.51-2.502-11.427-2.85-8.305-6.464-18.836-2.377-26.85 3.961-7.767 6.875-11.417 9.92-15.231 1.957-2.45 3.968-4.969 6.346-8.692 4.095-6.412 8.141-13.542 11.489-19.441v-.001c2.702-4.762 4.95-8.723 6.403-10.86 3.253-4.785-34.158 20.925-34.158 20.925s-10.398 12.909-14.639 25.326c-3.72 10.89-6.507 28.707-6.507 28.707v30.303c0 11.833-21.145 35.087-21.145 27.112 0-2.239.11-5.141.239-8.501.328-8.606.77-20.215-.239-31.37-.531-5.858-1.481-10.389-2.427-14.897-.981-4.675-1.957-9.326-2.453-15.406-.674-8.259 2.949-18.43 6.317-27.881 1.695-4.759 3.325-9.335 4.309-13.393 1.186-4.888 1.558-7.306 1.831-9.077.454-2.943.633-4.103 3.809-11.848 2.594-6.328 7.819-13.164 13.041-19.996 5.194-6.797 10.385-13.59 12.984-19.876 3.522-8.518 4.565-14.073 5.687-20.05.888-4.724 1.824-9.711 4.072-16.632 2.49-7.663 1.778-11.454.924-16-.615-3.271-1.302-6.932-.924-12.707.484-7.365-1.318-17.131-2.868-25.527-1.065-5.775-2.011-10.902-2.011-14.152 0-7.975-14.639 7.782-14.639 7.782l-6.507 46.251s-2.386 41.658-21.145 57.415c-8.005 6.723-11.917 16.232-15.159 24.114-1.484 3.607-2.828 6.874-4.36 9.378-4.88 7.974-10.216 26.498-11.386 38.276-.854 8.589.43 19.969 1.363 28.241 1.01 8.958 1.609 14.27-1.363 8.441l-14.639-28.707c-5.717-11.211-8.026-28.516-5.64-46.251.355-2.636.659-5.061.948-7.358 1.132-9.005 2.017-16.048 4.692-26.134 1.574-5.937 4.521-9.975 7.459-14.001 2.8-3.838 5.592-7.664 7.18-13.112 3.253-11.164-21.342 13.799-29.279 27.113-7.001 11.744-9.759 33.492-9.759 33.492s-1.014 18.51 0 30.302c1.528 17.772 9.759 44.656 9.759 44.656l14.64 57.415z" fill="#fff"/><path d="M554.974 429.5c.661 11.042 3.067 56.538-.156 86.834-.632 5.939-1.833 11.139-3.197 15.999h38.982V505.17l-3.253-22.329s-1.594-10.292-2.386-17.351c-.18-1.6-.255-2.905-.326-4.13-.148-2.566-.275-4.781-1.301-8.629a99.927 99.927 0 0 1-.823-3.402c-1.072-4.663-2.148-9.343-5.683-12.546-1.711-1.55-4.064-4.37-6.427-7.283h-15.43zm-73.461 0c-4.117 4.043-8.564 8.932-11.277 13.47-6.708 11.219-9.759 31.897-9.759 31.897s-3.292 25.598 0 41.467c1.341 6.466 2.873 11.152 4.85 15.999h-31.873c-2.228-9.046-3.882-15.999-3.882-15.999l-11.386-41.467-13.881-45.367h77.208zm-91.352 0c1.644 4.666 2.061 13.082 2.538 22.713.462 9.307.979 19.749 2.715 29.034a436.233 436.233 0 0 1 1.575 9.081c1.479 8.916 2.657 16.019 6.558 26.006 2.533 6.486 4.753 11.226 7.503 15.999h-28.562c-1.441-5.422-2.726-11.114-3.34-15.999-1.71-13.6 0-35.087 0-35.087s3.251-40.374 7.099-51.747h3.914zm680.449 0c-.61 19.732-2.21 42.233-5.05 61.316-1.11 7.498-3.25 19.138-3.25 19.138s-3.06 10.67-4.88 17.544c-.48 1.817-.8 3.366-1.11 4.835h-35.17c2.54-3.541 5.38-8.025 5.38-8.025l4.88-7.974s4.37-6.597 6.5-11.164c2.2-4.712 3.06-7.817 4.32-12.349.18-.637.36-1.303.56-2.005 1.56-5.535 3.25-14.354 3.25-14.354l4.88-23.923s2.62-11.587 3.26-19.138c.11-1.398.16-2.685.15-3.901h16.28zm-126.951 0h86.141c-.68 9.449-1.82 19.446-3.27 31.013-.13 1.001-.25 1.972-.37 2.917-1.58 12.681-2.57 20.693-6.14 33.765-2.6 9.514-4.56 14.721-8.13 23.923-.74 1.902-1.39 3.637-2 5.271-.79 2.104-1.51 4.039-2.28 5.944h-44.144l2.876-4.835 8.133-12.759 6.507-14.354s2.623-7.66 3.253-12.759c.396-3.208.279-5.526.147-8.118-.072-1.405-.147-2.89-.147-4.641 0-2.189.19-4.062.37-5.835.332-3.27.629-6.194-.37-10.113-.13-.508-.252-1.003-.372-1.487-1.154-4.661-2.035-8.219-6.134-11.272-1.603-1.194-3.069-1.583-4.631-1.998-1.093-.29-2.234-.592-3.502-1.192-3.182-1.505-5.345-3.18-7.527-4.87-2.062-1.597-4.141-3.208-7.113-4.699-3.383-1.699-6.239-2.489-9.114-3.285-.724-.2-1.448-.401-2.183-.616zm-109.929 0h12.474c.603 5.103 1.92 8.997 3.341 13.201.997 2.951 2.047 6.055 2.937 9.838.804 3.414 1.308 6.279 1.789 9.016.743 4.228 1.433 8.148 3.091 13.312 2.905 9.049 9.759 22.328 9.759 22.328l9.76 19.139s4.328 7.894 7.36 15.999h-36.359l-1.906-11.215-4.88-20.733s-2.386-10.876-4.88-17.544c-2.386-6.379-2.856-8.186-2.386-12.566.863-8.035.606-13.825.32-20.301-.156-3.509-.32-7.219-.32-11.596 0-1.294-.026-2.618-.052-3.947-.032-1.65-.065-3.31-.048-4.931zM573.169 840.833c1.085-8.406 1.529-16.385-2.085-26.26-4.048-11.061-7.669-17.33-16.266-25.518-9.382-8.936-16.85-11.949-29.278-15.949-9.833-3.163-18.378.525-26.703 4.117-9.049 3.906-17.837 7.699-27.734 2.455-9.887-5.239-22.012-25.71-22.012-25.71s-13.569-7.379-18.686-15.968h534.724c-.888 1.067-1.764 1.953-2.628 2.826-1.468 1.482-2.899 2.928-4.291 5.168-1.48 2.378-3.254 6.379-3.254 6.379s-1.726 3.111-3.253 4.785c-2.117 2.321-6.506 4.784-6.506 4.784s-3.714 2.677-6.506 3.19c-1.215.223-2.105.157-3.101.083-.539-.04-1.109-.083-1.779-.083-.893 0-1.649.018-2.363.035-1.319.03-2.498.058-4.143-.035-6.124-.346-10.515-3.071-14.826-5.746-4.73-2.935-9.363-5.81-16.079-5.418-11.074.646-30.905 6.38-26.026 11.164 3.78 3.706 3.656 4.542 3.408 6.212a11.258 11.258 0 0 0-.154 1.762c0 1.172-1.359 3.744-3.143 7.121-3.073 5.816-7.408 14.021-8.243 21.587-.275 2.487-.14 4.444-.004 6.403.134 1.943.269 3.888.004 6.356-.711 6.606-3.386 11.16-6.104 15.786-1.89 3.218-3.801 6.471-5.086 10.474H573.169zM506.452 1149.33c.119-1.25.286-2.5.458-3.79.359-2.68.738-5.52.738-8.81v-28.7c0-4.38-.273-8.11-.531-11.63-.476-6.5-.902-12.31.531-20.27 1.736-9.64 7.4-21.39 11.896-29.63h375.271c1.005 3.45 1.585 5.71 1.585 5.71 2.282 5.89 4.803 10.58 7.206 15.06 3.768 7.01 7.247 13.49 9.06 23.21 1.629 8.75 1.145 15.14.603 22.3-.293 3.88-.603 7.98-.603 12.79 0 4.82.636 9.01 1.237 12.97.56 3.69 1.089 7.18 1.049 10.79h-408.5z" fill="#fff"/><path d="M526.924 532.333c-.687 2.448-1.415 4.809-2.132 7.135l-.001.003c-3.132 10.161-6.056 19.643-4.429 32.683 1.243 9.967 3.707 16.263 6.833 24.247v.001a366.23 366.23 0 0 1 2.926 7.649c2.207 6.014 5.059 10.845 7.769 15.437 3.915 6.631 7.536 12.764 8.497 21.245 1.627 14.354-34.158-19.138-34.158-19.138l-29.279-25.518s-13.896-13.808-21.145-23.923c-7.52-10.494-10.961-16.985-16.266-28.708l-.847-1.869-.001-.001c-1.548-3.412-2.883-6.356-4.061-9.243h-31.873c3.617 14.685 8.744 34.886 10.757 39.821 3.253 7.974-17.472-16.271-26.025-28.708-2.871-4.174-5.143-7.652-7.136-11.113h-28.562c2.894 10.885 6.419 20.682 6.419 20.682 0-2.184.72-.798 2.804 3.214 2.481 4.776 6.895 13.274 14.329 23.899l.189.271c14.452 20.658 14.705 21.019 23.343 26.842 8.675 5.848 40.539 25.758 56.93 33.492 9.155 4.32 15.428 9.827 21.977 15.577 4.437 3.896 9.001 7.903 14.674 11.728 4.599 3.099 7.872 4.646 10.618 5.945 4.784 2.261 7.972 3.767 13.781 11.406l1.463 1.923c9.629 12.652 29.785 39.135 22.069 31.569-8.133-7.974-45.544-20.733-45.544-20.733s-16.66-13.305-31.665-18.946c-6.762-2.542-11.073-3.762-15.751-5.085h-.001l-.001-.001c-5.612-1.587-11.753-3.324-23.285-7.673-2.927-1.104-6.759-2.854-11.008-4.794-13.64-6.228-31.588-14.424-37.789-9.56-5.153 4.042.23 12.42 5.417 20.494 3.001 4.67 5.936 9.238 6.729 12.806 1.114 5.015.547 8.521-.019 12.018-.571 3.528-1.14 7.046.019 12.097 1.714 7.472 4.581 13.17 7.717 19.403l.001.002c1.2 2.384 2.439 4.846 3.668 7.516 4.253 9.241 19.519 17.543 19.519 17.543s12.125 20.471 22.012 25.71c3.529 1.87 6.916 2.591 10.225 2.567-3.21-.022-6.497-.755-9.916-2.567-9.887-5.239-22.012-25.71-22.012-25.71s-13.569-7.379-18.686-15.968h534.415c.402-.483.806-1.003 1.213-1.575 1.47-2.069 2.369-3.835 3.269-5.602.892-1.753 1.786-3.507 3.238-5.562 1.304-1.847 2.426-3.133 3.595-4.474l.001-.001c.906-1.039 1.84-2.11 2.91-3.5 5.866-7.62 9.218-13.86 12.812-20.551 2.397-4.464 4.902-9.128 8.334-14.536 2.076-3.273 4.095-5.866 6.013-8.329 3.238-4.159 6.185-7.943 8.626-13.999 2.095-5.197 2.851-11.431 3.447-16.341v-.001c.42-3.46.76-6.262 1.432-7.581 1.405-2.755-4.86-1.401-9.401-.419h-.002c-.716.155-1.389.301-1.983.419-5.2 1.04-8.005 4.106-10.951 7.325-2.342 2.56-4.773 5.217-8.568 7.029-9.552 4.561-16.048 5.214-26.274 6.241l-.8.08-.577.059c-4.049.409-7.331.11-10.537-.181-3.799-.346-7.494-.682-12.235.181-4.547.826-7.095 1.5-11.387 3.189-8.501 3.347-19.518 12.759-19.518 12.759s-4.164 3.708-6.507 6.38c-1.343 1.531-2.195 2.712-3.148 4.032-.516.715-1.062 1.472-1.731 2.347-1.337 1.748-2.476 3.22-3.553 4.613l-.004.005c-1.991 2.576-3.772 4.878-6.203 8.141-1.153 1.547-2.105 3.62-3.002 5.571-1.61 3.504-3.041 6.617-5.131 5.593-1.555-.763-2.798-1.154-3.999-1.533-1.31-.413-2.571-.81-4.134-1.657a35.954 35.954 0 0 0-1.354-.689c-1.334-.655-2.417-1.187-3.525-2.501-3.038-3.599-1.746-7.494-.292-11.877l.078-.234.214-.647c1.862-5.685 6.063-7.817 10.819-10.231 2.296-1.165 4.72-2.396 7.073-4.123 5.262-3.863 9.422-6.436 13.791-9.139 3.243-2.006 6.6-4.082 10.608-6.81 12.263-8.346 19.857-14.015 30.207-21.742l.001-.001.001-.001c2.245-1.676 4.621-3.45 7.202-5.368 3.695-2.747 6.636-4.999 9.498-7.19l.016-.012.002-.001.001-.001.006-.005c3.559-2.725 7-5.359 11.622-8.74 2.813-2.058 5.185-3.669 7.46-5.214l.002-.001c3.326-2.259 6.445-4.377 10.431-7.544 3.421-2.719 5.886-5.03 8.374-7.362 2.34-2.193 4.699-4.405 7.892-6.992 4.083-3.308 7.342-5.592 10.719-7.959l.001-.001.001-.001c2.697-1.89 5.469-3.833 8.797-6.392 5.348-4.115 8.848-6.971 13.218-10.541 1.43-1.171 2.96-2.419 4.67-3.813 1.33-1.075 2.53-1.91 3.67-2.699 2.14-1.488 4.05-2.812 6.09-5.276 3.25-3.905 4.35-6.902 5.98-11.311.17-.466.34-.947.53-1.447 1.12-3.021 1.6-5.311 2.12-7.822v-.001l.02-.101h-35.163a66.642 66.642 0 0 1-1.135 1.544c-2.959 3.904-8.132 9.569-8.132 9.569s-5.133 7.644-9.76 11.164c-4.489 3.415-16.266 9.57-13.013 6.38 3.254-3.19 8.696-10.206 13.013-17.544a80.58 80.58 0 0 0 5.479-11.113h-44.141l-8.509 14.303s-6.546 16.356-13.012 25.518c-6.395 9.061-19.519 20.733-19.519 20.733l-17.893 15.949s-37.411 35.086-37.411 27.112v-6.379s6.786-5.628 9.76-12.759c1.349-3.236 2.491-7.316 3.616-11.333v-.001h.001c.938-3.352 1.865-6.661 2.889-9.399 1.551-4.148 2.008-7.888 2.498-11.889.214-1.752.434-3.554.755-5.463 2.592-15.412 3.181-23.162 0-38.468-.514-2.473-1.384-5.21-2.399-7.924h-36.359l1.347 7.924s2.733 19.732 0 31.897c-1.903 8.472-8.133 20.733-8.133 20.733l-6.506 14.354s-5.381 9.162-9.76 14.354l-.084.1c-3.957 4.689-6.273 7.435-11.302 11.064-5.72 4.127-9.314 6.547-16.266 7.974-3.629.745-6.304.523-9.295.276h-.002c-1.62-.134-3.334-.276-5.342-.276-2.455 0-4.56-.215-6.55-.417-3.674-.374-6.958-.709-11.342.417-.491.126-.955.239-1.4.347l-.007.002c-2.55.622-4.434 1.081-6.726 2.841-1.24.952-1.828 2.065-2.414 3.176-.596 1.129-1.19 2.254-2.466 3.203-5.567 4.141-12.325 4.141-17.892 0-1.276-.949-1.871-2.075-2.467-3.204-.586-1.11-1.174-2.223-2.413-3.175-2-1.539-29.583-.632-42.886-.195l-.01.001-.033.001c-3.296.108-5.709.187-6.628.193-32.532.192-38.278-3.19-38.278-3.19s-7.696-7.082-13.013-11.164c-1.997-1.533-3.686-2.625-5.344-3.696v-.001c-1.914-1.237-3.787-2.447-6.042-4.277-5.535-4.494-8.328-7.416-13.013-12.759-3.002-3.426-3.559-5.485-4.405-8.612-.32-1.185-.682-2.524-1.234-4.147-2.009-5.909-3.551-11.261-4.88-17.352-.411-1.884-.806-3.232-1.157-4.425-.781-2.662-1.336-4.555-1.336-9.928v-32.039h-38.982zm-26.081 240.773a24.644 24.644 0 0 0-7.467-1.2 24.68 24.68 0 0 1 7.776 1.2c12.428 4 19.896 7.013 29.278 15.949 8.597 8.188 12.218 14.457 16.266 25.518 3.614 9.875 3.17 17.854 2.085 26.26h277.574a31.743 31.743 0 0 0-1.01 4.042 166.422 166.422 0 0 1-.914 4.638c-.449 2.153-.685 3.286-.592 4.39.103 1.225.61 2.416 1.68 4.926l.002.004c.414.972.913 2.141 1.504 3.586 1.663 4.06 3.866 9.829 5.99 15.392l.001.001c1.655 4.335 3.263 8.544 4.528 11.719 2.55 6.397 1.792 11.447.945 17.096-.459 3.06-.945 6.296-.945 10.017v23.923s-.042 40.212 11.386 62.203c1.905 3.66 3.822 6.27 5.746 8.88h.001c1.874 2.55 3.755 5.1 5.639 8.66 4.13 7.79 7.805 19.34 9.802 26.19H495.156c-4.496 8.24-10.16 19.99-11.897 29.63-1.432 7.96-1.006 13.77-.53 20.27.258 3.52.53 7.25.53 11.63v28.7c0 3.29-.379 6.13-.737 8.81-.172 1.29-.34 2.54-.458 3.79h408.191c-.04 3.56-.63 7.23-2.287 11.33-1.927 4.76-5.032 7.58-8.142 10.41-3.086 2.8-6.176 5.61-8.123 10.32-5.484 13.28-4.88 25.52 0 36.68 4.787 10.96-14.324-5.49-22.321-12.37l-.452-.39c-.973-.83-1.753-1.47-2.423-2.01-2.824-2.3-3.704-3.01-8.963-10.74-6.506-9.57 9.76 38.27 9.76 38.27s1.335 1.87-.901 5.02c-1.279 1.8-2.113 3.09-2.593 3.87-6.188 12.26-15.561 18.27-18.148 14.83-.743-.99-.927-2.76-.317-5.38-1.938-2-3.413-3.46-4.558-4.59l-.005-.01c-1.997-1.97-2.991-2.95-3.698-4.11-.7-1.15-1.117-2.48-1.948-5.11-.48-1.53-1.099-3.49-1.99-6.11-4.88-14.36-3.253 31.89 0 49.44 3.253 17.54-21.146-9.57-21.146-9.57s-4.88 0 0 9.57c2.44 4.78-4.88 0-12.199-4.79-7.32-4.78-14.639-9.57-12.199-4.78 4.879 9.57 4.054 18.22 0 28.71-4.304 11.12-14.64 33.49-21.146 22.32-4.774-8.19-8.672-12.94-12.337-17.42-1.33-1.62-2.629-3.21-3.929-4.9-1.906-2.5-1.339.32-.324 5.36 1.583 7.87 4.257 21.15.324 28.13-5.965 10.58-22.772 35.09-26.025 17.54-3.253-17.54-9.759-49.44-26.025-39.87-10.118 5.95-11.425 8.2-12.142 9.44-.435.75-.653 1.12-2.497 1.72-2.273.75-4.546-10.27-6.819-21.29-2.607-12.64-5.214-25.28-7.821-20.17-3.402 6.67-9.176 11.02-14.015 14.66-2.101 1.58-4.026 3.03-5.504 4.48-1.998 1.96-3.131-2.23-4.684-7.96-2.241-8.27-5.358-19.78-13.208-20.75-5.046-.63-9.027 2.44-12.694 5.26-2.89 2.23-5.584 4.31-8.451 4.31-2.617 0-3.129-4.77-3.758-10.63-.935-8.72-2.129-19.84-10.882-21.27-1.973-.32-3.652-.54-5.185-.74-3.822-.5-6.742-.88-11.08-2.45-11.555-4.17-17.015-10.79-23.906-19.14l-.002-.01h-.003c-1.67-2.02-3.423-4.15-5.368-6.37-3.949-4.5-6.365-8.55-8.769-12.58-2.49-4.17-4.968-8.32-9.123-12.93-2.295-2.55-4.211-4.32-6.19-6.14-1.61-1.49-3.263-3.01-5.196-5.03-2.249-2.34-4.46-4.25-6.546-6.05-4.789-4.13-8.92-7.69-11.347-14.68-1.99-5.74-1.399-10.17-.737-15.12.358-2.68.737-5.52.737-8.81v-28.7c0-4.38-.272-8.11-.53-11.63-.477-6.5-.902-12.31.53-20.27 3.017-16.75 17.893-39.87 17.893-39.87l19.519-33.49s14.342-24.235 17.892-41.47c1.794-8.709.954-15.678.109-22.691-.813-6.751-1.631-13.542-.109-21.965.941-5.208 2.487-9.141 4.015-13.028 1.661-4.224 3.3-8.394 4.118-14.085.978-6.8.687-11.73.362-17.244-.176-2.988-.362-6.147-.362-9.868 0-6.567.795-12.255 1.547-17.634 1.387-9.928 2.628-18.806-1.547-30.212-4.048-11.061-7.669-17.33-16.266-25.518-9.382-8.936-16.85-11.949-29.278-15.949zm386.938-13.72c-4.399-2.73-8.714-5.408-14.701-5.453 6.148-.047 10.536 2.676 15.01 5.453h.001c4.311 2.675 8.702 5.4 14.826 5.746.782.044 1.459.061 2.096.064a39.215 39.215 0 0 1-2.406-.064c-6.123-.346-10.514-3.071-14.826-5.746zm23.112 5.829c-.512-.038-1.052-.079-1.678-.083h.208c.668 0 1.238.043 1.776.083h.003c.432.032.843.063 1.27.069-.54.008-1.044-.029-1.578-.069h-.001zM544.24 427.685l-.002-.003-.002-.003-.001-.001c-2.317-2.873-4.516-5.599-5.981-7.036-3.253-3.19-7.637.407-8.133 4.784-.07.619 0 1.595 0 1.595s.059.877.155 2.479h15.431c-.491-.605-.981-1.213-1.467-1.815zm264.793 1.815c.047-4.617.495-8.927 2.486-11.856 3.253-4.784 5.747-3.189 7.373 0 1.627 3.19 2.139 5.648 2.387 9.377.057.86.134 1.684.228 2.479h-12.474zm109.929 0h86.138c1.38-19.337.78-36.38-3.27-59.894-.34-1.988-.5-3.753-.64-5.417-.31-3.577-.57-6.686-2.614-10.531-1.145-2.157-2.605-3.47-4.066-4.783-1.462-1.314-2.923-2.627-4.067-4.787-1.054-1.989-1.324-3.764-1.593-5.533-.275-1.81-.549-3.613-1.66-5.631-.709-1.286-1.469-2.068-2.245-2.865-.876-.901-1.772-1.822-2.635-3.514-1.055-2.069-.742-17.398-.391-34.544v-.004c.19-9.291.391-19.115.391-27.652 0-1.313.054-2.426.105-3.48.094-1.943.178-3.681-.105-6.089-.294-2.496-.462-4.635-.614-6.575v-.001c-.473-6.021-.796-10.14-4.266-17.155-3.719-7.518-8.893-22.328-8.893-22.328s-12.185-12.016-18.759-19.33c-.74-.824-1.432-1.627-2.098-2.4-3.644-4.229-6.537-7.587-12.541-8.764-.695-.137-1.566-.371-2.482-.617-3.187-.858-6.914-1.861-5.651.617.852 1.67 1.241 3.494 1.661 5.458v.001c.382 1.788.789 3.693 1.592 5.705 2.383 5.971 8.133 14.354 8.133 14.354s10.358 11.825 14.639 20.733c6.616 13.764 4.192 26.981 1.841 39.802-1.594 8.695-3.155 17.208-1.841 25.587 3.254 20.733-4.879 6.38-4.879 6.38l-30.905-35.087-22.772-33.492-27.652-41.467s-32.532-52.63-34.158-62.199c-1.267-7.45-3.496.587-5.207 6.753-.486 1.755-.931 3.359-1.3 4.411-2.889 8.246 0 22.328 0 22.328s3.12 17.713 6.507 28.707c3.956 12.843 13.012 31.897 13.012 31.897l9.76 19.139 14.639 23.923s8.381 13.031 14.639 20.733c6.444 7.93 17.892 19.138 17.892 19.138l21.146 23.923 11.386 15.949s12.071 10.758 17.892 19.138l.723 1.036.49.699c3.007 4.286 5.076 7.235 6.92 12.619 1.87 5.459.96 10.36.074 15.133-.838 4.518-1.656 8.921-.074 13.574 3.253 9.57-13.012-6.379-13.012-6.379l-21.146-27.113s-10.118-11.939-14.639-20.733c-3.499-6.806-4.648-13.656-5.716-20.022-.921-5.496-1.782-10.631-4.044-15.065-4.879-9.569-8.132-3.19-8.132-3.19s-1.454 7.741-1.627 12.759c-.2 5.824.373 9.485 1.173 14.605l.001.001v.002c.145.924.296 1.896.453 2.936l.137.915c.858 5.729 1.383 9.24 3.116 15.033.258.863.489 1.667.708 2.431 1.08 3.757 1.874 6.522 4.171 10.328 1.487 2.462 1.993 4.336 2.544 6.375.386 1.428.794 2.938 1.576 4.789.607 1.435.62 1.513.666 1.777.047.275.13.755.961 3.2 1.627 4.785-4.12 10.972-5.747 6.187-.985-2.9-3.073-3.95-5.346-5.094-1.476-.743-3.031-1.525-4.413-2.88-1.679-1.646-2.786-3.144-3.881-4.625-1.192-1.613-2.369-3.205-4.252-4.944-2.989-2.76-5.641-4.234-8.482-5.812l-.001-.001c-1.913-1.063-3.912-2.173-6.156-3.756-1.498-1.057-2.856-1.968-4.132-2.824-3.732-2.503-6.758-4.533-10.507-8.34-1.836-1.865-2.901-4.912-3.961-7.948-1.488-4.259-2.967-8.495-6.558-9.404-2.461-.622-4.12 1.403-5.747 4.593-1.627 3.189 0 12.759 0 12.759s.987 7.211 3.253 11.164c2.641 4.607 9.76 9.569 9.76 9.569l17.892 17.543 9.759 11.164 13.013 11.164s11.293 8.805 19.519 12.759c2.447 1.177 4.615 1.902 6.706 2.511l-.111-.032zm110.668 0h16.28c.75-24.258 0-44.332-1.79-48.73-3.25-7.974-6.51 0-6.51 3.19s-4.88 15.949-4.88 15.949-2.53 8.655-3.25 14.353c-.5 3.936-.29 6.987-.08 10.096v.001c.11 1.701.23 3.419.23 5.31v-.021-.148zm-665.42-2.479c-.897-1.172-1.794-.082-2.66 2.479h3.914c-.356-1.011-.77-1.846-1.254-2.479zm14.639 0l.759 2.479h77.208c5.197-5.103 9.869-8.858 9.869-8.858s24.019-8.994 34.158-20.733c2.935-3.399 4.231-3.772 5.638-4.177 1.328-.383 2.754-.794 5.748-3.798 3.474-3.487 7.311-8.589 10.971-13.458 2.438-3.242 4.798-6.38 6.921-8.87 3.796-4.45 4.811-8.571 5.964-13.254.571-2.319 1.175-4.776 2.169-7.479 1.02-2.775 2.012-5.175 2.946-7.433 2.185-5.282 4.048-9.787 5.187-16.49 1.627-9.569-26.025 23.923-26.025 23.923s-5.009 13.836-13.773 20.733c-3.711 2.921-8.612 4.799-13.46 6.656-3.59 1.375-7.151 2.74-10.179 4.508-1.502.878-3.494 2.643-5.403 4.334-3.683 3.262-7.054 6.247-5.983 2.046.605-2.373-.815-6.51-2.502-11.427-2.85-8.305-6.464-18.836-2.377-26.85 3.961-7.767 6.874-11.417 9.92-15.231 1.957-2.451 3.968-4.969 6.345-8.692 4.096-6.412 8.141-13.541 11.489-19.44v-.001l.001-.001c2.702-4.762 4.95-8.723 6.403-10.86 3.253-4.785-34.158 20.925-34.158 20.925s-10.399 12.909-14.64 25.326c-3.719 10.89-6.506 28.707-6.506 28.707v30.303c0 11.833-21.145 35.087-21.145 27.112 0-2.239.11-5.141.238-8.501.329-8.606.771-20.215-.238-31.37-.531-5.858-1.481-10.389-2.427-14.897-.981-4.675-1.957-9.326-2.453-15.406-.674-8.259 2.949-18.43 6.316-27.881 1.696-4.759 3.326-9.335 4.31-13.393 1.186-4.888 1.558-7.306 1.831-9.077.454-2.943.633-4.103 3.809-11.848 2.594-6.328 7.819-13.164 13.04-19.996h.001c5.193-6.797 10.385-13.59 12.984-19.876 3.521-8.518 4.565-14.073 5.687-20.05.887-4.724 1.824-9.711 4.072-16.632 2.49-7.663 1.778-11.454.924-16-.615-3.271-1.302-6.932-.924-12.707.483-7.365-1.319-17.131-2.868-25.527-1.065-5.775-2.011-10.902-2.011-14.152 0-7.975-14.64 7.782-14.64 7.782l-6.506 46.251s-2.386 41.658-21.145 57.415c-8.005 6.723-11.917 16.232-15.159 24.114-1.484 3.607-2.828 6.874-4.36 9.378-4.88 7.974-10.216 26.498-11.386 38.276-.854 8.589.43 19.969 1.362 28.241 1.011 8.958 1.61 14.27-1.362 8.441l-14.64-28.707c-5.717-11.211-8.025-28.516-5.639-46.251.354-2.636.659-5.061.948-7.358 1.132-9.005 2.017-16.048 4.691-26.134 1.574-5.937 4.521-9.975 7.46-14.001 2.8-3.838 5.592-7.664 7.18-13.112 3.253-11.164-21.342 13.799-29.279 27.113-7.001 11.744-9.759 33.492-9.759 33.492s-1.014 18.51 0 30.302c1.528 17.772 9.759 44.656 9.759 44.656l14.639 57.415z" fill="#fff"/><path d="M579.362 429.5c.661 11.042 3.067 56.538-.156 86.834-.631 5.939-1.833 11.139-3.197 15.999h38.982V505.17l-3.253-22.329s-1.594-10.292-2.386-17.351c-.18-1.6-.255-2.905-.326-4.13-.148-2.566-.275-4.781-1.301-8.629a99.927 99.927 0 0 1-.823-3.402c-1.072-4.663-2.148-9.343-5.683-12.546-1.711-1.55-4.064-4.37-6.427-7.283h-15.43zm-73.461 0c-4.117 4.043-8.564 8.932-11.277 13.47-6.708 11.219-9.759 31.897-9.759 31.897s-3.292 25.598 0 41.467c1.341 6.466 2.873 11.152 4.85 15.999h-31.873c-2.227-9.046-3.882-15.999-3.882-15.999l-11.386-41.467-13.881-45.367h77.208zm-91.352 0c1.644 4.666 2.061 13.082 2.538 22.713.462 9.307.979 19.749 2.715 29.034a436.233 436.233 0 0 1 1.575 9.081c1.479 8.916 2.657 16.019 6.558 26.006 2.533 6.486 4.753 11.226 7.503 15.999h-28.562c-1.441-5.422-2.726-11.114-3.34-15.999-1.71-13.6 0-35.087 0-35.087s3.251-40.374 7.099-51.747h3.914zm680.451 0c-.61 19.732-2.21 42.233-5.05 61.316-1.11 7.498-3.25 19.138-3.25 19.138s-3.06 10.67-4.88 17.544a83.816 83.816 0 0 0-1.11 4.835h-35.17c2.54-3.541 5.37-8.025 5.37-8.025l4.88-7.974s4.38-6.597 6.51-11.164c2.2-4.712 3.06-7.817 4.32-12.349.18-.637.36-1.303.56-2.005 1.56-5.535 3.25-14.354 3.25-14.354l4.88-23.923s2.62-11.587 3.26-19.138c.11-1.398.15-2.685.15-3.901H1095zm-126.953 0h86.143c-.68 9.449-1.83 19.446-3.28 31.013a419.72 419.72 0 0 1-.36 2.917c-1.58 12.681-2.58 20.693-6.14 33.765-2.6 9.514-4.56 14.721-8.14 23.923-.73 1.902-1.38 3.637-1.99 5.271-.79 2.104-1.51 4.039-2.29 5.944h-44.136l2.877-4.835 8.133-12.759 6.506-14.354s2.62-7.66 3.25-12.759c.4-3.208.28-5.526.15-8.118-.07-1.405-.15-2.89-.15-4.641 0-2.189.19-4.062.37-5.835.34-3.27.63-6.194-.37-10.113-.13-.508-.25-1.003-.37-1.487-1.15-4.661-2.03-8.219-6.13-11.272-1.61-1.194-3.071-1.583-4.634-1.998-1.093-.29-2.234-.592-3.502-1.192-3.182-1.505-5.345-3.18-7.527-4.87-2.062-1.597-4.141-3.208-7.112-4.699-3.384-1.699-6.24-2.489-9.115-3.285-.723-.2-1.448-.401-2.183-.616zm-109.929 0h12.474c.604 5.103 1.92 8.997 3.341 13.201.997 2.951 2.047 6.055 2.937 9.838.804 3.414 1.308 6.279 1.789 9.016.743 4.228 1.433 8.148 3.091 13.312 2.905 9.049 9.759 22.328 9.759 22.328l9.76 19.139s4.328 7.894 7.36 15.999H872.27l-1.906-11.215-4.88-20.733s-2.386-10.876-4.88-17.544c-2.386-6.379-2.856-8.186-2.386-12.566.863-8.035.606-13.825.32-20.301-.156-3.509-.32-7.219-.32-11.596 0-1.294-.026-2.618-.052-3.947-.032-1.65-.065-3.31-.048-4.931zM597.557 840.833c1.085-8.406 1.529-16.385-2.085-26.26-4.048-11.061-7.669-17.33-16.266-25.518-9.382-8.936-16.85-11.949-29.278-15.949-9.832-3.163-18.378.525-26.703 4.117-9.049 3.906-17.837 7.699-27.734 2.455-9.887-5.239-22.012-25.71-22.012-25.71S459.91 746.589 454.793 738h534.725c-.889 1.067-1.765 1.953-2.629 2.826-1.467 1.482-2.898 2.928-4.291 5.168-1.48 2.378-3.253 6.379-3.253 6.379s-1.726 3.111-3.254 4.785c-2.117 2.321-6.506 4.784-6.506 4.784s-3.714 2.677-6.506 3.19c-1.215.223-2.105.157-3.101.083-.539-.04-1.109-.083-1.779-.083-.893 0-1.648.018-2.363.035-1.319.03-2.498.058-4.143-.035-6.124-.346-10.515-3.071-14.826-5.746-4.73-2.935-9.363-5.81-16.079-5.418-11.074.646-30.905 6.38-26.026 11.164 3.78 3.706 3.656 4.542 3.408 6.212a11.258 11.258 0 0 0-.154 1.762c0 1.172-1.359 3.744-3.143 7.121-3.072 5.816-7.408 14.021-8.243 21.587-.275 2.487-.14 4.444-.004 6.403.134 1.943.269 3.888.004 6.356-.711 6.606-3.386 11.16-6.103 15.786-1.891 3.218-3.802 6.471-5.087 10.474H597.557zM530.84 1149.33c.119-1.25.286-2.5.458-3.79.359-2.68.738-5.52.738-8.81v-28.7c0-4.38-.273-8.11-.531-11.63-.476-6.5-.902-12.31.531-20.27 1.736-9.64 7.4-21.39 11.896-29.63h375.271c1.005 3.45 1.585 5.71 1.585 5.71 2.282 5.89 4.803 10.58 7.206 15.06 3.768 7.01 7.247 13.49 9.06 23.21 1.629 8.75 1.145 15.14.603 22.3-.293 3.88-.603 7.98-.603 12.79 0 4.82.636 9.01 1.237 12.97.56 3.69 1.089 7.18 1.049 10.79h-408.5z" fill="#FF5ABE" style="mix-blend-mode:multiply"/><path d="M551.312 532.333c-.687 2.448-1.415 4.809-2.132 7.135l-.001.003c-3.132 10.161-6.055 19.643-4.429 32.683 1.243 9.967 3.707 16.263 6.833 24.247v.001a366.23 366.23 0 0 1 2.926 7.649c2.207 6.014 5.059 10.844 7.769 15.436l.001.001c3.914 6.631 7.535 12.764 8.496 21.245 1.627 14.354-34.158-19.138-34.158-19.138l-29.278-25.518s-13.897-13.808-21.146-23.923c-7.52-10.494-10.961-16.985-16.266-28.708l-.847-1.869v-.001c-1.548-3.412-2.884-6.356-4.062-9.243h-31.873c3.617 14.685 8.744 34.886 10.757 39.821 3.253 7.974-17.472-16.271-26.025-28.708-2.871-4.174-5.143-7.652-7.136-11.113h-28.562c2.894 10.885 6.419 20.682 6.419 20.682 0-2.184.72-.798 2.804 3.214 2.481 4.776 6.895 13.274 14.329 23.899l.189.271c14.452 20.658 14.705 21.019 23.343 26.842 8.675 5.848 40.539 25.758 56.93 33.492 9.155 4.32 15.428 9.828 21.977 15.577 4.437 3.896 9.001 7.903 14.675 11.728 4.598 3.099 7.871 4.646 10.618 5.945 4.783 2.261 7.971 3.767 13.78 11.406l1.463 1.923c9.63 12.652 29.785 39.135 22.069 31.569-8.133-7.974-45.544-20.733-45.544-20.733s-16.66-13.305-31.665-18.946c-6.762-2.542-11.073-3.762-15.751-5.085h-.001l-.001-.001c-5.612-1.587-11.752-3.324-23.285-7.673-2.927-1.104-6.758-2.854-11.008-4.794-13.64-6.228-31.588-14.424-37.789-9.56-5.153 4.042.23 12.42 5.418 20.494 3 4.67 5.935 9.238 6.728 12.806 1.114 5.015.547 8.521-.019 12.018-.571 3.528-1.14 7.046.019 12.097 1.714 7.472 4.581 13.17 7.717 19.403 1.2 2.384 2.44 4.847 3.669 7.518 4.254 9.241 19.519 17.543 19.519 17.543s12.125 20.471 22.012 25.71c3.529 1.87 6.916 2.591 10.225 2.567-3.21-.022-6.497-.755-9.916-2.567-9.887-5.239-22.012-25.71-22.012-25.71s-13.569-7.379-18.686-15.968H964.82c.402-.483.807-1.003 1.213-1.575 1.47-2.069 2.369-3.835 3.269-5.602.892-1.753 1.786-3.507 3.238-5.562 1.305-1.847 2.426-3.133 3.595-4.474l.001-.001c.906-1.039 1.84-2.11 2.91-3.5 5.866-7.62 9.218-13.86 12.812-20.551 2.397-4.464 4.903-9.128 8.332-14.536 2.08-3.273 4.1-5.866 6.01-8.329 3.24-4.159 6.19-7.943 8.63-13.999 2.1-5.197 2.85-11.431 3.45-16.341v-.001c.42-3.46.76-6.262 1.43-7.581 1.41-2.755-4.86-1.401-9.4-.419-.72.155-1.39.301-1.99.419-5.2 1.04-8 4.106-10.947 7.325-2.342 2.56-4.773 5.217-8.567 7.029-9.552 4.561-16.049 5.214-26.275 6.241l-.8.08-.577.059c-4.049.409-7.33.11-10.537-.181-3.799-.346-7.493-.682-12.235.181-4.547.826-7.095 1.5-11.386 3.189-8.502 3.347-19.519 12.759-19.519 12.759s-4.164 3.708-6.507 6.38c-1.343 1.531-2.195 2.712-3.148 4.032-.516.715-1.062 1.472-1.731 2.347-1.337 1.748-2.476 3.22-3.553 4.613l-.004.005c-1.991 2.576-3.771 4.878-6.203 8.141-1.153 1.547-2.105 3.62-3.002 5.571-1.61 3.504-3.041 6.617-5.131 5.593-1.555-.763-2.798-1.154-3.999-1.533-1.31-.413-2.571-.81-4.134-1.657a35.954 35.954 0 0 0-1.354-.689c-1.334-.655-2.417-1.187-3.525-2.501-3.038-3.599-1.746-7.494-.292-11.877l.078-.234.214-.647c1.862-5.685 6.064-7.817 10.819-10.231 2.296-1.165 4.72-2.396 7.073-4.123 5.262-3.863 9.422-6.436 13.791-9.139 3.243-2.006 6.6-4.082 10.608-6.81 12.263-8.346 19.857-14.015 30.207-21.742l.001-.001.001-.001c2.246-1.676 4.621-3.45 7.202-5.368 3.695-2.747 6.636-4.999 9.498-7.19l.016-.012.002-.001.001-.001.006-.005c3.559-2.725 7-5.359 11.622-8.74 2.813-2.058 5.185-3.669 7.461-5.214l.001-.001c3.326-2.259 6.445-4.377 10.431-7.544 3.421-2.719 5.887-5.03 8.374-7.362h.001c2.339-2.193 4.698-4.405 7.889-6.992 4.09-3.308 7.34-5.592 10.72-7.959v-.002c2.7-1.89 5.47-3.833 8.8-6.392 5.35-4.115 8.85-6.971 13.21-10.541 1.44-1.171 2.97-2.419 4.68-3.813 1.33-1.075 2.53-1.91 3.67-2.699 2.14-1.488 4.04-2.812 6.09-5.276 3.25-3.905 4.35-6.902 5.97-11.311.18-.466.35-.947.54-1.447 1.12-3.021 1.6-5.311 2.12-7.822v-.001l.02-.101h-35.17c-.38.544-.77 1.065-1.13 1.544-2.96 3.904-8.13 9.569-8.13 9.569s-5.13 7.644-9.76 11.164c-4.491 3.415-16.268 9.57-13.014 6.38 3.253-3.19 8.695-10.206 13.014-17.544 2.46-4.185 4.05-7.599 5.48-11.113h-44.143l-8.51 14.303s-6.546 16.356-13.012 25.518c-6.395 9.061-19.519 20.733-19.519 20.733l-17.892 15.949s-37.412 35.086-37.412 27.112v-6.379s6.786-5.628 9.76-12.759c1.349-3.236 2.491-7.316 3.616-11.333l.001-.001c.938-3.352 1.865-6.661 2.889-9.399 1.551-4.148 2.009-7.888 2.498-11.889.214-1.752.434-3.554.755-5.463 2.592-15.412 3.181-23.162 0-38.468-.514-2.473-1.384-5.21-2.399-7.924h-36.359l1.347 7.924s2.733 19.732 0 31.897c-1.903 8.472-8.133 20.733-8.133 20.733l-6.506 14.354s-5.38 9.162-9.76 14.354l-.084.1c-3.957 4.689-6.273 7.435-11.302 11.064-5.72 4.127-9.314 6.547-16.266 7.974-3.629.745-6.304.523-9.295.276h-.002c-1.62-.134-3.333-.276-5.342-.276-2.455 0-4.56-.215-6.55-.417-3.674-.374-6.958-.709-11.342.417-.491.126-.955.239-1.4.347l-.006.002c-2.551.622-4.435 1.081-6.727 2.841-1.24.952-1.828 2.065-2.414 3.176-.596 1.129-1.19 2.254-2.466 3.203-5.567 4.141-12.325 4.141-17.892 0-1.276-.949-1.871-2.075-2.467-3.204-.586-1.11-1.174-2.223-2.413-3.175-2-1.539-29.583-.632-42.886-.195l-.009.001-.034.001c-3.296.108-5.709.187-6.628.193-32.531.192-38.278-3.19-38.278-3.19s-7.696-7.082-13.013-11.164c-1.996-1.533-3.686-2.625-5.344-3.696v-.001c-1.914-1.237-3.787-2.447-6.042-4.277-5.535-4.494-8.327-7.416-13.012-12.759-3.003-3.426-3.56-5.485-4.406-8.612-.32-1.185-.682-2.524-1.234-4.147-2.009-5.909-3.551-11.261-4.88-17.352-.411-1.884-.806-3.232-1.156-4.425-.782-2.662-1.337-4.555-1.337-9.928v-32.039h-38.982zm-26.081 240.773a24.639 24.639 0 0 0-7.467-1.2 24.68 24.68 0 0 1 7.776 1.2c12.428 4 19.896 7.013 29.278 15.949 8.597 8.188 12.218 14.457 16.266 25.518 3.614 9.875 3.17 17.854 2.085 26.26h277.574a31.743 31.743 0 0 0-1.01 4.042 166.422 166.422 0 0 1-.914 4.638c-.449 2.153-.685 3.286-.592 4.39.103 1.225.61 2.416 1.68 4.926l.002.004c.414.972.913 2.141 1.504 3.586 1.663 4.06 3.866 9.829 5.991 15.392v.001c1.656 4.335 3.263 8.544 4.529 11.719 2.549 6.397 1.791 11.447.944 17.096-.459 3.06-.944 6.296-.944 10.017v23.923s-.043 40.212 11.386 62.203c1.905 3.66 3.821 6.27 5.745 8.88h.001c1.874 2.55 3.755 5.1 5.64 8.66 4.129 7.79 7.804 19.34 9.801 26.19H519.544c-4.496 8.24-10.16 19.99-11.896 29.63-1.433 7.96-1.007 13.77-.531 20.27.258 3.52.531 7.25.531 11.63v28.7c0 3.29-.379 6.13-.738 8.81-.172 1.29-.34 2.54-.458 3.79h408.191c-.039 3.56-.63 7.23-2.287 11.33-1.927 4.76-5.032 7.58-8.142 10.41-3.086 2.8-6.176 5.61-8.123 10.32-5.484 13.28-4.88 25.52 0 36.68 4.787 10.96-14.324-5.49-22.321-12.37l-.451-.39c-.974-.83-1.754-1.47-2.424-2.01-2.824-2.3-3.704-3.01-8.962-10.74-6.507-9.57 9.759 38.27 9.759 38.27s1.335 1.87-.9 5.02c-1.28 1.8-2.114 3.09-2.594 3.87-6.188 12.26-15.561 18.27-18.148 14.83-.743-.99-.927-2.76-.317-5.38-1.938-2-3.413-3.46-4.558-4.59l-.004-.01c-1.997-1.97-2.992-2.95-3.698-4.11-.701-1.15-1.118-2.48-1.949-5.11-.48-1.53-1.098-3.49-1.99-6.11-4.88-14.36-3.253 31.89 0 49.44 3.253 17.54-21.146-9.57-21.146-9.57s-4.879 0 0 9.57c2.44 4.78-4.879 0-12.199-4.79-7.32-4.78-14.639-9.57-12.199-4.78 4.879 9.57 4.054 18.22 0 28.71-4.304 11.12-14.64 33.49-21.146 22.32-4.774-8.19-8.672-12.94-12.337-17.42-1.33-1.62-2.629-3.21-3.929-4.9-1.905-2.5-1.338.32-.324 5.36 1.583 7.87 4.257 21.15.324 28.13-5.965 10.58-22.772 35.09-26.025 17.54-3.253-17.54-9.759-49.44-26.025-39.87-10.118 5.95-11.425 8.2-12.142 9.44-.435.75-.653 1.12-2.497 1.72-2.273.75-4.546-10.27-6.819-21.29-2.607-12.64-5.214-25.28-7.82-20.17-3.403 6.67-9.177 11.02-14.016 14.66-2.101 1.58-4.026 3.03-5.503 4.48-1.999 1.96-3.131-2.23-4.685-7.96-2.241-8.27-5.358-19.78-13.208-20.75-5.046-.63-9.027 2.44-12.694 5.26-2.889 2.23-5.584 4.31-8.451 4.31-2.617 0-3.129-4.77-3.758-10.63-.935-8.72-2.129-19.84-10.882-21.27-1.973-.32-3.652-.54-5.185-.74-3.822-.5-6.742-.88-11.08-2.45-11.555-4.17-17.015-10.79-23.906-19.14l-.002-.01h-.003c-1.67-2.02-3.423-4.15-5.368-6.37-3.949-4.5-6.365-8.55-8.769-12.58-2.49-4.17-4.968-8.32-9.123-12.93-2.295-2.55-4.211-4.32-6.189-6.14-1.611-1.49-3.264-3.01-5.197-5.03-2.249-2.34-4.46-4.25-6.546-6.05-4.788-4.13-8.92-7.69-11.346-14.68-1.991-5.74-1.399-10.17-.738-15.12.359-2.68.738-5.52.738-8.81v-28.7c0-4.38-.273-8.11-.531-11.63-.476-6.5-.902-12.31.531-20.27 3.016-16.75 17.892-39.87 17.892-39.87l19.519-33.49s14.342-24.235 17.892-41.47c1.794-8.709.954-15.678.11-22.691-.814-6.751-1.632-13.542-.11-21.965.941-5.208 2.488-9.141 4.016-13.028 1.66-4.224 3.299-8.394 4.117-14.085.978-6.8.687-11.73.362-17.244-.176-2.988-.362-6.147-.362-9.868 0-6.567.795-12.255 1.547-17.634 1.387-9.928 2.628-18.806-1.547-30.212-4.048-11.061-7.669-17.33-16.266-25.518-9.382-8.936-16.85-11.949-29.278-15.949zm386.939-13.72c-4.4-2.73-8.715-5.408-14.702-5.453 6.148-.047 10.536 2.676 15.01 5.453h.001c4.311 2.675 8.702 5.4 14.826 5.746.782.044 1.459.061 2.096.064a39.164 39.164 0 0 1-2.405-.064c-6.124-.346-10.515-3.071-14.826-5.746zm23.111 5.829c-.512-.038-1.052-.079-1.678-.083h.208c.668 0 1.238.043 1.776.083h.003c.432.032.843.063 1.27.069-.54.008-1.044-.029-1.578-.069h-.001zM568.626 427.682l-.002-.003-.001-.001c-2.317-2.873-4.515-5.599-5.981-7.036-3.253-3.19-7.637.407-8.133 4.784-.07.619 0 1.595 0 1.595s.06.877.156 2.479h15.43a691.86 691.86 0 0 1-1.469-1.818zm264.795 1.818c.048-4.617.495-8.927 2.486-11.856 3.253-4.784 5.747-3.189 7.373 0 1.627 3.19 2.139 5.648 2.387 9.377.057.86.134 1.684.228 2.479h-12.474zm109.929 0h86.14c1.38-19.337.78-36.38-3.27-59.894-.35-1.988-.5-3.753-.64-5.417-.31-3.577-.58-6.686-2.62-10.531-1.14-2.157-2.6-3.47-4.06-4.783-1.46-1.314-2.93-2.627-4.07-4.787-1.05-1.989-1.32-3.764-1.59-5.533-.28-1.81-.55-3.613-1.66-5.631-.71-1.286-1.47-2.068-2.25-2.865-.87-.901-1.77-1.822-2.63-3.514-1.06-2.069-.74-17.398-.39-34.544v-.004c.19-9.291.39-19.115.39-27.652 0-1.313.05-2.426.1-3.48.1-1.943.18-3.681-.1-6.089-.3-2.496-.46-4.635-.62-6.575v-.001c-.47-6.021-.79-10.14-4.26-17.155-3.721-7.518-8.894-22.328-8.894-22.328s-12.186-12.016-18.76-19.33c-.74-.824-1.432-1.627-2.098-2.4-3.644-4.229-6.537-7.587-12.541-8.764-.695-.137-1.566-.371-2.482-.617-3.187-.858-6.914-1.861-5.651.617.852 1.67 1.242 3.494 1.661 5.458l.001.001c.382 1.788.789 3.693 1.591 5.705 2.384 5.971 8.133 14.354 8.133 14.354s10.358 11.825 14.64 20.733c6.615 13.764 4.192 26.981 1.841 39.802-1.595 8.695-3.156 17.208-1.841 25.587 3.253 20.733-4.88 6.38-4.88 6.38l-30.905-35.087-22.772-33.492-27.652-41.467s-32.532-52.63-34.158-62.199c-1.266-7.45-3.496.587-5.206 6.753-.487 1.755-.932 3.359-1.3 4.411-2.89 8.246 0 22.328 0 22.328s3.12 17.713 6.506 28.707c3.956 12.843 13.012 31.897 13.012 31.897l9.76 19.139 14.639 23.923s8.381 13.031 14.639 20.733c6.444 7.93 17.893 19.138 17.893 19.138l21.145 23.923 11.386 15.949s12.071 10.758 17.893 19.138c.246.355.487.7.723 1.036l.489.699c3.007 4.286 5.076 7.235 6.92 12.619 1.87 5.459.961 10.36.075 15.133-.839 4.518-1.657 8.921-.075 13.574 3.254 9.57-13.012-6.379-13.012-6.379l-21.146-27.113s-10.118-11.939-14.639-20.733c-3.499-6.806-4.648-13.656-5.715-20.022-.922-5.496-1.783-10.631-4.044-15.065-4.88-9.569-8.133-3.19-8.133-3.19s-1.454 7.741-1.627 12.759c-.2 5.824.373 9.485 1.174 14.605v.003c.145.924.297 1.896.453 2.936l.137.915c.858 5.729 1.384 9.24 3.116 15.033.258.863.489 1.667.708 2.431 1.08 3.757 1.874 6.522 4.172 10.328 1.486 2.462 1.992 4.336 2.543 6.375.386 1.428.794 2.938 1.577 4.789.606 1.435.619 1.513.665 1.777.047.275.13.755.961 3.2 1.627 4.785-4.12 10.972-5.746 6.187-.986-2.9-3.074-3.95-5.347-5.094-1.476-.743-3.031-1.525-4.413-2.88-1.679-1.646-2.786-3.144-3.88-4.625-1.193-1.613-2.369-3.205-4.253-4.944-2.988-2.76-5.641-4.234-8.481-5.812h-.001l-.001-.001c-1.913-1.063-3.911-2.173-6.156-3.756-1.498-1.057-2.856-1.968-4.132-2.824-3.732-2.503-6.758-4.533-10.507-8.34-1.836-1.865-2.9-4.912-3.961-7.948-1.487-4.259-2.967-8.495-6.558-9.404-2.461-.622-4.12 1.403-5.747 4.593-1.626 3.189 0 12.759 0 12.759s.987 7.211 3.253 11.164c2.641 4.607 9.76 9.569 9.76 9.569l17.892 17.543 9.76 11.164 13.012 11.164s11.293 8.805 19.519 12.759c2.447 1.177 4.615 1.902 6.706 2.511l-.111-.032zm110.67 0h16.28c.75-24.258 0-44.332-1.79-48.73-3.26-7.974-6.51 0-6.51 3.19s-4.88 15.949-4.88 15.949-2.53 8.655-3.25 14.353c-.5 3.936-.29 6.987-.08 10.096v.001c.11 1.701.23 3.419.23 5.31v-.021-.148zm-665.422-2.479c-.897-1.172-1.793-.082-2.66 2.479h3.914c-.356-1.011-.769-1.846-1.254-2.479zm14.64 0l.758 2.479h77.208c5.197-5.103 9.869-8.858 9.869-8.858s24.02-8.994 34.158-20.733c2.935-3.399 4.231-3.772 5.639-4.177 1.327-.383 2.754-.794 5.747-3.798 3.475-3.487 7.311-8.589 10.972-13.458 2.437-3.242 4.797-6.38 6.92-8.87 3.796-4.45 4.811-8.571 5.964-13.254.571-2.319 1.176-4.776 2.169-7.479 1.02-2.775 2.013-5.175 2.946-7.433 2.185-5.282 4.048-9.787 5.187-16.49 1.627-9.569-26.025 23.923-26.025 23.923s-5.008 13.836-13.773 20.733c-3.71 2.921-8.612 4.799-13.46 6.656-3.59 1.375-7.151 2.74-10.178 4.508-1.502.878-3.495 2.643-5.404 4.334-3.683 3.262-7.054 6.247-5.983 2.046.605-2.373-.814-6.51-2.502-11.427-2.85-8.305-6.464-18.836-2.377-26.85 3.961-7.767 6.875-11.417 9.92-15.231 1.957-2.45 3.968-4.969 6.346-8.692 4.095-6.412 8.141-13.542 11.489-19.441v-.001c2.702-4.762 4.95-8.723 6.403-10.86 3.253-4.785-34.158 20.925-34.158 20.925s-10.398 12.909-14.639 25.326c-3.72 10.89-6.507 28.707-6.507 28.707v30.303c0 11.833-21.145 35.087-21.145 27.112 0-2.239.11-5.141.239-8.501.328-8.606.77-20.215-.239-31.37-.531-5.858-1.481-10.389-2.427-14.897-.981-4.675-1.957-9.326-2.453-15.406-.674-8.259 2.949-18.43 6.317-27.881 1.695-4.759 3.325-9.335 4.309-13.393 1.186-4.888 1.558-7.306 1.831-9.077.454-2.943.633-4.103 3.809-11.848 2.594-6.328 7.819-13.164 13.041-19.996 5.194-6.797 10.385-13.59 12.984-19.876 3.522-8.518 4.565-14.073 5.687-20.05.888-4.724 1.824-9.711 4.072-16.632 2.49-7.663 1.778-11.454.924-16-.615-3.271-1.302-6.932-.924-12.707.484-7.365-1.318-17.131-2.868-25.527-1.065-5.775-2.011-10.902-2.011-14.152 0-7.975-14.639 7.782-14.639 7.782l-6.507 46.251s-2.386 41.658-21.145 57.415c-8.005 6.723-11.917 16.232-15.159 24.114-1.484 3.607-2.828 6.874-4.36 9.378-4.88 7.974-10.216 26.498-11.386 38.276-.854 8.589.43 19.969 1.363 28.241 1.01 8.958 1.609 14.27-1.363 8.441l-14.639-28.707c-5.717-11.211-8.026-28.516-5.64-46.251.355-2.636.659-5.061.948-7.358 1.132-9.005 2.017-16.048 4.692-26.134 1.574-5.937 4.521-9.975 7.459-14.001 2.8-3.838 5.592-7.664 7.18-13.112 3.253-11.164-21.342 13.799-29.279 27.113-7.001 11.744-9.759 33.492-9.759 33.492s-1.014 18.51 0 30.302c1.528 17.772 9.759 44.656 9.759 44.656l14.64 57.415z" fill="#FF5ABE" style="mix-blend-mode:multiply"/><path d="M554.974 429.5c.661 11.042 3.067 56.538-.156 86.834-.632 5.939-1.833 11.139-3.197 15.999h38.982V505.17l-3.253-22.329s-1.594-10.292-2.386-17.351c-.18-1.6-.255-2.905-.326-4.13-.148-2.566-.275-4.781-1.301-8.629a99.927 99.927 0 0 1-.823-3.402c-1.072-4.663-2.148-9.343-5.683-12.546-1.711-1.55-4.064-4.37-6.427-7.283h-15.43zm-73.461 0c-4.117 4.043-8.564 8.932-11.277 13.47-6.708 11.219-9.759 31.897-9.759 31.897s-3.292 25.598 0 41.467c1.341 6.466 2.873 11.152 4.85 15.999h-31.873c-2.228-9.046-3.882-15.999-3.882-15.999l-11.386-41.467-13.881-45.367h77.208zm-91.352 0c1.644 4.666 2.061 13.082 2.538 22.713.462 9.307.979 19.749 2.715 29.034a436.233 436.233 0 0 1 1.575 9.081c1.479 8.916 2.657 16.019 6.558 26.006 2.533 6.486 4.753 11.226 7.503 15.999h-28.562c-1.441-5.422-2.726-11.114-3.34-15.999-1.71-13.6 0-35.087 0-35.087s3.251-40.374 7.099-51.747h3.914zm680.449 0c-.61 19.732-2.21 42.233-5.05 61.316-1.11 7.498-3.25 19.138-3.25 19.138s-3.06 10.67-4.88 17.544c-.48 1.817-.8 3.366-1.11 4.835h-35.17c2.54-3.541 5.38-8.025 5.38-8.025l4.88-7.974s4.37-6.597 6.5-11.164c2.2-4.712 3.06-7.817 4.32-12.349.18-.637.36-1.303.56-2.005 1.56-5.535 3.25-14.354 3.25-14.354l4.88-23.923s2.62-11.587 3.26-19.138c.11-1.398.16-2.685.15-3.901h16.28zm-126.951 0h86.141c-.68 9.449-1.82 19.446-3.27 31.013-.13 1.001-.25 1.972-.37 2.917-1.58 12.681-2.57 20.693-6.14 33.765-2.6 9.514-4.56 14.721-8.13 23.923-.74 1.902-1.39 3.637-2 5.271-.79 2.104-1.51 4.039-2.28 5.944h-44.144l2.876-4.835 8.133-12.759 6.507-14.354s2.623-7.66 3.253-12.759c.396-3.208.279-5.526.147-8.118-.072-1.405-.147-2.89-.147-4.641 0-2.189.19-4.062.37-5.835.332-3.27.629-6.194-.37-10.113-.13-.508-.252-1.003-.372-1.487-1.154-4.661-2.035-8.219-6.134-11.272-1.603-1.194-3.069-1.583-4.631-1.998-1.093-.29-2.234-.592-3.502-1.192-3.182-1.505-5.345-3.18-7.527-4.87-2.062-1.597-4.141-3.208-7.113-4.699-3.383-1.699-6.239-2.489-9.114-3.285-.724-.2-1.448-.401-2.183-.616zm-109.929 0h12.474c.603 5.103 1.92 8.997 3.341 13.201.997 2.951 2.047 6.055 2.937 9.838.804 3.414 1.308 6.279 1.789 9.016.743 4.228 1.433 8.148 3.091 13.312 2.905 9.049 9.759 22.328 9.759 22.328l9.76 19.139s4.328 7.894 7.36 15.999h-36.359l-1.906-11.215-4.88-20.733s-2.386-10.876-4.88-17.544c-2.386-6.379-2.856-8.186-2.386-12.566.863-8.035.606-13.825.32-20.301-.156-3.509-.32-7.219-.32-11.596 0-1.294-.026-2.618-.052-3.947-.032-1.65-.065-3.31-.048-4.931zM573.169 840.833c1.085-8.406 1.529-16.385-2.085-26.26-4.048-11.061-7.669-17.33-16.266-25.518-9.382-8.936-16.85-11.949-29.278-15.949-9.833-3.163-18.378.525-26.703 4.117-9.049 3.906-17.837 7.699-27.734 2.455-9.887-5.239-22.012-25.71-22.012-25.71s-13.569-7.379-18.686-15.968h534.724c-.888 1.067-1.764 1.953-2.628 2.826-1.468 1.482-2.899 2.928-4.291 5.168-1.48 2.378-3.254 6.379-3.254 6.379s-1.726 3.111-3.253 4.785c-2.117 2.321-6.506 4.784-6.506 4.784s-3.714 2.677-6.506 3.19c-1.215.223-2.105.157-3.101.083-.539-.04-1.109-.083-1.779-.083-.893 0-1.649.018-2.363.035-1.319.03-2.498.058-4.143-.035-6.124-.346-10.515-3.071-14.826-5.746-4.73-2.935-9.363-5.81-16.079-5.418-11.074.646-30.905 6.38-26.026 11.164 3.78 3.706 3.656 4.542 3.408 6.212a11.258 11.258 0 0 0-.154 1.762c0 1.172-1.359 3.744-3.143 7.121-3.073 5.816-7.408 14.021-8.243 21.587-.275 2.487-.14 4.444-.004 6.403.134 1.943.269 3.888.004 6.356-.711 6.606-3.386 11.16-6.104 15.786-1.89 3.218-3.801 6.471-5.086 10.474H573.169zM506.452 1149.33c.119-1.25.286-2.5.458-3.79.359-2.68.738-5.52.738-8.81v-28.7c0-4.38-.273-8.11-.531-11.63-.476-6.5-.902-12.31.531-20.27 1.736-9.64 7.4-21.39 11.896-29.63h375.271c1.005 3.45 1.585 5.71 1.585 5.71 2.282 5.89 4.803 10.58 7.206 15.06 3.768 7.01 7.247 13.49 9.06 23.21 1.629 8.75 1.145 15.14.603 22.3-.293 3.88-.603 7.98-.603 12.79 0 4.82.636 9.01 1.237 12.97.56 3.69 1.089 7.18 1.049 10.79h-408.5z" fill="#4DE6FF" style="mix-blend-mode:multiply"/><path d="M526.924 532.333c-.687 2.448-1.415 4.809-2.132 7.135l-.001.003c-3.132 10.161-6.056 19.643-4.429 32.683 1.243 9.967 3.707 16.263 6.833 24.247v.001a366.23 366.23 0 0 1 2.926 7.649c2.207 6.014 5.059 10.845 7.769 15.437 3.915 6.631 7.536 12.764 8.497 21.245 1.627 14.354-34.158-19.138-34.158-19.138l-29.279-25.518s-13.896-13.808-21.145-23.923c-7.52-10.494-10.961-16.985-16.266-28.708l-.847-1.869-.001-.001c-1.548-3.412-2.883-6.356-4.061-9.243h-31.873c3.617 14.685 8.744 34.886 10.757 39.821 3.253 7.974-17.472-16.271-26.025-28.708-2.871-4.174-5.143-7.652-7.136-11.113h-28.562c2.894 10.885 6.419 20.682 6.419 20.682 0-2.184.72-.798 2.804 3.214 2.481 4.776 6.895 13.274 14.329 23.899l.189.271c14.452 20.658 14.705 21.019 23.343 26.842 8.675 5.848 40.539 25.758 56.93 33.492 9.155 4.32 15.428 9.827 21.977 15.577 4.437 3.896 9.001 7.903 14.674 11.728 4.599 3.099 7.872 4.646 10.618 5.945 4.784 2.261 7.972 3.767 13.781 11.406l1.463 1.923c9.629 12.652 29.785 39.135 22.069 31.569-8.133-7.974-45.544-20.733-45.544-20.733s-16.66-13.305-31.665-18.946c-6.762-2.542-11.073-3.762-15.751-5.085h-.001l-.001-.001c-5.612-1.587-11.753-3.324-23.285-7.673-2.927-1.104-6.759-2.854-11.008-4.794-13.64-6.228-31.588-14.424-37.789-9.56-5.153 4.042.23 12.42 5.417 20.494 3.001 4.67 5.936 9.238 6.729 12.806 1.114 5.015.547 8.521-.019 12.018-.571 3.528-1.14 7.046.019 12.097 1.714 7.472 4.581 13.17 7.717 19.403l.001.002c1.2 2.384 2.439 4.846 3.668 7.516 4.253 9.241 19.519 17.543 19.519 17.543s12.125 20.471 22.012 25.71c3.529 1.87 6.916 2.591 10.225 2.567-3.21-.022-6.497-.755-9.916-2.567-9.887-5.239-22.012-25.71-22.012-25.71s-13.569-7.379-18.686-15.968h534.415c.402-.483.806-1.003 1.213-1.575 1.47-2.069 2.369-3.835 3.269-5.602.892-1.753 1.786-3.507 3.238-5.562 1.304-1.847 2.426-3.133 3.595-4.474l.001-.001c.906-1.039 1.84-2.11 2.91-3.5 5.866-7.62 9.218-13.86 12.812-20.551 2.397-4.464 4.902-9.128 8.334-14.536 2.076-3.273 4.095-5.866 6.013-8.329 3.238-4.159 6.185-7.943 8.626-13.999 2.095-5.197 2.851-11.431 3.447-16.341v-.001c.42-3.46.76-6.262 1.432-7.581 1.405-2.755-4.86-1.401-9.401-.419h-.002c-.716.155-1.389.301-1.983.419-5.2 1.04-8.005 4.106-10.951 7.325-2.342 2.56-4.773 5.217-8.568 7.029-9.552 4.561-16.048 5.214-26.274 6.241l-.8.08-.577.059c-4.049.409-7.331.11-10.537-.181-3.799-.346-7.494-.682-12.235.181-4.547.826-7.095 1.5-11.387 3.189-8.501 3.347-19.518 12.759-19.518 12.759s-4.164 3.708-6.507 6.38c-1.343 1.531-2.195 2.712-3.148 4.032-.516.715-1.062 1.472-1.731 2.347-1.337 1.748-2.476 3.22-3.553 4.613l-.004.005c-1.991 2.576-3.772 4.878-6.203 8.141-1.153 1.547-2.105 3.62-3.002 5.571-1.61 3.504-3.041 6.617-5.131 5.593-1.555-.763-2.798-1.154-3.999-1.533-1.31-.413-2.571-.81-4.134-1.657a35.954 35.954 0 0 0-1.354-.689c-1.334-.655-2.417-1.187-3.525-2.501-3.038-3.599-1.746-7.494-.292-11.877l.078-.234.214-.647c1.862-5.685 6.063-7.817 10.819-10.231 2.296-1.165 4.72-2.396 7.073-4.123 5.262-3.863 9.422-6.436 13.791-9.139 3.243-2.006 6.6-4.082 10.608-6.81 12.263-8.346 19.857-14.015 30.207-21.742l.001-.001.001-.001c2.245-1.676 4.621-3.45 7.202-5.368 3.695-2.747 6.636-4.999 9.498-7.19l.016-.012.002-.001.001-.001.006-.005c3.559-2.725 7-5.359 11.622-8.74 2.813-2.058 5.185-3.669 7.46-5.214l.002-.001c3.326-2.259 6.445-4.377 10.431-7.544 3.421-2.719 5.886-5.03 8.374-7.362 2.34-2.193 4.699-4.405 7.892-6.992 4.083-3.308 7.342-5.592 10.719-7.959l.001-.001.001-.001c2.697-1.89 5.469-3.833 8.797-6.392 5.348-4.115 8.848-6.971 13.218-10.541 1.43-1.171 2.96-2.419 4.67-3.813 1.33-1.075 2.53-1.91 3.67-2.699 2.14-1.488 4.05-2.812 6.09-5.276 3.25-3.905 4.35-6.902 5.98-11.311.17-.466.34-.947.53-1.447 1.12-3.021 1.6-5.311 2.12-7.822v-.001l.02-.101h-35.163a66.642 66.642 0 0 1-1.135 1.544c-2.959 3.904-8.132 9.569-8.132 9.569s-5.133 7.644-9.76 11.164c-4.489 3.415-16.266 9.57-13.013 6.38 3.254-3.19 8.696-10.206 13.013-17.544a80.58 80.58 0 0 0 5.479-11.113h-44.141l-8.509 14.303s-6.546 16.356-13.012 25.518c-6.395 9.061-19.519 20.733-19.519 20.733l-17.893 15.949s-37.411 35.086-37.411 27.112v-6.379s6.786-5.628 9.76-12.759c1.349-3.236 2.491-7.316 3.616-11.333v-.001h.001c.938-3.352 1.865-6.661 2.889-9.399 1.551-4.148 2.008-7.888 2.498-11.889.214-1.752.434-3.554.755-5.463 2.592-15.412 3.181-23.162 0-38.468-.514-2.473-1.384-5.21-2.399-7.924h-36.359l1.347 7.924s2.733 19.732 0 31.897c-1.903 8.472-8.133 20.733-8.133 20.733l-6.506 14.354s-5.381 9.162-9.76 14.354l-.084.1c-3.957 4.689-6.273 7.435-11.302 11.064-5.72 4.127-9.314 6.547-16.266 7.974-3.629.745-6.304.523-9.295.276h-.002c-1.62-.134-3.334-.276-5.342-.276-2.455 0-4.56-.215-6.55-.417-3.674-.374-6.958-.709-11.342.417-.491.126-.955.239-1.4.347l-.007.002c-2.55.622-4.434 1.081-6.726 2.841-1.24.952-1.828 2.065-2.414 3.176-.596 1.129-1.19 2.254-2.466 3.203-5.567 4.141-12.325 4.141-17.892 0-1.276-.949-1.871-2.075-2.467-3.204-.586-1.11-1.174-2.223-2.413-3.175-2-1.539-29.583-.632-42.886-.195l-.01.001-.033.001c-3.296.108-5.709.187-6.628.193-32.532.192-38.278-3.19-38.278-3.19s-7.696-7.082-13.013-11.164c-1.997-1.533-3.686-2.625-5.344-3.696v-.001c-1.914-1.237-3.787-2.447-6.042-4.277-5.535-4.494-8.328-7.416-13.013-12.759-3.002-3.426-3.559-5.485-4.405-8.612-.32-1.185-.682-2.524-1.234-4.147-2.009-5.909-3.551-11.261-4.88-17.352-.411-1.884-.806-3.232-1.157-4.425-.781-2.662-1.336-4.555-1.336-9.928v-32.039h-38.982zm-26.081 240.773a24.644 24.644 0 0 0-7.467-1.2 24.68 24.68 0 0 1 7.776 1.2c12.428 4 19.896 7.013 29.278 15.949 8.597 8.188 12.218 14.457 16.266 25.518 3.614 9.875 3.17 17.854 2.085 26.26h277.574a31.743 31.743 0 0 0-1.01 4.042 166.422 166.422 0 0 1-.914 4.638c-.449 2.153-.685 3.286-.592 4.39.103 1.225.61 2.416 1.68 4.926l.002.004c.414.972.913 2.141 1.504 3.586 1.663 4.06 3.866 9.829 5.99 15.392l.001.001c1.655 4.335 3.263 8.544 4.528 11.719 2.55 6.397 1.792 11.447.945 17.096-.459 3.06-.945 6.296-.945 10.017v23.923s-.042 40.212 11.386 62.203c1.905 3.66 3.822 6.27 5.746 8.88h.001c1.874 2.55 3.755 5.1 5.639 8.66 4.13 7.79 7.805 19.34 9.802 26.19H495.156c-4.496 8.24-10.16 19.99-11.897 29.63-1.432 7.96-1.006 13.77-.53 20.27.258 3.52.53 7.25.53 11.63v28.7c0 3.29-.379 6.13-.737 8.81-.172 1.29-.34 2.54-.458 3.79h408.191c-.04 3.56-.63 7.23-2.287 11.33-1.927 4.76-5.032 7.58-8.142 10.41-3.086 2.8-6.176 5.61-8.123 10.32-5.484 13.28-4.88 25.52 0 36.68 4.787 10.96-14.324-5.49-22.321-12.37l-.452-.39c-.973-.83-1.753-1.47-2.423-2.01-2.824-2.3-3.704-3.01-8.963-10.74-6.506-9.57 9.76 38.27 9.76 38.27s1.335 1.87-.901 5.02c-1.279 1.8-2.113 3.09-2.593 3.87-6.188 12.26-15.561 18.27-18.148 14.83-.743-.99-.927-2.76-.317-5.38-1.938-2-3.413-3.46-4.558-4.59l-.005-.01c-1.997-1.97-2.991-2.95-3.698-4.11-.7-1.15-1.117-2.48-1.948-5.11-.48-1.53-1.099-3.49-1.99-6.11-4.88-14.36-3.253 31.89 0 49.44 3.253 17.54-21.146-9.57-21.146-9.57s-4.88 0 0 9.57c2.44 4.78-4.88 0-12.199-4.79-7.32-4.78-14.639-9.57-12.199-4.78 4.879 9.57 4.054 18.22 0 28.71-4.304 11.12-14.64 33.49-21.146 22.32-4.774-8.19-8.672-12.94-12.337-17.42-1.33-1.62-2.629-3.21-3.929-4.9-1.906-2.5-1.339.32-.324 5.36 1.583 7.87 4.257 21.15.324 28.13-5.965 10.58-22.772 35.09-26.025 17.54-3.253-17.54-9.759-49.44-26.025-39.87-10.118 5.95-11.425 8.2-12.142 9.44-.435.75-.653 1.12-2.497 1.72-2.273.75-4.546-10.27-6.819-21.29-2.607-12.64-5.214-25.28-7.821-20.17-3.402 6.67-9.176 11.02-14.015 14.66-2.101 1.58-4.026 3.03-5.504 4.48-1.998 1.96-3.131-2.23-4.684-7.96-2.241-8.27-5.358-19.78-13.208-20.75-5.046-.63-9.027 2.44-12.694 5.26-2.89 2.23-5.584 4.31-8.451 4.31-2.617 0-3.129-4.77-3.758-10.63-.935-8.72-2.129-19.84-10.882-21.27-1.973-.32-3.652-.54-5.185-.74-3.822-.5-6.742-.88-11.08-2.45-11.555-4.17-17.015-10.79-23.906-19.14l-.002-.01h-.003c-1.67-2.02-3.423-4.15-5.368-6.37-3.949-4.5-6.365-8.55-8.769-12.58-2.49-4.17-4.968-8.32-9.123-12.93-2.295-2.55-4.211-4.32-6.19-6.14-1.61-1.49-3.263-3.01-5.196-5.03-2.249-2.34-4.46-4.25-6.546-6.05-4.789-4.13-8.92-7.69-11.347-14.68-1.99-5.74-1.399-10.17-.737-15.12.358-2.68.737-5.52.737-8.81v-28.7c0-4.38-.272-8.11-.53-11.63-.477-6.5-.902-12.31.53-20.27 3.017-16.75 17.893-39.87 17.893-39.87l19.519-33.49s14.342-24.235 17.892-41.47c1.794-8.709.954-15.678.109-22.691-.813-6.751-1.631-13.542-.109-21.965.941-5.208 2.487-9.141 4.015-13.028 1.661-4.224 3.3-8.394 4.118-14.085.978-6.8.687-11.73.362-17.244-.176-2.988-.362-6.147-.362-9.868 0-6.567.795-12.255 1.547-17.634 1.387-9.928 2.628-18.806-1.547-30.212-4.048-11.061-7.669-17.33-16.266-25.518-9.382-8.936-16.85-11.949-29.278-15.949zm386.938-13.72c-4.399-2.73-8.714-5.408-14.701-5.453 6.148-.047 10.536 2.676 15.01 5.453h.001c4.311 2.675 8.702 5.4 14.826 5.746.782.044 1.459.061 2.096.064a39.215 39.215 0 0 1-2.406-.064c-6.123-.346-10.514-3.071-14.826-5.746zm23.112 5.829c-.512-.038-1.052-.079-1.678-.083h.208c.668 0 1.238.043 1.776.083h.003c.432.032.843.063 1.27.069-.54.008-1.044-.029-1.578-.069h-.001zM544.24 427.685l-.002-.003-.002-.003-.001-.001c-2.317-2.873-4.516-5.599-5.981-7.036-3.253-3.19-7.637.407-8.133 4.784-.07.619 0 1.595 0 1.595s.059.877.155 2.479h15.431c-.491-.605-.981-1.213-1.467-1.815zm264.793 1.815c.047-4.617.495-8.927 2.486-11.856 3.253-4.784 5.747-3.189 7.373 0 1.627 3.19 2.139 5.648 2.387 9.377.057.86.134 1.684.228 2.479h-12.474zm109.929 0h86.138c1.38-19.337.78-36.38-3.27-59.894-.34-1.988-.5-3.753-.64-5.417-.31-3.577-.57-6.686-2.614-10.531-1.145-2.157-2.605-3.47-4.066-4.783-1.462-1.314-2.923-2.627-4.067-4.787-1.054-1.989-1.324-3.764-1.593-5.533-.275-1.81-.549-3.613-1.66-5.631-.709-1.286-1.469-2.068-2.245-2.865-.876-.901-1.772-1.822-2.635-3.514-1.055-2.069-.742-17.398-.391-34.544v-.004c.19-9.291.391-19.115.391-27.652 0-1.313.054-2.426.105-3.48.094-1.943.178-3.681-.105-6.089-.294-2.496-.462-4.635-.614-6.575v-.001c-.473-6.021-.796-10.14-4.266-17.155-3.719-7.518-8.893-22.328-8.893-22.328s-12.185-12.016-18.759-19.33c-.74-.824-1.432-1.627-2.098-2.4-3.644-4.229-6.537-7.587-12.541-8.764-.695-.137-1.566-.371-2.482-.617-3.187-.858-6.914-1.861-5.651.617.852 1.67 1.241 3.494 1.661 5.458v.001c.382 1.788.789 3.693 1.592 5.705 2.383 5.971 8.133 14.354 8.133 14.354s10.358 11.825 14.639 20.733c6.616 13.764 4.192 26.981 1.841 39.802-1.594 8.695-3.155 17.208-1.841 25.587 3.254 20.733-4.879 6.38-4.879 6.38l-30.905-35.087-22.772-33.492-27.652-41.467s-32.532-52.63-34.158-62.199c-1.267-7.45-3.496.587-5.207 6.753-.486 1.755-.931 3.359-1.3 4.411-2.889 8.246 0 22.328 0 22.328s3.12 17.713 6.507 28.707c3.956 12.843 13.012 31.897 13.012 31.897l9.76 19.139 14.639 23.923s8.381 13.031 14.639 20.733c6.444 7.93 17.892 19.138 17.892 19.138l21.146 23.923 11.386 15.949s12.071 10.758 17.892 19.138l.723 1.036.49.699c3.007 4.286 5.076 7.235 6.92 12.619 1.87 5.459.96 10.36.074 15.133-.838 4.518-1.656 8.921-.074 13.574 3.253 9.57-13.012-6.379-13.012-6.379l-21.146-27.113s-10.118-11.939-14.639-20.733c-3.499-6.806-4.648-13.656-5.716-20.022-.921-5.496-1.782-10.631-4.044-15.065-4.879-9.569-8.132-3.19-8.132-3.19s-1.454 7.741-1.627 12.759c-.2 5.824.373 9.485 1.173 14.605l.001.001v.002c.145.924.296 1.896.453 2.936l.137.915c.858 5.729 1.383 9.24 3.116 15.033.258.863.489 1.667.708 2.431 1.08 3.757 1.874 6.522 4.171 10.328 1.487 2.462 1.993 4.336 2.544 6.375.386 1.428.794 2.938 1.576 4.789.607 1.435.62 1.513.666 1.777.047.275.13.755.961 3.2 1.627 4.785-4.12 10.972-5.747 6.187-.985-2.9-3.073-3.95-5.346-5.094-1.476-.743-3.031-1.525-4.413-2.88-1.679-1.646-2.786-3.144-3.881-4.625-1.192-1.613-2.369-3.205-4.252-4.944-2.989-2.76-5.641-4.234-8.482-5.812l-.001-.001c-1.913-1.063-3.912-2.173-6.156-3.756-1.498-1.057-2.856-1.968-4.132-2.824-3.732-2.503-6.758-4.533-10.507-8.34-1.836-1.865-2.901-4.912-3.961-7.948-1.488-4.259-2.967-8.495-6.558-9.404-2.461-.622-4.12 1.403-5.747 4.593-1.627 3.189 0 12.759 0 12.759s.987 7.211 3.253 11.164c2.641 4.607 9.76 9.569 9.76 9.569l17.892 17.543 9.759 11.164 13.013 11.164s11.293 8.805 19.519 12.759c2.447 1.177 4.615 1.902 6.706 2.511l-.111-.032zm110.668 0h16.28c.75-24.258 0-44.332-1.79-48.73-3.25-7.974-6.51 0-6.51 3.19s-4.88 15.949-4.88 15.949-2.53 8.655-3.25 14.353c-.5 3.936-.29 6.987-.08 10.096v.001c.11 1.701.23 3.419.23 5.31v-.021-.148zm-665.42-2.479c-.897-1.172-1.794-.082-2.66 2.479h3.914c-.356-1.011-.77-1.846-1.254-2.479zm14.639 0l.759 2.479h77.208c5.197-5.103 9.869-8.858 9.869-8.858s24.019-8.994 34.158-20.733c2.935-3.399 4.231-3.772 5.638-4.177 1.328-.383 2.754-.794 5.748-3.798 3.474-3.487 7.311-8.589 10.971-13.458 2.438-3.242 4.798-6.38 6.921-8.87 3.796-4.45 4.811-8.571 5.964-13.254.571-2.319 1.175-4.776 2.169-7.479 1.02-2.775 2.012-5.175 2.946-7.433 2.185-5.282 4.048-9.787 5.187-16.49 1.627-9.569-26.025 23.923-26.025 23.923s-5.009 13.836-13.773 20.733c-3.711 2.921-8.612 4.799-13.46 6.656-3.59 1.375-7.151 2.74-10.179 4.508-1.502.878-3.494 2.643-5.403 4.334-3.683 3.262-7.054 6.247-5.983 2.046.605-2.373-.815-6.51-2.502-11.427-2.85-8.305-6.464-18.836-2.377-26.85 3.961-7.767 6.874-11.417 9.92-15.231 1.957-2.451 3.968-4.969 6.345-8.692 4.096-6.412 8.141-13.541 11.489-19.44v-.001l.001-.001c2.702-4.762 4.95-8.723 6.403-10.86 3.253-4.785-34.158 20.925-34.158 20.925s-10.399 12.909-14.64 25.326c-3.719 10.89-6.506 28.707-6.506 28.707v30.303c0 11.833-21.145 35.087-21.145 27.112 0-2.239.11-5.141.238-8.501.329-8.606.771-20.215-.238-31.37-.531-5.858-1.481-10.389-2.427-14.897-.981-4.675-1.957-9.326-2.453-15.406-.674-8.259 2.949-18.43 6.316-27.881 1.696-4.759 3.326-9.335 4.31-13.393 1.186-4.888 1.558-7.306 1.831-9.077.454-2.943.633-4.103 3.809-11.848 2.594-6.328 7.819-13.164 13.04-19.996h.001c5.193-6.797 10.385-13.59 12.984-19.876 3.521-8.518 4.565-14.073 5.687-20.05.887-4.724 1.824-9.711 4.072-16.632 2.49-7.663 1.778-11.454.924-16-.615-3.271-1.302-6.932-.924-12.707.483-7.365-1.319-17.131-2.868-25.527-1.065-5.775-2.011-10.902-2.011-14.152 0-7.975-14.64 7.782-14.64 7.782l-6.506 46.251s-2.386 41.658-21.145 57.415c-8.005 6.723-11.917 16.232-15.159 24.114-1.484 3.607-2.828 6.874-4.36 9.378-4.88 7.974-10.216 26.498-11.386 38.276-.854 8.589.43 19.969 1.362 28.241 1.011 8.958 1.61 14.27-1.362 8.441l-14.64-28.707c-5.717-11.211-8.025-28.516-5.639-46.251.354-2.636.659-5.061.948-7.358 1.132-9.005 2.017-16.048 4.691-26.134 1.574-5.937 4.521-9.975 7.46-14.001 2.8-3.838 5.592-7.664 7.18-13.112 3.253-11.164-21.342 13.799-29.279 27.113-7.001 11.744-9.759 33.492-9.759 33.492s-1.014 18.51 0 30.302c1.528 17.772 9.759 44.656 9.759 44.656l14.639 57.415z" fill="#4DE6FF" style="mix-blend-mode:multiply"/></g></svg>