<svg width="1500" height="1500" fill="none" xmlns="http://www.w3.org/2000/svg"><path fill-rule="evenodd" clip-rule="evenodd" d="M574.824 494.15c.61 10.386 2.829 53.176-.143 81.669-.583 5.586-1.691 10.477-2.948 15.048h35.948v-25.548l-3-21s-1.47-9.68-2.201-16.319a69.463 69.463 0 0 1-.3-3.885c-.136-2.413-.253-4.496-1.2-8.115-.275-1.052-.516-2.125-.759-3.199-.988-4.387-1.98-8.788-5.241-11.801-1.577-1.458-3.747-4.109-5.926-6.85h-14.23zm-67.744 0c-3.796 3.803-7.897 8.401-10.399 12.669-6.186 10.552-9 30-9 30s-3.035 24.075 0 39c1.237 6.082 2.649 10.489 4.473 15.048h-29.392c-2.055-8.508-3.581-15.048-3.581-15.048l-10.5-39-12.801-42.669h71.2zm-84.243 0c1.516 4.389 1.901 12.305 2.341 21.362.426 8.754.903 18.574 2.503 27.307a418.552 418.552 0 0 1 1.453 8.542c1.364 8.386 2.45 15.066 6.047 24.458 2.336 6.101 4.384 10.559 6.92 15.048h-26.34c-1.329-5.099-2.514-10.453-3.08-15.048-.525-4.263-.701-9.351-.701-14.24 0-9.778.701-18.76.701-18.76s2.998-37.972 6.547-48.669h3.609zm627.503 0c-.57 18.559-2.04 39.721-4.66 57.669-1.03 7.052-3 18-3 18s-2.82 10.035-4.5 16.5a85.374 85.374 0 0 0-1.02 4.548h-32.43c2.34-3.331 4.95-7.548 4.95-7.548l4.5-7.5s4.04-6.204 6-10.5c2.03-4.431 2.82-7.351 3.98-11.613.17-.6.34-1.226.52-1.887 1.44-5.206 3-13.5 3-13.5l4.5-22.5s2.42-10.897 3-18a39.6 39.6 0 0 0 .14-3.669h15.02zm-117.077 0h79.437c-.62 8.888-1.68 18.29-3.02 29.169-.11.941-.23 1.854-.33 2.743-1.46 11.927-2.38 19.462-5.67 31.757-2.39 8.948-4.201 13.845-7.499 22.5-.682 1.789-1.28 3.421-1.843 4.957-.725 1.979-1.392 3.799-2.105 5.591h-40.705l2.653-4.548 7.5-12 6-13.5s2.419-7.204 3-12c.366-3.017.257-5.197.135-7.635-.065-1.321-.135-2.718-.135-4.365 0-2.058.175-3.821.341-5.487.307-3.077.58-5.827-.341-9.513-.119-.477-.232-.943-.343-1.397-1.064-4.385-1.877-7.731-5.657-10.603-1.478-1.123-2.829-1.488-4.27-1.878-1.008-.273-2.06-.558-3.23-1.122-2.934-1.415-4.929-2.991-6.941-4.58-1.901-1.502-3.819-3.017-6.559-4.42-3.12-1.597-5.754-2.34-8.405-3.089a125.62 125.62 0 0 1-2.013-.58zm-101.375 0h11.503c.557 4.8 1.771 8.463 3.081 12.416.92 2.776 1.888 5.696 2.709 9.253.741 3.211 1.206 5.906 1.65 8.479.685 3.977 1.321 7.664 2.85 12.521 2.679 8.511 9 21 9 21l9 18s3.991 7.425 6.788 15.048h-33.53l-1.758-10.548-4.5-19.5s-2.2-10.229-4.5-16.5c-2.201-6-2.634-7.7-2.201-11.819.796-7.557.559-13.003.295-19.093-.143-3.3-.295-6.79-.295-10.907 0-1.217-.024-2.462-.048-3.712-.029-1.552-.059-3.113-.044-4.638zM591.604 881.018c1-7.907 1.41-15.411-1.923-24.699-3.733-10.403-7.072-16.298-15-24-8.652-8.405-15.539-11.238-27-15-9.067-2.975-16.948.493-24.625 3.872-8.345 3.674-16.449 7.241-25.576 2.309-9.117-4.927-20.299-24.181-20.299-24.181s-12.513-6.94-17.232-15.018h493.113c-.819 1.004-1.627 1.837-2.424 2.657-1.353 1.395-2.673 2.755-3.957 4.861-1.364 2.237-3 6-3 6s-1.592 2.926-3 4.5c-1.953 2.183-6 4.5-6 4.5s-3.425 2.517-6 3c-1.12.21-1.941.148-2.859.078a20.557 20.557 0 0 0-1.641-.078c-.823 0-1.52.017-2.179.033-1.216.029-2.304.055-3.821-.033-5.647-.325-9.697-2.888-13.672-5.404-4.362-2.76-8.634-5.464-14.828-5.096-10.212.608-28.5 6-24 10.5 3.486 3.486 3.371 4.272 3.143 5.843-.067.457-.143.981-.143 1.657 0 1.102-1.253 3.521-2.898 6.697-2.834 5.47-6.831 13.188-7.602 20.303-.253 2.339-.129 4.18-.004 6.022.124 1.828.249 3.658.004 5.978-.655 6.213-3.122 10.496-5.628 14.848-1.743 3.026-3.506 6.086-4.69 9.851H591.604zM530.079 1171.17c.109-1.18.263-2.36.422-3.57.331-2.52.68-5.19.68-8.28v-27c0-4.12-.251-7.62-.489-10.93-.439-6.12-.832-11.59.489-19.07 1.601-9.07 6.825-20.12 10.971-27.87H888.22c.926 3.24 1.461 5.37 1.461 5.37 2.105 5.54 4.429 9.96 6.645 14.16 3.476 6.6 6.683 12.69 8.355 21.84 1.503 8.22 1.056 14.24.557 20.97-.271 3.64-.557 7.5-.557 12.03 0 4.53.587 8.47 1.141 12.2.516 3.47 1.005 6.75.968 10.15H530.079z" fill="#fff"/><path fill-rule="evenodd" clip-rule="evenodd" d="M548.958 590.867c-.634 2.304-1.306 4.525-1.967 6.714-2.889 9.556-5.585 18.474-4.085 30.738 1.146 9.374 3.419 15.296 6.301 22.805l.001.001c.85 2.217 1.754 4.571 2.698 7.194 2.035 5.656 4.665 10.2 7.165 14.519 3.61 6.236 6.949 12.005 7.835 19.981 1.5 13.5-31.5-18-31.5-18l-27-24s-12.815-12.986-19.5-22.5c-6.935-9.869-10.108-15.974-15-27l-.781-1.758h-.001c-1.427-3.209-2.659-5.979-3.745-8.694h-29.393c3.335 13.812 8.064 32.811 9.92 37.452 3 7.5-16.113-15.303-24-27-2.648-3.926-4.742-7.197-6.581-10.452h-26.339c2.669 10.238 5.92 19.452 5.92 19.452 0-2.054.664-.751 2.586 3.023 2.288 4.492 6.358 12.484 13.213 22.477l.175.255c13.327 19.429 13.561 19.769 21.526 25.245 8 5.5 37.385 24.226 52.5 31.5 8.443 4.063 14.228 9.243 20.267 14.651 4.092 3.664 8.301 7.433 13.532 11.03 4.241 2.915 7.259 4.37 9.792 5.591 4.412 2.127 7.351 3.544 12.708 10.728l.319.427 1.031 1.382v.001l.002.002c8.881 11.901 27.464 36.803 20.349 29.688-7.5-7.5-42-19.5-42-19.5S509.542 734.305 495.705 729c-6.236-2.391-10.212-3.538-14.526-4.783-5.176-1.493-10.838-3.126-21.474-7.217-2.699-1.038-6.233-2.684-10.152-4.509-12.578-5.857-29.129-13.566-34.848-8.991-4.751 3.801.213 11.681 4.996 19.275 2.767 4.392 5.474 8.689 6.205 12.044 1.028 4.717.505 8.014-.017 11.304-.527 3.317-1.052 6.627.017 11.377 1.581 7.027 4.225 12.386 7.117 18.249 1.107 2.242 2.249 4.559 3.383 7.07 3.923 8.692 18 16.5 18 16.5s11.182 19.254 20.299 24.181c3.254 1.758 6.379 2.436 9.43 2.414-2.961-.021-5.992-.71-9.145-2.414-9.117-4.927-20.299-24.181-20.299-24.181s-12.513-6.94-17.232-15.018h492.828c.371-.454.744-.943 1.119-1.482 1.355-1.946 2.184-3.606 3.014-5.268.823-1.649 1.647-3.299 2.986-5.232 1.203-1.737 2.238-2.947 3.316-4.208.836-.977 1.697-1.985 2.684-3.292 5.409-7.166 8.5-13.036 11.814-19.328v-.001c2.211-4.198 4.522-8.585 7.686-13.671 1.915-3.078 3.777-5.517 5.545-7.833 2.986-3.912 5.704-7.472 7.955-13.167 1.932-4.888 2.63-10.752 3.179-15.37.387-3.254.701-5.89 1.321-7.13 1.295-2.591-4.483-1.317-8.67-.394h-.001c-.661.146-1.282.283-1.829.394-4.796.978-7.383 3.862-10.099 6.889-2.16 2.408-4.402 4.907-7.901 6.611-8.809 4.29-14.8 4.904-24.23 5.87l-1.27.13c-3.734.385-6.76.105-9.717-.17-3.504-.325-6.91-.641-11.283.17-4.193.778-6.543 1.411-10.5 3-7.84 3.148-18 12-18 12s-3.84 3.487-6 6c-1.239 1.441-2.024 2.551-2.903 3.793-.476.672-.98 1.384-1.597 2.207-1.235 1.647-2.287 3.034-3.282 4.346-1.835 2.422-3.477 4.587-5.718 7.654-1.063 1.455-1.942 3.405-2.769 5.24-1.485 3.296-2.804 6.224-4.731 5.26-1.434-.717-2.581-1.085-3.688-1.441-1.209-.389-2.371-.763-3.812-1.559a33.05 33.05 0 0 0-1.249-.648c-1.231-.616-2.229-1.116-3.251-2.352-2.802-3.385-1.61-7.049-.269-11.17l.102-.314.167-.516c1.717-5.346 5.592-7.352 9.978-9.622 2.116-1.096 4.352-2.253 6.522-3.878 4.852-3.633 8.689-6.053 12.718-8.595 2.99-1.886 6.086-3.84 9.782-6.405 11.308-7.849 18.311-13.181 27.854-20.447l.003-.002.001-.001.006-.005c2.069-1.575 4.258-3.242 6.636-5.045 3.408-2.584 6.121-4.702 8.761-6.763l.013-.01.001-.001c3.284-2.564 6.459-5.043 10.725-8.226 2.593-1.935 4.781-3.45 6.879-4.903l.001-.001c3.068-2.125 5.944-4.117 9.62-7.096 3.155-2.557 5.429-4.731 7.723-6.924 2.157-2.063 4.333-4.143 7.277-6.576 3.766-3.112 6.772-5.26 9.887-7.487l.001-.001c2.487-1.777 5.043-3.605 8.112-6.012 4.932-3.869 8.156-6.555 12.185-9.913 1.322-1.101 2.731-2.275 4.315-3.587 1.221-1.011 2.33-1.796 3.374-2.538 1.98-1.399 3.74-2.645 5.63-4.962 2.99-3.672 4.01-6.491 5.5-10.638v-.001c.16-.438.32-.891.5-1.361 1.03-2.841 1.47-4.995 1.95-7.357l.02-.095h-32.428a68.395 68.395 0 0 1-1.046 1.452c-2.73 3.672-7.5 9-7.5 9s-4.733 7.19-9 10.5c-4.14 3.212-15 9-12 6s8.019-9.598 12-16.5c2.298-3.984 3.774-7.225 5.1-10.573l-.048.121h-40.705l-7.847 13.452s-6.038 15.383-12 24c-5.897 8.522-18 19.5-18 19.5l-16.5 15s-34.5 33-34.5 25.5v-6s6.258-5.293 9-12c1.244-3.043 2.298-6.88 3.335-10.659.866-3.153 1.72-6.265 2.665-8.841 1.43-3.9 1.852-7.418 2.303-11.181.198-1.648.401-3.343.697-5.138 2.39-14.496 2.933-21.785 0-36.181-.474-2.325-1.276-4.9-2.212-7.452h-33.53l1.242 7.452s2.52 18.559 0 30c-1.755 7.968-7.5 19.5-7.5 19.5l-6 13.5s-4.962 8.618-9 13.5l-.078.094c-3.648 4.411-5.784 6.993-10.422 10.406-5.275 3.882-8.59 6.159-15 7.5-3.347.701-5.814.493-8.572.26h-.001c-1.495-.126-3.075-.26-4.927-.26-2.264 0-4.205-.201-6.04-.392h-.001c-3.387-.352-6.416-.667-10.459.392-.455.119-.885.226-1.297.329-2.352.584-4.089 1.016-6.203 2.671-1.144.896-1.686 1.943-2.226 2.988-.55 1.061-1.098 2.12-2.274 3.012-5.134 3.895-11.367 3.895-16.5 0-1.177-.893-1.725-1.951-2.275-3.013-.541-1.044-1.083-2.091-2.225-2.987-1.845-1.447-27.279-.594-39.548-.183-3.061.103-5.301.178-6.153.183-30 .181-35.299-3-35.299-3s-7.097-6.661-12-10.5c-1.842-1.442-3.4-2.469-4.929-3.477-1.765-1.163-3.491-2.301-5.571-4.023-5.105-4.226-7.68-6.974-12-12-2.769-3.221-3.283-5.159-4.063-8.1-.295-1.114-.629-2.373-1.138-3.9-1.852-5.557-3.274-10.591-4.5-16.319-.379-1.773-.744-3.04-1.067-4.162-.72-2.504-1.232-4.284-1.232-9.338v-30.133h-35.948zm-24.052 226.452a22.338 22.338 0 0 0-6.886-1.129 22.345 22.345 0 0 1 7.171 1.129c11.461 3.762 18.348 6.595 27 15 7.928 7.702 11.267 13.597 15 24 3.333 9.288 2.923 16.792 1.923 24.699h255.973a30.275 30.275 0 0 0-.931 3.801 161.476 161.476 0 0 1-.843 4.362c-.415 2.027-.633 3.092-.546 4.132.095 1.151.563 2.271 1.549 4.63l.001.002c.382.914.842 2.014 1.388 3.374 1.533 3.818 3.564 9.241 5.522 14.471l.002.004.001.004.001.003.001.003c1.526 4.074 3.007 8.03 4.174 11.015 2.351 6.016 1.652 10.766.871 16.079-.424 2.878-.871 5.922-.871 9.421v22.5s-.039 37.821 10.5 58.501c1.756 3.45 3.524 5.9 5.298 8.35 1.729 2.4 3.464 4.8 5.202 8.15 3.808 7.33 7.197 18.19 9.039 24.63H519.662c-4.146 7.75-9.37 18.8-10.971 27.87-1.321 7.48-.929 12.95-.489 19.07.237 3.31.489 6.81.489 10.93v27c0 3.09-.35 5.76-.68 8.28a93.38 93.38 0 0 0-.422 3.57h376.425c-.036 3.34-.581 6.8-2.108 10.65-1.777 4.48-4.641 7.13-7.509 9.79-2.846 2.63-5.695 5.27-7.491 9.71-5.057 12.49-4.5 24 0 34.5 4.414 10.3-13.206-5.16-20.582-11.63h-.001l-.001-.01-.416-.36c-.898-.79-1.617-1.38-2.235-1.9-2.604-2.15-3.416-2.83-8.265-10.1-6-9 9 36 9 36s1.231 1.76-.831 4.72a68.034 68.034 0 0 0-2.391 3.64c-5.707 11.53-14.35 17.18-16.736 13.94-.685-.92-.855-2.59-.292-5.05-1.79-1.89-3.151-3.26-4.208-4.33-1.834-1.85-2.752-2.77-3.402-3.85-.651-1.09-1.036-2.33-1.804-4.82-.443-1.44-1.014-3.28-1.836-5.75-4.5-13.5-3 30 0 46.5s-19.5-9-19.5-9-4.5 0 0 9c2.25 4.5-4.5 0-11.25-4.5s-13.5-9-11.25-4.5c4.5 9 3.739 17.14 0 27-3.969 10.46-13.5 31.5-19.5 21-4.402-7.7-7.997-12.18-11.377-16.39h-.006c-1.225-1.53-2.421-3.02-3.617-4.61-1.758-2.34-1.235.31-.299 5.05 1.46 7.4 3.925 19.89.299 26.45-5.502 9.95-21 33-24 16.5s-9-46.5-24-37.5c-9.331 5.6-10.536 7.71-11.197 8.87-.401.71-.602 1.06-2.303 1.63-2.096.7-4.192-9.67-6.288-20.03-2.404-11.89-4.808-23.78-7.212-18.97-3.138 6.27-8.463 10.36-12.925 13.79-1.938 1.48-3.713 2.85-5.075 4.21-1.843 1.84-2.887-2.09-4.32-7.48-2.067-7.78-4.941-18.6-12.18-19.52-4.654-.59-8.325 2.29-11.706 4.95-2.665 2.1-5.15 4.05-7.794 4.05-2.413 0-2.885-4.49-3.465-10-.863-8.2-1.964-18.66-10.035-20-1.82-.3-3.368-.51-4.782-.7-3.524-.47-6.217-.83-10.218-2.3-10.656-3.92-15.691-10.15-22.046-18.01-1.541-1.9-3.159-3.9-4.954-5.99-3.642-4.24-5.87-8.04-8.087-11.83-2.296-3.93-4.581-7.83-8.413-12.17-2.116-2.4-3.883-4.06-5.707-5.77h-.001l-.001-.01c-1.485-1.39-3.009-2.83-4.791-4.72-2.074-2.21-4.113-4-6.037-5.69-4.415-3.88-8.225-7.23-10.463-13.81-1.836-5.4-1.29-9.56-.68-14.22.33-2.52.68-5.19.68-8.28v-27c0-4.12-.252-7.62-.49-10.93-.439-6.12-.831-11.59.49-19.07 2.782-15.76 16.5-37.5 16.5-37.5l18-31.5s13.226-22.79 16.5-39.001c1.654-8.191.88-14.746.101-21.341-.75-6.35-1.505-12.737-.101-20.659.868-4.898 2.294-8.597 3.703-12.253 1.531-3.973 3.042-7.894 3.797-13.247.901-6.395.634-11.032.334-16.219-.162-2.81-.334-5.781-.334-9.281 0-6.175.733-11.525 1.426-16.585 1.28-9.338 2.424-17.687-1.426-28.415-3.733-10.403-7.072-16.298-15-24-8.652-8.405-15.539-11.238-27-15zm356.828-12.904c-4.057-2.568-8.037-5.086-13.558-5.129 5.67-.044 9.716 2.517 13.843 5.129 3.975 2.516 8.025 5.079 13.672 5.404.722.042 1.346.058 1.934.06a35.28 35.28 0 0 1-2.219-.06c-5.647-.325-9.697-2.888-13.672-5.404zm21.313 5.482c-.473-.036-.971-.074-1.548-.077l.117-.001h.075c.617 0 1.143.04 1.641.078.398.03.777.059 1.171.065-.498.008-.963-.027-1.456-.065zM566.279 494.15c-.454-.57-.908-1.144-1.357-1.712-2.137-2.703-4.165-5.267-5.516-6.619-3-3-7.043.383-7.5 4.5-.065.582 0 1.5 0 1.5s.055.825.143 2.331h14.23zm242.878 4.636a166.944 166.944 0 0 1-.046-4.461l.002-.175h11.503c.476 4.107 1.434 7.381 2.521 10.717l.339 1.033.085.257.136.409v.002c.92 2.775 1.888 5.694 2.709 9.251.648 2.81 1.085 5.224 1.481 7.508l.162.933.006.037v.001l-18.898-25.512zm101.33-4.636h79.437c1.275-18.186.722-34.216-3.018-56.331-.317-1.87-.456-3.53-.588-5.095-.284-3.364-.53-6.288-2.412-9.905-1.056-2.028-2.403-3.263-3.749-4.498-1.348-1.235-2.696-2.471-3.751-4.502m-65.919 80.331c-1.896-.567-3.864-1.244-6.081-2.331l6.081 2.331zm-6.081-2.331c-7.586-3.719-18-12-18-12l18 12zm-18-12l-12-10.5 12 10.5zm-12-10.5l-9-10.5 9 10.5zm-9-10.5l-16.5-16.5 16.5 16.5zm-16.5-16.5s-6.565-4.667-9-9l9 9zm-9-9c-2.09-3.717-3-10.5-3-10.5l3 10.5zm-3-10.5s-1.5-9 0-12v12zm0-12c1.5-3 3.03-4.904 5.299-4.319l-5.299 4.319zm5.299-4.319c3.312.855 4.677 4.839 6.049 8.845l-6.049-8.845zm6.049 8.845c.977 2.855 1.959 5.721 3.652 7.474l-3.652-7.474zm3.652 7.474c3.457 3.581 6.248 5.49 9.689 7.845l-9.689-7.845zm9.689 7.845h.001-.001zm.001 0zm0 0c1.176.805 2.429 1.662 3.81 2.655l-3.81-2.655zm3.81 2.655c2.07 1.489 3.914 2.534 5.678 3.534l-5.678-3.534zm5.678 3.534c2.62 1.484 5.066 2.87 7.822 5.466l-7.822-5.466zm7.822 5.466c1.736 1.636 2.822 3.133 3.921 4.65l-3.921-4.65zm3.921 4.65zm0 0c1.009 1.393 2.031 2.802 3.579 4.35l-3.579-4.35zm3.579 4.35c1.274 1.274 2.708 2.01 4.07 2.709l-4.07-2.709zm4.07 2.709c2.096 1.076 4.021 2.064 4.93 4.791l-4.93-4.791zm4.93 4.791c1.5 4.5 6.799-1.319 5.299-5.819l-5.299 5.819zm5.299-5.819c-.766-2.3-.843-2.751-.886-3.01l.886 3.01zm-.886-3.01c-.042-.248-.055-.322-.614-1.671l.614 1.671zm-.614-1.671c-.721-1.741-1.097-3.161-1.453-4.504l1.453 4.504zm-1.453-4.504c-.509-1.918-.976-3.68-2.346-5.996l2.346 5.996zm-2.346-5.996c-2.119-3.58-2.851-6.18-3.847-9.714l3.847 9.714zm-3.847-9.714c-.202-.718-.415-1.475-.653-2.286l.653 2.286zm-.653-2.286c-1.598-5.448-2.083-8.751-2.874-14.139l2.874 14.139zm-2.874-14.139l-.126-.861.126.861zm-.126-.861c-.144-.979-.285-1.894-.418-2.764l.418 2.764zm-.418-2.764c-.739-4.815-1.267-8.259-1.082-13.736l1.082 13.736zm-1.082-13.736c.159-4.72 1.5-12 1.5-12l-1.5 12zm1.5-12s3-6 7.5 3l-7.5-3zm7.5 3c2.085 4.17 2.879 9 3.729 14.169l-3.729-14.169zm3.729 14.169zm0 0c.985 5.987 2.044 12.43 5.271 18.831l-5.271-18.831zm5.271 18.831c4.169 8.271 13.5 19.5 13.5 19.5l-13.5-19.5zm13.5 19.5l19.5 25.5-19.5-25.5zm19.5 25.5s15 15 12 6l-12-6zm12 6c-1.459-4.376-.705-8.518.068-12.767l-.068 12.767zm.068-12.767c.817-4.489 1.656-9.098-.068-14.233l.068 14.233zm-.068-14.233c-1.701-5.063-3.609-7.837-6.382-11.868l6.382 11.868zm-6.382-11.868c-.358-.52-.73-1.062-1.118-1.632l1.118 1.632zm-1.118-1.632c-5.369-7.881-16.5-18-16.5-18l16.5 18zm-16.5-18l-10.5-15 10.5 15zm-10.5-15l-19.5-22.5 19.5 22.5zm-19.5-22.5s-10.558-10.542-16.5-18l16.5 18zm-16.5-18c-5.772-7.244-13.5-19.5-13.5-19.5l13.5 19.5zm-13.5-19.5l-13.5-22.5 13.5 22.5zm-13.5-22.5l-9-18 9 18zm-9-18s-8.352-17.92-12-30l12 30zm-12-30c-3.123-10.34-6-27-6-27l6 27zm-6-27s-2.665-13.244 0-21v21zm0-21c.34-.989.75-2.497 1.199-4.148l-1.199 4.148zm1.199-4.148c1.577-5.799 3.633-13.358 4.801-6.352l-4.801 6.352zm4.801-6.352c1.5 9 31.5 58.5 31.5 58.5l-31.5-58.5zm31.5 58.5l25.5 39-25.5-39zm25.5 39l21 31.5-21-31.5zm21 31.5l28.5 33-28.5-33zm28.5 33s7.5 13.5 4.5-6l-4.5 6zm4.5-6c-1.213-7.88.227-15.887 1.698-24.065l-1.698 24.065zm1.698-24.065c2.168-12.059 4.403-24.489-1.698-37.435l1.698 37.435zm-1.698-37.435c-3.949-8.378-13.5-19.5-13.5-19.5l13.5 19.5zm-13.5-19.5s-5.303-7.883-7.5-13.5l7.5 13.5zm-7.5-13.5c-.741-1.892-1.116-3.684-1.468-5.366l1.468 5.366zm-1.468-5.366c-.388-1.848-.747-3.563-1.532-5.134l1.532 5.134zm-1.532-5.134c-1.165-2.33 2.272-1.387 5.211-.58l-5.211.58zm5.211-.58c.844.232 1.648.452 2.289.58l-2.289-.58zm2.289.58c5.536 1.108 8.204 4.265 11.564 8.243l-11.564-8.243zm11.564 8.243c.615.727 1.253 1.482 1.936 2.257l-1.936-2.257zm1.936 2.257c6.062 6.879 17.299 18.181 17.299 18.181l-17.299-18.181zm17.299 18.181s4.771 13.929 8.201 21l-8.201-21zm8.201 21c3.199 6.598 3.498 10.472 3.933 16.134l-3.933-16.134zm3.933 16.134l.001.001-.001-.001zm.001.001v.001-.001zm0 .001c.14 1.825.295 3.836.566 6.183l-.566-6.183zm.566 6.183c.261 2.265.183 3.899.097 5.727l-.097-5.727zm.097 5.727c-.047.991-.097 2.038-.097 3.273l.097-3.273zm-.097 3.273c0 8.026-.185 17.263-.36 25.999l.36-25.999zm-.36 25.999l-.001.004.001-.004zm-.001.004v.004-.004zm0 .004c-.323 16.127-.612 30.547.361 32.493l-.361-32.493zm.361 32.493c.796 1.592 1.622 2.458 2.43 3.305l-2.43-3.305zm2.43 3.305c.715.75 1.416 1.485 2.07 2.695l-2.07-2.695zm2.07 2.695c1.025 1.898 1.277 3.594 1.531 5.296l-1.531-5.296zm39.144 90.831h15.01c.69-22.815 0-41.695-1.65-45.831-3-7.5-6 0-6 3s-4.5 15-4.5 15-2.34 8.141-3 13.5c-.46 3.702-.27 6.571-.08 9.495.1 1.552.21 3.12.22 4.836zm-612.488 0c-.328-.95-.71-1.735-1.156-2.331-.827-1.103-1.654-.077-2.453 2.331h3.609zm12.344-2.331l.699 2.331h71.2c4.792-4.799 9.101-8.331 9.101-8.331s22.15-8.459 31.5-19.5c2.706-3.196 3.902-3.547 5.2-3.928 1.224-.36 2.54-.746 5.3-3.572 3.204-3.279 6.742-8.078 10.118-12.658 2.248-3.049 4.424-6 6.382-8.342 3.501-4.185 4.436-8.061 5.499-12.465.527-2.181 1.085-4.492 2.001-7.035.94-2.609 1.856-4.867 2.717-6.991 2.014-4.967 3.732-9.204 4.783-15.509 1.5-9-24 22.5-24 22.5s-4.619 13.013-12.701 19.5c-3.422 2.747-7.942 4.513-12.413 6.26-3.311 1.294-6.595 2.577-9.386 4.24-1.385.825-3.223 2.486-4.983 4.076-3.397 3.068-6.505 5.876-5.517 1.924.558-2.231-.752-6.122-2.308-10.747-2.628-7.811-5.961-17.715-2.192-25.253 3.653-7.305 6.34-10.738 9.148-14.324 1.805-2.306 3.659-4.674 5.852-8.176 3.777-6.031 7.508-12.736 10.595-18.285 2.492-4.479 4.565-8.205 5.905-10.215 3-4.5-31.5 19.681-31.5 19.681s-9.589 12.141-13.5 23.819c-3.43 10.242-6 27-6 27v28.5c0 11.13-19.5 33-19.5 25.5 0-2.105.102-4.835.22-7.995.303-8.095.711-19.013-.22-29.505-.489-5.509-1.366-9.771-2.238-14.011-.905-4.397-1.805-8.77-2.262-14.489-.622-7.768 2.72-17.333 5.825-26.223 1.563-4.475 3.067-8.779 3.974-12.596 1.094-4.598 1.437-6.871 1.689-8.537.418-2.768.583-3.859 3.512-11.144 2.393-5.951 7.21-12.38 12.026-18.807 4.79-6.391 9.577-12.78 11.974-18.693 3.247-8.011 4.21-13.236 5.245-18.857.818-4.443 1.681-9.133 3.755-15.643 2.296-7.207 1.639-10.773.851-15.049-.566-3.076-1.2-6.52-.851-11.951.445-6.926-1.216-16.112-2.645-24.008-.983-5.432-1.855-10.254-1.855-13.311 0-7.5-13.5 7.319-13.5 7.319l-6 43.5s-2.201 39.181-19.5 54c-7.382 6.324-10.989 15.267-13.979 22.68-1.369 3.393-2.608 6.466-4.021 8.82-4.5 7.5-9.421 24.923-10.5 36-.787 8.078.396 18.781 1.257 26.561.932 8.425 1.484 13.421-1.257 7.939l-13.5-27c-5.272-10.544-7.401-26.819-5.201-43.5.327-2.478.608-4.759.875-6.919v-.001c1.043-8.469 1.86-15.094 4.326-24.58 1.451-5.583 4.169-9.381 6.879-13.168 2.582-3.609 5.157-7.208 6.621-12.332 3-10.5-19.681 12.979-27 25.5-6.456 11.046-9 31.5-9 31.5s-.935 17.41 0 28.5c1.409 16.715 9 42 9 42l13.5 54z" fill="#fff"/><path fill-rule="evenodd" clip-rule="evenodd" d="M552.334 494.15c.61 10.386 2.829 53.176-.143 81.669-.583 5.586-1.691 10.477-2.949 15.048h35.949v-25.548l-3-21s-1.47-9.68-2.201-16.319c-.166-1.505-.235-2.733-.3-3.885-.136-2.413-.254-4.496-1.2-8.115a96.9 96.9 0 0 1-.759-3.199c-.988-4.387-1.98-8.788-5.241-11.801-1.577-1.458-3.747-4.109-5.926-6.85h-14.23zm-67.744 0c-3.797 3.803-7.897 8.401-10.399 12.669-6.186 10.552-9 30-9 30s-3.036 24.075 0 39c1.237 6.082 2.649 10.489 4.473 15.048h-29.393c-2.054-8.508-3.58-15.048-3.58-15.048l-10.5-39-12.801-42.669h71.2zm-84.243 0c1.516 4.389 1.901 12.305 2.341 21.362.425 8.754.903 18.574 2.503 27.307a418.552 418.552 0 0 1 1.453 8.542c1.364 8.386 2.45 15.066 6.047 24.458 2.336 6.101 4.384 10.559 6.919 15.048h-26.339c-1.329-5.099-2.514-10.453-3.08-15.048-.526-4.263-.701-9.351-.701-14.24 0-9.778.701-18.76.701-18.76s2.998-37.972 6.547-48.669h3.609zm627.503 0c-.57 18.559-2.04 39.721-4.66 57.669-1.03 7.052-3 18-3 18s-2.82 10.035-4.5 16.5a85.374 85.374 0 0 0-1.02 4.548h-32.433c2.338-3.331 4.954-7.548 4.954-7.548l4.5-7.5s4.037-6.204 6-10.5c2.024-4.431 2.819-7.351 3.979-11.613.17-.6.34-1.226.52-1.887 1.44-5.206 3-13.5 3-13.5l4.5-22.5s2.42-10.897 3-18a39.6 39.6 0 0 0 .14-3.669h15.02zm-117.078 0h79.437c-.623 8.888-1.682 18.29-3.018 29.169l-.336 2.743c-1.456 11.927-2.375 19.462-5.664 31.757-2.394 8.948-4.202 13.845-7.5 22.5-.682 1.789-1.28 3.421-1.843 4.957-.725 1.979-1.393 3.799-2.105 5.591h-40.705l2.653-4.548 7.5-12 6-13.5s2.418-7.204 3-12c.365-3.017.257-5.197.135-7.635-.066-1.321-.135-2.718-.135-4.365 0-2.058.175-3.821.341-5.487.306-3.077.58-5.827-.341-9.513-.12-.477-.233-.943-.343-1.397-1.065-4.385-1.877-7.731-5.657-10.603-1.478-1.123-2.83-1.488-4.271-1.878-1.008-.273-2.06-.558-3.229-1.122-2.935-1.415-4.929-2.991-6.941-4.58-1.902-1.502-3.819-3.017-6.559-4.42-3.121-1.597-5.754-2.34-8.405-3.089-.668-.188-1.336-.377-2.014-.58zm-101.374 0h11.503c.557 4.8 1.771 8.463 3.081 12.416.92 2.776 1.888 5.696 2.709 9.253.741 3.211 1.206 5.906 1.649 8.479.686 3.977 1.322 7.664 2.851 12.521 2.679 8.511 9 21 9 21l9 18s3.991 7.425 6.788 15.048h-33.53l-1.758-10.548-4.5-19.5s-2.2-10.229-4.5-16.5c-2.201-6-2.634-7.7-2.201-11.819.796-7.557.559-13.003.295-19.093-.143-3.3-.295-6.79-.295-10.907 0-1.217-.024-2.462-.048-3.712-.03-1.552-.06-3.113-.044-4.638zM569.113 881.018c1.001-7.907 1.411-15.411-1.922-24.699-3.733-10.403-7.072-16.298-15-24-8.652-8.405-15.539-11.238-27-15-9.067-2.975-16.948.493-24.625 3.872-8.345 3.674-16.449 7.241-25.576 2.309-9.117-4.927-20.299-24.181-20.299-24.181s-12.513-6.94-17.232-15.018h493.113c-.819 1.004-1.627 1.837-2.424 2.657-1.353 1.395-2.673 2.755-3.957 4.861-1.364 2.237-3 6-3 6s-1.592 2.926-3 4.5c-1.953 2.183-6 4.5-6 4.5s-3.425 2.517-6 3c-1.121.21-1.941.148-2.859.078a20.58 20.58 0 0 0-1.641-.078c-.824 0-1.52.017-2.179.033-1.217.029-2.304.055-3.821-.033-5.647-.325-9.697-2.888-13.673-5.404-4.361-2.76-8.633-5.464-14.827-5.096-10.212.608-28.5 6-24 10.5 3.485 3.486 3.371 4.272 3.142 5.843-.066.457-.142.981-.142 1.657 0 1.102-1.253 3.521-2.898 6.697-2.834 5.47-6.832 13.188-7.602 20.303-.254 2.339-.129 4.18-.004 6.022.124 1.828.248 3.658.004 5.978-.655 6.213-3.122 10.496-5.628 14.848-1.744 3.026-3.506 6.086-4.691 9.851H569.113zM507.589 1171.17c.109-1.18.263-2.36.422-3.57.33-2.52.68-5.19.68-8.28v-27c0-4.12-.252-7.62-.49-10.93-.439-6.12-.831-11.59.49-19.07 1.601-9.07 6.825-20.12 10.971-27.87H865.73c.926 3.24 1.461 5.37 1.461 5.37 2.104 5.54 4.429 9.96 6.645 14.16 3.475 6.6 6.683 12.69 8.355 21.84 1.502 8.22 1.056 14.24.556 20.97-.27 3.64-.556 7.5-.556 12.03 0 4.53.586 8.47 1.141 12.2.516 3.47 1.005 6.75.968 10.15H507.589z" fill="#fff"/><path fill-rule="evenodd" clip-rule="evenodd" d="M526.467 590.867c-.633 2.304-1.305 4.525-1.967 6.714-2.888 9.556-5.584 18.474-4.084 30.738 1.146 9.374 3.419 15.296 6.301 22.805v.001c.851 2.217 1.755 4.571 2.699 7.194 2.035 5.656 4.664 10.2 7.164 14.519 3.61 6.236 6.949 12.005 7.836 19.981 1.5 13.5-31.5-18-31.5-18l-27-24s-12.816-12.986-19.5-22.5c-6.935-9.869-10.108-15.974-15-27l-.782-1.758c-1.428-3.209-2.659-5.979-3.745-8.694h-29.393c3.335 13.812 8.063 32.811 9.92 37.452 3 7.5-16.113-15.303-24-27-2.648-3.926-4.743-7.197-6.581-10.452h-26.339c2.669 10.238 5.92 19.452 5.92 19.452 0-2.054.664-.751 2.586 3.023 2.287 4.492 6.358 12.484 13.213 22.477l.174.255h.001c13.327 19.429 13.56 19.769 21.526 25.245 8 5.5 37.385 24.226 52.5 31.5 8.442 4.063 14.227 9.243 20.266 14.651 4.093 3.664 8.301 7.433 13.533 11.03 4.24 2.915 7.259 4.37 9.792 5.591 4.411 2.127 7.351 3.544 12.708 10.728l.318.427 1.031 1.382.001.001.002.002c8.881 11.901 27.463 36.803 20.349 29.688-7.5-7.5-42-19.5-42-19.5S487.052 734.305 473.215 729c-6.236-2.391-10.212-3.538-14.526-4.783-5.176-1.493-10.839-3.126-21.474-7.217-2.7-1.038-6.233-2.684-10.152-4.509-12.578-5.857-29.13-13.566-34.848-8.991-4.752 3.801.212 11.681 4.996 19.275 2.767 4.392 5.473 8.689 6.205 12.044 1.027 4.717.504 8.014-.018 11.304-.526 3.317-1.051 6.627.018 11.377 1.58 7.027 4.224 12.386 7.117 18.249 1.106 2.242 2.249 4.559 3.383 7.07 3.922 8.692 18 16.5 18 16.5s11.181 19.254 20.299 24.181c3.254 1.758 6.378 2.436 9.43 2.414-2.961-.021-5.992-.71-9.145-2.414-9.118-4.927-20.299-24.181-20.299-24.181s-12.513-6.94-17.232-15.018h492.828c.37-.454.743-.943 1.118-1.482 1.356-1.946 2.185-3.606 3.015-5.268.822-1.649 1.646-3.299 2.985-5.232 1.204-1.737 2.239-2.947 3.317-4.208.835-.977 1.697-1.985 2.683-3.292 5.409-7.166 8.501-13.036 11.815-19.328v-.001c2.211-4.198 4.521-8.585 7.685-13.671 1.916-3.078 3.778-5.517 5.546-7.833 2.986-3.912 5.704-7.472 7.954-13.167 1.933-4.888 2.63-10.752 3.18-15.37v-.001c.387-3.254.7-5.889 1.32-7.129 1.296-2.591-4.482-1.317-8.67-.394h-.001c-.66.146-1.281.283-1.829.394-4.795.978-7.382 3.862-10.098 6.889-2.16 2.408-4.402 4.907-7.902 6.611-8.808 4.29-14.8 4.904-24.23 5.87l-1.27.13c-3.733.385-6.759.105-9.716-.17-3.504-.325-6.911-.641-11.284.17-4.193.778-6.542 1.411-10.499 3-7.84 3.148-18 12-18 12s-3.84 3.487-6 6c-1.239 1.441-2.025 2.551-2.903 3.793-.476.672-.98 1.384-1.597 2.207a1030.412 1030.412 0 0 1-3.282 4.346 492.433 492.433 0 0 0-5.718 7.654c-1.064 1.455-1.942 3.405-2.769 5.24-1.485 3.296-2.804 6.224-4.731 5.26-1.435-.717-2.581-1.085-3.688-1.441h-.001c-1.208-.389-2.371-.763-3.811-1.559a33.83 33.83 0 0 0-1.249-.648c-1.231-.616-2.229-1.116-3.251-2.352-2.802-3.385-1.61-7.049-.269-11.17l.102-.314.167-.516c1.717-5.346 5.592-7.352 9.977-9.622 2.117-1.096 4.353-2.253 6.523-3.878 4.852-3.633 8.689-6.053 12.718-8.595 2.99-1.886 6.086-3.84 9.782-6.405 11.308-7.849 18.311-13.181 27.854-20.447l.003-.002.001-.001.006-.005c2.069-1.575 4.257-3.242 6.635-5.045 3.409-2.584 6.121-4.702 8.761-6.763l.013-.01.002-.001c3.284-2.564 6.458-5.043 10.724-8.226 2.594-1.935 4.782-3.45 6.88-4.903l.001-.001c3.068-2.125 5.944-4.117 9.619-7.096 3.156-2.557 5.429-4.731 7.724-6.924 2.157-2.063 4.332-4.143 7.276-6.576 3.767-3.112 6.772-5.26 9.887-7.487h.001l.001-.001c2.487-1.777 5.043-3.605 8.111-6.012 4.933-3.869 8.156-6.555 12.186-9.913 1.322-1.101 2.73-2.275 4.314-3.587 1.222-1.011 2.33-1.796 3.378-2.538 1.975-1.399 3.733-2.645 5.622-4.962 2.995-3.672 4.012-6.491 5.507-10.638l.001-.001c.158-.438.321-.891.492-1.361 1.037-2.841 1.476-4.995 1.957-7.357l.019-.095h-32.43c-.358.511-.71 1.001-1.046 1.452-2.729 3.672-7.5 9-7.5 9s-4.733 7.19-9 10.5c-4.139 3.212-15 9-12 6s8.019-9.598 12-16.5c2.298-3.984 3.775-7.225 5.101-10.573l-.048.121h-40.706l-7.847 13.452s-6.037 15.383-12 24c-5.897 8.522-17.999 19.5-17.999 19.5l-16.5 15s-34.5 33-34.5 25.5v-6s6.258-5.293 9-12c1.244-3.043 2.297-6.88 3.335-10.659.866-3.153 1.72-6.265 2.665-8.841 1.43-3.9 1.852-7.418 2.303-11.181.197-1.648.401-3.343.697-5.138 2.39-14.496 2.933-21.785 0-36.181-.474-2.325-1.277-4.9-2.213-7.452h-33.529l1.242 7.452s2.52 18.559 0 30c-1.756 7.968-7.5 19.5-7.5 19.5l-6 13.5s-4.962 8.618-9 13.5l-.078.094c-3.649 4.411-5.785 6.993-10.422 10.406-5.276 3.882-8.59 6.159-15 7.5-3.347.701-5.814.493-8.573.26-1.495-.126-3.075-.26-4.927-.26-2.265 0-4.205-.201-6.041-.392-3.388-.352-6.417-.667-10.459.392-.455.119-.886.226-1.297.329-2.352.584-4.09 1.016-6.203 2.671-1.144.896-1.686 1.943-2.227 2.988-.549 1.061-1.097 2.12-2.273 3.012-5.134 3.895-11.367 3.895-16.5 0-1.177-.893-1.726-1.951-2.275-3.013-.541-1.044-1.083-2.091-2.225-2.987-1.845-1.447-27.279-.594-39.548-.183h-.001c-3.06.103-5.301.178-6.152.183-30 .181-35.299-3-35.299-3s-7.098-6.661-12-10.5c-1.842-1.442-3.4-2.469-4.929-3.477-1.765-1.163-3.492-2.301-5.571-4.023-5.105-4.226-7.68-6.974-12-12-2.77-3.221-3.283-5.159-4.063-8.1-.295-1.114-.629-2.373-1.138-3.9-1.852-5.557-3.275-10.591-4.5-16.319-.379-1.773-.744-3.04-1.067-4.162-.72-2.504-1.232-4.284-1.232-9.338v-30.133h-35.949zm-24.051 226.452a22.338 22.338 0 0 0-6.886-1.129 22.35 22.35 0 0 1 7.171 1.129c11.46 3.762 18.348 6.595 27 15 7.927 7.702 11.266 13.597 15 24 3.332 9.288 2.923 16.792 1.922 24.699h255.974a30.275 30.275 0 0 0-.931 3.801c-.329 1.847-.616 3.249-.843 4.362-.415 2.027-.633 3.092-.547 4.132.096 1.151.564 2.271 1.55 4.63.382.915.843 2.015 1.389 3.376 1.533 3.818 3.563 9.241 5.522 14.471l.001.004.002.004.001.003.001.003c1.526 4.074 3.007 8.03 4.174 11.015 2.351 6.016 1.652 10.766.871 16.079-.424 2.878-.871 5.922-.871 9.421v22.5s-.04 37.821 10.5 58.501c1.756 3.45 3.524 5.9 5.298 8.35 1.729 2.4 3.464 4.8 5.202 8.15 3.808 7.33 7.197 18.19 9.038 24.63H497.171c-4.146 7.75-9.369 18.8-10.97 27.87-1.322 7.48-.929 12.95-.49 19.07.238 3.31.49 6.81.49 10.93v27c0 3.09-.35 5.76-.68 8.28a93.405 93.405 0 0 0-.423 3.57h376.426c-.036 3.34-.581 6.8-2.108 10.65-1.778 4.48-4.641 7.13-7.509 9.79-2.846 2.63-5.695 5.27-7.491 9.71-5.057 12.49-4.5 24 0 34.5 4.414 10.3-13.206-5.16-20.582-11.63h-.001l-.001-.01-.416-.36c-.898-.79-1.617-1.38-2.235-1.9-2.605-2.15-3.416-2.83-8.265-10.1-6-9 9 36 9 36s1.231 1.76-.831 4.72a67.398 67.398 0 0 0-2.391 3.64c-5.707 11.53-14.35 17.18-16.737 13.94-.684-.92-.854-2.59-.291-5.05-1.79-1.89-3.152-3.26-4.208-4.33-1.835-1.85-2.752-2.77-3.403-3.85-.651-1.09-1.035-2.33-1.804-4.82-.443-1.44-1.013-3.28-1.835-5.75-4.5-13.5-3 30 0 46.5s-19.5-9-19.5-9-4.5 0 0 9c2.25 4.5-4.5 0-11.25-4.5s-13.5-9-11.25-4.5c4.5 9 3.739 17.14 0 27-3.969 10.46-13.5 31.5-19.5 21-4.403-7.7-7.998-12.18-11.377-16.39h-.001c-1.227-1.52-2.425-3.01-3.622-4.61-1.758-2.34-1.235.31-.299 5.05 1.46 7.4 3.925 19.89.299 26.45-5.502 9.95-21 33-24 16.5s-9-46.5-24-37.5c-9.331 5.6-10.536 7.71-11.197 8.87-.402.71-.603 1.06-2.303 1.63-2.096.7-4.192-9.67-6.288-20.03-2.404-11.89-4.808-23.78-7.212-18.97-3.138 6.27-8.463 10.36-12.925 13.79-1.938 1.48-3.713 2.85-5.075 4.21-1.843 1.84-2.888-2.09-4.321-7.48-2.066-7.78-4.94-18.6-12.179-19.52-4.654-.59-8.325 2.29-11.707 4.95-2.664 2.1-5.149 4.05-7.793 4.05-2.413 0-2.885-4.49-3.466-10-.862-8.2-1.963-18.66-10.034-20-1.82-.3-3.368-.51-4.782-.7-3.525-.47-6.217-.83-10.218-2.3-10.656-3.92-15.691-10.15-22.046-18.01-1.541-1.9-3.159-3.9-4.954-5.99-3.642-4.24-5.87-8.04-8.087-11.83-2.297-3.93-4.581-7.83-8.413-12.17-2.117-2.4-3.883-4.06-5.708-5.77l-.001-.01c-1.485-1.39-3.009-2.83-4.791-4.72-2.074-2.21-4.113-4-6.037-5.69-4.416-3.88-8.225-7.23-10.463-13.81-1.836-5.4-1.29-9.56-.68-14.22.33-2.52.68-5.19.68-8.28v-27c0-4.12-.252-7.62-.49-10.93-.439-6.12-.832-11.59.49-19.07 2.782-15.76 16.5-37.5 16.5-37.5l18-31.5s13.226-22.79 16.5-39.001c1.654-8.191.88-14.746.1-21.341-.75-6.35-1.504-12.737-.1-20.659.868-4.898 2.293-8.597 3.703-12.253 1.531-3.973 3.042-7.894 3.797-13.247.901-6.395.633-11.032.334-16.219-.163-2.81-.334-5.781-.334-9.281 0-6.175.733-11.525 1.426-16.585 1.279-9.338 2.423-17.687-1.426-28.415-3.734-10.403-7.073-16.298-15-24-8.652-8.405-15.54-11.238-27-15zm356.827-12.904c-4.057-2.568-8.036-5.086-13.557-5.129 5.669-.044 9.716 2.517 13.842 5.129 3.976 2.516 8.026 5.079 13.673 5.404.721.042 1.346.058 1.933.06a35.231 35.231 0 0 1-2.218-.06c-5.647-.325-9.697-2.888-13.673-5.404zm21.313 5.482c-.472-.036-.97-.074-1.548-.077l.118-.001h.075c.617 0 1.143.04 1.64.078.398.03.778.059 1.171.065-.498.008-.963-.027-1.456-.065zM543.788 494.15a839.52 839.52 0 0 1-1.356-1.712c-2.138-2.703-4.165-5.267-5.516-6.619-3-3-7.043.383-7.5 4.5-.065.582 0 1.5 0 1.5s.054.825.143 2.331h14.229zm242.879 4.636a162.847 162.847 0 0 1-.046-4.461l.002-.175h11.503c.476 4.107 1.433 7.381 2.52 10.717l.156.474.184.559.221.666v.002c.92 2.775 1.888 5.694 2.709 9.251.648 2.81 1.085 5.224 1.481 7.508l.161.933.007.037v.001l-18.898-25.512zm101.33-4.636h79.437c1.274-18.186.722-34.216-3.019-56.331-.316-1.87-.456-3.53-.588-5.095-.283-3.364-.53-6.288-2.412-9.905-1.055-2.028-2.402-3.263-3.749-4.498-1.348-1.235-2.696-2.471-3.751-4.502-.971-1.87-1.22-3.54-1.468-5.204-.254-1.702-.507-3.398-1.532-5.296-.653-1.21-1.354-1.945-2.069-2.695-.809-.847-1.635-1.713-2.431-3.305-.972-1.946-.683-16.366-.36-32.493v-.008c.175-8.736.36-17.973.36-25.999 0-1.235.05-2.282.097-3.273.087-1.828.165-3.462-.097-5.727-.27-2.347-.425-4.358-.566-6.183v-.002c-.436-5.662-.734-9.536-3.934-16.134-3.429-7.071-8.2-21-8.2-21s-11.238-11.302-17.3-18.181c-.682-.775-1.32-1.53-1.935-2.257-3.36-3.978-6.028-7.135-11.565-8.243-.641-.128-1.444-.348-2.289-.58-2.938-.807-6.376-1.75-5.211.58.786 1.571 1.145 3.286 1.532 5.134.353 1.682.728 3.474 1.468 5.366 2.198 5.617 7.5 13.5 7.5 13.5s9.552 11.122 13.5 19.5c6.101 12.946 3.866 25.376 1.698 37.435-1.47 8.178-2.91 16.185-1.698 24.065 3 19.5-4.5 6-4.5 6l-28.5-33-20.999-31.5-25.5-39s-30-49.5-31.5-58.5c-1.168-7.006-3.224.553-4.801 6.352-.449 1.651-.86 3.159-1.199 4.148-2.665 7.756 0 21 0 21s2.877 16.66 6 27c3.648 12.08 12 30 12 30l9 18 13.5 22.5s7.728 12.256 13.5 19.5c5.942 7.458 16.5 18 16.5 18l19.499 22.5 10.5 15s11.132 10.119 16.5 18c.389.57.761 1.112 1.119 1.632 2.773 4.031 4.681 6.805 6.381 11.868 1.725 5.135.886 9.744.069 14.233-.774 4.249-1.527 8.391-.069 12.767 3 9-12-6-12-6l-19.5-25.5s-9.33-11.229-13.5-19.5c-3.226-6.401-4.286-12.844-5.27-18.831-.85-5.169-1.644-9.999-3.729-14.169-4.5-9-7.5-3-7.5-3s-1.341 7.28-1.5 12c-.185 5.477.343 8.921 1.082 13.736.133.87.273 1.785.418 2.764l.126.861c.791 5.388 1.276 8.691 2.874 14.139.237.811.451 1.568.653 2.286.995 3.534 1.728 6.134 3.847 9.714 1.37 2.316 1.837 4.078 2.345 5.996.356 1.343.733 2.763 1.454 4.504.559 1.349.571 1.423.613 1.671.044.259.12.71.887 3.01 1.5 4.5-3.799 10.319-5.299 5.819-.91-2.727-2.835-3.715-4.931-4.791-1.361-.699-2.795-1.435-4.069-2.709-1.549-1.548-2.57-2.957-3.579-4.35-1.1-1.517-2.185-3.014-3.921-4.65-2.757-2.596-5.202-3.982-7.822-5.466-1.765-1-3.608-2.045-5.678-3.534-1.381-.993-2.634-1.85-3.81-2.655h-.001c-3.442-2.355-6.232-4.264-9.689-7.845-1.693-1.753-2.675-4.619-3.653-7.474-1.372-4.006-2.736-7.99-6.048-8.845-2.269-.585-3.799 1.319-5.299 4.319-1.5 3 0 12 0 12s.91 6.783 3 10.5c2.435 4.333 9 9 9 9l16.5 16.5 9 10.5 12 10.5s10.414 8.281 17.999 12c2.217 1.087 4.186 1.764 6.082 2.331zm102.058 0h15.015c.69-22.815 0-41.695-1.65-45.831-3-7.5-6.005 0-6.005 3s-4.5 15-4.5 15-2.333 8.141-3 13.5c-.46 3.702-.269 6.571-.075 9.495.103 1.552.207 3.12.215 4.836zm-612.483 0c-.328-.95-.71-1.735-1.156-2.331-.827-1.103-1.655-.077-2.454 2.331h3.61zm12.344-2.331l.699 2.331h71.2c4.792-4.799 9.101-8.331 9.101-8.331s22.15-8.459 31.5-19.5c2.706-3.196 3.901-3.547 5.2-3.928 1.224-.36 2.539-.746 5.3-3.572 3.204-3.279 6.741-8.078 10.118-12.658 2.247-3.049 4.423-6 6.382-8.342 3.5-4.185 4.436-8.061 5.499-12.465.526-2.181 1.084-4.492 2.001-7.035.94-2.609 1.855-4.867 2.717-6.991 2.014-4.967 3.732-9.204 4.783-15.509 1.5-9-24 22.5-24 22.5s-4.619 13.013-12.701 19.5c-3.422 2.747-7.942 4.513-12.413 6.26-3.311 1.294-6.595 2.577-9.386 4.24-1.385.825-3.223 2.486-4.984 4.076-3.396 3.068-6.504 5.876-5.516 1.924.557-2.231-.752-6.122-2.308-10.747-2.628-7.811-5.961-17.715-2.192-25.253 3.652-7.305 6.34-10.738 9.148-14.324 1.804-2.306 3.659-4.674 5.852-8.176 3.777-6.031 7.507-12.736 10.595-18.285 2.492-4.479 4.565-8.205 5.905-10.215 3-4.5-31.5 19.681-31.5 19.681s-9.589 12.141-13.5 23.819c-3.431 10.242-6 27-6 27v28.5c0 11.13-19.5 33-19.5 25.5 0-2.105.102-4.835.22-7.995.303-8.095.711-19.013-.22-29.505-.489-5.509-1.366-9.771-2.238-14.011-.905-4.397-1.805-8.77-2.262-14.489-.622-7.768 2.72-17.333 5.825-26.223 1.563-4.475 3.066-8.779 3.974-12.596 1.093-4.598 1.437-6.871 1.689-8.537.418-2.768.583-3.859 3.512-11.144 2.392-5.951 7.21-12.38 12.026-18.807 4.789-6.391 9.577-12.78 11.974-18.693 3.247-8.011 4.209-13.236 5.244-18.857.818-4.443 1.682-9.133 3.756-15.643 2.295-7.207 1.639-10.773.851-15.049-.566-3.076-1.201-6.52-.851-11.951.445-6.926-1.217-16.112-2.645-24.008-.983-5.432-1.855-10.254-1.855-13.311 0-7.5-13.5 7.319-13.5 7.319l-6 43.5s-2.201 39.181-19.5 54c-7.382 6.324-10.989 15.267-13.98 22.68-1.368 3.393-2.608 6.466-4.02 8.82-4.5 7.5-9.421 24.923-10.5 36-.787 8.078.396 18.781 1.256 26.561.932 8.425 1.485 13.421-1.256 7.939l-13.5-27c-5.272-10.544-7.402-26.819-5.201-43.5.327-2.478.608-4.759.874-6.919v-.001c1.044-8.469 1.861-15.094 4.327-24.58 1.451-5.583 4.169-9.381 6.878-13.168 2.583-3.609 5.158-7.208 6.622-12.332 3-10.5-19.682 12.979-27 25.5-6.456 11.046-9 31.5-9 31.5s-.936 17.41 0 28.5c1.409 16.715 9 42 9 42l13.5 54z" fill="#fff"/><path fill-rule="evenodd" clip-rule="evenodd" d="M574.824 494.15c.61 10.386 2.829 53.176-.143 81.669-.583 5.586-1.691 10.477-2.948 15.048h35.948v-25.548l-3-21s-1.47-9.68-2.201-16.319a69.463 69.463 0 0 1-.3-3.885c-.136-2.413-.253-4.496-1.2-8.115-.275-1.052-.516-2.125-.759-3.199-.988-4.387-1.98-8.788-5.241-11.801-1.577-1.458-3.747-4.109-5.926-6.85h-14.23zm-67.744 0c-3.796 3.803-7.897 8.401-10.399 12.669-6.186 10.552-9 30-9 30s-3.035 24.075 0 39c1.237 6.082 2.649 10.489 4.473 15.048h-29.392c-2.055-8.508-3.581-15.048-3.581-15.048l-10.5-39-12.801-42.669h71.2zm-84.243 0c1.516 4.389 1.901 12.305 2.341 21.362.426 8.754.903 18.574 2.503 27.307a418.552 418.552 0 0 1 1.453 8.542c1.364 8.386 2.45 15.066 6.047 24.458 2.336 6.101 4.384 10.559 6.92 15.048h-26.34c-1.329-5.099-2.514-10.453-3.08-15.048-.525-4.263-.701-9.351-.701-14.24 0-9.778.701-18.76.701-18.76s2.998-37.972 6.547-48.669h3.609zm627.503 0c-.57 18.559-2.04 39.721-4.66 57.669-1.03 7.052-3 18-3 18s-2.82 10.035-4.5 16.5a85.374 85.374 0 0 0-1.02 4.548h-32.43c2.34-3.331 4.95-7.548 4.95-7.548l4.5-7.5s4.04-6.204 6-10.5c2.03-4.431 2.82-7.351 3.98-11.613.17-.6.34-1.226.52-1.887 1.44-5.206 3-13.5 3-13.5l4.5-22.5s2.42-10.897 3-18a39.6 39.6 0 0 0 .14-3.669h15.02zm-117.077 0h79.437c-.62 8.888-1.68 18.29-3.02 29.169-.11.941-.23 1.854-.33 2.743-1.46 11.927-2.38 19.462-5.67 31.757-2.39 8.948-4.201 13.845-7.499 22.5-.682 1.789-1.28 3.421-1.843 4.957-.725 1.979-1.392 3.799-2.105 5.591h-40.705l2.653-4.548 7.5-12 6-13.5s2.419-7.204 3-12c.366-3.017.257-5.197.135-7.635-.065-1.321-.135-2.718-.135-4.365 0-2.058.175-3.821.341-5.487.307-3.077.58-5.827-.341-9.513-.119-.477-.232-.943-.343-1.397-1.064-4.385-1.877-7.731-5.657-10.603-1.478-1.123-2.829-1.488-4.27-1.878-1.008-.273-2.06-.558-3.23-1.122-2.934-1.415-4.929-2.991-6.941-4.58-1.901-1.502-3.819-3.017-6.559-4.42-3.12-1.597-5.754-2.34-8.405-3.089a125.62 125.62 0 0 1-2.013-.58zm-101.375 0h11.503c.557 4.8 1.771 8.463 3.081 12.416.92 2.776 1.888 5.696 2.709 9.253.741 3.211 1.206 5.906 1.65 8.479.685 3.977 1.321 7.664 2.85 12.521 2.679 8.511 9 21 9 21l9 18s3.991 7.425 6.788 15.048h-33.53l-1.758-10.548-4.5-19.5s-2.2-10.229-4.5-16.5c-2.201-6-2.634-7.7-2.201-11.819.796-7.557.559-13.003.295-19.093-.143-3.3-.295-6.79-.295-10.907 0-1.217-.024-2.462-.048-3.712-.029-1.552-.059-3.113-.044-4.638zM591.604 881.018c1-7.907 1.41-15.411-1.923-24.699-3.733-10.403-7.072-16.298-15-24-8.652-8.405-15.539-11.238-27-15-9.067-2.975-16.948.493-24.625 3.872-8.345 3.674-16.449 7.241-25.576 2.309-9.117-4.927-20.299-24.181-20.299-24.181s-12.513-6.94-17.232-15.018h493.113c-.819 1.004-1.627 1.837-2.424 2.657-1.353 1.395-2.673 2.755-3.957 4.861-1.364 2.237-3 6-3 6s-1.592 2.926-3 4.5c-1.953 2.183-6 4.5-6 4.5s-3.425 2.517-6 3c-1.12.21-1.941.148-2.859.078a20.557 20.557 0 0 0-1.641-.078c-.823 0-1.52.017-2.179.033-1.216.029-2.304.055-3.821-.033-5.647-.325-9.697-2.888-13.672-5.404-4.362-2.76-8.634-5.464-14.828-5.096-10.212.608-28.5 6-24 10.5 3.486 3.486 3.371 4.272 3.143 5.843-.067.457-.143.981-.143 1.657 0 1.102-1.253 3.521-2.898 6.697-2.834 5.47-6.831 13.188-7.602 20.303-.253 2.339-.129 4.18-.004 6.022.124 1.828.249 3.658.004 5.978-.655 6.213-3.122 10.496-5.628 14.848-1.743 3.026-3.506 6.086-4.69 9.851H591.604zM530.079 1171.17c.109-1.18.263-2.36.422-3.57.331-2.52.68-5.19.68-8.28v-27c0-4.12-.251-7.62-.489-10.93-.439-6.12-.832-11.59.489-19.07 1.601-9.07 6.825-20.12 10.971-27.87H888.22c.926 3.24 1.461 5.37 1.461 5.37 2.105 5.54 4.429 9.96 6.645 14.16 3.476 6.6 6.683 12.69 8.355 21.84 1.503 8.22 1.056 14.24.557 20.97-.271 3.64-.557 7.5-.557 12.03 0 4.53.587 8.47 1.141 12.2.516 3.47 1.005 6.75.968 10.15H530.079z" fill="#FF5ABE" style="mix-blend-mode:multiply"/><path fill-rule="evenodd" clip-rule="evenodd" d="M548.958 590.867c-.634 2.304-1.306 4.525-1.967 6.714-2.889 9.556-5.585 18.474-4.085 30.738 1.146 9.374 3.419 15.296 6.301 22.805l.001.001c.85 2.217 1.754 4.571 2.698 7.194 2.035 5.656 4.665 10.2 7.165 14.519 3.61 6.236 6.949 12.005 7.835 19.981 1.5 13.5-31.5-18-31.5-18l-27-24s-12.815-12.986-19.5-22.5c-6.935-9.869-10.108-15.974-15-27l-.781-1.758h-.001c-1.427-3.209-2.659-5.979-3.745-8.694h-29.393c3.335 13.812 8.064 32.811 9.92 37.452 3 7.5-16.113-15.303-24-27-2.648-3.926-4.742-7.197-6.581-10.452h-26.339c2.669 10.238 5.92 19.452 5.92 19.452 0-2.054.664-.751 2.586 3.023 2.288 4.492 6.358 12.484 13.213 22.477l.175.255c13.327 19.429 13.561 19.769 21.526 25.245 8 5.5 37.385 24.226 52.5 31.5 8.443 4.063 14.228 9.243 20.267 14.651 4.092 3.664 8.301 7.433 13.532 11.03 4.241 2.915 7.259 4.37 9.792 5.591 4.412 2.127 7.351 3.544 12.708 10.728l.319.427 1.031 1.382v.001l.002.002c8.881 11.901 27.464 36.803 20.349 29.688-7.5-7.5-42-19.5-42-19.5S509.542 734.305 495.705 729c-6.236-2.391-10.212-3.538-14.526-4.783-5.176-1.493-10.838-3.126-21.474-7.217-2.699-1.038-6.233-2.684-10.152-4.509-12.578-5.857-29.129-13.566-34.848-8.991-4.751 3.801.213 11.681 4.996 19.275 2.767 4.392 5.474 8.689 6.205 12.044 1.028 4.717.505 8.014-.017 11.304-.527 3.317-1.052 6.627.017 11.377 1.581 7.027 4.225 12.386 7.117 18.249 1.107 2.242 2.249 4.559 3.383 7.07 3.923 8.692 18 16.5 18 16.5s11.182 19.254 20.299 24.181c3.254 1.758 6.379 2.436 9.43 2.414-2.961-.021-5.992-.71-9.145-2.414-9.117-4.927-20.299-24.181-20.299-24.181s-12.513-6.94-17.232-15.018h492.828c.371-.454.744-.943 1.119-1.482 1.355-1.946 2.184-3.606 3.014-5.268.823-1.649 1.647-3.299 2.986-5.232 1.203-1.737 2.238-2.947 3.316-4.208.836-.977 1.697-1.985 2.684-3.292 5.409-7.166 8.5-13.036 11.814-19.328v-.001c2.211-4.198 4.522-8.585 7.686-13.671 1.915-3.078 3.777-5.517 5.545-7.833 2.986-3.912 5.704-7.472 7.955-13.167 1.932-4.888 2.63-10.752 3.179-15.37.387-3.254.701-5.89 1.321-7.13 1.295-2.591-4.483-1.317-8.67-.394h-.001c-.661.146-1.282.283-1.829.394-4.796.978-7.383 3.862-10.099 6.889-2.16 2.408-4.402 4.907-7.901 6.611-8.809 4.29-14.8 4.904-24.23 5.87l-1.27.13c-3.734.385-6.76.105-9.717-.17-3.504-.325-6.91-.641-11.283.17-4.193.778-6.543 1.411-10.5 3-7.84 3.148-18 12-18 12s-3.84 3.487-6 6c-1.239 1.441-2.024 2.551-2.903 3.793-.476.672-.98 1.384-1.597 2.207-1.235 1.647-2.287 3.034-3.282 4.346-1.835 2.422-3.477 4.587-5.718 7.654-1.063 1.455-1.942 3.405-2.769 5.24-1.485 3.296-2.804 6.224-4.731 5.26-1.434-.717-2.581-1.085-3.688-1.441-1.209-.389-2.371-.763-3.812-1.559a33.05 33.05 0 0 0-1.249-.648c-1.231-.616-2.229-1.116-3.251-2.352-2.802-3.385-1.61-7.049-.269-11.17l.102-.314.167-.516c1.717-5.346 5.592-7.352 9.978-9.622 2.116-1.096 4.352-2.253 6.522-3.878 4.852-3.633 8.689-6.053 12.718-8.595 2.99-1.886 6.086-3.84 9.782-6.405 11.308-7.849 18.311-13.181 27.854-20.447l.003-.002.001-.001.006-.005c2.069-1.575 4.258-3.242 6.636-5.045 3.408-2.584 6.121-4.702 8.761-6.763l.013-.01.001-.001c3.284-2.564 6.459-5.043 10.725-8.226 2.593-1.935 4.781-3.45 6.879-4.903l.001-.001c3.068-2.125 5.944-4.117 9.62-7.096 3.155-2.557 5.429-4.731 7.723-6.924 2.157-2.063 4.333-4.143 7.277-6.576 3.766-3.112 6.772-5.26 9.887-7.487l.001-.001c2.487-1.777 5.043-3.605 8.112-6.012 4.932-3.869 8.156-6.555 12.185-9.913 1.322-1.101 2.731-2.275 4.315-3.587 1.221-1.011 2.33-1.796 3.374-2.538 1.98-1.399 3.74-2.645 5.63-4.962 2.99-3.672 4.01-6.491 5.5-10.638v-.001c.16-.438.32-.891.5-1.361 1.03-2.841 1.47-4.995 1.95-7.357l.02-.095h-32.428a68.395 68.395 0 0 1-1.046 1.452c-2.73 3.672-7.5 9-7.5 9s-4.733 7.19-9 10.5c-4.14 3.212-15 9-12 6s8.019-9.598 12-16.5c2.298-3.984 3.774-7.225 5.1-10.573l-.048.121h-40.705l-7.847 13.452s-6.038 15.383-12 24c-5.897 8.522-18 19.5-18 19.5l-16.5 15s-34.5 33-34.5 25.5v-6s6.258-5.293 9-12c1.244-3.043 2.298-6.88 3.335-10.659.866-3.153 1.72-6.265 2.665-8.841 1.43-3.9 1.852-7.418 2.303-11.181.198-1.648.401-3.343.697-5.138 2.39-14.496 2.933-21.785 0-36.181-.474-2.325-1.276-4.9-2.212-7.452h-33.53l1.242 7.452s2.52 18.559 0 30c-1.755 7.968-7.5 19.5-7.5 19.5l-6 13.5s-4.962 8.618-9 13.5l-.078.094c-3.648 4.411-5.784 6.993-10.422 10.406-5.275 3.882-8.59 6.159-15 7.5-3.347.701-5.814.493-8.572.26h-.001c-1.495-.126-3.075-.26-4.927-.26-2.264 0-4.205-.201-6.04-.392h-.001c-3.387-.352-6.416-.667-10.459.392-.455.119-.885.226-1.297.329-2.352.584-4.089 1.016-6.203 2.671-1.144.896-1.686 1.943-2.226 2.988-.55 1.061-1.098 2.12-2.274 3.012-5.134 3.895-11.367 3.895-16.5 0-1.177-.893-1.725-1.951-2.275-3.013-.541-1.044-1.083-2.091-2.225-2.987-1.845-1.447-27.279-.594-39.548-.183-3.061.103-5.301.178-6.153.183-30 .181-35.299-3-35.299-3s-7.097-6.661-12-10.5c-1.842-1.442-3.4-2.469-4.929-3.477-1.765-1.163-3.491-2.301-5.571-4.023-5.105-4.226-7.68-6.974-12-12-2.769-3.221-3.283-5.159-4.063-8.1-.295-1.114-.629-2.373-1.138-3.9-1.852-5.557-3.274-10.591-4.5-16.319-.379-1.773-.744-3.04-1.067-4.162-.72-2.504-1.232-4.284-1.232-9.338v-30.133h-35.948zm-24.052 226.452a22.338 22.338 0 0 0-6.886-1.129 22.345 22.345 0 0 1 7.171 1.129c11.461 3.762 18.348 6.595 27 15 7.928 7.702 11.267 13.597 15 24 3.333 9.288 2.923 16.792 1.923 24.699h255.973a30.275 30.275 0 0 0-.931 3.801 161.476 161.476 0 0 1-.843 4.362c-.415 2.027-.633 3.092-.546 4.132.095 1.151.563 2.271 1.549 4.63l.001.002c.382.914.842 2.014 1.388 3.374 1.533 3.818 3.564 9.241 5.522 14.471l.002.004.001.004.001.003.001.003c1.526 4.074 3.007 8.03 4.174 11.015 2.351 6.016 1.652 10.766.871 16.079-.424 2.878-.871 5.922-.871 9.421v22.5s-.039 37.821 10.5 58.501c1.756 3.45 3.524 5.9 5.298 8.35 1.729 2.4 3.464 4.8 5.202 8.15 3.808 7.33 7.197 18.19 9.039 24.63H519.662c-4.146 7.75-9.37 18.8-10.971 27.87-1.321 7.48-.929 12.95-.489 19.07.237 3.31.489 6.81.489 10.93v27c0 3.09-.35 5.76-.68 8.28a93.38 93.38 0 0 0-.422 3.57h376.425c-.036 3.34-.581 6.8-2.108 10.65-1.777 4.48-4.641 7.13-7.509 9.79-2.846 2.63-5.695 5.27-7.491 9.71-5.057 12.49-4.5 24 0 34.5 4.414 10.3-13.206-5.16-20.582-11.63h-.001l-.001-.01-.416-.36c-.898-.79-1.617-1.38-2.235-1.9-2.604-2.15-3.416-2.83-8.265-10.1-6-9 9 36 9 36s1.231 1.76-.831 4.72a68.034 68.034 0 0 0-2.391 3.64c-5.707 11.53-14.35 17.18-16.736 13.94-.685-.92-.855-2.59-.292-5.05-1.79-1.89-3.151-3.26-4.208-4.33-1.834-1.85-2.752-2.77-3.402-3.85-.651-1.09-1.036-2.33-1.804-4.82-.443-1.44-1.014-3.28-1.836-5.75-4.5-13.5-3 30 0 46.5s-19.5-9-19.5-9-4.5 0 0 9c2.25 4.5-4.5 0-11.25-4.5s-13.5-9-11.25-4.5c4.5 9 3.739 17.14 0 27-3.969 10.46-13.5 31.5-19.5 21-4.402-7.7-7.997-12.18-11.377-16.39h-.006c-1.225-1.53-2.421-3.02-3.617-4.61-1.758-2.34-1.235.31-.299 5.05 1.46 7.4 3.925 19.89.299 26.45-5.502 9.95-21 33-24 16.5s-9-46.5-24-37.5c-9.331 5.6-10.536 7.71-11.197 8.87-.401.71-.602 1.06-2.303 1.63-2.096.7-4.192-9.67-6.288-20.03-2.404-11.89-4.808-23.78-7.212-18.97-3.138 6.27-8.463 10.36-12.925 13.79-1.938 1.48-3.713 2.85-5.075 4.21-1.843 1.84-2.887-2.09-4.32-7.48-2.067-7.78-4.941-18.6-12.18-19.52-4.654-.59-8.325 2.29-11.706 4.95-2.665 2.1-5.15 4.05-7.794 4.05-2.413 0-2.885-4.49-3.465-10-.863-8.2-1.964-18.66-10.035-20-1.82-.3-3.368-.51-4.782-.7-3.524-.47-6.217-.83-10.218-2.3-10.656-3.92-15.691-10.15-22.046-18.01-1.541-1.9-3.159-3.9-4.954-5.99-3.642-4.24-5.87-8.04-8.087-11.83-2.296-3.93-4.581-7.83-8.413-12.17-2.116-2.4-3.883-4.06-5.707-5.77h-.001l-.001-.01c-1.485-1.39-3.009-2.83-4.791-4.72-2.074-2.21-4.113-4-6.037-5.69-4.415-3.88-8.225-7.23-10.463-13.81-1.836-5.4-1.29-9.56-.68-14.22.33-2.52.68-5.19.68-8.28v-27c0-4.12-.252-7.62-.49-10.93-.439-6.12-.831-11.59.49-19.07 2.782-15.76 16.5-37.5 16.5-37.5l18-31.5s13.226-22.79 16.5-39.001c1.654-8.191.88-14.746.101-21.341-.75-6.35-1.505-12.737-.101-20.659.868-4.898 2.294-8.597 3.703-12.253 1.531-3.973 3.042-7.894 3.797-13.247.901-6.395.634-11.032.334-16.219-.162-2.81-.334-5.781-.334-9.281 0-6.175.733-11.525 1.426-16.585 1.28-9.338 2.424-17.687-1.426-28.415-3.733-10.403-7.072-16.298-15-24-8.652-8.405-15.539-11.238-27-15zm356.828-12.904c-4.057-2.568-8.037-5.086-13.558-5.129 5.67-.044 9.716 2.517 13.843 5.129 3.975 2.516 8.025 5.079 13.672 5.404.722.042 1.346.058 1.934.06a35.28 35.28 0 0 1-2.219-.06c-5.647-.325-9.697-2.888-13.672-5.404zm21.313 5.482c-.473-.036-.971-.074-1.548-.077l.117-.001h.075c.617 0 1.143.04 1.641.078.398.03.777.059 1.171.065-.498.008-.963-.027-1.456-.065zM566.279 494.15c-.454-.57-.908-1.144-1.357-1.712-2.137-2.703-4.165-5.267-5.516-6.619-3-3-7.043.383-7.5 4.5-.065.582 0 1.5 0 1.5s.055.825.143 2.331h14.23zm242.878 4.636a166.944 166.944 0 0 1-.046-4.461l.002-.175h11.503c.476 4.107 1.434 7.381 2.521 10.717l.339 1.033.085.257.136.409v.002c.92 2.775 1.888 5.694 2.709 9.251.648 2.81 1.085 5.224 1.481 7.508l.162.933.006.037v.001l-18.898-25.512zm101.33-4.636h79.437c1.275-18.186.722-34.216-3.018-56.331-.317-1.87-.456-3.53-.588-5.095-.284-3.364-.53-6.288-2.412-9.905-1.056-2.028-2.403-3.263-3.749-4.498-1.348-1.235-2.696-2.471-3.751-4.502m-65.919 80.331c-1.896-.567-3.864-1.244-6.081-2.331l6.081 2.331zm-6.081-2.331c-7.586-3.719-18-12-18-12l18 12zm-18-12l-12-10.5 12 10.5zm-12-10.5l-9-10.5 9 10.5zm-9-10.5l-16.5-16.5 16.5 16.5zm-16.5-16.5s-6.565-4.667-9-9l9 9zm-9-9c-2.09-3.717-3-10.5-3-10.5l3 10.5zm-3-10.5s-1.5-9 0-12v12zm0-12c1.5-3 3.03-4.904 5.299-4.319l-5.299 4.319zm5.299-4.319c3.312.855 4.677 4.839 6.049 8.845l-6.049-8.845zm6.049 8.845c.977 2.855 1.959 5.721 3.652 7.474l-3.652-7.474zm3.652 7.474c3.457 3.581 6.248 5.49 9.689 7.845l-9.689-7.845zm9.689 7.845h.001-.001zm.001 0zm0 0c1.176.805 2.429 1.662 3.81 2.655l-3.81-2.655zm3.81 2.655c2.07 1.489 3.914 2.534 5.678 3.534l-5.678-3.534zm5.678 3.534c2.62 1.484 5.066 2.87 7.822 5.466l-7.822-5.466zm7.822 5.466c1.736 1.636 2.822 3.133 3.921 4.65l-3.921-4.65zm3.921 4.65zm0 0c1.009 1.393 2.031 2.802 3.579 4.35l-3.579-4.35zm3.579 4.35c1.274 1.274 2.708 2.01 4.07 2.709l-4.07-2.709zm4.07 2.709c2.096 1.076 4.021 2.064 4.93 4.791l-4.93-4.791zm4.93 4.791c1.5 4.5 6.799-1.319 5.299-5.819l-5.299 5.819zm5.299-5.819c-.766-2.3-.843-2.751-.886-3.01l.886 3.01zm-.886-3.01c-.042-.248-.055-.322-.614-1.671l.614 1.671zm-.614-1.671c-.721-1.741-1.097-3.161-1.453-4.504l1.453 4.504zm-1.453-4.504c-.509-1.918-.976-3.68-2.346-5.996l2.346 5.996zm-2.346-5.996c-2.119-3.58-2.851-6.18-3.847-9.714l3.847 9.714zm-3.847-9.714c-.202-.718-.415-1.475-.653-2.286l.653 2.286zm-.653-2.286c-1.598-5.448-2.083-8.751-2.874-14.139l2.874 14.139zm-2.874-14.139l-.126-.861.126.861zm-.126-.861c-.144-.979-.285-1.894-.418-2.764l.418 2.764zm-.418-2.764c-.739-4.815-1.267-8.259-1.082-13.736l1.082 13.736zm-1.082-13.736c.159-4.72 1.5-12 1.5-12l-1.5 12zm1.5-12s3-6 7.5 3l-7.5-3zm7.5 3c2.085 4.17 2.879 9 3.729 14.169l-3.729-14.169zm3.729 14.169zm0 0c.985 5.987 2.044 12.43 5.271 18.831l-5.271-18.831zm5.271 18.831c4.169 8.271 13.5 19.5 13.5 19.5l-13.5-19.5zm13.5 19.5l19.5 25.5-19.5-25.5zm19.5 25.5s15 15 12 6l-12-6zm12 6c-1.459-4.376-.705-8.518.068-12.767l-.068 12.767zm.068-12.767c.817-4.489 1.656-9.098-.068-14.233l.068 14.233zm-.068-14.233c-1.701-5.063-3.609-7.837-6.382-11.868l6.382 11.868zm-6.382-11.868c-.358-.52-.73-1.062-1.118-1.632l1.118 1.632zm-1.118-1.632c-5.369-7.881-16.5-18-16.5-18l16.5 18zm-16.5-18l-10.5-15 10.5 15zm-10.5-15l-19.5-22.5 19.5 22.5zm-19.5-22.5s-10.558-10.542-16.5-18l16.5 18zm-16.5-18c-5.772-7.244-13.5-19.5-13.5-19.5l13.5 19.5zm-13.5-19.5l-13.5-22.5 13.5 22.5zm-13.5-22.5l-9-18 9 18zm-9-18s-8.352-17.92-12-30l12 30zm-12-30c-3.123-10.34-6-27-6-27l6 27zm-6-27s-2.665-13.244 0-21v21zm0-21c.34-.989.75-2.497 1.199-4.148l-1.199 4.148zm1.199-4.148c1.577-5.799 3.633-13.358 4.801-6.352l-4.801 6.352zm4.801-6.352c1.5 9 31.5 58.5 31.5 58.5l-31.5-58.5zm31.5 58.5l25.5 39-25.5-39zm25.5 39l21 31.5-21-31.5zm21 31.5l28.5 33-28.5-33zm28.5 33s7.5 13.5 4.5-6l-4.5 6zm4.5-6c-1.213-7.88.227-15.887 1.698-24.065l-1.698 24.065zm1.698-24.065c2.168-12.059 4.403-24.489-1.698-37.435l1.698 37.435zm-1.698-37.435c-3.949-8.378-13.5-19.5-13.5-19.5l13.5 19.5zm-13.5-19.5s-5.303-7.883-7.5-13.5l7.5 13.5zm-7.5-13.5c-.741-1.892-1.116-3.684-1.468-5.366l1.468 5.366zm-1.468-5.366c-.388-1.848-.747-3.563-1.532-5.134l1.532 5.134zm-1.532-5.134c-1.165-2.33 2.272-1.387 5.211-.58l-5.211.58zm5.211-.58c.844.232 1.648.452 2.289.58l-2.289-.58zm2.289.58c5.536 1.108 8.204 4.265 11.564 8.243l-11.564-8.243zm11.564 8.243c.615.727 1.253 1.482 1.936 2.257l-1.936-2.257zm1.936 2.257c6.062 6.879 17.299 18.181 17.299 18.181l-17.299-18.181zm17.299 18.181s4.771 13.929 8.201 21l-8.201-21zm8.201 21c3.199 6.598 3.498 10.472 3.933 16.134l-3.933-16.134zm3.933 16.134l.001.001-.001-.001zm.001.001v.001-.001zm0 .001c.14 1.825.295 3.836.566 6.183l-.566-6.183zm.566 6.183c.261 2.265.183 3.899.097 5.727l-.097-5.727zm.097 5.727c-.047.991-.097 2.038-.097 3.273l.097-3.273zm-.097 3.273c0 8.026-.185 17.263-.36 25.999l.36-25.999zm-.36 25.999l-.001.004.001-.004zm-.001.004v.004-.004zm0 .004c-.323 16.127-.612 30.547.361 32.493l-.361-32.493zm.361 32.493c.796 1.592 1.622 2.458 2.43 3.305l-2.43-3.305zm2.43 3.305c.715.75 1.416 1.485 2.07 2.695l-2.07-2.695zm2.07 2.695c1.025 1.898 1.277 3.594 1.531 5.296l-1.531-5.296zm39.144 90.831h15.01c.69-22.815 0-41.695-1.65-45.831-3-7.5-6 0-6 3s-4.5 15-4.5 15-2.34 8.141-3 13.5c-.46 3.702-.27 6.571-.08 9.495.1 1.552.21 3.12.22 4.836zm-612.488 0c-.328-.95-.71-1.735-1.156-2.331-.827-1.103-1.654-.077-2.453 2.331h3.609zm12.344-2.331l.699 2.331h71.2c4.792-4.799 9.101-8.331 9.101-8.331s22.15-8.459 31.5-19.5c2.706-3.196 3.902-3.547 5.2-3.928 1.224-.36 2.54-.746 5.3-3.572 3.204-3.279 6.742-8.078 10.118-12.658 2.248-3.049 4.424-6 6.382-8.342 3.501-4.185 4.436-8.061 5.499-12.465.527-2.181 1.085-4.492 2.001-7.035.94-2.609 1.856-4.867 2.717-6.991 2.014-4.967 3.732-9.204 4.783-15.509 1.5-9-24 22.5-24 22.5s-4.619 13.013-12.701 19.5c-3.422 2.747-7.942 4.513-12.413 6.26-3.311 1.294-6.595 2.577-9.386 4.24-1.385.825-3.223 2.486-4.983 4.076-3.397 3.068-6.505 5.876-5.517 1.924.558-2.231-.752-6.122-2.308-10.747-2.628-7.811-5.961-17.715-2.192-25.253 3.653-7.305 6.34-10.738 9.148-14.324 1.805-2.306 3.659-4.674 5.852-8.176 3.777-6.031 7.508-12.736 10.595-18.285 2.492-4.479 4.565-8.205 5.905-10.215 3-4.5-31.5 19.681-31.5 19.681s-9.589 12.141-13.5 23.819c-3.43 10.242-6 27-6 27v28.5c0 11.13-19.5 33-19.5 25.5 0-2.105.102-4.835.22-7.995.303-8.095.711-19.013-.22-29.505-.489-5.509-1.366-9.771-2.238-14.011-.905-4.397-1.805-8.77-2.262-14.489-.622-7.768 2.72-17.333 5.825-26.223 1.563-4.475 3.067-8.779 3.974-12.596 1.094-4.598 1.437-6.871 1.689-8.537.418-2.768.583-3.859 3.512-11.144 2.393-5.951 7.21-12.38 12.026-18.807 4.79-6.391 9.577-12.78 11.974-18.693 3.247-8.011 4.21-13.236 5.245-18.857.818-4.443 1.681-9.133 3.755-15.643 2.296-7.207 1.639-10.773.851-15.049-.566-3.076-1.2-6.52-.851-11.951.445-6.926-1.216-16.112-2.645-24.008-.983-5.432-1.855-10.254-1.855-13.311 0-7.5-13.5 7.319-13.5 7.319l-6 43.5s-2.201 39.181-19.5 54c-7.382 6.324-10.989 15.267-13.979 22.68-1.369 3.393-2.608 6.466-4.021 8.82-4.5 7.5-9.421 24.923-10.5 36-.787 8.078.396 18.781 1.257 26.561.932 8.425 1.484 13.421-1.257 7.939l-13.5-27c-5.272-10.544-7.401-26.819-5.201-43.5.327-2.478.608-4.759.875-6.919v-.001c1.043-8.469 1.86-15.094 4.326-24.58 1.451-5.583 4.169-9.381 6.879-13.168 2.582-3.609 5.157-7.208 6.621-12.332 3-10.5-19.681 12.979-27 25.5-6.456 11.046-9 31.5-9 31.5s-.935 17.41 0 28.5c1.409 16.715 9 42 9 42l13.5 54z" fill="#FF5ABE" style="mix-blend-mode:multiply"/><path fill-rule="evenodd" clip-rule="evenodd" d="M552.334 494.15c.61 10.386 2.829 53.176-.143 81.669-.583 5.586-1.691 10.477-2.949 15.048h35.949v-25.548l-3-21s-1.47-9.68-2.201-16.319c-.166-1.505-.235-2.733-.3-3.885-.136-2.413-.254-4.496-1.2-8.115a96.9 96.9 0 0 1-.759-3.199c-.988-4.387-1.98-8.788-5.241-11.801-1.577-1.458-3.747-4.109-5.926-6.85h-14.23zm-67.744 0c-3.797 3.803-7.897 8.401-10.399 12.669-6.186 10.552-9 30-9 30s-3.036 24.075 0 39c1.237 6.082 2.649 10.489 4.473 15.048h-29.393c-2.054-8.508-3.58-15.048-3.58-15.048l-10.5-39-12.801-42.669h71.2zm-84.243 0c1.516 4.389 1.901 12.305 2.341 21.362.425 8.754.903 18.574 2.503 27.307a418.552 418.552 0 0 1 1.453 8.542c1.364 8.386 2.45 15.066 6.047 24.458 2.336 6.101 4.384 10.559 6.919 15.048h-26.339c-1.329-5.099-2.514-10.453-3.08-15.048-.526-4.263-.701-9.351-.701-14.24 0-9.778.701-18.76.701-18.76s2.998-37.972 6.547-48.669h3.609zm627.503 0c-.57 18.559-2.04 39.721-4.66 57.669-1.03 7.052-3 18-3 18s-2.82 10.035-4.5 16.5a85.374 85.374 0 0 0-1.02 4.548h-32.433c2.338-3.331 4.954-7.548 4.954-7.548l4.5-7.5s4.037-6.204 6-10.5c2.024-4.431 2.819-7.351 3.979-11.613.17-.6.34-1.226.52-1.887 1.44-5.206 3-13.5 3-13.5l4.5-22.5s2.42-10.897 3-18a39.6 39.6 0 0 0 .14-3.669h15.02zm-117.078 0h79.437c-.623 8.888-1.682 18.29-3.018 29.169l-.336 2.743c-1.456 11.927-2.375 19.462-5.664 31.757-2.394 8.948-4.202 13.845-7.5 22.5-.682 1.789-1.28 3.421-1.843 4.957-.725 1.979-1.393 3.799-2.105 5.591h-40.705l2.653-4.548 7.5-12 6-13.5s2.418-7.204 3-12c.365-3.017.257-5.197.135-7.635-.066-1.321-.135-2.718-.135-4.365 0-2.058.175-3.821.341-5.487.306-3.077.58-5.827-.341-9.513-.12-.477-.233-.943-.343-1.397-1.065-4.385-1.877-7.731-5.657-10.603-1.478-1.123-2.83-1.488-4.271-1.878-1.008-.273-2.06-.558-3.229-1.122-2.935-1.415-4.929-2.991-6.941-4.58-1.902-1.502-3.819-3.017-6.559-4.42-3.121-1.597-5.754-2.34-8.405-3.089-.668-.188-1.336-.377-2.014-.58zm-101.374 0h11.503c.557 4.8 1.771 8.463 3.081 12.416.92 2.776 1.888 5.696 2.709 9.253.741 3.211 1.206 5.906 1.649 8.479.686 3.977 1.322 7.664 2.851 12.521 2.679 8.511 9 21 9 21l9 18s3.991 7.425 6.788 15.048h-33.53l-1.758-10.548-4.5-19.5s-2.2-10.229-4.5-16.5c-2.201-6-2.634-7.7-2.201-11.819.796-7.557.559-13.003.295-19.093-.143-3.3-.295-6.79-.295-10.907 0-1.217-.024-2.462-.048-3.712-.03-1.552-.06-3.113-.044-4.638zM569.113 881.018c1.001-7.907 1.411-15.411-1.922-24.699-3.733-10.403-7.072-16.298-15-24-8.652-8.405-15.539-11.238-27-15-9.067-2.975-16.948.493-24.625 3.872-8.345 3.674-16.449 7.241-25.576 2.309-9.117-4.927-20.299-24.181-20.299-24.181s-12.513-6.94-17.232-15.018h493.113c-.819 1.004-1.627 1.837-2.424 2.657-1.353 1.395-2.673 2.755-3.957 4.861-1.364 2.237-3 6-3 6s-1.592 2.926-3 4.5c-1.953 2.183-6 4.5-6 4.5s-3.425 2.517-6 3c-1.121.21-1.941.148-2.859.078a20.58 20.58 0 0 0-1.641-.078c-.824 0-1.52.017-2.179.033-1.217.029-2.304.055-3.821-.033-5.647-.325-9.697-2.888-13.673-5.404-4.361-2.76-8.633-5.464-14.827-5.096-10.212.608-28.5 6-24 10.5 3.485 3.486 3.371 4.272 3.142 5.843-.066.457-.142.981-.142 1.657 0 1.102-1.253 3.521-2.898 6.697-2.834 5.47-6.832 13.188-7.602 20.303-.254 2.339-.129 4.18-.004 6.022.124 1.828.248 3.658.004 5.978-.655 6.213-3.122 10.496-5.628 14.848-1.744 3.026-3.506 6.086-4.691 9.851H569.113zM507.589 1171.17c.109-1.18.263-2.36.422-3.57.33-2.52.68-5.19.68-8.28v-27c0-4.12-.252-7.62-.49-10.93-.439-6.12-.831-11.59.49-19.07 1.601-9.07 6.825-20.12 10.971-27.87H865.73c.926 3.24 1.461 5.37 1.461 5.37 2.104 5.54 4.429 9.96 6.645 14.16 3.475 6.6 6.683 12.69 8.355 21.84 1.502 8.22 1.056 14.24.556 20.97-.27 3.64-.556 7.5-.556 12.03 0 4.53.586 8.47 1.141 12.2.516 3.47 1.005 6.75.968 10.15H507.589z" fill="#5AFFBA" style="mix-blend-mode:multiply"/><path fill-rule="evenodd" clip-rule="evenodd" d="M526.467 590.867c-.633 2.304-1.305 4.525-1.967 6.714-2.888 9.556-5.584 18.474-4.084 30.738 1.146 9.374 3.419 15.296 6.301 22.805v.001c.851 2.217 1.755 4.571 2.699 7.194 2.035 5.656 4.664 10.2 7.164 14.519 3.61 6.236 6.949 12.005 7.836 19.981 1.5 13.5-31.5-18-31.5-18l-27-24s-12.816-12.986-19.5-22.5c-6.935-9.869-10.108-15.974-15-27l-.782-1.758c-1.428-3.209-2.659-5.979-3.745-8.694h-29.393c3.335 13.812 8.063 32.811 9.92 37.452 3 7.5-16.113-15.303-24-27-2.648-3.926-4.743-7.197-6.581-10.452h-26.339c2.669 10.238 5.92 19.452 5.92 19.452 0-2.054.664-.751 2.586 3.023 2.287 4.492 6.358 12.484 13.213 22.477l.174.255h.001c13.327 19.429 13.56 19.769 21.526 25.245 8 5.5 37.385 24.226 52.5 31.5 8.442 4.063 14.227 9.243 20.266 14.651 4.093 3.664 8.301 7.433 13.533 11.03 4.24 2.915 7.259 4.37 9.792 5.591 4.411 2.127 7.351 3.544 12.708 10.728l.318.427 1.031 1.382.001.001.002.002c8.881 11.901 27.463 36.803 20.349 29.688-7.5-7.5-42-19.5-42-19.5S487.052 734.305 473.215 729c-6.236-2.391-10.212-3.538-14.526-4.783-5.176-1.493-10.839-3.126-21.474-7.217-2.7-1.038-6.233-2.684-10.152-4.509-12.578-5.857-29.13-13.566-34.848-8.991-4.752 3.801.212 11.681 4.996 19.275 2.767 4.392 5.473 8.689 6.205 12.044 1.027 4.717.504 8.014-.018 11.304-.526 3.317-1.051 6.627.018 11.377 1.58 7.027 4.224 12.386 7.117 18.249 1.106 2.242 2.249 4.559 3.383 7.07 3.922 8.692 18 16.5 18 16.5s11.181 19.254 20.299 24.181c3.254 1.758 6.378 2.436 9.43 2.414-2.961-.021-5.992-.71-9.145-2.414-9.118-4.927-20.299-24.181-20.299-24.181s-12.513-6.94-17.232-15.018h492.828c.37-.454.743-.943 1.118-1.482 1.356-1.946 2.185-3.606 3.015-5.268.822-1.649 1.646-3.299 2.985-5.232 1.204-1.737 2.239-2.947 3.317-4.208.835-.977 1.697-1.985 2.683-3.292 5.409-7.166 8.501-13.036 11.815-19.328v-.001c2.211-4.198 4.521-8.585 7.685-13.671 1.916-3.078 3.778-5.517 5.546-7.833 2.986-3.912 5.704-7.472 7.954-13.167 1.933-4.888 2.63-10.752 3.18-15.37v-.001c.387-3.254.7-5.889 1.32-7.129 1.296-2.591-4.482-1.317-8.67-.394h-.001c-.66.146-1.281.283-1.829.394-4.795.978-7.382 3.862-10.098 6.889-2.16 2.408-4.402 4.907-7.902 6.611-8.808 4.29-14.8 4.904-24.23 5.87l-1.27.13c-3.733.385-6.759.105-9.716-.17-3.504-.325-6.911-.641-11.284.17-4.193.778-6.542 1.411-10.499 3-7.84 3.148-18 12-18 12s-3.84 3.487-6 6c-1.239 1.441-2.025 2.551-2.903 3.793-.476.672-.98 1.384-1.597 2.207a1030.412 1030.412 0 0 1-3.282 4.346 492.433 492.433 0 0 0-5.718 7.654c-1.064 1.455-1.942 3.405-2.769 5.24-1.485 3.296-2.804 6.224-4.731 5.26-1.435-.717-2.581-1.085-3.688-1.441h-.001c-1.208-.389-2.371-.763-3.811-1.559a33.83 33.83 0 0 0-1.249-.648c-1.231-.616-2.229-1.116-3.251-2.352-2.802-3.385-1.61-7.049-.269-11.17l.102-.314.167-.516c1.717-5.346 5.592-7.352 9.977-9.622 2.117-1.096 4.353-2.253 6.523-3.878 4.852-3.633 8.689-6.053 12.718-8.595 2.99-1.886 6.086-3.84 9.782-6.405 11.308-7.849 18.311-13.181 27.854-20.447l.003-.002.001-.001.006-.005c2.069-1.575 4.257-3.242 6.635-5.045 3.409-2.584 6.121-4.702 8.761-6.763l.013-.01.002-.001c3.284-2.564 6.458-5.043 10.724-8.226 2.594-1.935 4.782-3.45 6.88-4.903l.001-.001c3.068-2.125 5.944-4.117 9.619-7.096 3.156-2.557 5.429-4.731 7.724-6.924 2.157-2.063 4.332-4.143 7.276-6.576 3.767-3.112 6.772-5.26 9.887-7.487h.001l.001-.001c2.487-1.777 5.043-3.605 8.111-6.012 4.933-3.869 8.156-6.555 12.186-9.913 1.322-1.101 2.73-2.275 4.314-3.587 1.222-1.011 2.33-1.796 3.378-2.538 1.975-1.399 3.733-2.645 5.622-4.962 2.995-3.672 4.012-6.491 5.507-10.638l.001-.001c.158-.438.321-.891.492-1.361 1.037-2.841 1.476-4.995 1.957-7.357l.019-.095h-32.43c-.358.511-.71 1.001-1.046 1.452-2.729 3.672-7.5 9-7.5 9s-4.733 7.19-9 10.5c-4.139 3.212-15 9-12 6s8.019-9.598 12-16.5c2.298-3.984 3.775-7.225 5.101-10.573l-.048.121h-40.706l-7.847 13.452s-6.037 15.383-12 24c-5.897 8.522-17.999 19.5-17.999 19.5l-16.5 15s-34.5 33-34.5 25.5v-6s6.258-5.293 9-12c1.244-3.043 2.297-6.88 3.335-10.659.866-3.153 1.72-6.265 2.665-8.841 1.43-3.9 1.852-7.418 2.303-11.181.197-1.648.401-3.343.697-5.138 2.39-14.496 2.933-21.785 0-36.181-.474-2.325-1.277-4.9-2.213-7.452h-33.529l1.242 7.452s2.52 18.559 0 30c-1.756 7.968-7.5 19.5-7.5 19.5l-6 13.5s-4.962 8.618-9 13.5l-.078.094c-3.649 4.411-5.785 6.993-10.422 10.406-5.276 3.882-8.59 6.159-15 7.5-3.347.701-5.814.493-8.573.26-1.495-.126-3.075-.26-4.927-.26-2.265 0-4.205-.201-6.041-.392-3.388-.352-6.417-.667-10.459.392-.455.119-.886.226-1.297.329-2.352.584-4.09 1.016-6.203 2.671-1.144.896-1.686 1.943-2.227 2.988-.549 1.061-1.097 2.12-2.273 3.012-5.134 3.895-11.367 3.895-16.5 0-1.177-.893-1.726-1.951-2.275-3.013-.541-1.044-1.083-2.091-2.225-2.987-1.845-1.447-27.279-.594-39.548-.183h-.001c-3.06.103-5.301.178-6.152.183-30 .181-35.299-3-35.299-3s-7.098-6.661-12-10.5c-1.842-1.442-3.4-2.469-4.929-3.477-1.765-1.163-3.492-2.301-5.571-4.023-5.105-4.226-7.68-6.974-12-12-2.77-3.221-3.283-5.159-4.063-8.1-.295-1.114-.629-2.373-1.138-3.9-1.852-5.557-3.275-10.591-4.5-16.319-.379-1.773-.744-3.04-1.067-4.162-.72-2.504-1.232-4.284-1.232-9.338v-30.133h-35.949zm-24.051 226.452a22.338 22.338 0 0 0-6.886-1.129 22.35 22.35 0 0 1 7.171 1.129c11.46 3.762 18.348 6.595 27 15 7.927 7.702 11.266 13.597 15 24 3.332 9.288 2.923 16.792 1.922 24.699h255.974a30.275 30.275 0 0 0-.931 3.801c-.329 1.847-.616 3.249-.843 4.362-.415 2.027-.633 3.092-.547 4.132.096 1.151.564 2.271 1.55 4.63.382.915.843 2.015 1.389 3.376 1.533 3.818 3.563 9.241 5.522 14.471l.001.004.002.004.001.003.001.003c1.526 4.074 3.007 8.03 4.174 11.015 2.351 6.016 1.652 10.766.871 16.079-.424 2.878-.871 5.922-.871 9.421v22.5s-.04 37.821 10.5 58.501c1.756 3.45 3.524 5.9 5.298 8.35 1.729 2.4 3.464 4.8 5.202 8.15 3.808 7.33 7.197 18.19 9.038 24.63H497.171c-4.146 7.75-9.369 18.8-10.97 27.87-1.322 7.48-.929 12.95-.49 19.07.238 3.31.49 6.81.49 10.93v27c0 3.09-.35 5.76-.68 8.28a93.405 93.405 0 0 0-.423 3.57h376.426c-.036 3.34-.581 6.8-2.108 10.65-1.778 4.48-4.641 7.13-7.509 9.79-2.846 2.63-5.695 5.27-7.491 9.71-5.057 12.49-4.5 24 0 34.5 4.414 10.3-13.206-5.16-20.582-11.63h-.001l-.001-.01-.416-.36c-.898-.79-1.617-1.38-2.235-1.9-2.605-2.15-3.416-2.83-8.265-10.1-6-9 9 36 9 36s1.231 1.76-.831 4.72a67.398 67.398 0 0 0-2.391 3.64c-5.707 11.53-14.35 17.18-16.737 13.94-.684-.92-.854-2.59-.291-5.05-1.79-1.89-3.152-3.26-4.208-4.33-1.835-1.85-2.752-2.77-3.403-3.85-.651-1.09-1.035-2.33-1.804-4.82-.443-1.44-1.013-3.28-1.835-5.75-4.5-13.5-3 30 0 46.5s-19.5-9-19.5-9-4.5 0 0 9c2.25 4.5-4.5 0-11.25-4.5s-13.5-9-11.25-4.5c4.5 9 3.739 17.14 0 27-3.969 10.46-13.5 31.5-19.5 21-4.403-7.7-7.998-12.18-11.377-16.39h-.001c-1.227-1.52-2.425-3.01-3.622-4.61-1.758-2.34-1.235.31-.299 5.05 1.46 7.4 3.925 19.89.299 26.45-5.502 9.95-21 33-24 16.5s-9-46.5-24-37.5c-9.331 5.6-10.536 7.71-11.197 8.87-.402.71-.603 1.06-2.303 1.63-2.096.7-4.192-9.67-6.288-20.03-2.404-11.89-4.808-23.78-7.212-18.97-3.138 6.27-8.463 10.36-12.925 13.79-1.938 1.48-3.713 2.85-5.075 4.21-1.843 1.84-2.888-2.09-4.321-7.48-2.066-7.78-4.94-18.6-12.179-19.52-4.654-.59-8.325 2.29-11.707 4.95-2.664 2.1-5.149 4.05-7.793 4.05-2.413 0-2.885-4.49-3.466-10-.862-8.2-1.963-18.66-10.034-20-1.82-.3-3.368-.51-4.782-.7-3.525-.47-6.217-.83-10.218-2.3-10.656-3.92-15.691-10.15-22.046-18.01-1.541-1.9-3.159-3.9-4.954-5.99-3.642-4.24-5.87-8.04-8.087-11.83-2.297-3.93-4.581-7.83-8.413-12.17-2.117-2.4-3.883-4.06-5.708-5.77l-.001-.01c-1.485-1.39-3.009-2.83-4.791-4.72-2.074-2.21-4.113-4-6.037-5.69-4.416-3.88-8.225-7.23-10.463-13.81-1.836-5.4-1.29-9.56-.68-14.22.33-2.52.68-5.19.68-8.28v-27c0-4.12-.252-7.62-.49-10.93-.439-6.12-.832-11.59.49-19.07 2.782-15.76 16.5-37.5 16.5-37.5l18-31.5s13.226-22.79 16.5-39.001c1.654-8.191.88-14.746.1-21.341-.75-6.35-1.504-12.737-.1-20.659.868-4.898 2.293-8.597 3.703-12.253 1.531-3.973 3.042-7.894 3.797-13.247.901-6.395.633-11.032.334-16.219-.163-2.81-.334-5.781-.334-9.281 0-6.175.733-11.525 1.426-16.585 1.279-9.338 2.423-17.687-1.426-28.415-3.734-10.403-7.073-16.298-15-24-8.652-8.405-15.54-11.238-27-15zm356.827-12.904c-4.057-2.568-8.036-5.086-13.557-5.129 5.669-.044 9.716 2.517 13.842 5.129 3.976 2.516 8.026 5.079 13.673 5.404.721.042 1.346.058 1.933.06a35.231 35.231 0 0 1-2.218-.06c-5.647-.325-9.697-2.888-13.673-5.404zm21.313 5.482c-.472-.036-.97-.074-1.548-.077l.118-.001h.075c.617 0 1.143.04 1.64.078.398.03.778.059 1.171.065-.498.008-.963-.027-1.456-.065zM543.788 494.15a839.52 839.52 0 0 1-1.356-1.712c-2.138-2.703-4.165-5.267-5.516-6.619-3-3-7.043.383-7.5 4.5-.065.582 0 1.5 0 1.5s.054.825.143 2.331h14.229zm242.879 4.636a162.847 162.847 0 0 1-.046-4.461l.002-.175h11.503c.476 4.107 1.433 7.381 2.52 10.717l.156.474.184.559.221.666v.002c.92 2.775 1.888 5.694 2.709 9.251.648 2.81 1.085 5.224 1.481 7.508l.161.933.007.037v.001l-18.898-25.512zm101.33-4.636h79.437c1.274-18.186.722-34.216-3.019-56.331-.316-1.87-.456-3.53-.588-5.095-.283-3.364-.53-6.288-2.412-9.905-1.055-2.028-2.402-3.263-3.749-4.498-1.348-1.235-2.696-2.471-3.751-4.502-.971-1.87-1.22-3.54-1.468-5.204-.254-1.702-.507-3.398-1.532-5.296-.653-1.21-1.354-1.945-2.069-2.695-.809-.847-1.635-1.713-2.431-3.305-.972-1.946-.683-16.366-.36-32.493v-.008c.175-8.736.36-17.973.36-25.999 0-1.235.05-2.282.097-3.273.087-1.828.165-3.462-.097-5.727-.27-2.347-.425-4.358-.566-6.183v-.002c-.436-5.662-.734-9.536-3.934-16.134-3.429-7.071-8.2-21-8.2-21s-11.238-11.302-17.3-18.181c-.682-.775-1.32-1.53-1.935-2.257-3.36-3.978-6.028-7.135-11.565-8.243-.641-.128-1.444-.348-2.289-.58-2.938-.807-6.376-1.75-5.211.58.786 1.571 1.145 3.286 1.532 5.134.353 1.682.728 3.474 1.468 5.366 2.198 5.617 7.5 13.5 7.5 13.5s9.552 11.122 13.5 19.5c6.101 12.946 3.866 25.376 1.698 37.435-1.47 8.178-2.91 16.185-1.698 24.065 3 19.5-4.5 6-4.5 6l-28.5-33-20.999-31.5-25.5-39s-30-49.5-31.5-58.5c-1.168-7.006-3.224.553-4.801 6.352-.449 1.651-.86 3.159-1.199 4.148-2.665 7.756 0 21 0 21s2.877 16.66 6 27c3.648 12.08 12 30 12 30l9 18 13.5 22.5s7.728 12.256 13.5 19.5c5.942 7.458 16.5 18 16.5 18l19.499 22.5 10.5 15s11.132 10.119 16.5 18c.389.57.761 1.112 1.119 1.632 2.773 4.031 4.681 6.805 6.381 11.868 1.725 5.135.886 9.744.069 14.233-.774 4.249-1.527 8.391-.069 12.767 3 9-12-6-12-6l-19.5-25.5s-9.33-11.229-13.5-19.5c-3.226-6.401-4.286-12.844-5.27-18.831-.85-5.169-1.644-9.999-3.729-14.169-4.5-9-7.5-3-7.5-3s-1.341 7.28-1.5 12c-.185 5.477.343 8.921 1.082 13.736.133.87.273 1.785.418 2.764l.126.861c.791 5.388 1.276 8.691 2.874 14.139.237.811.451 1.568.653 2.286.995 3.534 1.728 6.134 3.847 9.714 1.37 2.316 1.837 4.078 2.345 5.996.356 1.343.733 2.763 1.454 4.504.559 1.349.571 1.423.613 1.671.044.259.12.71.887 3.01 1.5 4.5-3.799 10.319-5.299 5.819-.91-2.727-2.835-3.715-4.931-4.791-1.361-.699-2.795-1.435-4.069-2.709-1.549-1.548-2.57-2.957-3.579-4.35-1.1-1.517-2.185-3.014-3.921-4.65-2.757-2.596-5.202-3.982-7.822-5.466-1.765-1-3.608-2.045-5.678-3.534-1.381-.993-2.634-1.85-3.81-2.655h-.001c-3.442-2.355-6.232-4.264-9.689-7.845-1.693-1.753-2.675-4.619-3.653-7.474-1.372-4.006-2.736-7.99-6.048-8.845-2.269-.585-3.799 1.319-5.299 4.319-1.5 3 0 12 0 12s.91 6.783 3 10.5c2.435 4.333 9 9 9 9l16.5 16.5 9 10.5 12 10.5s10.414 8.281 17.999 12c2.217 1.087 4.186 1.764 6.082 2.331zm102.058 0h15.015c.69-22.815 0-41.695-1.65-45.831-3-7.5-6.005 0-6.005 3s-4.5 15-4.5 15-2.333 8.141-3 13.5c-.46 3.702-.269 6.571-.075 9.495.103 1.552.207 3.12.215 4.836zm-612.483 0c-.328-.95-.71-1.735-1.156-2.331-.827-1.103-1.655-.077-2.454 2.331h3.61zm12.344-2.331l.699 2.331h71.2c4.792-4.799 9.101-8.331 9.101-8.331s22.15-8.459 31.5-19.5c2.706-3.196 3.901-3.547 5.2-3.928 1.224-.36 2.539-.746 5.3-3.572 3.204-3.279 6.741-8.078 10.118-12.658 2.247-3.049 4.423-6 6.382-8.342 3.5-4.185 4.436-8.061 5.499-12.465.526-2.181 1.084-4.492 2.001-7.035.94-2.609 1.855-4.867 2.717-6.991 2.014-4.967 3.732-9.204 4.783-15.509 1.5-9-24 22.5-24 22.5s-4.619 13.013-12.701 19.5c-3.422 2.747-7.942 4.513-12.413 6.26-3.311 1.294-6.595 2.577-9.386 4.24-1.385.825-3.223 2.486-4.984 4.076-3.396 3.068-6.504 5.876-5.516 1.924.557-2.231-.752-6.122-2.308-10.747-2.628-7.811-5.961-17.715-2.192-25.253 3.652-7.305 6.34-10.738 9.148-14.324 1.804-2.306 3.659-4.674 5.852-8.176 3.777-6.031 7.507-12.736 10.595-18.285 2.492-4.479 4.565-8.205 5.905-10.215 3-4.5-31.5 19.681-31.5 19.681s-9.589 12.141-13.5 23.819c-3.431 10.242-6 27-6 27v28.5c0 11.13-19.5 33-19.5 25.5 0-2.105.102-4.835.22-7.995.303-8.095.711-19.013-.22-29.505-.489-5.509-1.366-9.771-2.238-14.011-.905-4.397-1.805-8.77-2.262-14.489-.622-7.768 2.72-17.333 5.825-26.223 1.563-4.475 3.066-8.779 3.974-12.596 1.093-4.598 1.437-6.871 1.689-8.537.418-2.768.583-3.859 3.512-11.144 2.392-5.951 7.21-12.38 12.026-18.807 4.789-6.391 9.577-12.78 11.974-18.693 3.247-8.011 4.209-13.236 5.244-18.857.818-4.443 1.682-9.133 3.756-15.643 2.295-7.207 1.639-10.773.851-15.049-.566-3.076-1.201-6.52-.851-11.951.445-6.926-1.217-16.112-2.645-24.008-.983-5.432-1.855-10.254-1.855-13.311 0-7.5-13.5 7.319-13.5 7.319l-6 43.5s-2.201 39.181-19.5 54c-7.382 6.324-10.989 15.267-13.98 22.68-1.368 3.393-2.608 6.466-4.02 8.82-4.5 7.5-9.421 24.923-10.5 36-.787 8.078.396 18.781 1.256 26.561.932 8.425 1.485 13.421-1.256 7.939l-13.5-27c-5.272-10.544-7.402-26.819-5.201-43.5.327-2.478.608-4.759.874-6.919v-.001c1.044-8.469 1.861-15.094 4.327-24.58 1.451-5.583 4.169-9.381 6.878-13.168 2.583-3.609 5.158-7.208 6.622-12.332 3-10.5-19.682 12.979-27 25.5-6.456 11.046-9 31.5-9 31.5s-.936 17.41 0 28.5c1.409 16.715 9 42 9 42l13.5 54z" fill="#5AFFBA" style="mix-blend-mode:multiply"/></svg>