<svg width="40" height="40" viewBox="0 0 40 40" fill="none" xmlns="http://www.w3.org/2000/svg">
<path d="M15.4588 15.1152C15.5496 14.2451 15.4588 12.8752 15.4588 12.8752C15.4588 12.8752 15.4571 12.8507 15.4588 12.8352C15.471 12.7254 15.5788 12.6352 15.6588 12.7152C15.7388 12.7952 15.9076 13.0345 16.0001 13.12C16.1084 13.22 16.1228 13.3774 16.1601 13.52C16.1974 13.6626 16.1864 13.7158 16.2001 13.84C16.2196 14.017 16.2588 14.2752 16.2588 14.2752L16.3388 14.8352V15.0752V15.44V15.96V16.32C16.3388 16.5152 16.3674 16.5273 16.4001 16.68C16.4328 16.8328 16.4707 16.967 16.5201 17.1152C16.5695 17.2634 16.557 17.3167 16.6588 17.4352C16.774 17.5692 16.8427 17.6425 16.9788 17.7552C17.0823 17.8409 17.153 17.8723 17.2588 17.9552C17.3895 18.0576 17.5788 18.2352 17.5788 18.2352C17.5788 18.2352 17.7201 18.32 18.5201 18.3152C18.6338 18.3145 19.6773 18.267 19.7388 18.3152C19.8003 18.3634 19.7966 18.428 19.8588 18.4752C19.9957 18.579 20.1619 18.579 20.2988 18.4752C20.361 18.428 20.3573 18.3633 20.4188 18.3152C20.485 18.2633 20.5374 18.2565 20.6188 18.2352C20.785 18.1917 20.887 18.2352 21.0588 18.2352C21.1994 18.2352 21.2812 18.264 21.4188 18.2352C21.5897 18.1994 21.6781 18.1387 21.8188 18.0352C21.9425 17.9442 21.9994 17.8753 22.0967 17.7577L22.0988 17.7552C22.2065 17.625 22.3388 17.3952 22.3388 17.3952L22.4988 17.0352C22.4988 17.0352 22.652 16.7277 22.6988 16.5152C22.766 16.2101 22.6988 15.7152 22.6988 15.7152L22.6188 15.2352L22.4988 14.7152C22.4988 14.7152 22.4401 14.4424 22.3788 14.2752C22.3201 14.1152 22.3086 14.0699 22.3201 13.96C22.3528 13.6493 22.3201 13.4724 22.3201 13.16C22.3201 12.9726 22.2988 12.76 22.3788 12.64C22.4588 12.52 22.5201 12.56 22.5601 12.64C22.6001 12.72 22.6127 12.7817 22.6188 12.8752C22.6356 13.1323 22.7209 13.2642 22.7788 13.5152C22.8291 13.7331 22.8316 13.8619 22.8988 14.0752C22.9702 14.3021 23.1388 14.6352 23.1388 14.6352L23.3788 15.1152C23.3788 15.1152 23.5684 15.4679 23.6188 15.7152C23.697 16.0991 23.6825 16.2935 23.6188 16.68C23.5929 16.8372 23.5936 16.9656 23.5388 17.1152C23.4834 17.2662 23.4397 17.4863 23.3788 17.6352C23.3057 17.814 23.1388 17.9552 23.1388 17.9552V18.1152C23.1388 18.3152 24.0588 17.4352 24.0588 17.4352L24.4988 17.0352C24.4988 17.0352 24.8215 16.7425 24.9788 16.5152C25.1378 16.2854 25.2988 15.8752 25.2988 15.8752L25.5788 15.3952L25.7788 15.0752L25.9388 14.7152C25.9388 14.7152 26.0033 14.5231 26.0188 14.3952C26.0338 14.2711 26.0188 14.2002 26.0188 14.0752C26.0188 13.919 26.0567 13.8267 26.0188 13.6752C25.9849 13.5396 25.9701 13.4397 25.8588 13.3552C25.7918 13.3043 25.7346 13.3117 25.6588 13.2752C25.5066 13.2018 25.4492 13.1122 25.2988 13.0352C25.136 12.9519 25.023 12.9557 24.8588 12.8752C24.6565 12.776 24.3788 12.5552 24.3788 12.5552L24.0588 12.2752L23.8188 11.9952L23.3788 11.5552C23.3788 11.5552 23.2037 11.4307 23.1388 11.3152C23.0831 11.2161 23.0588 11.0352 23.0588 11.0352C23.0588 11.0352 23.0188 10.7952 23.0588 10.7152C23.0988 10.6352 23.1396 10.5844 23.2001 10.6C23.3514 10.639 23.3503 10.9228 23.4588 11.0352C23.5825 11.1633 23.6742 11.2112 23.8188 11.3152C23.956 11.4139 24.0558 11.4393 24.1788 11.5552C24.2676 11.6388 24.2925 11.7089 24.3788 11.7952C24.4651 11.8815 24.5788 11.8752 24.6188 11.9952C24.6588 12.1152 24.8001 11.96 24.7601 11.84C24.7201 11.72 24.7506 11.7888 24.7201 11.7152C24.6734 11.6025 24.6809 11.5402 24.6188 11.4352C24.5508 11.3203 24.5364 11.2433 24.4988 11.1152C24.454 10.9623 24.442 10.8728 24.4188 10.7152C24.3937 10.5445 24.373 10.4476 24.3788 10.2752C24.383 10.1493 24.4188 9.95519 24.4188 9.95519C24.4188 9.95519 24.4988 9.79519 24.6188 10.0352C24.7388 10.2752 24.6985 10.5971 24.8588 10.9152C24.97 11.1357 25.2188 11.4352 25.2188 11.4352L25.7388 12.1152C25.7388 12.1152 26.1388 12.5152 26.0588 12.2752C25.9788 12.0352 26.1483 11.8217 26.0588 11.5552C26.0076 11.4027 25.9493 11.3281 25.8588 11.1952C25.7156 10.985 25.4188 10.7152 25.4188 10.7152L25.1388 10.3152L24.6188 9.71519C24.6188 9.71519 24.3373 9.43407 24.1788 9.23519C24.0249 9.04202 23.8188 8.71519 23.8188 8.71519L23.4588 8.11519L23.2188 7.63519C23.2188 7.63519 22.9961 7.15731 22.8988 6.83519C22.8155 6.55946 22.7388 6.11519 22.7388 6.11519C22.7388 6.11519 22.6677 5.76202 22.7388 5.55519C22.7797 5.43608 22.8588 5.03519 22.8988 5.27519C22.9388 5.51519 23.7388 6.83519 23.7388 6.83519L24.4188 7.87519L24.9788 8.71519L25.7388 9.59519C25.7388 9.59519 25.9388 9.95519 25.8588 9.43519C25.7788 8.91519 26.1318 8.37454 25.8588 7.79519C25.7535 7.57177 25.4988 7.27519 25.4988 7.27519C25.4988 7.27519 25.3574 7.06496 25.2988 6.91519C25.2574 6.80929 25.2588 6.71519 25.2188 6.63519C25.1788 6.55519 25.3422 6.61987 25.4188 6.63519C25.5934 6.67012 25.661 6.78156 25.7788 6.91519C25.9404 7.09864 26.2401 7.40001 26.2401 7.40001C26.2401 7.40001 26.3673 7.77144 26.4588 7.96001C26.5716 8.19267 26.5492 8.29832 26.5788 8.55519C26.5895 8.6483 26.5788 8.70147 26.5788 8.79519C26.5788 9.40441 26.5388 10.2752 26.5788 10.3552C26.6188 10.4352 26.6617 10.4465 26.6988 10.5152C26.7528 10.6153 26.7264 10.6943 26.7788 10.7952C26.835 10.9035 26.9225 10.927 26.9788 11.0352C27.0523 11.1765 27.0322 11.2781 27.0588 11.4352C27.2073 12.3131 27.1674 12.8314 27.0588 13.7152C27.0143 14.0771 26.993 14.2829 26.8988 14.6352C26.835 14.8738 26.7868 15.0044 26.6988 15.2352C26.6141 15.4575 26.5777 15.5891 26.4588 15.7952C26.3526 15.9792 26.2188 16.1552 26.1388 16.2352C26.0588 16.3152 26.3484 16.1608 26.4588 16.0752C26.5726 15.9869 26.6988 15.7952 26.6988 15.7952C26.6988 15.7952 26.826 15.6531 26.8988 15.5552C26.966 15.4648 27.0588 15.3152 27.0588 15.3152L27.1788 15.1152C27.1788 15.1152 27.2865 14.9497 27.3388 14.8352C27.4004 14.7004 27.4193 14.618 27.4588 14.4752C27.4971 14.3364 27.5388 14.1152 27.5388 14.1152L27.6588 13.5152C27.6588 13.5152 27.7232 13.2246 27.7388 13.0352C27.7542 12.8484 27.7157 12.7412 27.7388 12.5552C27.7566 12.4123 27.8188 12.1952 27.8188 12.1952C27.8188 12.1952 27.9388 11.8752 27.9388 11.7952C27.9388 11.7152 28.0188 11.5152 28.0988 11.7152C28.1788 11.9152 28.1744 13.4082 28.0188 14.4752C27.9914 14.6632 27.9388 14.9552 27.9388 14.9552C27.9388 14.9552 27.8635 15.2228 27.8188 15.3952C27.7864 15.5199 27.7829 15.5942 27.7388 15.7152C27.6909 15.8464 27.6671 15.9269 27.5788 16.0352C27.5017 16.1298 27.4328 16.1574 27.3388 16.2352C27.1678 16.3768 27.0735 16.4582 26.8988 16.5952C26.7144 16.7398 26.5994 16.8059 26.4188 16.9552C26.2568 17.0891 26.1821 17.1829 26.0188 17.3152C25.8537 17.449 25.7491 17.5081 25.5788 17.6352C25.3735 17.7884 25.263 17.8804 25.0588 18.0352C24.7028 18.3051 24.5058 18.4604 24.1388 18.7152C23.9075 18.8758 23.7642 18.9464 23.5388 19.1152C23.3611 19.2483 23.1667 19.2638 23.0988 19.4752C23.0606 19.5942 23.0191 19.6989 23.0988 19.7952C23.1347 19.8386 23.1695 19.848 23.2188 19.8752C23.2924 19.9159 23.3388 19.9152 23.4188 19.9552C23.4988 19.9952 23.5395 19.7837 23.6188 19.6752C23.711 19.5491 23.7651 19.4802 23.8588 19.3552C23.9057 19.2927 23.9279 19.2544 23.9788 19.1952C24.0364 19.1282 24.1388 19.0352 24.1388 19.0352C24.1388 19.0352 24.4097 18.7991 24.6188 18.7152C24.7243 18.6728 24.787 18.6559 24.8988 18.6352C25.1138 18.5953 25.2413 18.6576 25.4588 18.6352C25.7302 18.6072 25.8935 18.5946 26.1388 18.4752C26.3495 18.3726 26.3892 18.162 26.6188 18.1152C26.7259 18.0933 26.9388 18.0352 26.8988 18.1152C26.8588 18.1952 26.8666 18.493 26.7788 18.7152C26.6832 18.957 26.5561 19.0544 26.4188 19.2752C26.2079 19.6141 26.1393 19.8366 25.8988 20.1552C25.8385 20.235 25.7958 20.273 25.7388 20.3552C25.6671 20.4587 25.6508 20.5318 25.5788 20.6352C25.5091 20.7353 25.4423 20.771 25.3788 20.8752C25.3424 20.9348 25.2988 21.0352 25.2988 21.0352C25.2988 21.0352 25.2564 21.1132 25.2188 21.1552C25.1667 21.2134 25.0588 21.2752 25.0588 21.2752C25.0588 21.2752 24.9675 21.3423 24.8988 21.3552C24.8527 21.3638 24.8257 21.3552 24.7788 21.3552C24.7163 21.3552 24.6812 21.3588 24.6188 21.3552C24.303 21.337 24.1745 21.0564 23.8588 21.0752C23.5865 21.0914 23.0988 21.2352 23.2188 21.3552C23.3388 21.4752 23.2988 21.4752 23.2988 21.5552C23.2988 21.6352 23.0513 21.9753 23.0188 22.2752C23.0053 22.3994 23.0319 22.4709 23.0188 22.5952C22.9854 22.9125 22.7747 23.041 22.7188 23.3552C22.6696 23.632 22.6554 23.5343 22.7601 23.7952C22.8329 23.9764 22.9477 24.2933 23.0188 24.4752C23.1155 24.7225 23.0188 24.8896 23.0188 25.1552V25.7552C23.0188 25.7552 23.0178 26.7637 23.2988 27.3152C23.3913 27.4967 23.4849 27.5745 23.5788 27.7552C23.7314 28.0489 23.8588 28.5552 23.8588 28.5552C24.0029 28.9349 24.1858 29.1157 24.2588 29.5152C24.3206 29.8533 24.2588 30.0515 24.2588 30.3952C24.2588 30.7389 24.3854 30.9557 24.2588 31.2752C24.1644 31.5134 23.955 31.5577 23.8588 31.7952C23.724 32.1282 23.7388 32.4352 23.8588 32.7152C23.9765 32.9899 23.5065 32.5775 23.3099 32.4049L23.2988 32.3952C23.174 32.2857 23.1788 32.3152 23.0188 32.0752C22.8588 31.8352 23.2588 33.0352 23.2588 33.0352C23.2588 33.0352 23.2916 33.082 23.2367 33.161C23.2052 33.2062 23.1847 33.2386 23.1729 33.2581C23.0409 33.5248 22.85 33.6736 22.7601 33.652C22.7443 33.652 22.7336 33.6433 22.7266 33.63C22.7083 33.6052 22.7038 33.5609 22.7188 33.4952C22.4576 33.2199 22.5388 33.3552 22.4188 32.9952C22.2988 32.6352 22.3388 33.7952 22.4188 34.2352C22.4988 34.6752 21.8988 33.9952 21.8988 33.9952C21.8988 33.9952 21.7788 33.9952 21.8988 34.2352C22.0188 34.4752 21.1788 33.7552 21.2988 33.9952C21.4188 34.2352 21.3985 34.4523 21.2988 34.7152C21.193 34.9942 20.9388 35.5552 20.7788 35.2752C20.6188 34.9952 20.4988 34.8752 20.3788 34.7152C20.2588 34.5552 20.5375 35.2681 20.3788 35.5552C20.2321 35.8207 19.8188 36.4352 19.7388 35.9952C19.6588 35.5552 19.4988 34.7552 19.0988 34.9952C18.6988 35.2352 18.8588 35.2352 18.7388 35.2752C18.6188 35.3152 18.4988 33.9952 18.3788 34.2352C18.2588 34.4752 18.0188 34.5952 17.8988 34.7152C17.7788 34.8352 17.7857 34.0367 17.4588 33.9952C17.2369 33.967 17.0988 34.2352 16.9388 34.2352C16.7788 34.2352 16.9388 33.4952 16.5788 33.4352C16.4093 33.4069 16.3283 33.4102 16.1788 33.3552C15.8258 33.2252 15.7041 33.0004 15.4588 32.7152C15.2611 32.4852 15.2196 32.3025 15.0188 32.0752C14.9164 31.9593 14.8448 31.9078 14.7388 31.7952C14.5565 31.6014 14.3845 31.527 14.2988 31.2752C14.2233 31.0534 14.2988 30.9095 14.2988 30.6752V29.9552C14.2988 29.6428 14.2445 29.4629 14.2988 29.1552C14.373 28.735 14.7388 28.1552 14.7388 28.1552L15.2188 27.3152C15.2188 27.3152 15.5715 26.7075 15.6588 26.2752C15.7454 25.8465 15.5825 25.5859 15.6588 25.1552C15.7071 24.8826 15.8202 24.7493 15.8588 24.4752C15.8959 24.2122 15.8588 24.0607 15.8588 23.7952C15.8588 23.3266 16.0171 23.0363 15.8588 22.5952C15.7592 22.3178 15.6702 22.1606 15.4588 21.9552C15.2281 21.7311 15.0444 21.6555 14.7388 21.5552C14.2342 21.3896 13.8674 21.9725 13.4001 21.72C13.157 21.5886 12.8588 21.0752 12.8588 21.0752C12.8588 21.0752 12.4834 20.867 12.3788 20.6352C12.2696 20.3931 12.1571 20.2191 12.0988 19.96C12.0421 19.7077 12.1539 19.6078 12.0988 19.3552C12.0456 19.111 11.6001 18.68 11.8001 18.52C12.0001 18.36 12.6971 18.7635 13.0001 18.88C13.5201 19.08 13.5943 19.0598 13.9601 19.2C14.3291 19.3415 14.7388 19.6752 14.7388 19.6752C14.7388 19.6752 15.6588 19.9952 15.8588 20.1952C16.0588 20.3952 15.4973 19.6465 15.2801 19.3552C15.0552 19.0536 14.9901 19.1331 14.6801 18.92C14.3347 18.6825 14.1565 18.417 13.7788 18.2352C13.3757 18.0412 12.5921 17.5419 12.3788 17.3952C12.1664 17.2492 12.1602 17.2401 11.8048 16.722L11.8001 16.7152C11.4638 16.2248 11.3788 15.9152 11.3788 16.0352C11.3788 16.0352 11.1842 15.4837 11.1388 15.1152C11.0968 14.7741 11.1388 14.2352 11.1388 14.2352C11.1388 14.2352 11.2588 12.7152 11.3788 12.8752C11.4988 13.0352 11.4424 13.7092 11.5388 14.2352C11.6023 14.5818 11.6128 14.7861 11.7388 15.1152C11.8463 15.3958 11.9308 15.5461 12.0988 15.7952C12.3091 16.1071 12.8188 16.7152 12.7388 16.5152C12.6588 16.3152 12.3788 15.1152 12.3788 15.1152L12.0988 14.0752L11.7388 12.8752L11.3788 11.4352C11.3788 11.4352 11.1764 10.7609 11.1388 10.3152C11.1139 10.0194 11.1388 9.55519 11.1388 9.55519C11.1388 9.55519 11.2066 9.00973 11.3788 8.71519C11.574 8.38129 12.1788 7.75519 12.0988 8.03519C12.0188 8.31519 11.8144 8.42438 11.7388 8.71519C11.6563 9.03268 11.643 9.22997 11.6001 9.55519C11.5414 10 11.5982 10.434 11.7388 10.7152L12.0988 11.4352C12.2394 11.7164 12.0551 10.9639 12.0988 10.5152C12.1276 10.2198 12.2588 9.75519 12.3788 9.55519C12.4988 9.35519 12.5719 8.96099 12.8588 8.71519C13.3201 8.32001 13.3788 7.27519 13.3788 7.27519L13.5388 6.11519C13.5388 6.11519 13.8988 5.72001 13.8988 5.92001C13.8988 6.12001 14.0389 6.60342 14.0188 6.91519C13.9965 7.26132 14.1241 7.30471 14.0188 7.63519C13.8935 8.02843 13.9338 8.17272 13.7788 8.55519C13.6506 8.87137 13.2661 9.23865 13.1388 9.55519C13.0137 9.86638 13.0777 9.75372 13.0001 10.08C12.9278 10.384 12.7139 10.8038 12.7388 11.1152C12.7628 11.4147 12.8322 11.5759 12.8588 11.8752C12.8933 12.2642 12.8588 12.6752 12.8588 12.8752C12.8588 13.0752 13.3788 12.492 13.3788 12.1952V11.4352C13.3788 11.4352 13.4473 10.9883 13.5388 10.7152C13.6431 10.4038 13.8988 10.08 13.8988 10.08C13.8988 10.08 14.8188 9.43519 14.7388 9.55519C14.6588 9.67519 14.4808 10.0245 14.2988 10.3152C14.1493 10.5539 14.0588 10.5952 13.8988 10.9152C13.7388 11.2352 14.0588 11.7152 14.0188 11.8752C13.9788 12.0352 14.1906 11.7797 14.2988 11.7152C14.4738 11.6109 14.7213 11.5627 14.8801 11.4352C15.0956 11.2622 15.2188 10.9152 15.2188 10.9152C15.2188 10.9152 15.8988 10.0752 15.8588 10.3152C15.8188 10.5552 15.7425 10.6828 15.6588 10.9152C15.585 11.1199 15.5984 11.2683 15.4588 11.4352C15.3281 11.5914 15.1611 11.8495 15.0188 11.9952C14.8671 12.1504 14.879 12.0296 14.7388 12.1952C14.4895 12.4896 13.8988 12.7152 13.8988 12.7152C13.8988 12.7152 13.5297 13.0177 13.3788 13.2752C13.2138 13.5566 13.1388 14.0752 13.1388 14.0752C13.1388 14.0752 13.0579 14.7172 13.1388 15.1152C13.1949 15.3912 13.2646 15.5378 13.3788 15.7952C13.5093 16.0892 13.5939 16.252 13.7788 16.5152C13.9571 16.7689 14.2988 17.1152 14.2988 17.1152L15.0188 17.7552C15.0188 17.7552 15.8988 18.5952 15.8588 18.2352C15.8188 17.8752 15.5914 17.6838 15.4588 17.3152C15.3484 17.0083 15.2584 16.839 15.2188 16.5152C15.1515 15.9646 15.4012 15.6669 15.4588 15.1152Z" fill="#9466FF"/>
</svg>
